<?xml version="1.0" encoding="utf-8"?>
<!-- Generator: Adobe Illustrator 15.0.0, SVG Export Plug-In . SVG Version: 6.00 Build 0)  -->
<!DOCTYPE svg PUBLIC "-//W3C//DTD SVG 1.1//EN" "http://www.w3.org/Graphics/SVG/1.1/DTD/svg11.dtd">
<svg version="1.1" id="Layer_1" xmlns:amcharts="http://amcharts.com/ammap"
	 xmlns="http://www.w3.org/2000/svg" xmlns:xlink="http://www.w3.org/1999/xlink" x="0px" y="0px" width="1920px" height="1200px"
	 viewBox="0 0 1920 1200" enable-background="new 0 0 1920 1200" xml:space="preserve">
<defs>
		<style  type="text/css">
		g#mapPaths{
							fill: #e8e3c4;
				stroke: #5d5c56;
				opacity: .8;
		}
		#mapPaths path{
		fill: #ffcc80;
		stroke: #000;
		}
	</style>
	
		<amcharts:ammap  projection="mercator" leftLongitude="112.901452" topLatitude="-10.132839" rightLongitude="158.966830" bottomLatitude="-54.757221">
		</amcharts:ammap>
</defs>
<g id="mapPaths">
	<path id="AU-NT" fill="#CCCCCC" stroke="#FFFFFF" stroke-width="0.5" d="M604.882,53.894V53.24l1.696-1.43l-4.104-1.832l0.93-1.433
		l1.149-0.381l4.187,0.092l0.271-0.635l-0.3-1.723l-0.82-1.068l0.767-0.743l2.654,0.091l2.953,1.268l3.885,0.126l2.735,1.306
		l1.668,0.162l13.022-0.579l3.885,0.815l4.787-2.174l4.076,0.053l1.668,2.103l-1.012,1.45l1.614-1.088l0.22-0.472l-0.603-2.337
		l0.574-0.708l3.968-0.942l3.118,0.761l1.969-0.109l-1.147-0.089l-2.107-1.034l-0.329-0.924l0.218-5.746l1.668-1.741l-4.484-2.211
		l-1.506-1.413l-1.229-0.508l-2.243-0.272l-4.24,0.471l-3.665,1.307l-0.576-0.038l-2.871-1.903l-0.575-1.306l-3.12-1.104
		l-2.791,0.165l-0.189-0.219l3.255-2.574l3.282-0.997l3.148,2.046l2.24,3.517l1.149,0.074l0.902-1.089l-1.286-2.646l-1.366-1.631
		l1.041-0.163l2.815,0.633l1.915-0.668l4.842,2.682l0.301,0.87l4.706,3.986l1.613,0.236l1.368-0.707l3.036-3.009l1.286,0.073
		l2.325,1.649l4.458,5.347l1.095,0.581l2.024,0.397l1.669-0.742h1.479l1.504,1.45l4.212,1.177l2.025,0.036l1.449-0.308l2.875-1.033
		l1.094-0.978l3.227,0.36l0.329,0.618l-2.052,0.778l-0.467,0.473l0.139,0.488l0.931,0.58l2.134,0.6l1.641-0.509l0.876-0.76
		l0.685-0.073l4.021,2.031l-0.355,0.38l0.41,1.614l0.574,0.308l4.843-0.47l1.532,0.416l2.817,0.164l2.461-0.199l2.188-1.107
		l2.927-0.109l2.955,2.72l3.748,1.288l2.571,1.413l3.229,0.199l1.15,0.344l-0.165-0.38l1.203-2.065l1.833-1.217l1.532-0.435
		l1.723,0.508l4.405-0.345l2.271-1.214l-0.684-0.253l-1.696,0.67l-0.302-0.49l0.632-1.504l2.735-0.489l2.022,0.037l3.775-1.994
		l-0.11-1.396l1.094,0.017l1.013,0.781l-0.903,0.961l-5.06,2.844l1.258,0.98l-3.419,2.32l-0.139,0.634l0.574,0.945l1.396,0.869
		l1.503-0.437l0.438-0.814l2.435-1.324l4.131-0.797l-2.518,2.102l1.013,1.015l2.188-0.67l0.521,0.6l-2.382,2.282l0.821,1.343
		l0.874,0.542l1.233-0.526l2.242-0.162l0.409,0.472l2.052-0.129l1.587-0.815l2.081-3.498l-0.793-0.688l-2.817,0.235l-1.806-0.506
		l-0.138-0.488l3.092-2.031l5.033-2.23l3.311-0.4l-0.684,1.506l1.858,3.461l2.107,2.029l1.341-0.018l1.146-0.543l-0.082-0.436
		l-1.941-0.469l0.165-0.381l2.407-0.4l3.012,1.015l3.035,2.719l-5.17,2.394l-1.754,1.341l-3.008,3.208l-0.685,2.428l-3.747-0.924
		l-0.3,1.341l1.833,2.249l-0.029,1.939l-0.491,1.902l-2.079,2.067l-0.274-0.636l-2.407,0.545l0.109-3.571l-0.466-0.307l-0.93,0.143
		l-1.175,2.104l-2.544,1.466l-1.204,0.057l-0.41-0.782l-1.45-0.378l-3.091,0.797l-1.969,1.069l-1.068,1.214l0.081,0.562l1.205,0.617
		l-0.792,1.178l-1.314,0.724l-0.547,2.266l1.284,2.52l1.151,0.417l1.641-0.271l1.287-0.959l-0.166,1.502l-0.929,2.103l-1.888,1.921
		l-0.82,3.642l-0.822,1.052l-3.447,1.541l-3.912,3.353l-2.405,2.755l-0.056,1.469l-3.722,1.666l-1.203-0.019l1.833,3.517
		l1.256,1.251l1.972,1.106l3.804,0.906l5.388,2.285l2.765,1.666l7.96,2.736l0.849,0.491l0.71,2.484l1.642,1.266l7.386,2.339
		l3.037,1.667l2.764,1.993l7.851,0.219l3.146,1.086l6.894,3.245l3.53,0.997l1.642-0.036l3.063,0.67l2.71,0.889l3.61,3.807
		l4.212,2.374l0,0v198.557l0,0l-200.958,0.019l0,0l-39.585-0.019l0,0l-26.563,0.128l0,0l-0.163-184.149l0,0v-38.042l0,0V98.806l0,0
		l2.652,0.58l2.845,1.631l-0.329,3.699l0.492,0.399l1.942-1.596l-1.121-4.913l0.329-0.452l3.063,0.561l3.829,1.287l6.129,4.532
		l0.246,0.979l1.641-0.416l-2.023-1.759l-1.095-1.505l-0.384-1.502l0.656-0.854l0.329-1.358l4.569,0.526l1.887-0.418l2.381-1.521
		l-5.308,1.104l-2.683-1.142l-2.132-1.848l-0.493-0.943l1.094-0.363l2.354-0.163l1.942-0.905l0.11-0.437l-3.339,0.743l-3.557-0.435
		l-2.517-0.96l-2.872-1.814l0.354-1.612l1.78-2.246l1.832-1.614l7.141-2.974l1.614-5.038l-0.164-0.924l1.395-3.643l2.105-1.45
		l0.275,1.268l1.039,0.398l2.871-0.344l3.639-1.631l2.981-2.084l-0.302-0.743l-1.859-1.685l-1.013-0.561l-1.012-0.146l-0.246-0.435
		l0.274-3.552l0.49-0.888l1.232-0.362l0.408,0.507l0.878,0.271l1.121-0.162l1.915-0.907l0.766-1.105l-0.273-2.665l0.303-0.67
		l4.594-1.36l2.734,2.067l2.628-0.127l-2.518-0.491l-0.848-2.121l0.793-1.287l0.218-1.594l-0.902-0.454l1.451-0.397l4.212,0.887
		L604.882,53.894z M606.741,39.864l-2.897-1.593l-5.444-1.487l-5.472-2.845l-2.216-3.861l-1.586-3.897l0.219-1.467l0.628-0.327
		l4.132,2.392l1.231,1.323l3.912,0.816l4.157-0.653l1.615-0.997l3.117,0.889l3.476-1.777l0.901-0.054l0.602,1.359l1.531,1.449
		l0.139-0.506l-1.012-1.688l0.354-0.995l1.972-1.033l4.35,1.159l3.284,2.864l0.244,1.505l-7.578,5.274l-0.957,0.09l-3.664,1.558
		L606.741,39.864z M783.437,84.833l0.467-0.508l1.285-0.055l-0.767,2.538l-1.559,0.398l-4.104-0.724l-3.529,0.344l-7.551-1.251
		l1.042-3.46l-0.22-1.486l0.686-1.686l0.848-0.961l4.021-0.508l0.956-0.489l-0.848-1.269l2.489-1.378l1.286,0.055l-0.218,0.925
		l-1.15,0.525l1.094,2.104l2.817,0.326l0.984-0.688l-0.299-0.69l0.547-0.489l0.985-0.179l0.874,0.415l0.219,0.744l-2.925,1.995
		l-1.562,0.67l-1.834,2.699l0.057,1.867l0.848,0.491l3.967,0.398L783.437,84.833z M592.901,37.852l-4.927-1.25l-6.864,1.162
		l-1.643-0.219l-0.465-0.489l-0.218-0.527l1.641-1.975l1.367,0.543l1.121,0.036l1.096-0.707l-0.083-2.771l-0.492-0.853l2.435-2.81
		l2.626-0.362l4.378,7.25l2.104,0.361l2.217,1.325l-0.685,0.995L592.901,37.852z M771.4,30.223l0.107-0.925l4.022-3.862l2.544-3.406
		l1.34-0.473l-1.449,3.698l-4.843,4.496l-0.656,0.398L771.4,30.223z M655.354,27.993l-0.877-0.615l-1.039-1.904l-0.875-3.316
		l2.271-0.583l1.422,3.102l-0.055,1.957L655.354,27.993z M787.759,118.237l-1.695-0.834l-1.859-1.831l0.546-1.052l1.697-1.105
		l1.34,1.105l1.122,2.412l-0.766,1.285L787.759,118.237z M762.427,78.398l0.082-0.725l-0.957-1.106l-0.766,0.345l0.465,0.961h-1.259
		l-0.466-0.38l0.273-1.687l2.6-1.359l1.258,0.146l1.313,1.177l-0.41,1.286l-0.985,1.051L762.427,78.398z M761.88,34.898v-0.924
		l2.708-1.431l2.244-0.072l3.94-2.03l-0.275,0.997l-2.981,1.504L761.88,34.898z M772.03,114.502l-0.768-0.254l0.603-1.703
		l1.698-0.762l0.846,0.253l-0.52,2.23L772.03,114.502z"/>
	<path id="AU-WA" fill="#CCCCCC" stroke="#FFFFFF" stroke-width="0.5" d="M110.225,331.604l0.522-0.672l0.026-2.665l-6.646-4.657
		l-3.53-4.387l-3.228-5.42l-3.144-1.268l-2.683-5.039l-0.247-0.961l0.328-1.956l-1.832-2.013l-3.748-2.9l-1.067-2.066l-0.164-4.259
		l1.203-2.066l0.658-2.646l2.543-5.438l2.052-2.719l4.213-2.194l0.737-1.83l0.411-2.445l-0.658-2.828l1.725-3.481l-0.329-2.067
		l-1.614-2.953l-2.435-2.285l-0.438-1.72l4.269-5.729l3.966-7.558l2.873-2.828l1.75-0.652l2.188-0.254l0.383,0.508l-1.477,1.848
		l-1.449,5.563l1.914,2.683l-0.929,3.916l1.285,0.87l6.483-1.812l0.821-2.265l1.805-3.064l4.897-5.638l0.767-1.74l8.671-3.188
		l3.255-0.164l5.716-1.885l6.128-1.559l4.979-3.897l1.806-0.923l3.75-1.07l3.526-3.517l6.977-2.157l0.766-1.341l1.889-0.688
		l1.805-0.145l4.925-1.161l3.884-1.595l3.008-1.686l2.409,0.344l1.286,0.852l1.312,0.238l5.663-2.012l2.927,0.669l0.958,0.725
		l2.079,0.618l2.215,0.27l1.887-0.018l8.292-1.124l4.896-1.413l6.511-4.151l3.255-1.286l0.41,0.525l1.257,0.019l9.22-1.015
		l3.337,0.126l4.269-0.941l4.431-3.519l0.877-1.576l2.98-1.505l3.229-0.199l7.276,1.196l4.377,1.124l6.046-2.067l13.486-1.305
		l2.9-0.634l16.086-4.44l4.432-1.521l7.414-4.097l6.291-5.638l4.488-6.398l4.103-3.661l-0.355-1.667l1.067-1.559l0.711-0.453
		l1.944,0.307l1.476-0.526l2.188-1.16l1.586-1.54l1.833-0.598l6.209-3.246l0.904-1.45l-0.165-1.124l-0.875-0.543l-2.354-0.435
		l-1.341-1.322l-0.329-3.88l-1.749-3.008l0.08-4.006l0.932-2.447l2.435-2.772l3.638-2.284l2.023-0.851l3.777-0.019l-1.504-2.23
		l1.258-1.124l0.821-0.217l0.656,0.417h0.711l3.337-0.761l0.302-0.58l-0.767-0.743l0.71-1.976l0.849-0.633l1.559-0.219l1.559-1.142
		l0.165-1.125l0.628-0.67l2.107-0.507l2.023,1.341l-0.626,0.525l-1.478-0.108l-0.986,2.265l1.888,1.703l2.271,0.942l0.603,1.559
		l5.688,7.051l7.305,7.74l0.656,1.687l0.548-1.795l-1.013-1.304l0.11-1.614l1.641-3.299l-1.342-2.72l0.549-1.558l1.887-0.036
		l3.775,3.027l2.189,1.304l1.066,0.309l0.738-0.272l-1.148-0.364l-1.368-1.123l-1.067-2.827l2.817-2.14l-0.983-0.343l-2.27,0.453
		l-0.465-0.219l-1.452-2.049l-3.255-2.337l0.165-2.229l-3.337,0.036l-2.27-1.36l2.024-0.053l4.377,0.652l2.023-2.03l0.248-1.051
		l-0.302-0.797l-3.312-0.435l-1.065-0.635l-0.083-1.794l0.41-0.58l4.625-0.672l2.379,1.233l-0.655,0.961l-1.533,0.272l3.175,2.21
		l1.556,0.218l0.057-0.798l2.132-1.92l3.613,0.345l1.586,0.469l0.793,0.345l1.066,1.685l0.822,0.381l3.063,0.111l1.532-1.163
		l2.708,0.872l3.064,0.199l4.459-0.417l3.172,0.924l1.697-0.471l-2.297-0.146l-3.502-1.086l-2.435-0.381l-1.56-0.073l-2.433,0.472
		h-1.834l-0.521-0.361l-0.738-2.194l1.616-2.427l1.202-0.182l1.422,1.433l2.217-1.016l-0.219-1.867l0.875-2.12l3.337-2.229
		l-1.667-0.454l-1.616,0.31l-2.407,2.718l-1.396,0.02l-2.599-1.488l-0.849-3.987l2.547-3.86l0.929-0.271l2.762,1.049l2.216-0.76
		l0.52-0.508l-0.328-3.894l1.258-0.201l6.156,2.085l2.407,1.54l5.58,1.794l-3.117-1.83l-0.166-0.454l1.424-1.722l-0.629-0.436
		l-2.544-0.017l-2.955,0.725l-0.329-1.161l1.093-1.013l1.149-0.362l0.848,0.362l1.177-1.34l-0.932-0.164l-3.883,1.703l-0.822-0.017
		l-0.874-1.542l0.958-0.815l1.285-0.398l1.75,0.344l0.629-0.127l1.56-0.726l-0.438-0.688l1.779-0.834l2.051,3.063l0.521,0.217
		l0.3-0.87l-0.382-1.74l3.501,1.36l0.082,0.724l1.176,0.381l2.764-0.091l0.604-0.38l-0.52-0.29l-0.903,0.054l-0.794-0.472
		l0.875-0.56l-3.227-1.524l-2.929-0.961l0.986-0.76l0.792-0.18l-3.173-3.119l3.2-3.027l2.766-1.521l1.558,0.434l5.966,0.092
		l0.3-2.465l-0.574-2.374l0.381-1.36l0.767-0.38l3.282,1.033l-2.57,7.214l0.547-0.381l1.833-4.186l3.585,1.213l-0.548,2.176
		l0.573,0.705l1.75,0.727l2.627-1.939l1.396-0.653l0.846-3.461l2.272-3.063l0.109-1.271l-1.943-3.298l-1.887-0.798l1.476-0.218
		l2.381,0.236l2.052,0.689l-0.247,1.522l-1.53,0.437l1.011,2.209l1.257,0.237l1.587,1.07l0.769-0.799l-0.549-1.069l1.178-1.812
		l2.897-1.523l2.108-0.199l-1.396,2.266l3.365,2.88l0.958,0.182l3.064-2.139l2.543-3.064l-1.284-3.551l3.336-0.889l2.9-0.453
		l1.832,0.979l1.697,1.45l-0.521,0.763l2.105,1.72l0.739-0.779l0.027-0.653l2.6-0.07l5.443,1.159l2.846,2.664l4.077,1.813
		l8.89,8.193l1.285-0.416l5.035,2.863l0.546,1.976l-1.423,1.36l-2.106,4.711l0.304,2.14l-0.193,3.86l-1.561,2.065l1.424-0.544
		l0.82-0.761l1.04-4.458l1.478,0.398l2.242,1.467l0.875,1.923l0.138-1.959l-1.997-2.303l-0.958-2.536l3.391-3.083l0.604,0.072
		l0.793,2.592l2.816,0.055l0.3-0.925l-1.175-1.412l-0.931-2.664l4.405-0.835l13.787,2.284l0,0v10.695l0,0v38.043l0,0l0.165,184.133
		l0,0l-0.354,127.271l0,0l-6.156,1.776l-7.086,2.737l-11.023,3.316l-5.063,1.341l-8.151,1.052l-11.956,3.064l-6.236,0.724
		l-12.993,0.398l-8.535-0.543l-6.539-1.251l-3.283,1.067l-2.871-0.416l-4.926,1.776l-8.645,4.713l-2.106,0.616l-4.213,0.599
		l-9.108,3.337l-3.447,2.046l-3.939,1.577l-10.205,1.106l-3.583,0.941l-2.735,1.485l-2.49,2.104l-3.091,5.944l-1.396,3.898
		l-2.845,1.32l-2.681,1.868l-1.012,1.34l-0.029,0.634l-1.313,0.961l-4.458,2.013l-5.116-0.254l-0.766,0.2l-1.777,1.595l-1.367,0.688
		l-2.025,0.436l-1.996-3.117l-2.463-0.689l-5.143,1.16l-3.42-0.325l-4.049,0.108l-0.548,0.362l-4.239,0.289l-2.354-0.308
		l-1.669,0.434l-1.065,0.816l-0.328,1.197l-3.939,0.271l-1.15-0.255l0.629-0.886l-0.875-2.051l-1.724-1.466l-0.602-0.145
		l-2.297,0.271l-1.642,1.033l-2.407,0.452l-7.66-1.83l-1.833-0.091l-3.721-0.054l-8.453,0.979h-5.608l-2.108,0.743l-7.468,0.688
		l-3.664,1.342l-4.87-0.814l-7.357-0.254l-5.69,1.16l-2.189,1.595l-3.639,1.288l-1.559,1.176l-2.462,2.863l-0.41,1.451l-4.214,2.737
		l-3.474,1.359l-3.858-0.906l-4.978-0.308l-5.117,2.302l-0.602,0.597l1.041,0.764l-1.041,0.78l-2.406,0.978l-4.789,1.032
		l-1.751,1.197l-0.904,1.576l-3.146,1.561l-5.936,2.102l-7.25,0.871l-0.109,0.489l0.711,0.507l4.104,0.598l-1.834,0.689
		l-2.241-0.271l-2.217-1.16l-1.696-0.418l-1.86,0.073l-0.93,0.436l-0.685,1.648l-2.27-1.195l-5.963-1.666l-11.354-0.038l-1.559,0.96
		l-0.684,0.019l-4.403-0.94l-3.64,0.378l-4.211-0.797l-7.223-3.188l-7.222-1.107l-1.778-2.771l-2.954-2.265l-4.925-3.338
		l-4.515-1.992l-5.387-1.867l-2.161-0.164l-2.161,0.344l-1.369,1.178l-3.364-2.375l0.026-2.048l-1.558-7.321l-0.11-4.096
		l1.286-3.952l1.259,0.236l1.832,1.812l3.528,0.999l2.817-0.166l2.408-0.579l0.984-0.381l8.399-8.012l-1.286-6.598l-2.215-7.25
		l0.683-1.577l2.27-1.866l-0.109,0.743l-1.695,1.251l-0.055,0.942l1.203,2.266l0.822,0.815l0.547-0.253l-0.056-1.27l1.37-3.335
		l-0.877-5.837l0.685-2.989l-0.521-2.229l0.163-4.658l-1.121-4.079l-0.712-1.287l-7.25-8.754l-2.051-4.06l-1.723-2.646l-4.241-4.895
		l-3.583-6.072l0.218-0.616l-0.929-4.604l-1.971-4.493l-0.601-0.346l0.138-8.791l1.066-4.114l-1.478-3.426l-0.766-0.815
		l-0.463-2.102l-1.561-2.449l-6.402-5.037l-0.821-1.65l-0.218-3.661l-2.408-3.226l-5.798-5.746l-2.244-0.907l-2.298-2.174
		l-1.777-5.311l0.382-1.649l0.985-1.542l-0.574-2.302l-1.45-3.352l-4.049-5.563l-4.104-5.094L90.75,346.7l-9.055-6.381l-1.668-3.497
		l1.368-1.813l-0.193-2.013l0.11-0.525l0.574-0.271l0.493,4.239l0.904,1.234l0.928-3.479l4.404,3.604l0.603,1.18l0.354,3.716
		l0.684,1.34l2.189,1.85l0.932,0.126l0.081-0.562l1.914-0.87l1.26,0.2l2.133-2.105l0.164-3.73l-2.132-1.886l-4.077-1.776
		l-3.01-2.065l-1.723-4.713l-3.009-3.226l0.519-1.794l1.806-1.902l0.849,0.416l2.762,3.299l3.146,1.793l1.095,2.049l-0.71,2.573
		l-0.821,0.598l0.083,1.85l0.875,1.687l1.504,0.09l1.012-0.725l2.379-3.045l1.56,5.111l0.822,1.396l3.282,2.918l3.721-1.94
		l0.792-1.756l-0.901-0.854l-0.577-1.539l1.014-4.223L110.225,331.604z M79.507,334.739l-0.876-0.473l-4.404-4.423l-2.215-2.953
		l-1.368-3.407l0.191-1.902l1.177-1.125l1.476,0.235l-0.601,0.961l0.109,0.598l3.502,6.633l3.01,3.625l0.601,1.43L79.507,334.739z
		 M415.577,110.426l-0.246-0.563l-1.587-0.978l0.247-0.907l0.738-0.78l1.943-0.526l2.572,2.845L415.577,110.426z M143.737,222.363
		l-1.011-0.561l-0.738,0.471l-0.219-0.164l0.027-1.106l3.036-2.719l0.985-0.398l0.355,0.128l0.411,1.431l-0.136,0.635l-1.723,1.776
		L143.737,222.363z M433.88,94.294l-1.56-0.563l0.191-1.542l0.684-1.16l1.394-0.96l1.37,1.017l-0.686,2.209l-1.066,0.346
		L433.88,94.294z"/>
	<path id="AU-ACT" fill="#CCCCCC" stroke="#FFFFFF" stroke-width="0.5" d="M1143.774,558.58l-3.447-1.16l-3.94-3.896l-0.793-1.433
		l0.057-3.335l1.423-4.64l7.795-3.808l3.476,1.306l1.561,1.214l2.733,0.671l1.832,0.779l-1.339,0.796l-2.766-0.252l-2.214,0.705
		l-1.424,1.306l-1.693,4.513l0.655,4.983l-0.219,0.709L1143.774,558.58z"/>
	<path id="AU-NSW" fill="#CCCCCC" stroke="#FFFFFF" stroke-width="0.5" d="M1171.54,597.495l-52.661-17.581l-2.68-0.146l2.405-2.755
		l0.302-1.759l-2.735-3.696l-1.887-1.596l-1.533-8.01l-3.228-1.361l-4.979-1.413l-2.546,0.653l-4.183-0.525l-2.766,0.308
		l-2.762,2.283l-2.681,0.163l-4.979,1.162l-3.993-0.184l-6.622-1.374l-2.651-1.378l-3.065-0.309l-1.859,0.162l-1.038,0.725
		l-3.119,0.889l-6.156-0.364l-8.479-1.068l-2.079-0.578l-3.501-2.231l-2.161-1.125l-0.737-0.055l-2.244,0.329l-2.6,0.939l-2.6-0.161
		l-1.012-0.544h-3.639l-3.72,0.636l-0.548,0.435l-1.041,2.501l0.468,2.465l-5.254,0.979l-1.148-0.2l-3.666-1.413l-6.239-4.841
		l-1.529-2.318l-0.685-0.471l-1.697-0.362l-3.008-1.777l-2.298-2.103l-5.087-1.795l-4.571-2.301l-2.104-0.508l-1.23,0.182
		l-1.834-0.906l-0.492-0.507l0.685-1.378l-1.148-1.178l-2.406-0.397l-2.216-0.906l-1.368-1.994l-0.794-2.99l0.711-2.375l0.027-1.504
		l-0.383-0.379l-6.318-2.284l-4.434-0.2l-3.501-0.943l-0.41-0.651l-1.86-0.816l-1.697,0.38l-0.521,0.489l-0.955,2.81l-1.342,1.123
		l-2.515-0.324l-1.013-0.78l0.08-0.474l-1.586-2.807l-2.569-1.579l-0.138-3.407l-4.13-4.604l-2.381-1.087l-3.42-1.034l-4.649,0.635
		l-4.405-0.761l-2.624,0.669l-1.669,1.524l-1.452,0.506l-0.52-0.472l-3.309-1.342l-4.869-1.503l-5.117-0.254l-0.901-0.164
		l-1.396-0.907l0,0l0.138-115.453l0,0l3.526-0.02l0,0l59.638,0.02l0,0h46.262l0,0h37.695l0,0h88.988l2.271-0.745l3.474-2.88
		l9.492-5.347l3.282-0.6l0.767,0.091l0.467,0.653l2.599,0.506l9.139-0.525l4.265-1.087l4.022-0.327l0.818,0.129l2.272,1.558
		l2.052,0.924l4.951,0.091l4.485-0.618l7.497,2.269l7.576,4.332l0.356,3.407l1.202,1.775l0.656,0.199l1.449-0.237l1.422-0.995
		l2.683-3.625l5.116-1.503l1.094,1.396l1.832,0.58l5.689-1.813l0.959-3.641l-2.684-4.026l2.873-1.503l3.34-1.087l5.904-1.287
		l1.208-0.545l0.599-1.014l1.7-0.942l1.314,0.126l1.94,1.324l4.865,0.708l5.556-0.382l4.896,0.217l2.272-1.993l3.967-0.49
		l3.253-0.833l2.219-1.195l0,0l2.132,1.287l0.412,1.467l-0.958,4.841l0.546,2.538l1.366,1.229l-0.545,4.496l-4.677,4.062
		l-3.284,6.38l0.818,1.576l-3.307,12.486l-1.451,3.663l-5.524,10.294l-0.383,6.073l0.467,1.106l1.036,0.091l0.521,1.395
		l-3.034,6.742l-3.695,9.497l0,0l-2.628,3.554l-6.018,5.038l-1.366,2.357l0.876,3.063l-0.356,3.244l-5.17,2.901l-2.217,1.703
		l-4.567,1.885l-0.246,0.997l0.736,1.051l-5.689,1.324l-4.184,1.43l-4.24,4.224l-2.815,4.622l-0.659,0.363l-1.503,0.073
		l-1.396,0.743l-0.302,1.068l1.256,0.744l-0.954,2.521l-3.393,3.009l-1.287,6.344l-0.713,1.704l-1.065,0.542l-1.722-0.127
		l-2.327,0.615l1.643,0.292l1.202,0.744l-2.407,2.59l-2.683,1.324l-2.653,2.591l-2.787,5.384l1.203,0.978l-1.478,4.458l-1.915,0.8
		l-0.604,1.377l1.041,2.011l2.078,1.432l-0.465,1.596l-0.792,0.451l-0.984-0.705l0.353-0.49l-0.41-1.105l-0.792-0.056l-1.888,0.78
		l-0.22,0.797l0.768,1.232l-1.669,1.232l-3.172,1.159l-1.614,2.013l-0.167,1.014l-2.188,4.206l-1.505,1.614l-5.745,8.337
		l-0.738,4.149l-0.054,5.259l-1.725,1.483l-1.589,5.835l-1.694,4.077l-1.888,3.155l0.139,3.572l2.955,2.265l0.383,1.703
		l-0.026,0.816l-0.877-0.184l-1.26,0.618l0.056,2.863L1171.54,597.495z M1145.47,557.04l0.219-0.726l-0.654-4.984l1.692-4.496
		l1.425-1.323l2.242-0.706l2.765,0.254l1.312-0.779l-1.832-0.779l-2.733-0.652l-1.561-1.232l-3.476-1.305l-7.795,3.807l-1.424,4.64
		l-0.056,3.354l0.793,1.432l3.968,3.896l0.71,0.396l2.981,0.671L1145.47,557.04z"/>
	<path id="AU-SA" fill="#CCCCCC" stroke="#FFFFFF" stroke-width="0.5" d="M765.517,517.383l-2.953,3.153l-2.408,0.707l-2.543,2.881
		l-3.063,1.269l-1.832,2.411l-2.106,4.224l0.738,0.233l1.313-0.107l3.966-1.849l0.411,1.25l-0.465,4.694l-1.424,0.397l-0.792-0.995
		l-2.488-1.83l-1.78-0.726l-1.86,0.181l-1.312,2.05l-1.069-0.021l-1.119-1.433l-3.914-3.388l-4.402-3.01l-2.325-1.231l-0.958-0.199
		l-3.063,0.706l1.177-2.157l1.697-1.612l0.135,1.485l3.884,2.755l1.562,0.708l2.953-0.635l-3.008-0.798l-0.383-0.743l-0.164-0.616
		l0.491-0.725l-1.312-4.894l-2.271-4.006l-0.354-2.683l-2-2.049l-4.76-3.552l-5.717-3.083l0.82-2.266l-0.301-1.63l-1.479-2.791
		l-3.009-4.116l-3.393-0.869l-5.5,0.579l-2.353,0.891l-1.807-1.342l0.029-0.598l-2.189-3.86l-3.61-5.438l2.38,0.108l1.175,0.724
		l0.41,1.18l2.025-1.831l0.602-1.195l-0.602-2.067l-2.105-1.976l-1.862-1.069l-0.846-0.091l-4.706,0.979l-1.915,1.215l-1.121-0.146
		l0.056-1.885l0.846-1.288l1.505,0.398l0.492-0.542l-3.691-3.408l-2.981-1.161l-1.86-1.105l0.326-0.852l-2.023-0.417l-0.738,0.397
		l-0.438,1.18l-2.434,1.015l-9.465-0.436l-0.902-0.146l-2.082-1.485l-2.733-0.653l-4.184-2.627l-1.424-0.505l-5.964-0.474
		l-2.845,0.379l-2.216,1.359l-2.571,0.599l-1.858,0.093l-2.053-0.346l-5.005-3.353l-7.66-3.682l-12.009-4.112l-6.43-1.596
		l-0.983,0.072l-3.038,1.631l-5.004,1.288l-1.507,0.127l-15.757-0.779l-3.393,0.073l-6.32,0.325l-2.898,0.489l-17.999,1.015
		l-6.838,0.743l0,0l0.162-127.2l0,0l26.563-0.126l0,0l39.585,0.018l0,0l200.958-0.018l0,0h89.099l0.084,66.246l0,0l-0.138,115.456
		l0,0l-0.766-0.672L904,611.175l0,0l-3.475-0.235l-2.354,0.471l-2.161-0.054l-5.006-1.775l-5.17-3.444l-3.501-4.692l-3.475-3.499
		l-2.132-0.999l-1.672,0.057l-5.332-4.75l-1.861-2.463l0.932-1.269l-0.083-0.997l-1.395-2.302l0.546-2.266l2.106-1.161l1.148-1.958
		l-0.027-3.281l-1.093-2.591l-5.2-8.392l-8.206-7.25l-5.415-3.86l-3.173-1.705l1.448,0.309l8.097,4.695l5.362,4.874l2.271,3.101
		l-0.326-1.686l-1.369-2.557l-1.12-1.106l-3.531-2.699l-10.342-6.562l-0.055-2.14l1.834-0.488l2.243,1.286l-0.273,3.026l0.465,0.418
		l2.79-0.2l0.767-2.104l0.356-3.206l-0.494-2.304l-4.265-1.394l-2.3,1.503l-1.644,0.327l-1.749-0.056l-1.505,0.438l-0.601,0.978
		l0.299,0.634l1.696,0.363l0.574,0.472l-1.341,1.142l-8.014-0.453l-2.106,0.581l-1.779,1.432l-1.614,0.744l-10.724,0.38
		l-2.436-1.213l1.779-2.086l3.938-1.305l4.542-3.244l0.848-3.171l-0.354-0.834l0.3-1.522l1.45-2.103l-0.985-3.878l0.685-2.14
		l-0.246-1.051l-1.807-2.065l-4.759-3.86l-1.641-3.916l-3.775-4.258l-0.713,0.107l-1.805,2.791l0.793,1.053l-0.438,0.995
		l-2.816,1.922l-1.042,2.375l-0.409,4.422l-3.749,8.083l-0.026,1.995l-2.188,1.178l-4.214-1.269l-2.161-0.362l-1.15,0.145
		l-5.58,1.396l-1.26,1.359l-0.71,0.31l-4.132-0.418l-2.298,1.342L783,543.7l-0.958-0.31l-0.848-0.94l1.095-1.18l2.022-1.322
		l0.713-1.144l0.49-3.369l1.397-1.36l2.488,0.653l2.544-0.453l2.625-0.108l0.521,0.542l2.543,0.762l1.479-0.524l0.602-0.998
		l1.315-5.691l-0.522-4.44l0.355-4.405l-1.229-2.99l0.438-0.396h1.452l0.875-1.125l1.504-3.301l0.246-1.702l5.196-4.404l3.338-2.176
		l1.26-0.235l0.49-0.853l-0.957-2.771l-3.01-3.824l0.903-1.777l1.696-0.798l1.586-0.416l1.916-0.037l0.818-0.436l-0.217-1.195
		l-0.902-1.143l-1.614-0.453l-1.725-5.183l-1.558-2.303l-0.82-2.811l-1.588-0.798l-0.245,3.789l0.685,0.254l0.684,0.799l0.193,2.482
		l-0.986,3.372l-1.559,0.055l-3.775,0.796l-3.173,2.284l-3.064,4.043l-0.165,1.938l-0.546,1.089l-4.486,5.563l-2.025,1.125
		l-3.609,0.091l-2.107-0.852l-1.941,1.921l0.548,0.252l-1.148,0.8l-8.428,2.954l-4.95,2.573l-1.697,1.161l-0.163,0.761
		L765.517,517.383z M813.201,553.958l4.512,0.817l1.451,1.304l0.026,1.269l-2.161,1.288l-3.528-1.143l-4.758-0.234l-4.187,1.305
		l-0.548,0.508l0.383,1.667l-0.847,0.562l-3.884,1.27l-2.902-1.957l-3.912-0.488l-1.093,0.234l-0.329,0.89l-0.849,0.325
		l-3.528-0.219l-3.912,0.399l-5.58,0.11l-0.957-1.052l-4.215-2.321l-0.138-0.851l1.397-2.72l10.888-2.138l2.327-0.021l2.788-0.434
		l5.854-1.723l6.21,0.344l1.75,1.104l-0.025,1.958l0.409,0.363l2.844,0.252l2.928,1.107l1.751,0.09L813.201,553.958z"/>
	<path id="AU-VIC" fill="#CCCCCC" stroke="#FFFFFF" stroke-width="0.5" d="M1159.694,603.004l-3.609,1.178l-4.378,0.29
		l-14.362,0.057l-4.979,0.472l-4.897-0.128l-5.497,0.256l-10.259,2.009l-6.073,1.995l-6.482,3.262l-5.008,3.103l-4.73,3.115
		l-7.223,5.563l-2.847,1.668l-6.647,0.563l-6.509,1.087l-2.327-0.49l-2.707,0.11l-1.232,0.343l-1.037,1.035l3.311,4.005l3.42-1.595
		l0.628-1.522l1.068,0.327l0.438,6.813l-1.751,1.471l-0.932,0.308l-1.396-0.436l-0.819-0.816l-2.161-3.751l-3.118-2.593
		l-2.299-0.651l-1.449,0.309l-0.411,0.779l-2.927-0.164l-2.408-3.226l0.714-0.761l-0.933-1.16l-2.628-0.272l-2.052,0.906
		l-1.504,0.161l-1.23-0.47l-4.46-2.991l0.495-2.338l2.627-0.725l1.038-1.216l-2.079-3.151l-1.231-0.527l-5.607,0.273l-1.259,2.791
		l-5.416,3.697l-2.628,0.344l-1.202-0.127l-4.158-3.207h3.527l3.119-0.924l4.351-5.077l-0.956-2.337l-3.666-3.752l-1.723-0.581
		l-2.766,0.834l-3.966,2.521l-4.871,2.408l-4.183,0.291l-0.521,0.345l0.163,0.907l4.104,0.469l2.297-0.525l1.368-0.67l2.053,0.381
		l0.438,0.728l-0.328,1.104l-1.532,1.562l-0.737,0.362l-2.546-0.399l-4.568,0.651l-0.957,0.38l-8.943,4.006l-6.513,5.313
		l-3.282,0.599l-1.095,0.505l-0.655,1.106l-3.857,1.885l-1.119-0.198l-1.834-1.433l-1.67-0.651l-6.156-1.307l-1.393-0.941
		l-2.518-1.034l-2.271-0.195l-5.006-1.344l-7.961-4.077l-4.622-1.216l-3.283,0.525l-0.548,0.417l-2.682-0.036l-2.899-1.104
		l-2.899-1.597l-4.269-0.615l-2.077-0.019l-2.137,0.397l-1.75,0.979v0.778l0.903,1.179l-2.353,0.437l-3.475-1.125l-2.57-2.067
		l-5.172-3.205l-2.652-1.16l-4.022-1.233l0,0l0.11-98.6l0.768,0.67l0,0l1.394,0.907l0.903,0.164l5.116,0.253l4.867,1.504
		l3.311,1.341l0.52,0.473l1.451-0.51l1.667-1.521l2.627-0.672l4.404,0.761l4.65-0.633l3.42,1.033l2.381,1.086l4.129,4.605
		l0.137,3.407l2.573,1.577l1.585,2.809l-0.081,0.473l1.013,0.778l2.516,0.327l1.342-1.125l0.958-2.809l0.52-0.489l1.696-0.381
		l1.861,0.814l0.409,0.654l3.501,0.941l4.433,0.199l6.318,2.284l0.384,0.381l-0.027,1.505l-0.71,2.376l0.792,2.989l1.366,1.994
		l2.22,0.907l2.406,0.397l1.146,1.178l-0.683,1.379l0.489,0.506l1.836,0.907l1.229-0.181l2.106,0.507l4.569,2.303l5.087,1.794
		l2.297,2.103l3.012,1.775l1.695,0.364l0.685,0.471l1.53,2.32l6.237,4.839l3.665,1.415l1.148,0.2l5.253-0.98l-0.465-2.464l1.041-2.5
		l0.547-0.436l3.72-0.635h3.639l1.012,0.543l2.6,0.163l2.6-0.94l2.245-0.329l0.735,0.055l2.161,1.126l3.502,2.228l2.079,0.581
		l8.48,1.068l6.155,0.363l3.117-0.889l1.04-0.725l1.859-0.162l3.064,0.309l2.652,1.377l6.62,1.377l3.995,0.181l4.979-1.159
		l2.681-0.162l2.762-2.284l2.768-0.309l4.183,0.525l2.543-0.653l4.98,1.414l3.229,1.362l1.531,8.01l1.888,1.594l2.734,3.697
		l-0.3,1.759l-2.407,2.756l2.68,0.145l52.661,17.581l0,0l-2.324,0.978l-3.393,0.2l-3.337,3.37L1159.694,603.004z M1034.293,620.313
		l-2.133-0.545l-0.384-1.141l0.738-1.611l4.76,0.652l1.204,0.941l-0.327,0.362l-1.916,0.019L1034.293,620.313z M1034.238,623.795
		l-1.013-0.814l-1.449-0.421l-4.596,0.256l0.082-0.271l2.08-1.342l2.762-0.361l0.794,0.344l1.587,2.521L1034.238,623.795z"/>
	<path id="AU-QLD" fill="#CCCCCC" stroke="#FFFFFF" stroke-width="0.5" d="M1171.512,257.961v0.326l1.831,1.16l-1.529-3.498
		l-1.943-2.646l0.025-0.998l1.15-2.013l1.178-1.014l1.313-0.237l1.04,0.291l2.27,2.32l1.344,2.519l3.607,0.979l4.706,2.137
		l3.366,1.015l-1.728-2.701l-0.025-1.595l0.82-1.105l2.162,0.255l2.105,2.083l-0.876,1.341l0.22,1.034l4.021,3.788l-1.889,8.464
		l1.669,2.283l-0.355,3.045l1.971,2.647l2.406,0.87l2.215,0.218l0.85,1.287l2.024,1.014l1.424,2.72l2.107,0.76h0.98l1.397,0.652
		l3.144,2.574l2.022,0.399l1.59,0.834l-0.464,0.488l0.19,0.598l0.821,0.218l1.449-0.942l0.053-1.161l0.712-0.453l1.313,0.255
		l3.091,2.355l4.324,2.556l2.271,4.478l3.611,3.914l4.318,2.192l4.186,1.09l1.479,1.124l0.876,1.396l0.298,2.591l4.871,5.345
		l4.076,0.817l2.928,0.127l1.148,3.188l-0.354,1.923l-1.204,0.816l0.161,2.536l0.658,1.213l0.985,0.617l0.901,0.163l1.589,2.574
		l4.266,1.285l0.109,0.526l-1.421,2.05l-1.943,5.255l0.546,1.415l0.74,6.471l0.819,1.321l0.411,7.741l-1.832,0.38l-1.806,1.687
		l0.902,3.009l3.253,1.667l2.405,1.995l1.861,4.221l2.52,2.338l0.875,1.576l-0.655,2.955l1.478,2.466l1.366,1.268l0,0l-2.214,1.196
		l-3.257,0.833l-3.965,0.49l-2.272,1.993l-4.897-0.217l-5.554,0.381l-4.865-0.708l-1.946-1.323l-1.313-0.126l-1.694,0.942
		l-0.603,1.014l-1.204,0.543l-5.909,1.286l-3.339,1.089l-2.87,1.503l2.681,4.026l-0.956,3.641l-5.69,1.813l-1.833-0.58l-1.098-1.396
		l-5.113,1.503l-2.681,3.625l-1.422,0.995l-1.45,0.237l-0.658-0.199l-1.201-1.775l-0.354-3.407l-7.577-4.332l-7.497-2.269
		l-4.485,0.617l-4.953-0.09l-2.052-0.924l-2.271-1.56l-0.822-0.127l-4.018,0.325l-4.27,1.088l-9.137,0.526l-2.6-0.506l-0.465-0.655
		l-0.767-0.089l-3.284,0.6l-9.49,5.345l-3.477,2.883l-2.271,0.741h-88.989l0,0l-5.62,18.524l-32.187-18.524h-46.231l0,0
		l-59.636-0.017l0,0l-3.558,0.054l0,0l-0.054-66.229h-89.099l0,0V133.026l0,0l5.771,3.12l2.845,0.724l5.827,0.924l4.541-0.182
		l1.423,0.688l4.625,1.289l4.978,0.47l3.884,3.572l0.631,2.646l1.504,1.92l1.424,0.925l2.271,0.523l2.979,0.237l2.928,1.289
		l2.408,1.61l5.883,1.126l2.022,0.796l2.873,1.705l1.177,0.326l3.364,0.127l7.854-0.944l4.075-0.995l2.544-0.905l4.104-2.104
		l2.243-0.526l1.559-1.883l1.67-4.278l0.437-3.063l7.059-6.071l2.736-4.095l0.875-2.975l3.31-5.763l-0.765-3.425l1.777-7.504
		l5.171-7.848l0.931-2.483l-2.927-5.329l-1.342-5.709l0.438-1.667l1.697-2.881l0.216-2.248l-0.653-1.578l-2.982-2.356l-0.246-2.429
		l2.16-5.945l4.353-5.601l-0.332-0.888l-1.366-1.015l-1.343-3.481l0.246-0.58l0.385-0.453l3.035-1.268l1.15-0.925l1.45-2.665
		l1.778,0.364l0.957,1.088l0.029,1.612l1.257,1.268l0.247-0.851l-1.669-3.227l-1.313-0.633l-3.612-3.59l0.876-0.471l-0.574-0.29
		l-1.942-0.089l-0.247,1.178l0.931,0.833l-1.725,0.363l-1.039-0.309l0.055-0.453l2.79-4.005l2.599-2.374l-0.466-0.69l1.341-2.537
		l1.287-1.269l1.285-0.381l0.737,2.393l3.174-0.417l0.246-0.489l-2.407-1.559l-0.109-0.815l0.657-2.32l4.568-8.699l1.065-4.441
		l-0.6-3.498l0.273-0.49l1.093-0.525l4.705-0.546l1.669-1.466l1.342-2.23l2.215-0.055l2.792,0.869l-0.931,0.943l-1.97,1.198
		l-0.221,1.83l1.89-1.595l1.065,0.053l4.022,2.267l1.285,1.867l2.296,6.199l-0.766,2.392l0.82,4.078l-0.216,2.339l3.226,1.884
		l2.052,0.109l1.942-0.579l0.849,0.216l1.998,1.449l-2.873,3.063l-0.603,1.686l-0.136,2.194l1.531,0.289l0.931-0.162l2.625,0.852
		l0.819,0.598l0.109,2.103l1.313,0.906l1.122,0.073l2.023,1.015l-1.641,2.519l-0.384,2.121l1.282,0.435l2.931-0.219l0.3,0.4
		l-0.465,4.405l0.685,4.132l0.22,0.725l1.175,0.745l0.768,1.085l-0.246,1.886l-1.67,4.639l2.106,3.627l2.518,1.757l0.383,3.262
		l1.147,2.7l1.342,1.903l1.013,0.727l2.133,0.761l3.694,0.017l4.212-2.175l8.371-2.537l1.23-1.831l1.178,0.181l1.859,1.848
		l-0.356,1.923l1.424,2.554l1.861,1.47l4.484,1.14l2.023,0.092l1.861,2.736l7.331,2.193l3.257,1.686l-0.193,1.196l-2.243,2.628
		l0.11,1.196l1.175,1.289l0.384,1.503l-1.204,2.338l1.67,2.194l1.613,3.644v3.678l1.508,0.995l1.557,2.412l-0.492,4.169
		l-1.122,1.033l-0.189,2.103l0.273,0.597l1.559,0.653l10.149,8.393l0.984-0.544l2.764-0.308l0.71,0.581l-2.298,2.879l0.139,0.637
		l2.104,2.391l2.326,3.607l1.587,3.861l0.547,2.846l-0.547,1.956l0.438,2.103l-0.192,1.36l-2.735,3.842l0.219,1.975l6.019,5.221
		l3.612,0.907l-0.221,2.3l-1.34,2.067l-0.384,2.193l0.277,0.689l1.721,1.52l2.598,1.343l0.74,0.943l3.474,1.505l2.653,0.833
		l3.253,0.054l3.641,2.411l2.023,0.055l3.529,0.762l1.997,1.25l3.394,0.469l5.309-0.27l0.436-0.617l-1.34-1.541l1.695,1.287
		l2.871,3.426l1.179,3.987l0.71,0.961l1.506,1.068l1.613,0.254l1.367-0.217l-0.466-1.686l0.22-0.725l1.806,0.02l0.876,0.615
		l0.355,2.302l1.424,0.888l1.776,0.508l3.722-0.108l3.666,0.707l2.353,1.885l-0.959,0.254l0.247,0.56l1.75,1.433l2.354,1.27
		l1.562-0.453l0.108-1.233l-0.931-0.562l0.41-0.726l2.051,0.507l4.488,2.666l2.844,0.343l1.011,0.925l1.889,3.515l1.125,0.2
		l0.899,1.667l-1.669-0.271l-1.423-0.959l-1.203-0.381l-1.448,0.397l-2.188,1.794l1.832,3.264l3.582,2.483l2.136,0.977l3.172,0.744
		l3.941,2.03l1.612,1.359l-0.301,1.56l1.04,2.609l1.477,0.834l1.148,2.502l1.695,1.975l1.696,1.071l-0.382,4.005l2.709,6.415
		l2.051,3.298l1.889,1.795l1.285,0.688l0.083,2.158l-0.902,0.906l1.995-0.671l1.589-0.87l0.735-0.816L1171.512,257.961z
		 M1263.701,327.161l-1.284-0.181l-1.205-1.07l-1.614-3.896l1.589-2.572l1.998-2.194l-0.031-1.867l-0.408-0.471l1.229-1.703
		l3.095-1.65l1.369-1.775l0.243-0.96l-0.299-0.745l-1.778-1.92l-0.574-0.22l1.12-1.375l2.544-1.105l0.245,4.422l0.687,0.996
		l1.42,0.617l0.304,0.761l-7.25,11.312l-1.313,2.846l0.438,1.758L1263.701,327.161z M849.912,137.232l-0.303-1.196l0.794-2.086
		l1.695-1.558l2.489-1.25l5.144-0.418l1.613-0.579l5.719,0.616l0.164,1.196l-1.287,0.399l-1.94,0.273l-1.287-0.69l-2.735,0.724
		l0.438,0.635l-1.832,2.013l-3.311,0.834l-4.296,0.524L849.912,137.232z M1208.634,283.842l-1.613-0.995l-1.148-1.687l-1.997-1.196
		l-1.149-1.704l-0.272-1.487l1.313-0.199l4.156,1.739l0.575,0.635l1.913,2.429l0.357,1.667l-0.793,0.635L1208.634,283.842z
		 M1062.004,172.792l-2.051-0.526l-0.576-1.885l-1.312-1.177l-1.369-0.437l-0.737-0.904l1.229-0.2l4.215,1.304l2.461,2.356
		l-0.877,1.124L1062.004,172.792z M1273.359,369.572l-0.524-0.76l0.17-1.885l1.148-4.314l1.147-0.182l2.05,0.236l-1.969,4.314
		l-0.631,2.482L1273.359,369.572z M1273.907,361.454l-1.971-3.663v-2.97l2.543-0.925l0.654,0.325l-1.531,3.844L1273.907,361.454z
		 M940.05,16.574l-1.859-0.996l-0.138-1.251l1.778-0.779l1.23-0.163l1.45,1.449l-0.192,0.744l-1.422,0.235L940.05,16.574z
		 M942.923,6.532l-2.053-0.578l-0.629-0.652l1.148-1.161l1.644-0.199l0.983,0.307l0.684,0.8L942.923,6.532z M858.229,145.096
		l-0.85-1.177l3.036-1.883l1.534,0.725l0.491,1.503l-3.503-0.054L858.229,145.096z"/>
	<path id="AU-TAS" fill="#CCCCCC" stroke="#FFFFFF" stroke-width="0.5" d="M1080.637,755.197l-2.465,0.816l-0.545-0.816
		l-3.831-0.398l-2.572-1.287l-2.516-0.36l-6.483-0.217l-0.631-0.292l-0.437-0.777l-0.849-0.165l-3.583,0.728l-2.135-0.473
		l-3.146-3.28l1.75-0.813l3.283,0.326l1.613,0.578l2.245,0.311l0.055-1.777l-2.105-1.16l-1.15,1.377l-7.907-0.67l-0.654-0.309
		l-3.254-4.403l-3.912-4.134l-0.631-0.419l-1.858,0.057l-1.533-1.631l-1.094-1.542l-2.053-5.021l-1.285-0.927l-1.504-0.287
		l-1.859-7.939l0.217-1.503l0.548-0.472l0.794,0.942l5.226,2.645l1.285,3.953l2.461-4.567l-1.559-0.727l-1.231,0.072l-5.279-3.844
		l-0.574-1.087l0.056-1.594l-0.438-1.195l-1.888-2.557l-3.855-2.409l-2.981-3.499l-7.988-12.995l0.274-0.926l-0.82-2.755
		l-0.903-1.123l-0.547-2.609l2.407-1.451l0.053-3.009l1.807-0.797l6.647,0.527l3.886,1.899l4.705-0.507l1.807,1.016l6.046,1.306
		l9.9,3.896l9.521,2.975l6.292,0.38l2.789-0.563l2.572,0.959l-0.136-0.905l2.324-1.63l2.107-0.491l1.559,0.327l0.655,1.722
		l1.56,0.524l2.489-0.034l-0.874-0.834l-2.079-0.31l-0.603-0.379l-0.138-1.252l1.34-0.817l4.543-1.357l3.856,0.854l6.211-0.834
		l1.803,1.069l2.136-0.854l2.98-3.427l0.655-0.268l1.89-0.313l0.71,0.69l3.093,0.925l1.041-0.036l1.888-0.726l0.957-1.069
		l0.52-1.577l0.602-0.435l1.261,0.034l1.941,0.598l4.212,2.067l1.561,1.36l1.64,2.447l-1.886,4.458l0.22,1.341l1.229,1.068
		l0.111,1.977l-1.287,3.118l0.191,2.229l1.013,1.941l-1.478,5.291l0.984,5.801l1.805,1.938l0.163,3.007l-1.559,1.47l-1.065-0.598
		l-0.137-0.637l0.793-0.67l0.354-1.74l-2.105-3.75l-1.286-1.396l-3.447,4.532l-2.242,10.747l-1.341,0.906l-0.438,1.522l0.326,2.755
		l-2.132,1.467l-1.203,2.684l0.411,0.437l1.284-0.056l-0.547-0.778l0.875-0.435l1.888,0.759l0.767,0.997l0.164,1.868l-1.12,0.488
		l-0.466,2.341l1.586,2.37l-0.273,1.523l-0.736,0.037l-2.106-1.232l-2.136,0.615l-1.12,1.106l-2.735-2.25l-1.943-2.626l-0.382-1.286
		l1.643-1.938l0.958-0.184l0.71,0.436l0.136,0.655l-0.465,0.632l1.832,1.305l2.545-0.125l0.932-0.525l-2.188-2.539l-6.948-2.808
		l-1.012,0.107l-1.643,0.816l0.574,1.828l0.932,1.341l-0.794,1.053l-2.927,0.637l-0.685-1.126l0.576-0.233l-0.438-2.72l-2.683-1.142
		l0.931,1.559l-0.656,2.79l-1.725,1.396l-0.792,1.958l0.602,1.885l-0.438,1.759l-1.013,0.435l-1.04-0.09l-2.38-1.016l-2.161-1.688
		l-0.409-1.7l-0.631-0.164l-0.629,0.671l-0.025,1.813l3.746,2.268l-1.203,1.992l-1.56,1.611l-1.477,2.846l-0.439,1.96
		L1080.637,755.197z M1116.636,667.038l-2.681-0.979l-0.767-1.921l0.163-0.543l-3.392-4.225l-4.24-2.501l3.611-3.154l2.544-0.726
		l5.882,5.202l1.093,0.524l2.271,0.399l0.246,0.743l1.397,5.056l-0.109,0.69l-0.823,0.507l-3.746,0.453L1116.636,667.038z
		 M991.699,663.505l-1.039-0.507l-0.383-1.325l0.549-0.269v-1.778l-1.698-1.468l0.083-1.396l0.519-4.112l2.325-1.144l0.356-0.67
		l-0.302-1.47l1.259-0.235l2.654,1.069l1.229,1.178l0.411,4.151l0.711,2.664l-0.271,1.396l-0.903,1.341L991.699,663.505z
		 M1122.873,672.929l-0.083-1.249l-0.52-0.508l-6.895,0.58l-2.651-0.762l0.054-0.996l1.969-1.069l2.025-0.073l2.077,0.419
		l4.158-1.396l4.05,3.189l-0.056,0.271l-2.05,0.523L1122.873,672.929z M1092.097,752.369l-1.888-0.577l-1.887,0.271l-1.562-2.156
		l5.254-4.296l1.916,3.317l-1.313,3.152L1092.097,752.369z M1435.912,1091.433l-1.315-0.092l-0.025-2.79l1.697-5.039l0.571-0.904
		l1.479-0.578l-0.438,3.387l-1.696,3.769L1435.912,1091.433z M1093.849,745.609l-2.051-2.846l1.914-2.21l1.177,1.196l1.065,3.28
		l-0.081,0.307L1093.849,745.609z M1113.243,731.944l0.137-3.551l1.725-0.872l1.531,0.092l1.339,1.739l-0.136,0.271l-2.078,0.018
		L1113.243,731.944z M1020.424,678.767l-0.52-0.254l-0.138-1.252l1.777-1.396l2.682,2.031L1020.424,678.767z"/>
</g>
</svg>
