<?xml version="1.0" encoding="utf-8"?>
<!-- Generator: Adobe Illustrator 15.0.0, SVG Export Plug-In . SVG Version: 6.00 Build 0)  -->
<!DOCTYPE svg PUBLIC "-//W3C//DTD SVG 1.1//EN" "http://www.w3.org/Graphics/SVG/1.1/DTD/svg11.dtd">
<svg version="1.1" id="Layer_1" xmlns:amcharts="http://amcharts.com/ammap"
	 xmlns="http://www.w3.org/2000/svg" xmlns:xlink="http://www.w3.org/1999/xlink" x="0px" y="0px" width="1920px" height="1200px"
	 viewBox="0 0 1920 1200" enable-background="new 0 0 1920 1200" xml:space="preserve">
<defs>
		<style  type="text/css">
		g#mapPaths{
							fill: #e8e3c4;
				stroke: #5d5c56;
				opacity: .8;
		}
	</style>
	
		<amcharts:ammap  projection="mercator" leftLongitude="2.544059" bottomLatitude="49.497586" rightLongitude="6.408459" topLatitude="51.500039">
		</amcharts:ammap>
</defs>
<g id="mapPaths">
	<path id="BE-VAN" fill="#CCCCCC" stroke="#FFFFFF" stroke-width="0.5" d="M784.216,42.418l-4.471,2.11l0.209,7.807l-6.586-2.848
		l1.072-4.915l2.787,2.937l2.458-3.586l-2.355-1.564L784.216,42.418z M735.887,19.81l16.498,8.825l1.312,10.344l-6.2,5.52
		l2.116,11.2l4.724-0.369l-3.249,2.612l-17.72-6.892l-0.461,7.762l26.99,2.479l6.2-3.763l9.298,10.876l24.203-23.375l0.953-10.758
		l6.379-7.909l4.843,6.257l9.567,0.59l7.602,18.003l-9.448,17.679l17.45,20.911l0.79,15.037l8.151,2.435l10.821-4.987l11.684,7.643
		l-4.263,16.897l3.339,2.981l0,0l-6.081,6.729l-0.611,11.938l13.457,16.72l0.403,15.066l-8.063,7.984l-8.196-3.056l-3.563,7.851
		l-7.705,0.959l0,0l-2.355,0.413l0,0l-8.226,0.501l-10.119,14.492l-24.112,5.018l-0.701,8.013l-8.375,10.389l0,0l-4.5-4.958
		l-9.016,3.955l0,0h-1.356l0,0l-9.419,6.877l-23.278,4.826l-7.54-12.647l-8.927,6.508l-8.032-0.724l-10.432,12.425l2.876-7.186
		l-6.691-4.693l-22.786,6.508l-1.744,7.969l-4.694,0.959l-9.479-6.139l-5.856,5.372l-11.565-7.186l-3.041,7.776l-7.764-6.418
		l-16.721,4.589l-1.654-6.877l-4.754-1.549l2.116-7.467l-10.61,6.419l0.953-4.782l-19.195-7.378l-11.862,2.598l0,0l-2.176-2.863
		l-5.797,4.737l-6.378-3.365l2.235-8.013l-3.398-1.505l-3.398-18.181l10.641-9.444l10.582,3.291l19.075-5.195l4.992-13.37
		l-0.209-12.926l-3.651-1.786l2.116-6.67l-6.318-1.919l-4.143-21.766l9.298-13.679l-12.086-8.234l-2.98-18.048l-9.359-5.313l0,0
		l-6.08-9.681l34.411-1.461l2.235,8.619l11.803,1.505l13.979-4.088L619.9,56.407l3.65-9.371l-5.364-2.567l27.48-14.388l18.867-1.889
		l2.697,4.176l-4.993,10.802l1.565,11.938l11.564-4.265l18.614,4.457l8.435-1.697l-0.521-8.308l7.511-3.394l17.241-21.84
		L735.887,19.81z"/>
	<path id="BE-WBR" fill="#CCCCCC" stroke="#FFFFFF" stroke-width="0.5" d="M537.547,381.753l15.916-10.772l7.094,10.728l8.21-0.915
		l11.506,8.869l4.321-4.752h12.847l2.31-9.311l6.065,1.579l-3.04-5.283l3.011-2.804l4.843,7.865l6.229,0.132l0,0v-5.652l0,0
		l34.962-12.071l-0.253,5.917l9.479,6.656l0.193-5.121l14.202-3.616l6.036-7.644l2.488,10.315l8.793-0.679l6.14-5.887l-5.216-7.556
		l1.505-12.13l14.56,4.442l5.409-2.908l1.163,3.084l2.756-5.932l10.238-2.082l9.106,3.749l6.2,9.783l6.572,0.414l0.059,5.785
		l18.3-2.568l0,0h2.207l0,0l-0.031,8.588l5.41,2.996l16.467-12.175l10.88,8.958l0,0l-1.015,7.924l-6.81,3.837l6.915,9.533
		l-4.545,3.762l0.298,13.591l-5.455,10.345l0,0l-9.345-2.169l-6.915,9.032l-8.33-0.723l0.432,3.114l-32.86,9.43l1.118,5.046
		l-6.17-5.092l-7.705,5.727l-2.787-9.785l-5.976,1.078l-2.519,6.316l-11.653-5.548l-2.548,6.271l3.994,11.85l-7.094,2.804
		l-12.667-4.103l-7.452,3.468l0.834,8.973l0,0l-19.016,6.98l-3.189-6.404l-7.421,1.225l-2.608,4.132l0.894-13.739l-5.737,1.86
		l-11.013-4.782l-15.663,1.21l-7.496,8.338l0.894-10.861l-9.359,0.088l-8.554-12.071l-7.601-0.104l1.773-9.695l-15.365-3.468
		l1.267-10.3l-6.811-6.907l-11.191,13.459l-10.685-0.178l-4.381-9.252l0.804-22.283l5.484-1.446L537.547,381.753z"/>
	<path id="BE-BRU" fill="#CCCCCC" stroke="#FFFFFF" stroke-width="0.5" d="M632.253,294.731l1.163,0.856l0,0l2.057,7.674
		l-4.263,5.076l10.82,7.127l4.367,13.282l-7.064,4.486l1.132,3.217l0,0l4.605,0.501l0,0l5.499,5.888l-4.113,0.354l0,0l-3.771,1.594
		l0,0l-22.667,10.447l-14.724-4.885l-8.093-16.748l-6.751,1.992l-9.821-4.899l0,0l-0.729,0.723l0,0l-0.179-0.545l0,0l2.937-3.764
		l0,0l0.834-4.072l7.451-0.369l-0.745-13.916l4.858-7.127l0,0l4.993-4.575l0,0l1.594-0.915l0,0l4.144-2.907l0,0l1.863-0.398l0,0
		l10.774,1.948l0,0l6.185-6.818l0,0l3.755,2.73l0,0l2.965,1.991l0,0L632.253,294.731z"/>
	<path id="BE-WHT" fill="#CCCCCC" stroke="#FFFFFF" stroke-width="0.5" d="M351.873,354.113l9.91,4.575l12.906-3.04l0.954,13.974
		l19.836,0.679l4.262,4.472l0,0l1.595,0.501l0,0l13.74-23.256l9.538-4.398l1.192,6.566l12.905-6.153l-1.415,4.53l6.199,10.64
		l10.372-1.048l8.182,3.896l11.863-4.338l4.694,8.456l0,0l-1.714,10.227l6.349,8.588l12.325,0.944l0,0h1.937l0,0l25.886-5.696
		l2.548,3.262l7.511-9.312l0,0v1.048l0,0l4.113,2.538l0,0l3.711,0.502l-5.485,1.446l-0.804,22.268l4.381,9.253l10.7,0.177
		l11.191-13.458l6.811,6.906l-1.281,10.286l15.364,3.468l-1.774,9.695l7.601,0.088l8.555,12.086l9.359-0.088l-0.895,10.861
		l7.511-8.338l15.648-1.21l11.013,4.782l5.738-1.844l-0.895,13.738l2.608-4.146l7.421-1.211l3.189,6.39l19.016-6.98l0,0
		l-5.618,17.295l0,0v1.49l0,0l1.133,4.723l8.986-4.59l-2.325,2.745l3.92,9.001l-8.122,14.477l13.278,7.556l-3.979,9.753
		l-5.425,1.801l5.916,5.842l-4.724,2.199l-2.548,10.094l3.979,13.813l-21.713,4.796l-4.321-5.739l-6.11,0.087l-6.811,10.448
		l-16.199-2.686l-1.416,6.775l-8.152,2.021l-3.159,7.35l-8.704-0.812l-12.026,9.666l16.676,12.853l6.289-7.024l2.817,1.608l0,0
		h2.846l0,0l4.113,2.952l0,0l-0.239,1.52l0,0l-0.582,7.333l0,0h-1.013l0,0l0.67,12.705l-9.821,6.98l11.163,20.319l-4.292,6.479
		l1.386,25.78l5.455,1.875l1.385,21.249l8.718,18.032l-3.443,7.157l0,0l-23.739-5.076l-12.117-7.156l-33.083,5.829l-0.835-6.271
		l-14.411-3.822l5.827-9.622l-7.541-8.234l6.96-12.794l9.598-0.532l10.729-8.868l-9.567-16.114l0.805-12.322l-13.532-0.221
		l0.343,3.128l-7.629-3.216l7.704-13.224l-1.252-22.267l6.409-1.477l14.008-16.381l-3.681-8.648l-8.866-1.476l-4.516-6.182
		l-3.622,6.36l5.038,7.482l-8.584,0.133l-6.006-20.378l-6.035-4.664l-5.738,1.343l-15.022-21.575l-10.894,7.319l-3.889-2.421
		l-1.506,3.056l-0.238-3.231l-19.017,9.635l-15.051-11.26l-6.959-0.22l-3.427,3.999l-1.938-4.753l-17.451,1.388l-3.993,3.542
		l-1.223,13.457l-6.005-3.275l2.548,6.227l-2.817,0.723l-10-13.267l-4.441-15.656l4.813-14.948l-4.352-23.996l-15.096-17.723
		l-7.333,2.479l-4.232-4.456l-19.746,5.948l-1.326-5.136l6.617-11.215l-12.787-4.325l-7.943,12.027l-2.98-1.755l-17.69,8.647
		l-4.232-5.754l-20.268-9.18l-3.651-6.433l0.031-25.471L287.896,403.8l7.542-8.309l-3.592-5.785l2.265-5.608l-19.627-10.079
		l1.803-4.884l-6.259-9.725l0,0l12.295-4.62l12.294,6.478l12.667-1.578l5.424,15.288l10.238,5.431l13.457-16.646l8.063-1.18l0,0
		v-1.771l0,0L351.873,354.113z M178.778,381.473l2.027-2.627l-8.375-10.182l3.04-2.494l-2.757-4.383l7.734-4.442l2.548,2.494
		l0.09-3.261l5.022,3.94l7.675-1.859l-0.179-3.438l11.624-4.117l-6.87-8.973l18.465-7.659l4.172,3.438l-1.803,9.105l6.066,1.269
		l-3.04,3.172l0,0l-12.235,10.049l-10.82,3.026l1.833,5.977l-10.492,17.266L178.778,381.473z"/>
	<path id="BE-WLG" fill="#CCCCCC" stroke="#FFFFFF" stroke-width="0.5" d="M999.487,333.911l2.325,13.311l-5.335,10.964l0,0
		l9.194,4.84l0,0l1.415,0.177l0,0l3.979-3.659l3.681,2.715l0,0l0.402,1.269l0,0h11.103l10.463,14.875l11.504-1.402l6.289,3.261
		l8.121-11.495l-5.304-9.459l0,0l7.198,2.036l12.89-5.327l5.603,4.206l11.506-0.768l6.259,4.973l-0.581,11.585l1.774-4.309
		l20.608,2.715l19.257,32.125l-4.099,3.748l4.32,4.841l-1.967,2.656l5.977-2.981l20.58,2.937l-7.36,16.868l-5.276-0.488
		l-14.262,14.699l0.656,6.892l5.126,2.332l-2.19,4.647l5.617,2.568l5.247,11.526l12.786-4.458l23.278,7.423l-2.952,11.924
		l9.092,3.541l1.281,8.279l-10.208,25.292l19.135,20.099l-0.865,5.742l-12.175,3.63l-0.357,4.619l-8.376-8.383l-7.272,1.697
		l-7.884,23.124l-18.762,4.427l-5.276,8.736l-5.961,1.033l-2.756,6.435l6.959,17.044l-12.965,3.262l-3.771,9.693l6.066,5.224
		l-4.173,5.506l-7.78-2.687l3.65-5.799l-3.412-7.777l-9.313-2.197l-0.433,6.714l-5.469,1.329l-8.644-4.782l-1.908-8.707l0,0
		l2.742-10.108l-6.081,0.133l-0.863-48.669l-7.78-2.876L1082.6,551l-33.83-7.673l-3.292,9.016l5.215,5.874l-6.959,14.875l0,0h1.533
		l0,0l8.868,0.679l-11.385,8.367l-8.854-1.564l-1.072,4.427l-2.4-4.647l-9.357-1.388l-12.504,2.864l7.229-17.694l-6.767-0.133
		l-6.289-12.515l5.215-12.646l-14.425,0.53l1.297-5.385l-12.637-1.21l-11.565-12.381l-16.348,2.951l-7.139-14.595l-12.727,7.91
		l-13.77-9.975l-4.084,7.643l0,0h4.576l0,0l2.235,5.121l-10.521,10.005l0,0l-12.116-4.043L885.02,535.83l-4.695-5.784l1.669-7.099
		l-15.096-4.397l-3.89-5.889l4.038-9.754l-10.967-18.475l-10.149,4.678l-3.651-6.435l2.966-2.346l-7.913-1.343l-1.401-5.534
		l3.651-4.146l-7.213,3.777l-6.35-4.678l-0.61-7.157l-16.528-1.166l5.053-3.512l-1.624-8.973l-5.946-12.529l-13.993-13.443
		l1.505-10.876l0,0l5.455-10.345l-0.298-13.591l4.545-3.762l-6.915-9.533l6.81-3.837l1.015-7.924l0,0l7.674,4.663l-0.714,7.143
		l7.392,7.732l9.016-0.9l0,0l18.808,6.006l4.44-3.969l-3.709-4.664l1.938-4.25l16.125,2.937l2.429-4.25l5.797,5.253l5.156-5.932
		l8.151,5.475l12.906-13.34l11.014-0.855l8.925,13.104l8.495-0.444l4.053-8.367l4.502,6.641l13.62-8.219l0.731-7.615l0,0
		l1.639,0.826l0,0l22.414-8.293l12.607-13.768l9.314,0.634l0.656-3.439l0,0L999.487,333.911z"/>
	<path id="BE-VLI" fill="#CCCCCC" stroke="#FFFFFF" stroke-width="0.5" d="M1025.819,353.435l7.243,5.563l10.552-3.852l1.445,4.575
		l10.268-6.7l1.998,6.287l0,0l5.304,9.459l-8.121,11.48l-6.289-3.261l-11.504,1.402l-10.463-14.875h-11.103l0,0l-0.402-1.269l0,0
		l-3.681-2.714l-3.979,3.66l0,0l-1.415-0.178l0,0l-9.194-4.839l0,0l16.496-1.093l8.315-9.961L1025.819,353.435z M953.691,121.84
		l6.437,5.99l1.163,19.406l26.229,11.009l1.878,5.799l30.968,0.635l3.398,14.609l13.562-7.349l8.777,10.861l-13.128,12.086
		l6.467,9.12l-10.463,2.966l1.252,13.709l-7.57-0.546l-4.545,12.986l5.247,4.87l-2.878,11.555l-13.129,16.144l2.236,3.364
		l6.556-2.184l1.834,4.413l-10,18.534l-6.721-0.502l-6.14,13.296l-9.746,4.309l1.281,19.996l11.251,6.936l0,0l-0.671,3.438
		l-9.3-0.635l-12.607,13.768l-22.414,8.278l0,0l-1.653-0.811l0,0l-0.73,7.6l-13.622,8.235l-4.5-6.656l-4.053,8.368l-8.496,0.458
		l-8.927-13.119l-11.013,0.855l-12.906,13.34l-8.151-5.475l-5.156,5.918l-5.798-5.239l-2.429,4.25l-16.154-2.907l-1.938,4.25
		l3.709,4.664l-4.44,3.984l-18.822-6.006l0,0l5.589-11.983l-5.247-2.67l1.803-7.098l0,0l2.415-3.084l0,0l-1.937-10.138
		l12.354-10.241l0,0l-2.057-0.089l0,0l-4.442-2.406l1.774-15.229l5.305-13.842l6.438,0.856l2.699-12.072l-5.485-4.5l-9.106,0.221
		l-0.894-3.764l0,0l-5.916,2.229l0,0l-6.006,3.364l-3.95-5.637l-3.74,2.14l-6.377-11.717l9.806-7.91l0.953-11.688l13.219-5.18
		l-2.608-10.699l3.189-1.593l0.611,3.911l8.197-3.955l-11.684-11.658l-11.014,1.373l0.955,10.521l-7.303,4.103l-4.083-4.501
		l-5.945,2.095l-3.859-8.824l-8.316,2.095l0,0l8.374-10.389l0.702-8.013l24.112-5.018l10.119-14.491l8.227-0.501l0,0l2.354-0.414
		l0,0l7.706-0.959l3.561-7.851l8.197,3.055l8.063-7.984l-0.403-15.067l-13.456-16.719l0.609-11.938l6.08-6.729l0,0l28.466-0.738
		l2.875-5.578l20.729,5.489l19.88-17.442l8.837,2.288L953.691,121.84z"/>
	<path id="BE-WLX" fill="#CCCCCC" stroke="#FFFFFF" stroke-width="0.5" d="M912.842,529.455l10.521-10.005l-2.235-5.121l0,0h-4.576
		l0,0l4.084-7.643l13.77,9.975l12.727-7.91l7.139,14.595l16.348-2.951l11.565,12.381l12.637,1.21l-1.297,5.385l14.425-0.53
		l-5.215,12.646l6.289,12.515l6.767,0.133l-7.229,17.694l12.504-2.864l9.357,1.388l2.4,4.647l1.072-4.427l8.854,1.564l11.385-8.367
		l-8.868-0.679l0,0h-1.533l0,0l6.959-14.875l-5.215-5.874l3.292-9.016L1082.6,551l1.161,4.251l7.78,2.876l0.863,48.669l6.081-0.133
		l-2.742,10.108l0,0l-16.825,4.604l-1.639,18.447l-18.48,8.75l-2.771,15.215l-9.598,8.382l4.397,5.488l-2.832,7.985l-11.804,7.26
		l5.053,14.151l-8.763,7.837l-8.957,1.121l-3.771,19.789l-7.942,7.644l14.128,9.062l-2.757,5.149l-5.634-2.257l1.535,6.877
		l-3.935,1.563l3.278,2.745l-5.142,4.929l4.009,20.055l9.821-1.903l12.087,21.31l-1.148,10.949l11.104-1.417l5.96,7.393
		l-5.96,14.374l13.158,5.622l-1.311,11.761l-5.529,0.93l-3.577,11.88l-7.585,5.518l1.132,3.853l5.246-0.265l0.029,6.035
		l-8.523,9.179l-7.108,3.409l-16.528-7.335l-3.874,10.064l-27.896-5.52l-9.883,10.064l-1.252,9.386l-5.617-6.788l-10.269-3.218
		l-4.366,5.813l-16.274,3.483L935.45,921l-6.483-9.076l4.919-4.014l-0.373-5.342l-6.84-5.695l3.769-6.656l-4.903-1.195
		l-2.608-11.304l-23.338-15.421l-2.95,6.153l-7.198,2.554l-2.235-8.088l7.317-10.831l-16.094-17.029l-2.699-1.859l-6.9,5.047
		l-10.864-4.604l-11.371,1.063l-1.192-9.902l-10.104,1.02l-9.627-21.885l-8.703,0.532l-16.259-9.181l-3.681-7.894l-7.75-0.665l0,0
		l5.574-9.888l0.433-12.955l19.775-13.37l-4.098-4.266l8.45-8.499l13.815-4.708l-6.319-6.227l1.132-10.403l-12.087-10.685
		l-14.812,1.785l0.521-7.393l-10.953-14.168l4.457,0.665l2.474-7.615l4.142,2.893l8.928-6.86l1.296-10.08l3.919-0.222l-2.265-4.958
		l3.979-15.657l2.981,13.296l36.154-1.563l19.909-7.497l0,0v-1.785l0,0l-7.763-7.276l12.176-6.61l-0.984-4.87l-10.611-12.559
		l1.938-2.552l-5.037-1.211l3.591-4.205l-11.222-4.826l14.501-4.825l-1.862-4.973l8.24-4.073l4.382,3.084l5.246-2.642l23.65-18.801
		l-1.595-12.425l-6.9-0.842l-4.724,5.505L898,558.394l14.992-9.549l-3.86-6.861l5.737-7.231L912.842,529.455z"/>
	<path id="BE-WNA" fill="#CCCCCC" stroke="#FFFFFF" stroke-width="0.5" d="M676.231,456.438l-0.834-8.973l7.452-3.468l12.667,4.103
		l7.094-2.804l-3.994-11.85l2.548-6.271l11.653,5.548l2.519-6.316l5.976-1.078l2.787,9.785l7.705-5.727l6.17,5.092l-1.118-5.046
		l32.86-9.43l-0.432-3.114l8.33,0.723l6.915-9.032l9.345,2.169l0,0l-1.505,10.876l13.993,13.443l5.946,12.529l1.624,8.973
		l-5.053,3.512l16.528,1.166l0.61,7.157l6.35,4.678l7.213-3.777l-3.651,4.146l1.401,5.534l7.913,1.343l-2.966,2.346l3.651,6.435
		l10.149-4.678l10.967,18.475l-4.038,9.754l3.89,5.889l15.096,4.397l-1.669,7.099l4.695,5.784l15.707-10.419l12.116,4.043l0,0
		l2.026,5.298l-5.737,7.231l3.86,6.861L898,558.394l1.713,4.072l4.724-5.505l6.9,0.842l1.595,12.425l-23.65,18.801l-5.246,2.642
		l-4.382-3.084l-8.24,4.073l1.862,4.973l-14.501,4.825l11.222,4.826l-3.591,4.205l5.037,1.211l-1.938,2.552l10.611,12.559
		l0.984,4.87l-12.176,6.61l7.763,7.276l0,0v1.785l0,0l-19.909,7.497l-36.154,1.563l-2.981-13.296l-3.979,15.657l2.265,4.958
		l-3.919,0.222l-1.296,10.08l-8.928,6.86l-4.142-2.893l-2.474,7.615l-4.457-0.665l10.953,14.168l-0.521,7.393l14.812-1.785
		l12.087,10.685l-1.132,10.403l6.319,6.227l-13.815,4.708l-8.45,8.499l4.098,4.266l-19.775,13.37l-0.433,12.955l-5.574,9.888l0,0
		l-11.535,6.39l-22.488-2.656l6.751-11.761l-8.034-20.91l3.95-0.134l7.973-18.875l-11.863-17.205l-16.348-4.412l-0.402-4.723
		l0.953-6.095l7.332-5.252l0.432-13.99l6.229-5.52l-6.11-11.998l5.217-0.975l3.771-15.346l6.064,6.064l-1.251-14.151l8.286-7.585
		l-5.648-7.246l-11.953-0.574l-2.548-6.348l-18.495,14.213l-3.651,11.11l-16.437,11.879l-3.935,8.251l5.648,6.861l-4.486,11.275
		l2.518,13.369l-27.421,3.91l-16.437,7.791l-4.813,8.279l-26.364,3.954l0,0l3.458-7.156l-8.733-18.032l-1.386-21.251l-5.455-1.873
		l-1.385-25.782l4.292-6.463l-11.163-20.336l9.821-6.964l-0.655-12.707l0,0h1.013l0,0l0.582-7.333l0,0l0.223-1.52l0,0l-4.112-2.966
		l0,0h-2.847l0,0l-2.802-1.608l-6.289,7.024l-16.676-12.837l12.026-9.681l8.704,0.811l3.16-7.349l8.137-2.007l1.431-6.773
		l16.199,2.687l6.811-10.448l6.125-0.089l4.321,5.741l21.714-4.796l-3.979-13.813l2.548-10.094l4.725-2.214l-5.902-5.829l5.41-1.8
		l3.979-9.755l-13.279-7.542l8.123-14.476l-3.92-9.001l2.325-2.746l-8.987,4.591l-1.132-4.723l0,0v-1.49l0,0L676.231,456.438z"/>
	<path id="BE-VOV" fill="#CCCCCC" stroke="#FFFFFF" stroke-width="0.5" d="M577.233,87.308l9.358,5.313l2.996,18.047l12.086,8.249
		l-9.314,13.681l4.158,21.766l6.318,1.918l-2.116,6.67l3.652,1.786l0.193,12.912l-4.978,13.37l-19.075,5.209l-10.581-3.291
		l-10.641,9.445l3.398,18.181l3.382,1.505l-2.235,8.012l6.378,3.365l5.797-4.722l2.176,2.862l0,0l-1.073,8.471l-4.203,1.771
		l3.159,5.961l-10.028,8.279l0,0l-3.13,0.088l0,0l-7.794-2.818l-4.561,9.592l3.86,13.001l0,0l1.475,3.364l0,0l-6.9,6.493
		l-12.771-6.685l1.415,10.684l-6.9,4.221l4.054,4.722l-1.654,5.977l-12.459,17.148l8.033,1.727l-1.952,20.438l-13.502,9.046
		l-4.933-3.704l-3.621,5.608L494,350.306l-4.978,7.88l5.797,11.982l-8.405,1.402l0,0l-2.564-0.133l0,0l-5.275-1.269l0,0
		l-4.694-8.456l-11.847,4.338l-8.182-3.881l-10.373,1.033l-6.214-10.64l1.431-4.515l-12.906,6.154l-1.192-6.567l-9.538,4.398
		l-13.74,23.257l0,0l-1.594-0.502l0,0l-4.263-4.486l-19.82-0.679l-0.954-13.974l-12.906,3.04l-9.91-4.575l0,0l17.973-17.354
		l-6.378-8.381l3.622-5.077l-17.213-14.683l7.527-13.577l-5.47-4.619l-7.839,4.53l-4.783-3.172l5.141-6.036l-2.235-5.504
		l7.481-0.044l-3.651-4.899l6.199-1.004l-13.502-6.316l8.718-4.087l-5.037-6.921l7.422-11.318l-7.571-15.022l0,0h1.744l0,0
		l4.114-3.778l-3.13-3.011l-30.178-20.497l12.428-8.205l10.551-19.863l-7.302-11.776l-7.392-2.509l6.99-5.076l-5.097-11.245
		l8.971-4.339l-4.694-17.162l0,0l13.636,13.68l28.612-0.547l-3.367-18.844l6.438,1.417l7.154-4.944l5.737,3.616l2.623-8.751
		l30.253,13.783l23.799,5.77l5.246,3.572l-1.297,18.608l19.478,1.505l8.405-5.446l-0.133,10.375l11.818-9.002l2.265,3.571
		l6.572-1.874l16.423-13.222l13.383,0.561l30.909-22.976L577.233,87.308z"/>
	<path id="BE-VBR" fill="#CCCCCC" stroke="#FFFFFF" stroke-width="0.5" d="M793.174,232.811l8.316-2.095l3.859,8.825l5.945-2.096
		l4.083,4.501l7.303-4.103l-0.955-10.521l11.014-1.373l11.684,11.658l-8.197,3.955l-0.611-3.91l-3.189,1.593l2.608,10.699
		l-13.219,5.18l-0.955,11.688l-9.804,7.909l6.377,11.717l3.74-2.14l3.95,5.637l6.006-3.364l0,0l5.916-2.229l0,0l0.894,3.764
		l9.106-0.221l5.485,4.5l-2.699,12.072l-6.438-0.856l-5.305,13.842l-1.774,15.229l4.442,2.406l0,0l2.057,0.088l0,0l-12.354,10.242
		l1.937,10.138l0,0l-2.415,3.084l0,0l-1.803,7.098l5.247,2.672l-5.589,11.982l0,0l-9.017,0.9l-7.39-7.732l0.729-7.142l-7.69-4.664
		l0,0l-10.864-8.957l-16.467,12.174l-5.424-2.981l0.029-8.603l0,0h-2.205l0,0l-18.286,2.583l-0.06-5.8l-6.587-0.413l-6.198-9.785
		l-9.106-3.763l-10.238,2.081l-2.756,5.933l-1.163-3.085l-5.425,2.893l-14.545-4.442l-1.505,12.129l5.216,7.556l-6.14,5.888
		l-8.777,0.679l-2.489-10.316l-6.035,7.645l-14.202,3.616l-0.209,5.106l-9.478-6.656l0.268-5.933l-34.962,12.086l0,0v5.652l0,0
		l-6.229-0.133l-4.844-7.866l-3.01,2.804l3.04,5.298l-6.065-1.58l-2.325,9.312h-12.846l-4.322,4.752l-11.504-8.854l-8.212,0.9
		l-7.108-10.714l-15.917,10.758l0,0l-4.113-2.538l0,0v-1.048l0,0l-7.511,9.312l-2.548-3.262l-25.886,5.697l0,0h-1.937l0,0
		l-12.325-0.944l-6.349-8.588l1.714-10.227l0,0l5.275,1.269l0,0l2.548,0.133l0,0l8.405-1.402l-5.796-11.983l4.992-7.88l10.7,4.663
		l3.622-5.608l4.933,3.719l13.502-9.061l1.938-20.438l-8.033-1.726l12.458-17.148l1.655-5.991l-4.054-4.723l6.9-4.22l-1.416-10.67
		l12.787,6.67l6.9-6.493l0,0l-1.476-3.365l0,0l-3.86-13.001l4.545-9.592l7.794,2.819l0,0l3.13-0.089l0,0l10.029-8.278l-3.158-5.962
		l4.202-1.771l1.073-8.469l0,0l11.863-2.598l19.195,7.378l-0.954,4.781l10.611-6.419l-2.117,7.467l4.754,1.549l1.654,6.877
		l16.721-4.589l7.764,6.419l3.04-7.777l11.564,7.187l5.857-5.371l9.478,6.139l4.694-0.96l1.743-7.969l22.787-6.507l6.692,4.692
		L710.627,249l10.432-12.425l8.032,0.723l8.927-6.507l7.542,12.646l23.278-4.826l9.417-6.877l0,0h1.356l0,0l9.016-3.955
		L793.174,232.811z M607.649,292.828L607.649,292.828l-1.863,0.413l0,0l-4.144,2.907l0,0l-1.594,0.916l0,0l-4.993,4.589l0,0
		l-4.874,7.127l0.761,13.916l-7.451,0.369l-0.834,4.073l0,0l-2.921,3.764l0,0l0.178,0.546l0,0l0.731-0.723l0,0l9.821,4.899
		l6.751-1.993l8.092,16.765l14.724,4.885l22.667-10.463l0,0l3.771-1.579l0,0l4.113-0.369l-5.514-5.888l0,0l-4.605-0.501l0,0
		l-1.132-3.218l7.079-4.486l-4.381-13.281l-10.82-7.127l4.263-5.077l-2.057-7.674l0,0l-2.087-2.906l0,0l-2.95-1.992l0,0l-3.771-2.73
		l0,0l-6.17,6.803L607.649,292.828z"/>
	<path id="BE-VWV" fill="#CCCCCC" stroke="#FFFFFF" stroke-width="0.5" d="M325.54,80.432l4.62,15.627l-7.302,8.752l4.948,5.961
		l-2.579,1.786l4.054,10.61l0,0l4.694,17.162l-8.971,4.339l5.097,11.245l-6.99,5.076l7.392,2.509l7.302,11.776l-10.551,19.863
		l-12.428,8.205l30.178,20.497l3.13,3.011l-4.114,3.778l0,0h-1.744l0,0l7.571,15.022l-7.422,11.318l5.037,6.921l-8.718,4.087
		l13.502,6.316l-6.199,1.004l3.651,4.899l-7.481,0.044l2.235,5.504l-5.141,6.036l4.783,3.172l7.839-4.53l5.47,4.619l-7.527,13.577
		l17.213,14.683l-3.622,5.077l6.378,8.381l-17.973,17.354l0,0l-7.451,6.611l0,0v1.756l0,0l-8.062,1.181l-13.458,16.646
		l-10.223-5.431l-5.425-15.288l-12.667,1.579l-12.294-6.464l-12.295,4.605l0,0l-7.883-15.333l-7.123,1.624l-4.039-3.394
		l-8.226,9.828l-6.78-3.586l-7.571,4.988l-4.144-1.948l0,0l3.041-3.173l-6.051-1.269l1.789-9.104l-4.173-3.438l-18.464,7.659
		l6.87,8.957l-11.625,4.117l0.179,3.454l-7.689,1.845l-5.008-3.94l-0.089,3.261l-2.548-2.479l-7.75,4.427l2.757,4.397l-3.04,2.479
		l8.375,10.183l-2.027,2.612l0,0l-4.561-7.009l-8.405,3.172l-8.166-4.929l-2.667-11.083l-16.215-18.874l-0.342-7.983l-13.07-1.491
		l-2.667-3.808l-9.657,4.354l-5.618-16.188l-4.739-0.679l3.666-7.024l-0.968-14.979l-0.656-6.935l-4.724-2.863l12.057-12.588
		l-7.168-19.508l-9.672-5.593L86.5,208.035l63.888-35.402l90.102-62.009l31.191-13.326l-4.083-9.666l4.844-5.327l-3.458,3.763
		l4.531,5.593l4.112-2.612l-5.066,6.331l2.921-2.391l0.462,5.003l1.997-5.638l2.847,1.875l-1.938-3.114l4.859,1.239l-2.086-6.965
		l-2.221,1.417l3.473-3.216l-6.84-1.653l7.183,1.756l1.46,8.884L325.54,80.432z"/>
</g>
</svg>
