<?xml version="1.0" encoding="utf-8"?>
<!-- Generator: Adobe Illustrator 15.0.0, SVG Export Plug-In . SVG Version: 6.00 Build 0)  -->
<!DOCTYPE svg PUBLIC "-//W3C//DTD SVG 1.1//EN" "http://www.w3.org/Graphics/SVG/1.1/DTD/svg11.dtd">
<svg version="1.1" id="Layer_1" xmlns:amcharts="http://amcharts.com/ammap"
	 xmlns="http://www.w3.org/2000/svg" xmlns:xlink="http://www.w3.org/1999/xlink" x="0px" y="0px" width="1920px" height="1200px"
	 viewBox="0 0 1920 1200" enable-background="new 0 0 1920 1200" xml:space="preserve">
<defs>
		<style  type="text/css">
		g#mapPaths{
							fill: #e8e3c4;
				stroke: #5d5c56;
				opacity: .8;
		}
	</style>
	
		<amcharts:ammap  projection="mercator" leftLongitude="40.010579" bottomLatitude="41.064411" rightLongitude="46.721888" topLatitude="43.584829">
		</amcharts:ammap>
</defs>
<g id="mapPaths">
	<path id="GE-AB" fill="#CCCCCC" stroke="#FFFFFF" stroke-width="0.5" d="M95.708,42.954l1.884,2.461l2.411-0.563l1.236,0.756
		l3.918,5.051l3.617-0.972l1.477,0.67l1.928,1.619l1.236,0.345l1.853-0.021l1.116,0.194l2.878,0.69l1.673-0.086l1.265-1.166
		l1.282-1.51l0.859-0.712l3.436,3.151l3.586,0.669l1.718,1.533l1.507,3.065l1.824,1.122l1.914,0.972l3.149,0.82l4.356,2.245
		l1.416,0.173l2.713-2.138l4.416-7.619l1.431-1.36l1.583-0.453l1.16-0.605l1.221-1.036l1.779-1.965l1.883,0.043l1.07,0.367
		l1.522,1.965l0.964,2.224l0.919,2.698l1.009,1.23l1.613,0.928l1.477,0.497l3.059,0.193l2.095,1.403l2.667,2.094l1.778,1.813
		l1.612,2.309l2.156,1.685l3.631,2.31l2.14,1.684l2.336,2.46l6.269-0.15l2.14,0.28l2.305,2.03l0.919,1.317l0.227,1.77l-0.633,3.281
		l0.105,1.036l0.768,1.36l1.598,0.82l1.628,1.468l1.325,1.814l1.824,5.937l2.367,1.188l2.787-0.324l1.598-0.777l1.01-1.9l0.738-0.82
		l1.1-0.259l1.312,0.734l1.913,2.267l2.004,1.856l2.034,1.403l1.146,2.201l0.935,2.332l0.18,4.274l0.407,0.539l2.819,2.397
		l5.108,1.748l2.004-0.129l0.889-1.123l0.558-1.964l0.814-1.619l1.01-1.339l1.114-0.13l2.351,0.259l2.246,1.059l2.2,1.619
		l2.638,1.122l3.962,2.181l3.195,1.468l2.923,2.159l3.059,3.216l5.546,1.533l1.401,0.907l1.658,2.158l1.883,3.757l2.185-0.173
		l1.341,0.13l-0.045,0.474l0.392-1.1l1.567-1.317l1.431-1.964l1.959-4.534l1.25-1.166l0.785,0.302l1.024,0.777h0.662l1.854-1.187
		l1.537-0.281l1.115,0.454l2.215,2.914l0.467,15.197l0.467,1.317l0.889,0.69l1.281,0.41l4.204,0.972l1.19-0.108l1.898,1.145
		l0.905,1.424l0.618,1.425l1.251,1.878l1.688,1.813l3.887,2.763l3.497,3.259l0.964,1.706l0.633,2.482l3.375,1.835l1.643,2.85
		l2.954,0.734l4.234,3.064l1.371,0.54l1.793-0.346l1.643-1.964l1.341-0.194l0.769,0.41l4.656,3.563l0.693,0.712l1.387,0.475
		l1.357,0.086l1.476-1.123l1.206-1.964l0.905-2.612l0.647-0.54l0.859,0.065l2.139,2.007l2.652,3.951l3.346,1.381l2.14,0.281
		l3.737,2.482l0.949-0.021l1.883-0.605l3.843-1.834l1.958-1.705l0.83-2.484l-1.041-3.28l-0.21-1.684l0.361-1.727l0.588-1.275
		l1.009-0.431l1.116,0.302l2.2,3.238l4.702,2.958l3.571,0.475l0.995,0.583l0.693,1.144l1.372,3.303l0.889,0.972l1.386-0.173
		l2.291-1.641l3.707-0.303l3,0.454l2.214,2.849l1.522,3.282l1.703,0.755l1.673,0.216l4.159-3.604l4.068-0.325l1.598-0.755
		l4.25-4.598l1.537-0.152l1.717,0.799l0,0l-0.512,1.663l-0.438,2.504l-1.477,4.317l-0.392,2.18l-1.522,4.643l-0.196,1.338
		l-0.014,8.7l1.672,4.878l0.151,2.073l-0.708,2.504l-0.422,3.627l-1.507,4.468l-0.301,1.921l-2.878,8.483l-0.377,0.842l-2.501,3.691
		l-1.417,1.705l-1.703,1.403l-0.784,1.036l-0.497,1.036l-0.813,2.439l-0.256,1.317l-0.211,2.59l-0.693,2.051l-0.362,0.604
		l-0.618,0.389l-1.808,0.367l-1.432,0.734l-1.281,0.215l-3.345,0.108l-2.306,1.08l-2.954,0.366l-4.958,3.411l-2.652,0.67
		l-1.582,0.841l-2.713,0.302l-0.844,0.303l-3.692,2.46l-0.527,0.691l-0.317,0.928l0.075,1.188l0.603,2.289l0.257,2.828l0.903,2.223
		l0.332,0.366l0.633,0.216l2.803,0.086l0.693,0.583l0.241,1.619l-0.15,1.359l-0.603,1.965l-0.211,1.403v8.16l0.422,1.468
		l0.618,0.885l0.89,0.626l0.603,1.036l0.226,0.993l0.121,3.886l0.256,1.23l1.311,1.943l0.241,1.101l-0.105,1.468l-1.025,3.173
		l-0.994,1.944l-1.552,0.841l-2.471,1.749l-1.055,1.598l-0.618,1.619l-0.994,1.813l-0.242,0.972l0.256,1.036l2.169,3.108v1.403
		l0.844,3.454l0.181,6.217l0.135,1.036l0.543,1.598l0.12,1.037l0.061,14.938l0.151,2.503l0.588,1.922l0.391,2.202l0.603,1.468
		l3.557,5.224l0.784,2.029l0.994,1.858l0.452,1.337l0.151,1.576l-0.03,5.483l-0.121,1.209l-0.588,2.073l-0.391,3.497l-0.558,1.964
		l-0.392,2.181l-0.904,1.446l-1.688,1.253l-3.014,1.468l-1.673,2.935l-1.341,3.951l-2.351,3.908l-0.858,2.202l-3.663,5.397
		l-1.281,2.957l-2.621,3.713l-1.357,1.036l-1.537,1.662l-1.492,1.166l-2.637,3.173l-1.522,1.165l-1.567,1.728l-11.317,7.901
		l-2.803,0.625l-1.311,0.756l-1.356,0.432l-2.14,1.36l-0.663,0.69l-0.753,1.188l-1.206,2.806l-3.391,4.964l-0.497,0.951
		l-0.497,1.447l-1.13,1.855l-4.37,3.174l-4.626,3.087l-3.708,2.871l0,0l-0.437-2.375l-0.196-2.871l-0.453-3.152l-0.391-3.626
		l-0.452-4.49l-0.679-8.699l-0.106-2.785l-0.346-3.152l-0.241-4.599l-0.196-2.288l-1.491-13.578l-0.287-2.115l-0.453-2.483
		l-0.301-1.057l-0.392-3.152l-0.24-1.641l-0.196-1.835l-0.648-2.093l-0.451-2.202l-1.025-5.267l-0.407-4.317l-4.339-18.608
		l-1.191-4.987l-1.387-4.015l-0.392-1.252l-0.301-1.338l-0.588-1.641l-1.387-3.368l-1.431-2.288l-0.693-0.108l-1.823,0.583
		l-0.15,0.087l-0.438-1.534l-0.603-0.669l-0.588-1.446l-1.13-2.007l-2.125-1.835l-2.727-1.252l-1.327,0.108h-0.798l-1.086-0.475
		l-0.783-0.302l-0.889-0.281l-0.603-0.583l-1.431-0.863l-0.738-0.28l-0.784-0.303l-0.799-0.086l-0.497,0.28h-0.483l-1.191-0.28
		l-0.783-0.476l-1.1-1.166l-0.889-1.144l-1.582-1.728l-1.372-0.475l-0.995-0.582l-1.236-0.583l-0.889-0.281l-2.561-0.971
		l-1.04-0.475l-1.04-0.389l-0.935-0.863l-1.884-0.756l-2.623-0.194l-1.717,0.756l-0.452,0.301l-0.845,0.95l-0.933,1.166l-0.89,0.669
		h-0.844l-0.693-0.259l-0.784-0.237l-1.189-0.561l-1.432-0.302l-0.543-0.173l-0.783-1.166l-0.151-0.475l-0.542-2.03l-0.106-1.533
		l-0.286-0.582l-0.452-0.368l-0.648-1.251l-0.542-0.972l-1.13-1.145l-0.241-0.582l-0.105-1.144l-1.191-2.116l-1.04-1.08
		l-0.437-1.144l-0.648-2.894l-0.091-2.31l-0.301-2.677l-0.437-2.31l-0.347-3.368l-0.347-4.145l-1.085-8.765l-0.558-3.951
		l-0.633-4.338l-0.648-2.396l-0.783-2.505l-0.347-1.922l-0.347-1.079l-0.648-1.922l-0.346-0.863l-0.543-1.166l-0.542-1.253
		l-0.347-1.726l-0.542-1.252l-1.281-1.749l-0.844-1.144l-1.732-0.972l-1.372,0.108l-0.301,0.755l-1.13,0.583l-2.23-0.474
		l-1.431,0.086l-0.996,1.554l-0.347,0.475l-0.693,1.057l-0.438,0.691l-0.737,1.058l-0.995,0.389l-0.844-0.497l-0.332-0.389
		l-0.302-0.474l-0.542-2.504l-0.889-1.36l-1.342-2.116l-0.437-0.778l-1.387-0.95l-0.196-0.388l-0.497-1.942l-0.437-1.641
		l-0.257-0.756l-1.627-3l-0.739-0.972l-1.687-1.425l-0.588-1.64l-0.784-0.496l-0.407-1.534l-0.393-0.97l-0.587-1.36l-0.95-2.31
		l-1.084-1.921l-0.542-0.885l-2.125-2.591l-1.04-0.496l-2.517-0.194l-1.733-1.252l-2.365-0.777l-2.17-0.086l-0.498-0.389h-0.648
		l-0.678,0.28l-0.844,0.691h-0.497l-0.588-0.302l-0.347-0.475l-1.34-0.475l-4.446-0.885l-3.36,0.108l-0.979,0.474l-1.341,0.195
		h-0.588l-2.079-0.389l-0.844-0.28h-0.693l-0.542,0.389l-1.085-0.109l-1.175-0.28l-2.622-1.642l-1.838-2.136l-1.718-0.562
		l-0.648-0.388h-0.542l-1.884,1.339l-3.602,1.446l-2.17,0.69l-1.974,0.194l-1.145-0.107l-0.542-0.28l-0.739-0.691l-2.079-3.562
		l-0.889-2.505l-0.738-1.36l-1.327-2.504l-0.346-1.166l-0.648-1.446l-0.497-0.582l-1.13-1.058l-0.588-0.886l-0.557-0.863
		l-0.784-0.777l-1.13-0.669l-0.799-0.108h-0.889l-0.693,0.108l-0.392,0.476h-0.784l-1.341-0.087l-0.588-0.389h-0.498l-0.497,0.194
		l-0.497,0.583l-0.393,0.389l-0.392,0.281l-0.738-1.166l-0.301-1.058l-0.648-0.778l-1.19-0.971l-0.482-0.389l-0.453-0.28h-0.677
		l-0.407,0.28l-1.281-0.756l-0.543-0.583l-0.783-1.252l-0.648-0.495l-0.392-0.087l-0.693-0.389l-0.949-1.166l-0.332-0.777
		l-0.603-0.583l-1.929-1.447l-1.583-0.194l-2.17,0.778l-1.627,1.36l-0.648,0.777l-0.633,0.863l-0.889,1.748l-0.497,0.863
		l-0.889,1.166l0.09,0.865l0.06,0.582l-0.256,0.669l-0.196,0.302l-0.588-0.194l-0.995-1.166l-0.693-1.554l-0.828-0.777l-0.949-1.252
		l-0.678-0.863l-1.341-2.807l-0.588-0.668h-1.19l-0.542-0.389l-1.146-1.749l-0.588-0.971l-0.392-0.475l-1.146-1.555l-0.24-0.777
		l-0.649-4.835l-0.588-12.822l-0.693-8.57l-0.994-6.779l-0.783-4.252l-0.739-3.196l-0.739-2.244l-0.693-1.447l-0.498-0.668
		l-1.13-0.972l-1.537-0.886l-0.738-0.194l-0.392-0.085l-0.453-0.497l-0.437-0.777l-0.949-0.669l-0.783-0.583l-2.923-0.669
		l-0.98-0.583l-2.275-0.776l-1.733-1.166l-1.628-1.555l-3.556-4.166l-1.085-0.778l-1.777,0.086l-0.196-0.28l-0.045-0.388
		l-2.321-2.245l-1.19-1.058l-0.257-0.194l-2.365-2.224l-1.236-0.496h-2.215l-2.23-0.194l-2.909-0.972l-1.642-0.669l-0.98-0.497
		l-0.965,0.109l-0.15-4.836l0.859-5.59l-0.227-2.72l0.393-1.9l0.858-1.662l3.061-8.333l0.496-2.526l0.784-6.282l1.07-1.77
		l2.02-3.843l0.18-2.029l0.573-1.835l1.175-1.446l3.768-5.612l0.603-2.051l-0.06-1.532l-0.935-3.627l0.045-2.59l0.603-2.245
		l0.875-1.533l0.859-0.281l3.194,1.036l1.778-0.41l2.215-1.23l2.592-1.727l2.562-0.842l1.176,0.021l1.749,0.95l3.48-0.086
		l1.296-0.713l1.296-1.488l1.703-0.886l2.186-0.259l2.592,0.583L95.708,42.954z"/>
	<path id="GE-AJ" fill="#CCCCCC" stroke="#FFFFFF" stroke-width="0.5" d="M360.417,620.91l0.467-0.452l1.326,0.149l0.95,0.195
		l1.371,0.82l0.739,0.215l9.283,0.109l0.995,0.28l1.386,0.843l0.754,0.192l7.746,0.065l1.567,0.324l3.918,2.676l0.859,1.771
		l0.105,1.577l-0.105,6.54l0.135,0.95l0.422,0.755l0.679,0.261l1.206,0.063l4.837-0.129l1.387,0.432l0.753,0.734l0.528,0.82
		l1.085,2.57l0.662,1.164l0.753,0.69l1.808,0.757l0.89,0.604l2.954,0.69l1.236,0.95l0.437,0.54l0.256,1.166l0.136,2.656l0.527,1.013
		l0.618,0.151l0.784-0.345l4.762-3.412l1.492-0.475l1.808-0.971l0.753-0.13l6.179,0.066l1.25,0.063l0.723,0.303l3.797,2.568
		l0.89,1.295l0.964,2.59l0.813,3.282l2.095-0.885l1.356-0.842l3.405-0.519l1.146-0.69l1.281-0.433l9.102,0.217l4.279-5.871
		l3.466-2.527l2.622-3.151l0.663-0.323l0.708-0.107l3.933,0.021l1.19,0.193l0.633,0.433l2.606,3.563l0.708,1.338l2.2,6.498
		l0.723,1.057l0.633,0.346l0.708,0.109l6.164,0.063l0,0l0.422,2.505l2.457,6.929l0.181,0.972l0.045,1.403l0.03,7.382l-0.167,1.75
		l-0.587,1.381l-2.562,3.627l-0.497,1.468l-0.075,3.238l0.211,1.252l0.617,1.835l0.272,1.792l2.079,5.979l2.275,3.734l0.708,1.836
		l0.633,0.755l2.895,1.964l1.28,1.62l1.869,5.158l3.345,4.771l0.572,1.016l0.362,1.209l0.287,3.13l0.528,1.554l0.723,2.83
		l1.235,5.805l0,0l-0.919,0.757l-0.753,1.403l-0.332,1.489l0.121,3.865l-0.21,2.027l-2.2,6.455l0.542,1.08l0.226,3.799l-1.19,0.711
		l-1.13,1.469l-1.34,3.735l-2.321-0.281l-0.754,0.928l-0.211,1.792l-0.708,0.993l-1.296,0.647l-0.542,0.777l-1.07,3.563l1.913,4.64
		l0.437,2.698l-0.045,1.252l-0.482,1.08l-1.19,0.087l-1.627-1.921l-1.401,0.086l-4.491,1.963l-4.325-0.344l-1.356-0.844l-1.733-2.46
		l-2.667-2.374l-1.25-3.174l-3.948,0.107l-2.532,0.584l-1.583-1.317l-1.793-1.532l-2.05,0.258l-1.19,0.389l-1.567-0.906
		l-1.312-2.309l-1.31-1.145l-1.296-0.605l-2.563-2.849l-1.25-0.368l-3.135,0.736l-2.547-1.384l-7.188,0.476l-0.979,0.712
		l-0.995-4.166l-0.542-0.775l-0.919-0.457l-1.1-1.682l-2.215-0.13l-3.451,1.899l-1.145,0.023l-1.507,0.321l-1.356,0.647
		l-1.613,0.173l-0.347-2.395l-1.19-0.304l-1.718,1.512l-2.667-0.82l-1.448,0.799l-4.521,4.706l-0.963,0.324l-1.207-0.519
		l-4.083-3.193l-1.462-0.283l-2.38,0.045l-0.754-0.152l-0.558-1.38l-0.06-1.858l-2.14-3.086l-3.887,0.238l-1.387,2.72l-4.355,4.339
		l-0.859,0.497l-1.883,0.646l-0.739,2.958l-1.235,1.575l-0.091,2.633l-1.853,3.109l-1.221,3.065l-4.747,2.18l-0.361,1.792
		l-1.522,3.108l-2.426,1.922l-0.814-0.042l-1.432-2.699l-0.724-2.072l-1.958-1.272l-1.733-0.671l-0.452-2.396l-1.145-0.907
		l-2.396-1.509l-2.456-1.729l-4.536,0.237l-2.291-0.712l-0.376-1.08l0.407-1.64l0.858-0.951l0.151-1.314l-0.498-1.532l-1.748-1.146
		l-5.862,3.69l-2.154,0.757l-1.568,0.345l-1.583-0.973l-4.476-4.251l-2.306-3.044l-4.475-2.374l-0.723-1.706l-1.356-0.734
		l-2.381-0.258l-1.688-1.124l0.151-2.526l0.196-0.475l0.346-0.56l0.09-1.231l0.302-0.389l0.391-0.086l0.347-0.366l0.603-0.757
		l0.347-2.181l0.241-2.913l0.151-3.95l-0.045-3.304l0.482-3.973l0.889-3.756l0.95-1.899l0.632-0.841l0.301-0.758l0.438-1.314
		l0.843-1.598l0.739-0.864l0.994-1.88l0.347-0.948l1.537-2.742l1.718-2.353l1.627-2.072l0.754-0.669l0.286-0.172h0.648l0.587,0.365
		v0.949l0.196,0.843l0.407,1.426l1.024-0.281l0.648,0.281l-0.09-0.67l0.09-0.647l0.452-0.584l0.286,0.756l0.799,0.108l0.784-0.755
		l0.256-0.28l0.542-1.037l0.437-0.668l0.8-1.902l0.979-1.488l1.084-2.266l1.04-2.656l0.739-1.879l0.407-1.035l0.24-1.23l0.348-0.388
		l0.587-0.087l0.393-1.231l0.693-1.425l0.648-2.546l0.647-2.159l1.823-7.275l1.236-6.433l0.693-0.562l0.347-0.582l0.482-1.706
		l0.798-1.598l1.13-4.338l0.211-1.425l1.221-4.836l0.346-2.073l0.844-8.333l0.196-4.642l0.255-5.288l-0.15-1.985l-0.949-5.872
		l-0.045-1.813l-0.196-1.405L360.417,620.91z"/>
	<path id="GE-GU" fill="#CCCCCC" stroke="#FFFFFF" stroke-width="0.5" d="M357.689,542.397l0.89-0.799l0.632-0.259l2.035-0.431
		l1.356-0.756l0.949-0.194l12.07,0.151l0.919-0.151l2.124-0.906l3.331-0.54l1.372-0.756l2.667-0.669l2.788-1.835l0.995-0.431
		l8.544,0.021l1.009-0.26l1.145-0.713l3.647-0.884l2.185,1.706l2.532,0.539l1.387,0.821l2.456,0.562l1.341,0.82l1.612,0.604
		l1.236,1.403l4.34,6.261l1.386,1.295l2.456,0.496l1.146,0.756l0.708,0.194l7.927,0.129l1.672,0.282l1.356,0.906l1.462,0.475
		l1.642,1.295l0.453,0.907l0.527,2.051l0,0l-1.478,1.144l-1.114,1.167l-1.372,2.094l-0.256,0.604l-0.166,0.95l-0.09,3.194
		l0.241,1.016l1.898,5.396l0.875,1.252l1.687,1.209l0.678,0.28l4.837,0.13l1.221,0.28l2.095,1.533l1.672,1.814l0.919,0.431
		l0.739,0.108h0.965l1.054-0.475l0.874-1.856l0.573-1.922l0.709-1.684l0.256-0.411l0.633-0.367l1.477-0.107l4.446,0.173l0.738,0.237
		l1.341,0.82l1.566,0.41l1.01,0.496l2.623,7.556l0.361,3.433l0.588,1.921l0.422,2.461l0.994,3.001l0.949,2.093l1.04,0.432h2.953
		l1.176,0.194l4.235,2.892l2.305,1.814l3.904,5.289l0.647,0.453l1.312,0.411l1.372,0.819l1.898,0.777l0.935,1.036l2.064,2.893
		l1.01,0.864l1.416,0.237l8.575-0.087l1.266,0.13l0.934,0.454l0.723,1.014l1.703,3.67l0.302,1.403l0.06,18.306l0.271,2.117
		l0.542,1.964l0.211,4.575l0,0L512,644.462l-0.919,0.281l-0.859,0.755l-1.22,1.664l-0.739,1.38l-0.889,2.721l-0.271,3.107
		l-0.197,0.95l-0.813,1.88l-0.528,0.473l-1.853,0.41l-1.598,0.886h-1.1l-1.07-0.669l-2.185-2.763l-0.693-0.39l-0.753-0.13h-3.346
		l-0.979,0.303l-1.115,0.733l-0.467,0.109l-3.481,0.215l0,0l-6.164-0.063l-0.708-0.109l-0.633-0.346l-0.723-1.057l-2.2-6.498
		l-0.708-1.338l-2.606-3.563l-0.633-0.433l-1.19-0.193l-3.933-0.021l-0.708,0.107l-0.663,0.323l-2.622,3.151l-3.466,2.527
		l-4.279,5.871l-9.102-0.217l-1.281,0.433l-1.146,0.69l-3.405,0.519l-1.356,0.842l-2.095,0.885l-0.813-3.282l-0.964-2.59
		l-0.89-1.295l-3.797-2.568l-0.723-0.303l-1.25-0.063l-6.179-0.066l-0.753,0.13l-1.808,0.971l-1.492,0.475l-4.762,3.412
		l-0.784,0.345l-0.618-0.151l-0.527-1.013l-0.136-2.656l-0.256-1.166l-0.437-0.54l-1.236-0.95l-2.954-0.69l-0.89-0.604l-1.808-0.757
		l-0.753-0.69l-0.662-1.164l-1.085-2.57l-0.528-0.82l-0.753-0.734l-1.387-0.432l-4.837,0.129l-1.206-0.063l-0.679-0.261
		l-0.422-0.755l-0.135-0.95l0.105-6.54l-0.105-1.577l-0.859-1.771L387,623.652l-1.567-0.324l-7.746-0.065l-0.754-0.192l-1.386-0.843
		l-0.995-0.28l-9.283-0.109l-0.739-0.215l-1.371-0.82l-0.95-0.195l-1.326-0.149l-0.467,0.452l0,0l-0.105-1.835l-0.287-2.093
		l-0.256-0.843l-0.347-7.405L359.136,602l-0.693-8.246l-0.061-4.943l0.106-1.792l-0.453-1.425l-0.542-3.41l0.06-1.231l0.287-0.474
		l0.301-2.655l-0.196-0.109l-0.392,1.339l-0.15,1.511l-0.347,0.194l-0.934-2.094l-0.301-1.51l-0.843-0.389l-0.347-1.23l-0.633-1.339
		l-0.301-0.949l-1.236-4.081l-0.392-2.375l-1.627-4.079l-0.408-1.036l-0.09-0.95l-0.542-1.231l-0.256-0.97l-0.587-1.036v-0.562
		l0.24-0.669h0.407l0.346,0.086l-0.105-0.95l0.044-0.281l0.257-0.281h0.241v0.951l0.497,1.792l0.151,0.668v1.145l0.347,0.67
		l0.241,0.949v0.475l-0.196,0.367l-0.15,1.058l0.648,0.561l0.346,0.108l0.136-0.475l0.558,0.173l0.437,1.619h0.196l0.347-0.841
		l0.195-0.302V563.1l-0.286-0.777l-0.105-0.367v-0.475l0.196-0.582l0.347,0.107l0.196-0.28l-0.15-0.475l-0.392-0.108l-0.045-0.281
		l0.196-0.367l0.588-0.496l0.196-0.28v-0.281l-0.196-0.475l-0.693,0.086l-0.286-0.173l-0.196-0.949l-0.196-0.95l-0.994-0.303
		l-0.196-0.647l-0.603-0.195l-0.135-0.755l-0.407,0.173l-0.196-0.648l0.301-0.777h0.302h0.241l0.648,0.388l0.482,0.282l0.558-0.367
		l0.287-0.195l0.347-0.194l1.341-0.669l0.979-0.669h0.844l0.498-0.086l0.346-0.28l0.347-0.669l0.241-0.95l-0.196-1.339v-1.619
		l0.196-0.561l0.452-0.194l0.347-0.195l0.588-0.28l0.437-0.28v-0.389l-0.481-0.561l-0.408-0.195l-0.587-0.194l-0.242-0.086
		l-0.346-0.389L357.689,542.397z"/>
	<path id="GE-IM" fill="#CCCCCC" stroke="#FFFFFF" stroke-width="0.5" d="M510.539,407.93l1.929,3.282l0.422,1.619l-0.015,3.174
		l-0.181,0.993l-0.664,2.245l-0.12,3.842l0.256,2.03l1.356,2.655l0.286,1.295l0.045,6.326l-0.18,3.065l1.914,0.345l1.793-0.194
		l1.342-0.82l1.717-0.626l1.13-0.713l1.733-0.583l1.717-1.143l0.949-1.145l1.613-4.533l0.467-0.604l0.632-0.367l1.823,0.065
		l1.763,1.057l2.261,0.454l0.784,0.648l1.914,2.503l0.347,0.346l0.935,0.367h1.491l1.854-0.972l1.613-0.345l0.392-0.238l0.331-0.539
		l0.468-3.432l0.633-2.655l0.302-0.777l0.738-0.346l0.633,0.065l3.36,1.942l0.286,0.388l0.83,2.115l0.995,1.468l0.406,0.367
		l2.276,0.605l0.256,0.216l0.09,0.345l2.14,0.95l1.914,1.965l1.552,1.274l8.002,11.269l0.829,1.619l0.437,2.439l0.573,1.921
		l0.256,5.937l0.572,1.899l0.316,1.663l0.227,0.476l0.542,0.387l0.633,0.108l4.249-0.021l1.085,0.367l3.812,2.764l2.261,2.849
		l1.733,1.446l1.657,2.224l0.693,0.604h0.423l0.361-0.237l1.793-2.354l0.799-0.626l2.984-0.324l1.552-0.906l0.889-0.237l1.643,0.043
		l1.372,0.54l1.824-1.619l2.697-0.562l2.095-1.446l1.703-1.856l1.356-1.015l2.366-3.13l0.965-1.748l1.295-3.821l0.528-0.885
		l6.375-4.598l1.537-2.072l0.136-0.95l0.196-0.454l0.859-0.54l2.742-0.022l2.939,0.282l2.109-0.346l1.568-0.885l0.964-0.238
		l9.087,0.021l1.22,0.302l1.13,0.756l1.507,0.54l1.567,0.929l2.938,0.41l1.838,1.014l1.959,0.237l1.221-0.194l1.356-0.841
		l1.717-0.626l1.146-0.712l2.441-0.54l1.597-0.929l1.733-0.129l0.935,0.345l8.544,6.152l2.44,0.561l1.793,0.994l2.413,0.324l0,0
		l2.681,3.799l1.162,1.166l2.456,0.561l1.341,0.821l0.693,0.215l4.417,0.281l1.551,0.928l0.891,0.216l1.085-0.28l3.601-2.569
		l2.804-3.368l2.335-1.576l1.461-0.216l2.246,0.107l0.888,0.346l1.236,0.993l0.438,0.56l0.935,2.225l0.903,2.72l0.136,1.274
		l-0.151,1.252l-0.528,1.576l-0.436,2.439l-0.543,1.598l-0.422,2.439l-1.432,3.992l-0.211,0.886l-0.061,1.619l0.121,1.295
		l0.618,1.899l0.512,2.245l-1.898,0.519l-1.582,0.884l-2.441,0.519l-1.915,1.316l-1.657,1.77l-0.647,0.432l-1.236,0.216l-4.1-0.064
		l-1.159,0.409l-0.783,0.821l-1.04,1.511l-0.604,1.08l-0.738,2.008l-1.506,2.289l-0.98,1.014l-2.697,1.792l-0.769,0.993
		l-1.041,2.915l-0.362,2.159l-0.602,1.878l-0.121,0.929l0.121,1.576l0.543,1.576l0.452,2.418l0.602,1.921l0.135,1.662l-0.029,7.253
		l-0.196,1.295l-0.633,2.202l-0.196,3.648l-3.632,2.526l-0.889,1.23l-0.92,2.676l-0.406,2.461l-0.528,1.576l-0.347,3.497
		l-0.587,1.899l-0.497,2.699l-0.965,2.698l-2.14,3.432l-1.1,2.634l-1.311,1.576l-6.525,4.447l-1.041,1.079l-0.165,2.245l-0.572,1.9
		l-0.197,1.705l0.03,18.457l-0.15,2.073l-0.603,1.23l-1.703,1.424l-2.984,3.822l-1.4,1.079l-0.785,0.841l-1.823,2.505l-0.919,1.64
		l-0.949,2.678l-0.195,2.051l0.105,2.44l0.708,2.545l0.166,2.268l0,0l-1.612,0.194l-1.552,0.886l-2.035,0.323l-0.633,0.26
		l-2.109,1.532l-2.623,3.519l-0.964,0.929l-2.472,0.518l-1.552,0.862l-2.034,0.325l-0.633,0.258l-2.109,1.513l-2.427,3.021
		l-3.828,2.655l-0.632,0.259l-2.245,0.41l-1.13,0.734l-1.733,0.582l-1.13,0.735l-1.732,0.583l-1.131,0.733l-1.522,0.475l-1.34,0.842
		l-1.718,0.563l-10.639,7.402L601,647.765l-2.245-1.488l-1.944-1.576l-1.04,0.323l-2.246,0.28l-2.335,1.08l-5.998,0.107
		l-2.563,1.145l-4.837,0.108l-0.949,0.238l-1.612,0.84l-2.683,0.281l-0.693,0.324l-0.603,0.583l-1.989,2.827l-2.14,0.13
		l-1.522-0.216l-0.407-0.194l-4.535-3.281l-0.664-0.281l-1.251-0.173l-4.701,0.065l-1.266-0.13l-0.934-0.346l-3.044-2.116
		l-1.009-0.214h-3.346l-1.055,0.323l-5.651,3.864l-0.979,1.057l-2.351,3.218l-0.634,0.54l-1.988,0.344l-1.824-0.043l-1.522-0.301
		l-3.465-2.289l-1.13-0.195l-1.945,0.045l-0.964-1.015l-1.069-2.612l-3.06-4.491l0,0l-0.211-4.575l-0.542-1.964l-0.271-2.117
		l-0.06-18.306l-0.302-1.403l-1.703-3.67l-0.723-1.014l-0.934-0.454l-1.266-0.13l-8.575,0.087l-1.416-0.237l-1.01-0.864
		l-2.064-2.893l-0.935-1.036l-1.898-0.777l-1.372-0.819l-1.312-0.411l-0.647-0.453l-3.904-5.289l-2.305-1.814l-4.235-2.892
		l-1.176-0.194h-2.953l-1.04-0.432l-0.949-2.093l-0.994-3.001l-0.422-2.461L473,583.392l-0.361-3.433l-2.623-7.556l-1.01-0.496
		l-1.566-0.41l-1.341-0.82l-0.738-0.237l-4.446-0.173l-1.477,0.107l-0.633,0.367l-0.256,0.411l-0.709,1.684l-0.573,1.922
		l-0.874,1.856l-1.054,0.475h-0.965l-0.739-0.108l-0.919-0.431l-1.672-1.814l-2.095-1.533l-1.221-0.28l-4.837-0.13l-0.678-0.28
		l-1.687-1.209l-0.875-1.252l-1.898-5.396l-0.241-1.016l0.09-3.194l0.166-0.95l0.256-0.604l1.372-2.094l1.114-1.167l1.478-1.144l0,0
		l1.356-0.323l1.04,0.043l0.738,0.216l1.356,0.82l1.267,0.021l0.708-0.433l1.432-1.488l0.964-0.756l0.542-0.691l0.272-0.604
		l0.196-1.058l0.15-3.303l0.678-2.655l0.167-2.612l-0.016-24.22l-0.181-1.835l-0.708-2.547l0.135-1.295l0.497-0.626l2.261-1.036
		l2.064-0.433l0.513-0.582l0.241-1.231l0.015-2.138l-0.135-2.201l-0.317-1.642l1.627-4.36l1.552-3.389l1.672-2.98l1.553-4.382
		l1.417-2.612l4.415-12.456l1.959-2.785l1.567-1.208l0.738-0.821l3.316-4.598l1.115-1.77l1.01-2.483l2.366-3.432l0.573-1.059
		l0.226-0.928l0.09-1.317l-0.061-14.442l0.076-1.662l0.241-0.884l0.587-0.843l2.848-1.899l0.498-0.54l0.36-0.733l0.228-1.706
		l-0.016-6.498l0.271-1.317l1.115-1.706l1.763-1.382l0.875-1.122l0.557-1.08l1.266-3.798l0.392-0.692l0.512-0.517l1.461-0.324
		l6.933,0.107l1.16-0.453l1.477-1.576l0.83-0.519l2.154-0.151L510.539,407.93z"/>
	<path id="GE-KA" fill="#CCCCCC" stroke="#FFFFFF" stroke-width="0.5" d="M1226.217,890.472l-3.632-0.131l-1.432,1.75l-2.019-0.304
		l-2.833-4.641l-4.069-2.331l-4.249-1.446l-3.451,3.498l-5.063,10.447l-2.441,6.691l-2.426,0.864l-4.054-7.707l-0.815-7.253
		l-4.053-2.331l-3.858,2.913h-3.239l-5.561-10.038l-2.561-5.354l-5.667-9.887l-5.274-6.974l-10.354-0.581l-7.098,1.166l-4.053-2.894
		h-2.833l-0.921,1.554l-3.329,1.273l-1.251,6.584l-2.426,1.942l-2.863-1.532l-2.199-0.582l-4.582,0.367l-3.979-0.604l-1.644,0.692
		l-3.511,0.819l-5.756-0.54l-4.596-3.714l-3.753-4.834l-4.129-3.152l-3.014-2.009l-2.14-0.8l-4.265,0.238l-2.623-0.732l-3.298-1.792
		l-3.634-4.037l-3.858-2.764l-5.002-4.878l-4.687-9.456l-1.869-3.95l-0.707-1.835l0.045-1.144l0.526-1.469l0.966-0.304l0.918-1.92
		l0.859-2.784l1.115-1.231l0.738-1.446l0.784-0.519l0.918-0.28l2.743-0.128l0.936-0.433l0.407-0.907l-0.242-1.037l-2.729-3.841
		l-1.084-1.813l-1.024-0.109l-3.738,3.324l-1.312-0.194l-1.762-0.862l-4.763-4.122l-1.989-0.692l-3.15,0.389l-3.223,1.338
		l-2.97-1.661l-0.994-1.079l-0.95-1.62l-0.603-5.05l-0.844-2.809l-2.381-1.574l-5.922-2.072l-3.422-1.706l-1.596-1.381l-0.995-1.361
		l-2.969-5.095l-1.282-0.992l-1.4-0.28h-1.4l-0.814-0.26l-2.803,4.921l-1.448,1.943l-1.055,0.973l-1.356,0.258l-1.355-0.151
		l-4.46-3.993l-3.859-4.036l-2.681-4.058l0,0l-0.498-2.636l-3.33-9.237l0.014-1.21l1.282-3.758l-0.076-0.797l-0.632-1.165
		l-2.819-3.865l-1.129-0.992l-1.522-0.497l-1.567-0.906l-4.415-0.238l-2.261-1.101l-2.306-0.194l-0.874-0.26l-0.527-0.518
		l-0.392-0.67l-1.868-5.33l-0.166-1.253l0.029-1.619l0.166-0.929l0.619-1.834l0.046-1.554l-0.167-0.887l-2.442-6.584l-0.135-0.928
		l0.075-1.274l0.437-1.145l2.531-3.605l1.176-2.698l2.157-3.388l0.948-2.636l0.105-0.861l-0.121-0.886l-0.481-1.555l-0.332-3.15
		l-0.589-1.899l-0.437-2.418l-0.511-1.576l-0.378-3.454l-0.707-2.525l-0.077-6.521l-0.137-1.661l-2.53-7.255l-0.405-2.438
		l-0.499-1.597l-0.315-1.642l-0.227-0.475L967.882,667l-1.326-0.217l-3.933,0.151l-0.678,0.237l-1.102,0.756l-0.662,0.194
		l-0.89-0.108l-0.572-0.431l-0.542-0.886l-1.387-4.08l-2.11-3.412l-0.769-1.963l-1.282-2.353l-2.621-7.34l-2.021-2.98l-1.37-1.424
		l0,0v-3.864l-0.121-1.597l-1.236-3.563l-1.19-1.641l-1.387-1.057l-1.673-1.814l-2.381-1.317l8.59-11.893l0.392-0.261l0.664-0.086
		l2.079,1.359l1.236,1.425l2.606,3.735l1.056,1.166l1.929,1.295l2.471,0.54l1.521,0.863l0.831-0.152l3.013-2.072l2.998-0.303
		l1.764-0.971l2.923-0.517l-0.527-2.246l-1.206-3.26l-2.907-4.296l-1.521-1.684l-1.72-0.647l-1.565-0.886l-3.497-0.259l-2.23-1.101
		l-2.983-0.39l-1.567-0.906l-2.487-0.54l-1.115-0.712l-1.174-0.476l-0.452-0.54l-0.377-2.913l-0.572-1.899l-0.152-0.95l-0.075-1.964
		l0.106-1.641l0.36-1.187l1.146-2.051l0.768-1.899l2.004-3.109l0.196-0.562l0.06-0.928l-1.521-4.49l-0.423-2.461l-0.919-2.699
		l-0.723-1.359l-2.08-2.893l-0.408-1.015l0.09-1.014l1.809-5.16l0.12-1.015l-0.678-2.353l-2.381-6.326l-0.196-1.166l0.076-0.604
		l0.332-0.842l2.546-3.583l0.589-1.425l0.225-5.57l0.634-2.18l0.196-1.295l0.119-7.253l0.695-2.527l0.316-3.172l0.558-1.901
		l0.452-2.417l0.843-1.641l2.999-4.166l0.603-1.446l0.15-2.008l-0.06-7.944l0.075-0.993l0.241-0.95l0.739-1.316l5.063-7.146
		l0.889-2.224l1.267-2.375l0.875-2.05l0.722-0.625l1.493-0.497l1.129-0.69l2.488-0.475l1.355-0.799l1.702-0.604L974,481.78
		l1.914-5.332l0.255-1.555v-1.317l-0.12-0.949l-0.587-1.922l-0.362-3l-0.679-1.964l-0.346-1.512l-1.432-4.015l-0.195-0.907
		l-0.122-7.62l0.136-2.029l0.452-1.167l0.482-0.733l0.739-0.799l1.581-1.209l2.849-3.713l1.673-1.381l0.587-1.231l0.166-1.943
		l-0.074-11.031l-0.182-1.36l-0.526-1.598l-0.394-2.137l-0.647-2.181l-0.015-1.92l2.939-8.376l1.4-2.633l1.536-4.383l2.186-3.475
		l0.679-1.899l0.86-1.446l0,0l1.536,4.771l1.915,3.238l1.61,1.964l1.521,0.929l1.749,0.323l1.943-0.646l2.004-1.167l3.663-1.511
		l1.235-0.885l1.16-0.345l4.476-0.432l4.446,0.734l5.56,0.258l4.521-0.344l4.747-2.872l3.028-0.109l2.306,0.584l1.355,0.927
		l2.503,3.821l1.868,2.375l4.973,4.101l5.38,3.174l8.62,7.447l0.663,0.259l5.124-0.626l1.824,0.109l1.656,1.64l1.266,2.353
		l0.754,2.871l0.527,3.346l-0.09,3.627l-0.303,3.217l-1.174,3.324l-6.225,14.032l-0.603,2.483l-0.287,2.202l0.846,6.563
		l-0.077,3.065l-1.099,4.511l0.526,1.036l2.186,2.721l0.679,1.273l0.286,3.8l-0.635,1.38l-1.189,1.36l-3.783,2.331l-1.988,0.54
		l-1.16,0.648l-2.199-0.022l-1.899,1.318l-1.205-0.066l-1.01-1.468l-1.072-0.82l-1.369-0.237l-1.056,0.496l-0.588,1.641
		l-2.441,11.269l-1.808,6.995l-1.312,4.252l0.406,1.512l0.739,1.057l1.312,0.454l0.92,0.583l3.057,4.707l4.07,1.834l4.596,4.382
		l1.523,0.929l1.159,1.467l3.856,3.563l2.231,2.785l0.8,3.475l1.023,0.367l1.176,1.166l1.326,1.942l0.723,1.685l2.683,2.093
		l1.96,0.474l1.431,1.728l1.085,0.69l1.688,0.303l3.361-1.144l2.29,0.194l3.948,1.986l2.079,1.684l3.979,4.899l0.226,2.203
		l-0.044,3.929l0.256,2.742l0.708,2.396l2.033,3.476l0.452,3.778l0.738,1.058l1.599,1.489l1.19,0.367l1.28-1.166l3.225-3.993
		l1.16-0.238l1.508,0.842l1.837,0.647l1.343-1.166l1.763-0.626l0.755,0.432l0.512,1.446l0.346,3.152l0.302,1.101l0.859,0.518
		l1.1-0.237l1.009-0.733l1.07-1.425l2.064-3.821l1.356,0.713l0.95,1.295l0.39,5.504l0.424,2.375l0.859,2.546l1.777,2.85l1.989,1.597
		l0.994-0.431l0.407-1.145l0.422-5.525l0.814-1.835l0.723-0.432l0.919,0.432l1.01,0.928l5.711,8.851l2.005,0.497l2.681-0.151
		l2.036-0.82l4.098-3.929l1.72-0.518l0.965,0.367l0.781,1.23l0.649,2.525l1.748,3.39l5.426,7.21l1.055,2.871l1.566,0.647
		l0.677,0.972l0.303,1.036l-0.211,1.619l0.09,0.626l2.833,0.323l0.724-0.885l0.378-1.533l0.195-2.979l0.648-1.359l0.979-0.109
		l0.859,0.605l1.176,2.504l1.011,0.842l0.842-0.82l1.749-3.562l0.783-0.733l0.813,0.042l0.363,0.799l0.348,3.238l-0.212,3.26
		l0.617,4.662l0.498,1.749l4.792,4.188l-0.619,9.5l-0.889,4.165l-1.913,5.569l-1.041,2.053l-2.907,4.272l-2.772,2.03l-3.873,3.734
		l-7.746,9.994l-8.921,2.655l-7.927,4.145l-4.687,8.765l2.532,18.608l2.516,10.837l0.361,16.018l3.239,5.678l5.049-7.231l3.09,0.647
		l-0.105,0.495l5.244,3.262l1.387,3.95l-0.769,2.893l0.421,3.671l1.235,3.819l2.065,3.713l0.467,1.165l2.353,4.685l0.391,2.979
		l-0.466,4.857l0.768,1.965l1.718,2.138l6.012,3.173l4.582,2.895l0.287,1.423l0.075,3.109l0.465,0.496l3.995,0.304l1.116,0.84
		l1.611,2.354l1.445,3.887l1.358,1.575l3.419,3.39l2.608,1.229l10.262,5.764l0.182,0.195l0.255,1.381l1.328,0.755l4.006,1.706
		l0.229,0.886l0.722,0.732l0.138-0.862l0.512-1.403l0.602,0.044l0.603,1.057l-0.149,1.23l-0.393,1.381l0.106,1.404l0.979,0.021
		l0.738-0.842l0.483,0.886l0.33,1.252l0.859,0.368l0.646-2.418l0.966,0.732l0.588,1.598l-0.902,2.764l-0.875,0.496l-0.846,0.151
		l-0.512,1.015l-0.136,0.885l1.327,0.388l0.858,0.045l0.95,1.423l0.512-0.69l0.376-1.209l-0.09-1.402l0.15-1.727l0.256-0.691
		l0.844,0.367l0.452,1.944l-0.045,3.15l-0.632,1.382l0.482,0.366l0.979-0.324l0.482,0.54l0.09,1.404l-0.271,1.576l0.106,0.862
		l1.22,0.388l1.839-0.796l0.845,0.387l0.225,0.886l-0.616,0.842l0.211,1.403l0.466,1.253l-0.406,2.072l0.708,1.768l1.189,1.619
		l0.228,1.059l-0.394,1.381l0.483,0.282l4.175,0.496l0.964,1.836l0.061,1.488l-0.859,1.317l-1.702,1.294l-1.81,3.736l-1.01,1.401
		l-0.164,6.888l-3.119,4.512l-0.665,2.504l-1.251,2.007l-1.867,4.059l0.393,3.345l0.994,2.29l0.526,1.899l-0.648,0.864v3.95
		l-1.16,0.884l-0.587,2.635l0.348,10.102l-1.268,2.851l-0.121,2.418L1226.217,890.472z"/>
	<path id="GE-KK" fill="#CCCCCC" stroke="#FFFFFF" stroke-width="0.5" d="M915.667,666.223l0.572-0.26l0.889-0.928l2.577-3.52
		l0.874-1.51l0.286-1.556l0.016-4.965l0.256-1.878l0.979-2.676l1.311-2.31l0.618-1.664l1.251-2.374l0.573-1.598l0.603-0.776
		l0.618-0.217l0.617,0.173l1.1,0.713l1.507,0.561l3.255,2.245l1.191,0.194l4.656,0.151l3.179,1.986l0.589-0.13l1.612-1.64
		l1.824-1.102l0,0l1.37,1.424l2.021,2.98l2.621,7.34l1.282,2.353l0.769,1.963l2.11,3.412l1.387,4.08l0.542,0.886l0.572,0.431
		l0.89,0.108l0.662-0.194l1.102-0.756l0.678-0.237l3.933-0.151l1.326,0.217l0.361,0.302l0.227,0.475l0.315,1.642l0.499,1.597
		l0.405,2.438l2.53,7.255l0.137,1.661l0.077,6.521l0.707,2.525l0.378,3.454l0.511,1.576l0.437,2.418l0.589,1.899l0.332,3.15
		l0.481,1.555l0.121,0.886l-0.105,0.861l-0.948,2.636l-2.157,3.388l-1.176,2.698l-2.531,3.605l-0.437,1.145l-0.075,1.274
		l0.135,0.928l2.442,6.584l0.167,0.887l-0.046,1.554l-0.619,1.834l-0.166,0.929l-0.029,1.619l0.166,1.253l1.868,5.33l0.392,0.67
		l0.527,0.518l0.874,0.26l2.306,0.194l2.261,1.101l4.415,0.238l1.567,0.906l1.522,0.497l1.129,0.992l2.819,3.865l0.632,1.165
		l0.076,0.797l-1.282,3.758l-0.014,1.21l3.33,9.237l0.498,2.636l0,0l-2.275-1.792l-1.84-0.477l-1.311,0.562l-1.885,2.029
		l-1.34-0.129l-1.371,0.561l-2.321,0.044l-1.176,1.9l-1.476,6.152l-1.478,0.95l-2.486,2.525l-1.296,2.2l-1.718,2.18l-4.942,1.425
		l-1.16,0.973l-2.577,4.532l-2.321,2.851l-2.366,5.483l-3.33,6.995l-1.673,2.719l-2.14,1.857l-2.442,0.993l-1.476,0.799
		l-4.023,4.273l-3.874,2.331l-2.562,1.209l-1.116,0.971l-1.476-0.128l-1.372,0.948l-5.515,6.994l-0.619,1.297l-0.331,2.848
		l-1.009,2.506l-1.674,0.259l-1.883-0.129l-4.023-1.532l-0.813-0.045l-1.401,0.646l-0.814,0.066l-1.22-1.208l-2.321-2.936
		l-0.753-0.261l-0.92,0.044l-1.296-0.281l-3.15-2.029l-2.26-6.109l-0.587-0.864l-0.708,0.132l-0.543,0.453l-1.024,3.819
		l-0.256,1.619l0.737,1.339l0.196,1.166l-1.37,1.727l-0.347,4.469l3.119,7.598l1.266,0.908l3.376,1.251l2.606,2.117l1.116,1.037
		l0.739,1.249l-0.242,1.47l-3.451,0.408l-1.777-0.28l-4.31-2.999l-1.674-0.605l-1.294,0.194l-1.357,1.037l-1.447-0.82l-3.48,1.661
		h-2.472l-1.401,0.346l-1.659,2.03l-1.943,0.797l-0.965-0.733l-0.165-2.849l-0.528-0.798l-0.799-0.477l-1.672,0.086l-1.794,0.886
		l-1.024-0.107l-1.024-0.433l-0.995-1.791l-0.512-1.942l-0.905-0.646l-5.395,0.148l-1.927-0.841l-1.176-0.259l-0.542,0.518
		l-1.355,4.36l-0.543,3.777l-0.392,4.383l-0.227,1.231l-0.662,1.209l-0.604,0.539l-1.251,0.646l0.014-4.705l-0.572-1.403
		l-0.858,0.131l-2.774,1.229l-3.978,2.981l-0.647,0.128l-1.115-0.561l-4.023-1.21l-1.19,0.13l-2.336,0.949l-3.525,2.525
		l-1.297,0.283l-1.19-0.045l-2.14-1.146l-5.32-5.138l-3.33-4.49l-6.134-5.418l-1.024-0.475l-0.859,0.13l-1.04,0.82l-0.557,1.47
		l-0.241,3.15l0.031,1.166l-0.454,1.532l-0.708,0.582l-1.176-0.408l-3.481-2.159l-3.436-0.477l-3.616,0.691l-1.99-0.667
		l-0.587-0.714l-0.695-5.482l-0.888-1.729l-1.114-1.188l-0.604-0.322l-2.019,3.128l-0.754,0.218l-1.461-0.045l-1.236-0.475
		l-2.17-2.85l-1.024,0.065l-0.723,1.144l-0.287,1.08l0.149,1.532l1.147,3.433l0.21,1.252l-1.958,6.671l-0.874,1.209L785,861.803
		l-2.277,0.973l-1.672,0.194l-7.37-0.389l-3.435-0.477l-1.507,0.131l-1.673,0.495l-2.879,2.182l-1.838,0.82l-1.719,0.281l-2.214,1.1
		l-1.749,1.836l-2.893,4.879l-0.377,0.086l0,0l-1.159-6.52l-0.272-2.201l-0.572-1.858l-0.165-0.971l-0.031-8.743l-0.211-2.007
		l-1.055-2.958l-2.125-3.346l-0.769-1.942l-1.25-2.354l-0.573-2.656l-0.632-2.222l-0.106-3.282l0.241-2.504l0.497-1.574l0.558-2.699
		l0.98-2.633l1.22-2.269l0.271-0.992l0.106-2.181l-0.122-8.16l-0.678-2.612l-0.391-3.41l-0.86-2.721l-0.828-1.898l-0.483-0.562
		l-0.437-0.193l-3.135-0.218l-0.392-0.321l-0.316-0.844l-0.029-18.111l-0.212-1.748l-0.572-1.943l-0.165-2.158l0.06-2.245
		l0.392-1.965l-2.471-1.575l-1.688-1.771l-1.13-0.841l-0.679-1.124l-0.212-1.359l0.046-1.382l0.181-1.016l0.633-1.879l0.15-1.359
		l-0.015-1.057l-0.3-1.274l-0.935-1.143l-7.039-4.944l-1.054-0.411l-1.116,0.151l-1.116,0.714l-1.717,0.646l-3.255,2.138
		l-2.954,0.322l-2.306,1.08l-14.39-0.042l-0.106-4.513l0.255-2.029l0.679-1.079l2.818-1.879l0.633-0.775l0.391-1.146l0.287-3.044
		l0.603-2.267l0.136-2.224l-0.031-9.757l-0.135-1.445l-0.679-2.225l-0.121-2.116l0.196-1.36l0.574-1.898l0.346-3.066l0.558-1.92
		l0.15-0.993l0.106-12.499l0.227-1.21l0.949-3.474l1.326-1.211l0.587-0.322l2.353-0.172l1.627,0.193l1.778,0.993l2.472,0.56
		l1.129,0.734l1.72,0.626l1.34,0.844l2.26,0.475l1.506,0.84l0.647-0.064l0.408-0.28l0.889-1.035l7.249-10.189l0.754-1.296
		l0.692-1.878l1.342-2.353l0,0l6.842,0.106l1.326,0.152l0.723,0.323l2.788,1.966l1.024,0.279l14.949,0.194l1.026,0.281l1.611,0.886
		l5.26,0.259l0.753,0.237l1.372,0.82l2.125,0.279l2.155-0.042l1.024-0.26l5.667-3.82l3.631,0.173l1.386,0.389l1.734,1.208
		l1.19,1.145l2.893,0.064l2.215,1.167l1.854,0.173l1.552-0.411l8.364-5.829l2.111-0.798l1.927-1.339l1.84-2.029l1.28-0.819
		l0.558-0.173l0.799,0.517l1.024,1.403l0.753,1.382l0.723,1.966l1.612,2.547l1.237,1.618l0.843,0.604l1.461,0.237l12.659,0.108
		l1.462-0.194l0.588-0.433l0.556-0.862l0.498-1.339l0.919-1.749l0.195-0.798l-0.044-0.518l-0.994-3.757l0,0l2.848,0.433l1.552,0.906
		l0.693,0.214l3.677,0.304l1.356,0.843l1.732,0.625l1.13,0.732l1.733,0.584l1.432,1.102l0.438,0.561l0.829,1.943l2.562,7.318
		l1.657,2.504l2.019,2.591l1.463-0.151l1.266,0.086l0.722,0.239l1.357,0.841l0.963,0.237l1.236,0.042l0.964-0.215l0.891-0.843
		l0.993-2.331l1.538-2.979l0.799-1.143l0,0l1.145,0.302l1.597,0.691l1.19,0.97l0.408,0.519l0.136,0.519l-0.075,0.799l-1.417,4.943
		l0.046,0.8l0.466,0.581l0.875,0.173l6.962-0.021l0.905,0.259l1.551,0.907l2.985,0.345l1.16,1.015l3.391,4.705l1.582,1.296
		l1.884,1.921l1.19,0.325h4.566l1.478,0.215l9.192,6.41l1.22,0.218l1.492-0.086l2.292-1.124l3.195-0.15l1.145-0.346l3.829-2.59
		l1.371-1.166l0.392-0.604l0.828-1.942l0.889-2.697l0.362-3.477l0.633-2.18l0.362-3.152l0.558-1.685l-0.031-0.799l-0.452-0.581
		l-0.859-0.174l-2.2,0.063l-1.13,0.453l-0.708,1.037l-1.266,3.777l-0.828,1.555l-1.538,1.965l-0.633,0.41l-0.708,0.174l-3.209-0.024
		l-1.417-0.302l-3.813-2.676l-1.703-1.793l-1.492-1.207l-0.513-0.929l-0.179-0.95v-4.814l-0.137-1.684l-1.928-5.699l-0.558-1.058
		l-0.874-1.122l-2.773-2.051l-0.256-0.455l-0.151-0.84l0.136-1.209l0.542-1.08l0.889-1.078l1.401-0.994l1.116-1.252l2.05-2.914
		L915.667,666.223z"/>
	<path id="GE-MM" fill="#CCCCCC" stroke="#FFFFFF" stroke-width="0.5" d="M942.927,347.789l6.661,1.359l3.676-1.533l4.777-1.554
		l4.566,0.648l1.959,1.338l1.673,2.439l1.795,4.188l3.601,5.117l4.294,8.482l4.416,8.009l1.508,2.181l4.414,5.073l1.205,2.655
		l0.995,7.945l0.288,0.906l0,0l-0.86,1.446l-0.679,1.899l-2.186,3.475l-1.536,4.383l-1.4,2.633l-2.939,8.376l0.015,1.92l0.647,2.181
		l0.394,2.137l0.526,1.598l0.182,1.36l0.074,11.031l-0.166,1.943l-0.587,1.231l-1.673,1.381l-2.849,3.713l-1.581,1.209l-0.739,0.799
		l-0.482,0.733l-0.452,1.167l-0.136,2.029l0.122,7.62l0.195,0.907l1.432,4.015l0.346,1.512l0.679,1.964l0.362,3l0.587,1.922
		l0.12,0.949v1.317l-0.255,1.555L974,481.78l-0.784,0.928l-1.702,0.604l-1.355,0.799l-2.488,0.475l-1.129,0.69l-1.493,0.497
		l-0.722,0.625l-0.875,2.05l-1.267,2.375l-0.889,2.224l-5.063,7.146l-0.739,1.316l-0.241,0.95l-0.075,0.993l0.06,7.944l-0.15,2.008
		l-0.603,1.446l-2.999,4.166l-0.843,1.641l-0.452,2.417l-0.558,1.901l-0.316,3.172l-0.695,2.527l-0.119,7.253l-0.196,1.295
		l-0.634,2.18l-0.225,5.57l-0.589,1.425l-2.546,3.583l-0.332,0.842l-0.076,0.604l0.196,1.166l2.381,6.326l0.678,2.353l-0.12,1.015
		l-1.809,5.16l-0.09,1.014l0.408,1.015l2.08,2.893l0.723,1.359l0.919,2.699l0.423,2.461l1.521,4.49l-0.06,0.928l-0.196,0.562
		l-2.004,3.109l-0.768,1.899l-1.146,2.051l-0.36,1.187l-0.106,1.641l0.075,1.964l0.152,0.95l0.572,1.899l0.377,2.913l0.452,0.54
		l1.174,0.476l1.115,0.712l2.487,0.54l1.567,0.906l2.983,0.39l2.23,1.101l3.497,0.259l1.565,0.886l1.72,0.647l1.521,1.684
		l2.907,4.296l1.206,3.26l0.527,2.246l-2.923,0.517l-1.764,0.971l-2.998,0.303l-3.013,2.072l-0.831,0.152l-1.521-0.863l-2.471-0.54
		l-1.929-1.295l-1.056-1.166l-2.606-3.735l-1.236-1.425l-2.079-1.359l-0.664,0.086l-0.392,0.261l-8.59,11.893l2.381,1.317
		l1.673,1.814l1.387,1.057l1.19,1.641l1.236,3.563l0.121,1.597v3.864l0,0l-1.824,1.102l-1.612,1.64l-0.589,0.13l-3.179-1.986
		l-4.656-0.151l-1.191-0.194l-3.255-2.245l-1.507-0.561l-1.1-0.713l-0.617-0.173l-0.618,0.217l-0.603,0.776l-0.573,1.598
		l-1.251,2.374l-0.618,1.664l-1.311,2.31l-0.979,2.676l-0.256,1.878l-0.016,4.965l-0.286,1.556l-0.874,1.51l-2.577,3.52
		l-0.889,0.928l-0.572,0.26l0,0l-1.749-0.929l-2.064-0.323l-0.633-0.26l-2.094-1.532l-2.683-3.648l-0.889-0.949l-1.929-1.318
		l-1.522-0.539l-1.236-0.799l-0.572,0.022l-0.437,0.495l-0.785,1.923l-0.873,2.719l-0.393,2.439l-1.039,2.914l-0.589,0.82
		l-1.311,0.993l-1.521,1.685l-1.492,0.972l-0.527,0.171l-0.543-0.215l-2.395-1.683l-1.115-0.237l-0.859,0.258l-1.372,1.144
		l-0.331,0.777l-0.092,1.317l0.152,1.359l0.632,1.879l0.181,1.014l0.029,1.339l-0.181,0.928l-0.407,0.648l-1.041,0.82l-2.125,0.755
		l-1.747,1.318l-1.055,1.64l-1.009,3.93l0,0l-0.799,1.143l-1.538,2.979l-0.993,2.331l-0.891,0.843l-0.964,0.215l-1.236-0.042
		l-0.963-0.237l-1.357-0.841l-0.722-0.239l-1.266-0.086l-1.463,0.151l-2.019-2.591l-1.657-2.504l-2.562-7.318l-0.829-1.943
		l-0.438-0.561l-1.432-1.102l-1.733-0.584l-1.13-0.732l-1.732-0.625l-1.356-0.843l-3.677-0.304l-0.693-0.214l-1.552-0.906
		l-2.848-0.433l0,0l-0.333-0.713l-0.3-2.569l-0.678-2.244l-0.121-1.36l0.045-1.015l0.406-1.058l3.753-2.784l0.302-0.368l0.256-0.841
		l0.09-1.641l-0.09-6.39l-0.181-1.339l-0.647-2.224l-0.121-3.108l0.15-2.419l0.995-3.756l0.512-0.539l0.663-0.173l5.426,0.107
		l1.507,0.259l1.521,0.951l0.633,0.086l0.785-0.324l0.978-2.051l1.086-3.669l0.12-2.872l-0.105-3.583l-0.256-0.993l-2.08-3.41
		l-0.77-1.943l-0.616-1.101l-4.325-6.109l-1.251-2.158l-2.758-7.795l-0.196-0.948l-0.091-1.404l0.031-12.219l-0.212-1.574
		l-0.496-1.102l-0.634-0.95l-4.656-6.326l-3.014,0.152l-3.555-0.129l-0.71-0.216l-1.37-0.82l-2.202-0.476l-1.596-0.907l-3.181-0.497
		l-1.823-0.993l-1.234-0.172l-1.478,0.129l-1.613,0.863l-1.476,0.519l-0.558,0.431l-0.558,0.864l-1.355,4.058l-0.965,2.137
		l-1.521,1.338l-1.176,0.756l-1.809,1.684l0.077-9.11l-0.077-1.058l-0.316-0.884l-0.904-0.519l-1.596-0.021l-1.342,0.237
		l-1.28,0.733l-0.589,0.086l-0.346-0.216l-0.256-0.517l-0.135-1.987l0.06-3.778l0.165-2.137l0.589-1.921l0.438-2.418l1.43-3.972
		l0.242-1.209l-0.046-2.267l-0.647-2.201l-0.196-1.317l-0.061-6.433l0.228-2.764l1.43-3.951l0.181-0.884l-0.061-1.576l-0.693-2.461
		l0.091-1.899l1.869-5.354l0.558-1.08l0.873-1.102l2.608-1.963l0.558-0.756l0.723-1.706l0.905-2.721l0.558-3l0.935-2.181
		l1.747-1.382l1.929-0.646l1.206-0.973l0.408-0.604l0.376-2.958l0.678-2.568l0.106-1.77l-0.029-5.419l-0.212-1.359l-0.346-0.863
		l-1.01-1.814l-0.649-1.661l-1.416-2.634l-0.934-2.721l-0.181-1.337l-0.046-8.204l0.106-1.705l0.512-1.338l1.552-1.36l0.527-0.906
		l0.257-2.007l-0.166-2.807l-1.07-3.325l-0.888-2.396l-0.393-0.713l-0.677-0.69l-2.893-1.922l-1.296-1.252l-0.316-1.489l-0.06-3.778
		l-0.152-0.993l-0.617-2.289l-0.091-4.123l-0.196-1.23l-0.422-0.626l-1.024-0.82l-1.717-0.777l-0.287-0.389l-0.21-1.143l0.121-1.878
		l0.632-1.9l0.619-2.634l0.933-1.641l1.628-1.338l0.574-0.842l0.271-1.188l0.09-3.604l0.212-0.908l0.857-1.51l1.507-2.051
		l1.598-1.835l-1.086-2.396l-0.498-2.719l-0.993-2.483l-1.552-1.317l-1.703-0.604l-0.558-0.433l-0.437-0.625l-0.739-1.878
		l-1.159-2.116l-1.116-3.346l-0.121-4.793l-0.302-1.123l-0.513-0.431l-2.576-1.252l-3.934-0.13l-1.174-0.303l-1.176-1.229
		l-2.983-4.382l-0.514-1.037l-1.867-5.438l-0.362-3.52l-0.724-2.72l0,0l3.767-1.209l1.463-1.402l0.723-0.994l1.522-7.728
		l1.703-4.534l1.704-3.994l1.356-2.742l3.963-3.951l3.678-2.352l4.159-2.202l3.768-0.929l2.652,0.065l5.846,1.165l2.306,0.151
		l1.447-0.604l2.004-1.295l1.958-1.684l3.753-4.404l3.134-2.937l3.075-1.963l2.651-0.799l3.045,0.151l14.104,2.548l4.657-0.67
		l2.938-1.079l3-0.475l4.446,1.489l1.808,1.231l1.687,1.489l1.072,2.008l1.4,1.942l1.191,2.095l3.39,26.444l1.159,3.669l0.966,1.209
		l1.688,1.489l1.703,0.28l1.055-0.194l2.621-2.223l3.511-12.132l2.516-12.003l3.391-8.052l1.598-3.195l1.597-2.548l1.628-1.856
		l2.396-1.015l2.547-0.713l3.828-0.258l4.882,1.446l2.862,1.36l4.385,5.073l6.992,9.908L942.927,347.789z"/>
	<path id="GE-RL" fill="#CCCCCC" stroke="#FFFFFF" stroke-width="0.5" d="M642.608,281.688l0.527,0.043l2.275-0.863l1.824-1.102
		l3.542-0.28l4.595,0.519l6.48,1.23l4.295,2.676l1.431,1.987l1.598,1.597l1.988,0.82l4.657,0.453l1.491,0.325l1.703,0.734
		l2.863,2.331l3.632,4.252l1.145,1.598l0.664,1.899l0.693,3.584l0.769,1.598l1.417,1.597l1.432,2.008l2.184,4.058l0.875,0.561
		l0.995,0.324l2.668-1.058l1.703,0.497l1.597,0.885l1.869,2.159l1.582,3.194l2.516,2.655l9.193,5.354l2.968,2.656l1.461,2.719
		l0.814,2.375l0.256,2.375l-0.241,3.475l-6.555,18.738l-2.049,2.569l-1.174,1.101l-1.162,0.604l-0.843,1.878l-0.784,1.339
		l-0.392,1.1l-0.121,1.274l0.211,2.764l5.32,11.376l1.581,2.375l1.041,0.107l0.889-0.152l3.42-1.92l1.101-0.215l1.16,0.259
		l2.547,4.771l1.372,0.647l1.327-0.604l1.46-2.029l1.267-0.454l1.1,0.562l2.125,3.195l1.1,0.259l1.929,0.021l2.773,1.663l0,0
		l0.181,2.051l0.573,1.921l0.393,2.137l0.587,1.878l0.121,0.95l-0.121,1.576l-0.632,2.181l-0.273,2.893l-0.556,1.921l-0.454,2.418
		l-0.662,1.101l-3.06,2.159l-1.884,1.985l-4.808,3.282l-1.537,1.316l-1.01,2.461l-0.271,3.217l-0.181,0.907l-0.678,1.748
		l-0.392,0.626l-1.598,1.231l-2.485,0.453l-1.342,0.82L719.1,433.9l-1.838,0.993l-5.23,0.172l-0.768,0.215l-1.386,0.799
		l-1.055,0.194l-11.196,0.022l-0.664,0.194l-1.37,0.799l-2.441,0.54l-1.13,0.712l-1.507,0.518l-1.598,0.885l-2.457,0.475
		l-1.386,1.079l-0.498,0.928l-0.285,2.634l-0.558,1.943l-0.151,1.015l0.016,4.447l0,0l-2.413-0.324l-1.793-0.994l-2.44-0.561
		l-8.544-6.152l-0.935-0.345l-1.733,0.129l-1.597,0.929l-2.441,0.54l-1.146,0.712l-1.717,0.626l-1.356,0.841l-1.221,0.194
		l-1.959-0.237l-1.838-1.014l-2.938-0.41l-1.567-0.929l-1.507-0.54l-1.13-0.756l-1.22-0.302l-9.087-0.021l-0.964,0.238l-1.568,0.885
		l-2.109,0.346l-2.939-0.282l-2.742,0.022l-0.859,0.54l-0.196,0.454l-0.136,0.95l-1.537,2.072l-6.375,4.598l-0.528,0.885
		l-1.295,3.821l-0.965,1.748l-2.366,3.13l-1.356,1.015l-1.703,1.856l-2.095,1.446l-2.697,0.562l-1.824,1.619l-1.372-0.54
		l-1.643-0.043l-0.889,0.237l-1.552,0.906l-2.984,0.324l-0.799,0.626l-1.793,2.354l-0.361,0.237h-0.423l-0.693-0.604l-1.657-2.224
		l-1.733-1.446l-2.261-2.849l-3.812-2.764l-1.085-0.367l-4.249,0.021l-0.633-0.108l-0.542-0.387l-0.227-0.476l-0.316-1.663
		l-0.572-1.899l-0.256-5.937l-0.573-1.921l-0.437-2.439l-0.829-1.619l-8.002-11.269l-1.552-1.274l-1.914-1.965l-2.14-0.95
		l-0.09-0.345l-0.256-0.216l-2.276-0.605l-0.406-0.367l-0.995-1.468l-0.83-2.115l-0.286-0.388l-3.36-1.942l-0.633-0.065
		l-0.738,0.346l-0.302,0.777l-0.633,2.655l-0.468,3.432l-0.331,0.539l-0.392,0.238l-1.613,0.345l-1.854,0.972h-1.491l-0.935-0.367
		l-0.347-0.346l-1.914-2.503l-0.784-0.648l-2.261-0.454l-1.763-1.057l-1.823-0.065l-0.632,0.367l-0.467,0.604l-1.613,4.533
		l-0.949,1.145l-1.717,1.143l-1.733,0.583l-1.13,0.713l-1.717,0.626l-1.342,0.82l-1.793,0.194l-1.914-0.345l0.18-3.065l-0.045-6.326
		l-0.286-1.295l-1.356-2.655l-0.256-2.03l0.12-3.842l0.664-2.245l0.181-0.993l0.015-3.174l-0.422-1.619l-1.929-3.282l0,0
		l-1.235-3.13l-0.422-3.82l-1.884-5.44l-1.417-2.655l-1.552-4.426l-1.296-2.375l-0.618-1.705l-1.296-2.374l-0.603-1.684
		l-2.291-3.756l-1.115-3.304l-0.136-2.029l-0.015-8.678l0.226-2.332l0.512-1.122l0.693-0.928l1.734-1.339l1.899-1.942l-1.643-2.267
		l-0.949-2.417l-1.989-3.239l-0.829-2.202l-1.221-1.749l-4.988-3.561l-1.87-2.072l-1.898-1.382l-1.928-0.735l-1.356-0.841
		l-2.472-0.519l-2.607-2.202l-3.858-5.137l-1.341-1.015l-1.703-1.9l-3.436-2.504l-1.04-1.597l-1.054-2.655l-1.583-2.051l1.115-2.612
		l4.023-11.7l0.497-0.972l0.513-0.518l0.965-0.281h6.721l0.724-0.216l1.355-0.799l2.684-0.259l0.888-0.41l0.603-0.777l1.944-4.317
		l0.392-3.498l0.542-1.964l0.226-2.331l0.332-1.145l0.362-0.324l0.904-0.216l3.797,0.129l1.221,0.303l7.067,5.03l1.477,0.216
		l6.766,0.087l0.89,0.258l1.567,0.908l2.984,0.388l2.14,1.402l4.716,3.498l1.115,0.389l6.344,0.086l1.145,0.323l1.326,0.842
		l1.342,0.042l4.22-2.936l2.622-3.238l1.175-0.884l1.447-1.619l0.844-0.368l0.799,0.282l4.521,3.324l1.718,0.626l1.356,0.82
		l2.472,0.54l1.913,1.316l1.101,1.23l2.983,4.318l0.604,0.626l0.663,0.324l1.115-0.065l1.327-0.799l0.738-0.237l3.361-0.237
		l2.351-1.102l9.283-0.043l1.009-0.194l1.838-1.036l1.432-0.043l0.768,0.561l0.814,1.965l0.167,0.928l0.181,2.936l0.799,2.332
		l0.648,0.669l1.04,0.021l1.326-0.842l1.507-0.54l0.632-0.431l1.477-1.878l0.86-1.683l0.21-2.289l-0.075-12.995l0.075-1.015
		l0.301-0.863l0.331-0.303l3.828-1.856l0.964-2.138l0.558-3.021l0.829-2.483l0.558-1.08l1.055-1.295l1.538-1.188l2.742-3.713
		l1.854-1.49l1.627-2.158l1.024,1.101l1.417,1.036l0,0l0.677,0.842l2.17,0.885l10.231,3.454l10.444,7.059l1.597,2.396l2.426,1.598
		L642.608,281.688z"/>
	<path id="GE-SJ" fill="#CCCCCC" stroke="#FFFFFF" stroke-width="0.5" d="M654.919,616.183l1.598-0.237l1.823-0.993l0.995-0.086
		l0.995,0.172l3.481,2.354l3.421,0.237l0.949,0.303l0.799,0.754l1.627,2.116l0.617,0.54l0.709,0.258l1.958,0.151l0.965,0.238
		l3.812,2.612l0.618,0.776l0.377,1.166l0.015,5.396l0.211,1.728l0.377,0.863l0.648,0.949l2.154,1.792l1.101,1.728l0.225,0.971
		l0.241,2.763l0.528,1.966l0.271,2.59l0.287,0.82l0.587,0.432l0.678,0.108l9.026-0.021l-0.104,2.461l0.089,2.137l0.649,2.611
		l0.24,2.245l0.152,0.563l0.3,0.432l0.77,0.303l3.224,0.194l2.125,1.381l0.963,1.036l3.347,4.662l1.07,0.734l4.4,0.151l1.205-0.129
		l0.648-0.281l3.149-2.267l7.023,0.043l2.02,0.323l1.342,0.821l1.506,0.562l1.145,0.712l1.717,0.626l2.171,1.403l1.296,1.166
		l0.256,0.475l0.225,1.62l-0.21,5.698l0,0l-1.342,2.353l-0.692,1.878l-0.754,1.296l-7.249,10.189l-0.889,1.035l-0.408,0.28
		l-0.647,0.064l-1.506-0.84l-2.26-0.475l-1.34-0.844l-1.72-0.626l-1.129-0.734l-2.472-0.56l-1.778-0.993l-1.627-0.193l-2.353,0.172
		l-0.587,0.322l-1.326,1.211l-0.949,3.474l-0.227,1.21l-0.106,12.499l-0.15,0.993l-0.558,1.92l-0.346,3.066l-0.574,1.898
		l-0.196,1.36l0.121,2.116l0.679,2.225l0.135,1.445l0.031,9.757l-0.136,2.224l-0.603,2.267l-0.287,3.044l-0.391,1.146l-0.633,0.775
		l-2.818,1.879l-0.679,1.079l-0.255,2.029l0.106,4.513l14.39,0.042l2.306-1.08l2.954-0.322l3.255-2.138l1.717-0.646l1.116-0.714
		l1.116-0.151l1.054,0.411l7.039,4.944l0.935,1.143l0.3,1.274l0.015,1.057l-0.15,1.359l-0.633,1.879l-0.181,1.016l-0.046,1.382
		l0.212,1.359l0.679,1.124l1.13,0.841l1.688,1.771l2.471,1.575l-0.392,1.965l-0.06,2.245l0.165,2.158l0.572,1.943l0.212,1.748
		l0.029,18.111l0.316,0.844l0.392,0.321l3.135,0.218l0.437,0.193l0.483,0.562l0.828,1.898l0.86,2.721l0.391,3.41l0.678,2.612
		l0.122,8.16l-0.106,2.181l-0.271,0.992l-1.22,2.269l-0.98,2.633l-0.558,2.699l-0.497,1.574l-0.241,2.504l0.106,3.282l0.632,2.222
		l0.573,2.656l1.25,2.354l0.769,1.942l2.125,3.346l1.055,2.958l0.211,2.007l0.031,8.743l0.165,0.971l0.572,1.858l0.272,2.201
		l1.159,6.52l0,0l-0.647,0.129l-1.929-0.496l-3.42-2.611l-8.303,0.236l-2.366,0.28l-5.863-0.799l-1.566,0.282l-3.844,2.416
		l-6.012,5.915l-2.156,1.21l-1.251,1.446l-0.828,1.834l-2.606,4.664l-1.025,0.668l-2.681-0.733l-2.367-1.792l-1.809-0.949
		l-2.517-3.13l-2.938-2.354l-1.507,0.215l-2.606,2.505l-2.803,1.599l-4.144-0.066l-2.246-2.18l-2.034-2.719l-2.623-2.505
		l-1.597-0.626l-2.156-0.173l-2.155,0.346l-6.751,4.727l-2.321,1.813l-0.979,0.217l-2.456-0.217l-1.446-3.973l-0.572-3.799
		l-0.739-2.851l-0.799-2.093l-2.456-4.101l-2.306-1.339l-3.391-1.643l-1.235-1.1l-2.517-2.72l-1.672-0.777l-1.658-0.174
		l-1.779,0.368l-6.69,2.807l-7.715,3.82l-4.687,1.426l-3.828,0.452l1.251-3.776l-0.317-1.858l-5.982-18.478l-1.07-1.554l-1.191-0.54
		l-1.673-0.324l-1.341,0.692l-2.697,2.372l-3.889-1.401l-1.341-1.469l0.753-1.166l2.216-1.834l1.838-1.145l1.507-0.626l2.758-2.311
		l2.321-3.389l1.521-1.445l0.106-1.017l0.708-0.775l0.332-0.907l-0.105-1.015l-0.604-1.08l-1.341-1.015l-1.191-0.626l-1.718-0.388
		l-1.507,0.128l-1.191-0.452l-0.858-1.706l-4.536-0.8l-0.905-2.092l-3.284-8.743l-0.8-1.554l-6.268-4.814l-3.391-0.324l-1.9-1.77
		l-2.094-1.101l-1.462-3.088l-1.235-3.346l-2.864-3.325l-0.693-1.792l0.045-2.007l-1.024-2.871l-1.296-1.381l-0.588-0.93v-4.273
		l-0.693-1.771l-4.385-2.266l-2.427-4.878l-4.762-2.784l-0.376-1.318l0.151-2.483l-0.211-2.416l-1.19-1.532l-3.466,0.302
		l-1.732,1.252l-0.859,5.116l-0.92,2.935l-0.753,0.864l-0.874,0.065l-1.024-1.145l-0.979-1.554l-0.918-0.93l-1.402-0.475
		l-2.336-2.698l0.06-1.944l-0.481-1.618l-2.291-3.107l-0.151-1.404l0.753-2.935l1.236-1.252l1.311-0.626l1.567-1.771l-0.438-7.383
		l0.377-0.928l2.109-1.555l1.13-1.942l-0.437-4.123l-1.236-1.705l-6.405-0.216l-0.738,1.294l-0.392,1.101l-0.603,1.104l-0.648-0.238
		l-1.296-1.318l-1.732-0.54l-4.069-3.323l-1.19-0.064l-2.125-0.929l-2.321-0.301l-5.41,0.237l-6.133,2.589l-0.918,0.173
		l-1.793,0.864l-1.19,0.776l-2.532-0.518l-0.874,0.689l-0.964,2.549l-1.357,1.294l0,0l-1.235-5.805l-0.723-2.83l-0.528-1.554
		l-0.287-3.13l-0.362-1.209l-0.572-1.016l-3.345-4.771l-1.869-5.158l-1.28-1.62l-2.895-1.964l-0.633-0.755l-0.708-1.836
		l-2.275-3.734l-2.079-5.979L487,690.119l-0.617-1.835l-0.211-1.252l0.075-3.238l0.497-1.468l2.562-3.627l0.587-1.381l0.167-1.75
		l-0.03-7.382l-0.045-1.403l-0.181-0.972l-2.457-6.929l-0.422-2.505l0,0l3.481-0.215l0.467-0.109l1.115-0.733l0.979-0.303h3.346
		l0.753,0.13l0.693,0.39l2.185,2.763l1.07,0.669h1.1l1.598-0.886l1.853-0.41l0.528-0.473l0.813-1.88l0.197-0.95l0.271-3.107
		l0.889-2.721l0.739-1.38l1.22-1.664l0.859-0.755l0.919-0.281l4.807,0.064l0,0l3.06,4.491l1.069,2.612l0.964,1.015l1.945-0.045
		l1.13,0.195l3.465,2.289l1.522,0.301l1.824,0.043l1.988-0.344l0.634-0.54l2.351-3.218l0.979-1.057l5.651-3.864l1.055-0.323h3.346
		l1.009,0.214l3.044,2.116l0.934,0.346l1.266,0.13l4.701-0.065l1.251,0.173l0.664,0.281l4.535,3.281l0.407,0.194l1.522,0.216
		l2.14-0.13l1.989-2.827l0.603-0.583l0.693-0.324l2.683-0.281l1.612-0.84l0.949-0.238l4.837-0.108l2.563-1.145l5.998-0.107
		l2.335-1.08l2.246-0.28l1.04-0.323l1.944,1.576l2.245,1.488l2.381-1.469l10.639-7.402l1.718-0.563l1.34-0.842l1.522-0.475
		l1.131-0.733l1.732-0.583l1.13-0.735l1.733-0.582l1.13-0.734l2.245-0.41l0.632-0.259l3.828-2.655l2.427-3.021l2.109-1.513
		l0.633-0.258l2.034-0.325l1.552-0.862l2.472-0.518l0.964-0.929l2.623-3.519l2.109-1.532l0.633-0.26l2.035-0.323l1.552-0.886
		L654.919,616.183z"/>
	<path id="GE-SK" fill="#CCCCCC" stroke="#FFFFFF" stroke-width="0.5" d="M790.378,373.779l0.724,2.72l0.362,3.52l1.867,5.438
		l0.514,1.037l2.983,4.382l1.176,1.229l1.174,0.303l3.934,0.13l2.576,1.252l0.513,0.431l0.302,1.123l0.121,4.793l1.116,3.346
		l1.159,2.116l0.739,1.878l0.437,0.625l0.558,0.433l1.703,0.604l1.552,1.317l0.993,2.483l0.498,2.719l1.086,2.396l-1.598,1.835
		l-1.507,2.051l-0.857,1.51l-0.212,0.908l-0.09,3.604l-0.271,1.188l-0.574,0.842l-1.628,1.338l-0.933,1.641l-0.619,2.634l-0.632,1.9
		l-0.121,1.878l0.21,1.143l0.287,0.389l1.717,0.777l1.024,0.82l0.422,0.626l0.196,1.23l0.091,4.123l0.617,2.289l0.152,0.993
		l0.06,3.778l0.316,1.489l1.296,1.252l2.893,1.922l0.677,0.69l0.393,0.713l0.888,2.396l1.07,3.325l0.166,2.807l-0.257,2.007
		l-0.527,0.906l-1.552,1.36l-0.512,1.338l-0.106,1.705l0.046,8.204l0.181,1.337l0.934,2.721l1.416,2.634l0.649,1.661l1.01,1.814
		l0.346,0.863l0.212,1.359l0.029,5.419l-0.106,1.77l-0.678,2.568l-0.376,2.958l-0.408,0.604l-1.206,0.973l-1.929,0.646l-1.747,1.382
		l-0.935,2.181l-0.558,3l-0.905,2.721l-0.723,1.706l-0.558,0.756l-2.608,1.963l-0.873,1.102l-0.558,1.08l-1.869,5.354l-0.091,1.899
		l0.693,2.461l0.061,1.576l-0.181,0.884l-1.43,3.951l-0.228,2.764l0.061,6.433l0.196,1.317l0.647,2.201l0.046,2.267l-0.242,1.209
		l-1.43,3.972l-0.438,2.418l-0.589,1.921l-0.165,2.137l-0.06,3.778l0.135,1.987l0.256,0.517l0.346,0.216l0.589-0.086l1.28-0.733
		l1.342-0.237l1.596,0.021l0.904,0.519l0.316,0.884l0.077,1.058l-0.077,9.11l1.809-1.684l1.176-0.756l1.521-1.338l0.965-2.137
		l1.355-4.058l0.558-0.864l0.558-0.431l1.476-0.519l1.613-0.863l1.478-0.129l1.234,0.172l1.823,0.993l3.181,0.497l1.596,0.907
		l2.202,0.476l1.37,0.82l0.71,0.216l3.555,0.129l3.014-0.152l4.656,6.326l0.634,0.95l0.496,1.102l0.212,1.574l-0.031,12.219
		l0.091,1.404l0.196,0.948l2.758,7.795l1.251,2.158l4.325,6.109l0.616,1.101l0.77,1.943l2.08,3.41l0.256,0.993l0.105,3.583
		l-0.12,2.872l-1.086,3.669l-0.978,2.051l-0.785,0.324l-0.633-0.086l-1.521-0.951l-1.507-0.259l-5.426-0.107l-0.663,0.173
		l-0.512,0.539l-0.995,3.756l-0.15,2.419l0.121,3.108l0.647,2.224l0.181,1.339l0.09,6.39l-0.09,1.641l-0.256,0.841l-0.302,0.368
		l-3.753,2.784l-0.406,1.058l-0.045,1.015l0.121,1.36l0.678,2.244l0.3,2.569l0.333,0.713l0,0l0.994,3.757l0.044,0.518l-0.195,0.798
		l-0.919,1.749l-0.498,1.339l-0.556,0.862l-0.588,0.433l-1.462,0.194l-12.659-0.108l-1.461-0.237l-0.843-0.604l-1.237-1.618
		l-1.612-2.547l-0.723-1.966l-0.753-1.382l-1.024-1.403l-0.799-0.517l-0.558,0.173l-1.28,0.819l-1.84,2.029l-1.927,1.339
		l-2.111,0.798l-8.364,5.829l-1.552,0.411l-1.854-0.173l-2.215-1.167l-2.893-0.064l-1.19-1.145l-1.734-1.208l-1.386-0.389
		l-3.631-0.173l-5.667,3.82l-1.024,0.26l-2.155,0.042l-2.125-0.279l-1.372-0.82l-0.753-0.237l-5.26-0.259l-1.611-0.886l-1.026-0.281
		l-14.949-0.194l-1.024-0.279l-2.788-1.966l-0.723-0.323l-1.326-0.152l-6.842-0.106l0,0l0.21-5.698l-0.225-1.62l-0.256-0.475
		l-1.296-1.166l-2.171-1.403l-1.717-0.626l-1.145-0.712l-1.506-0.562l-1.342-0.821l-2.02-0.323l-7.023-0.043l-3.149,2.267
		l-0.648,0.281l-1.205,0.129l-4.4-0.151l-1.07-0.734l-3.347-4.662l-0.963-1.036l-2.125-1.381l-3.224-0.194l-0.77-0.303l-0.3-0.432
		l-0.152-0.563l-0.24-2.245l-0.649-2.611l-0.089-2.137l0.104-2.461l-9.026,0.021l-0.678-0.108l-0.587-0.432l-0.287-0.82l-0.271-2.59
		l-0.528-1.966l-0.241-2.763l-0.225-0.971l-1.101-1.728l-2.154-1.792l-0.648-0.949l-0.377-0.863l-0.211-1.728l-0.015-5.396
		l-0.377-1.166l-0.618-0.776l-3.812-2.612l-0.965-0.238l-1.958-0.151l-0.709-0.258l-0.617-0.54l-1.627-2.116l-0.799-0.754
		l-0.949-0.303l-3.421-0.237l-3.481-2.354l-0.995-0.172l-0.995,0.086l-1.823,0.993l-1.598,0.237l0,0l-0.166-2.268l-0.708-2.545
		l-0.105-2.44l0.195-2.051l0.949-2.678l0.919-1.64l1.823-2.505l0.785-0.841l1.4-1.079l2.984-3.822l1.703-1.424l0.603-1.23
		l0.15-2.073l-0.03-18.457l0.197-1.705l0.572-1.9l0.165-2.245l1.041-1.079l6.525-4.447l1.311-1.576l1.1-2.634l2.14-3.432
		l0.965-2.698l0.497-2.699l0.587-1.899l0.347-3.497l0.528-1.576l0.406-2.461l0.92-2.676l0.889-1.23l3.632-2.526l0.196-3.648
		l0.633-2.202l0.196-1.295l0.029-7.253l-0.135-1.662l-0.602-1.921l-0.452-2.418l-0.543-1.576l-0.121-1.576l0.121-0.929l0.602-1.878
		l0.362-2.159l1.041-2.915l0.769-0.993l2.697-1.792l0.98-1.014l1.506-2.289l0.738-2.008l0.604-1.08l1.04-1.511l0.783-0.821
		l1.159-0.409l4.1,0.064l1.236-0.216l0.647-0.432l1.657-1.77l1.915-1.316l2.441-0.519l1.582-0.884l1.898-0.519l-0.512-2.245
		l-0.618-1.899l-0.121-1.295l0.061-1.619l0.211-0.886l1.432-3.992l0.422-2.439l0.543-1.598l0.436-2.439l0.528-1.576l0.151-1.252
		l-0.136-1.274l-0.903-2.72l-0.935-2.225l-0.438-0.56l-1.236-0.993l-0.888-0.346l-2.246-0.107l-1.461,0.216l-2.335,1.576
		l-2.804,3.368l-3.601,2.569l-1.085,0.28l-0.891-0.216l-1.551-0.928l-4.417-0.281l-0.693-0.215l-1.341-0.821l-2.456-0.561
		l-1.162-1.166l-2.681-3.799l0,0l-0.016-4.447l0.151-1.015l0.558-1.943l0.285-2.634l0.498-0.928l1.386-1.079l2.457-0.475
		l1.598-0.885l1.507-0.518l1.13-0.712l2.441-0.54l1.37-0.799l0.664-0.194l11.196-0.022l1.055-0.194l1.386-0.799l0.768-0.215
		l5.23-0.172l1.838-0.993l1.522-0.519l1.342-0.82l2.485-0.453l1.598-1.231l0.392-0.626l0.678-1.748l0.181-0.907l0.271-3.217
		l1.01-2.461l1.537-1.316l4.808-3.282l1.884-1.985l3.06-2.159l0.662-1.101l0.454-2.418l0.556-1.921l0.273-2.893l0.632-2.181
		l0.121-1.576l-0.121-0.95l-0.587-1.878l-0.393-2.137l-0.573-1.921l-0.181-2.051l0,0l4.023,1.771l3,2.202l1.386,0.021l2.712-1.144
		l1.719-2.245l1.627-2.742l4.686-6.692l1.733-2.181l1.553-1.08l4.505,0.799l4.762-2.115l3.06-1.77l1.657-0.346l1.161,0.087
		l2.623,1.489l2.546-0.344l1.719-0.821l1.942-1.856l1.056-0.69L790.378,373.779z"/>
	<path id="GE-SZ" fill="#CCCCCC" stroke="#FFFFFF" stroke-width="0.5" d="M336.004,516.406l0.784,0.389l0.151,0.475l0.497,0.389
		v-0.476h0.784l0.543,0.756v0.475l-0.045,0.388l0.346,0.949v0.195l-0.301,0.28l-0.693,2.375l-0.935,1.23l-0.542-0.086l-0.045-0.194
		v-2.289l-0.195-1.144v-0.863l-0.197-0.669l-0.24-0.669l-0.151-0.756v-0.561L336.004,516.406z M481.892,164.404l-0.466,1.145
		l-0.211,1.446l0.287,1.51l0.557,0.864l0.829,0.475l1.447,0.389l1.552,0.15l3.572,2.138l3.616,1.64l3.014,2.202l2.788,2.612
		l2.894,1.813l2.124,1.748l1.899,2.461l1.672,1.274l2.728,0.95l2.23,1.338l1.899,2.375l5.394,3.713l3,1.101l0.557-0.561l0.226-1.446
		l-0.226-1.835l-2.185-6.93l0.332-1.685l0.783-0.41l2.502,0.626l1.386,0.065l2.23-1.295l1.718-0.238l7.339-3.13l2.622-0.086
		l2.005,0.561l1.116,1.188l1.175,0.884l1.009,1.361l1.553,0.323l3.948-1.36l3.947,1.986l5.291,0.474l0.498,1.425l0.165,2.872
		l0.497,1.985l0.724,1.036l1.22,0.95l2.336,1.36l1.326,1.425l0.166,1.685l-0.557,3.734l-0.618,2.547h2.169l2.005,0.323l3.556,0.713
		l2.999,0.885l2.893,1.835l2.773,2.548l2.606,1.446l1.16,0.884l0.166,1.274l-0.889,2.547l-0.889,1.835L583.4,220.1l0.105,3.411
		l0.332,2.547l1.657,3.972l1.16,2.311l3.105,4.21l9.464,9.325l9.734,12.671l1.718,2.547l1.432,3.584l0.482,0.604l0,0l-1.417-1.036
		l-1.04-1.101l-1.627,2.137l-1.869,1.512l-2.743,3.712l-1.537,1.188l-1.056,1.295l-0.558,1.08l-0.828,2.482l-0.558,3.022
		l-0.965,2.138l-3.842,1.856l-0.332,0.323l-0.301,0.863l-0.076,1.015l0.09,12.995l-0.227,2.289l-0.859,1.683l-1.476,1.856
		l-0.633,0.453l-1.507,0.54l-1.311,0.842h-1.055l-0.633-0.69l-0.799-2.332l-0.181-2.936l-0.18-0.906l-0.813-1.964l-0.769-0.563
		l-1.432,0.043l-1.838,1.036l-1.024,0.216l-9.268,0.022l-2.35,1.101l-3.361,0.238l-0.724,0.237l-1.326,0.82l-1.115,0.064
		l-0.664-0.323l-0.602-0.626l-2.984-4.317l-1.101-1.23L553.788,293l-2.471-0.518l-1.357-0.843l-1.733-0.626l-4.505-3.323
		l-0.814-0.281l-0.844,0.367l-1.446,1.619l-1.176,0.908l-2.637,3.216l-4.205,2.937l-1.34-0.022l-1.327-0.863l-1.145-0.303
		l-6.344-0.107l-1.115-0.389l-4.702-3.497l-2.139-1.403l-2.984-0.389l-1.552-0.907l-0.889-0.259l-6.781-0.086l-1.478-0.215
		l-7.052-5.03l-1.221-0.302l-3.813-0.108l-0.889,0.194l-0.377,0.323l-0.331,1.145l-0.226,2.331l-0.527,1.986l-0.392,3.498
		l-1.944,4.317l-0.618,0.797l-0.888,0.39l-2.683,0.259l-1.356,0.799l-0.724,0.215h-6.721l-0.964,0.302l-0.528,0.518l-0.497,0.972
		l-4.023,11.701l-1.115,2.611l1.582,2.073l1.04,2.655l1.04,1.576l3.437,2.504l1.687,1.899l1.341,0.993l3.873,5.16l2.606,2.202
		l2.472,0.519l1.341,0.841l1.928,0.713l1.899,1.382l1.869,2.072l4.988,3.562l1.22,1.771l0.83,2.202l1.989,3.238l0.964,2.417
		l1.642,2.267l-1.898,1.943l-1.734,1.339l-0.693,0.927l-0.528,1.123l-0.21,2.332l0.015,8.679l0.136,2.007l1.115,3.325l2.276,3.734
		l0.603,1.683l1.281,2.375l0.617,1.684l1.295,2.375l1.553,4.425l1.417,2.657l1.869,5.438l0.437,3.822l1.221,3.151l0,0l-2.577-0.366
		l-2.155,0.15l-0.843,0.518l-1.477,1.576l-1.176,0.455l-6.933-0.109l-1.446,0.324l-0.513,0.519l-0.392,0.69l-1.266,3.821
		l-0.542,1.079l-0.875,1.123l-1.777,1.382l-1.101,1.727l-0.287,1.317l0.015,6.497l-0.226,1.705l-0.362,0.734l-0.481,0.54
		l-2.864,1.899l-0.573,0.842l-0.241,0.885l-0.09,1.663l0.075,14.441l-0.091,1.316l-0.24,0.929l-0.573,1.057l-2.365,3.41l-1.01,2.484
		l-1.116,1.77l-3.3,4.598l-0.738,0.82l-1.568,1.209l-1.959,2.807l-4.4,12.434l-1.417,2.634L462,491.236l-1.597,2.893l-1.552,3.411
		l-1.613,4.361l0.317,1.619l0.121,2.202l-0.016,2.137l-0.24,1.231l-0.513,0.582l-2.064,0.433l-2.246,1.036l-0.512,0.626
		l-0.135,1.295l0.708,2.547l0.181,1.857l0.016,24.22l-0.167,2.612l-0.678,2.655l-0.15,3.325l-0.196,1.058l-0.272,0.604l-0.558,0.691
		l-0.964,0.754l-1.432,1.491l-0.708,0.431l-1.265-0.021l-1.356-0.821l-0.739-0.237l-1.04-0.021l-1.356,0.324l0,0l-0.527-2.052
		l-0.452-0.906l-1.583-1.252l-1.507-0.518l-1.356-0.906l-1.672-0.281l-7.942-0.151l-0.708-0.194l-1.145-0.756l-2.456-0.496
		l-1.388-1.296l-4.354-6.26l-1.237-1.403l-1.612-0.605l-1.341-0.82l-2.456-0.561l-1.387-0.821l-2.531-0.54l-2.185-1.705
		l-3.646,0.885l-1.146,0.713l-1.01,0.259l-8.544-0.022l-0.994,0.432l-2.772,1.856l-2.667,0.669l-1.387,0.755l-3.315,0.54
		l-2.125,0.884l-0.889,0.152l-12.101-0.152l-0.95,0.216l-1.356,0.756l-2.034,0.41l-0.633,0.28l-0.875,0.778l0,0l-0.3-1.058
		l-0.542-0.561l-0.995-0.67l-0.693-0.388l-0.241-0.194l-1.236-0.28l-0.151,0.085l-0.588,0.086l-0.844,0.282h-0.844h-0.391
		l-1.04,0.194l-0.453-0.086l-0.737-0.39l-0.196-0.388l-0.302-0.086l-0.151,0.28l-0.497,0.194h-0.693l-0.241,0.282l0.105,1.23
		l0.391,0.28l0.739,1.706h0.301l0.046,0.95l-0.241,0.476l0.301,1.619l0.242,1.705l0.196,1.899l0.497,1.706l0.437,1.145l0.196,0.561
		l0.045,0.863l-0.301,0.95l-0.346,0.475l-0.197,0.281l-0.196,0.194l-0.588,0.281h-0.346l-0.196-0.195l-0.391-0.755l-0.106-0.475
		l-1.733-3.411l-0.889-1.144l-0.393-1.512l-0.647-0.949l-1.085-2.289l-0.301-0.669l-0.739-1.425l-0.542-0.668l-0.346-0.951
		l-0.242-3.712l-0.346-0.949l-0.196-0.195l-1.04-0.28l0.241-0.388l0.196-0.562l0.271-0.281l0.377-0.086l-0.045-0.476l-0.648,0.195
		l0.106-0.476l0.346-0.475l0.543-0.086l0.15-0.28l-0.105-0.563l-0.647-0.28l0.105-1.706l-0.437-1.619l-0.497-1.23l-1.04-2.094
		l0.105-0.95l0.497-1.706l0.784-1.339l0.197-0.863l0.496-0.95l0.347-0.28l0.196,0.194h0.301l0.151-0.194l0.542,0.086l0.046-0.282
		l-1.432-0.669l-0.889-1.619l-0.935-0.668l-0.783-0.086l-0.301-0.562l-0.242-0.389l-0.648-0.561l-0.3-0.28v-0.669l0.391-0.195
		l0.648-1.338l0.694-2.958l0.24-5.44l-0.693-7.146l-0.256-1.619l-0.979-4.188l-0.693-4.296l-0.648-3.519l-1.04-4.577l-0.994-4.015
		l-0.588-3.238l-0.89-3.541l-0.196-1.338l-0.3-1.338l-0.543-1.145l-0.738-2.569l-0.437-2.201l-0.844-0.476l-1.341-1.899l-1.387-0.95
		l-0.889-1.058l-0.783-0.583l-0.542-0.388l0.195-1.338v-1.059l0.302-1.057l0.24-1.145l0.588-0.087l0.542-0.194h1.281l0.542-0.193
		l0.542-0.281l-0.105-0.755l-0.301,0.085l-0.347,0.086l-0.346,0.476l-0.347,0.194l-1.13-0.194h-0.301l-0.889,0.669l-0.392,1.619
		l-0.242,0.474l-0.15,0.951l0.105,1.144h-0.195l-0.106-0.194l-0.241-0.95l-0.045-0.864l-0.647-3.259l0,0l3.692-2.871l4.626-3.087
		l4.37-3.173l1.13-1.856l0.498-1.446l0.497-0.972l3.391-4.965l1.205-2.807l0.754-1.166l0.679-0.69l2.14-1.36l1.34-0.411l1.311-0.755
		l2.818-0.626l11.317-7.901l1.567-1.727l1.538-1.188l2.637-3.173l1.493-1.166l1.537-1.662l1.356-1.036l2.622-3.714l1.281-2.958
		l3.677-5.397l0.844-2.201l2.351-3.908l1.341-3.928l1.673-2.958l3.014-1.446l1.688-1.273l0.904-1.446l0.392-2.181l0.558-1.943
		l0.391-3.518l0.573-2.073l0.121-1.231l0.029-5.482l-0.15-1.554l-0.452-1.36l-0.994-1.835l-0.784-2.029l-3.557-5.246l-0.603-1.447
		l-0.391-2.224l-0.588-1.92l-0.151-2.504l-0.045-14.939l-0.136-1.036l-0.527-1.575l-0.136-1.059l-0.18-6.217l-0.86-3.454v-1.403
		l-2.169-3.108l-0.256-1.036l0.256-0.972l0.979-1.813l0.618-1.64l1.07-1.598l2.456-1.749l1.568-0.843l0.995-1.942l1.024-3.173
		l0.106-1.447l-0.256-1.101l-1.312-1.943l-0.256-1.252l-0.121-3.864l-0.226-0.993l-0.602-1.036l-0.89-0.626l-0.617-0.906
		l-0.422-1.468v-8.16l0.211-1.381l0.602-1.965l0.136-1.36l-0.241-1.597l-0.693-0.583l-2.803-0.086l-0.632-0.216l-0.333-0.367
		l-0.888-2.224l-0.271-2.827l-0.588-2.289l-0.09-1.187l0.316-0.928l0.527-0.691l3.708-2.46l0.829-0.282l2.728-0.302l1.583-0.841
		l2.651-0.692l4.958-3.41l2.953-0.368l2.321-1.079l3.345-0.107l1.281-0.216l1.432-0.734l1.808-0.367l0.618-0.389l0.362-0.604
		l0.708-2.029l0.211-2.591l0.256-1.316l0.813-2.44l0.498-1.035l0.784-1.037l1.703-1.381l1.417-1.728l2.502-3.691l0.376-0.842
		l2.879-8.483l0.301-1.921l1.507-4.468l0.407-3.648l0.708-2.483l-0.136-2.073l-1.672-4.878l0.016-8.678l0.195-1.339l1.537-4.664
		l0.392-2.158l1.462-4.317l0.452-2.525l0.513-1.641l0,0l0.075-0.389l4.581,1.015l1.114-0.324l4.537-4.123l1.447-0.022l1.839,0.54
		l1.672,0.864l1.401,1.49l2.698,4.035l1.672,0.39l2.667,0.216l1.492-1.058l2.486-3.778l1.281-1.446l1.175-0.021l2.848,0.604
		l0.995-0.41l0.557-1.036l0.497-2.158l0.558-1.36l0.663-0.648l1.281-0.497l4.957-0.69l2.005-0.821l3.722-2.591l1.839-0.086
		l1.055,0.626l2.456,2.374l1.507,1.9l0.286,1.684l-1.114,1.036l-0.95,1.208L481.892,164.404z"/>
	<path id="GE-TB" fill="#CCCCCC" stroke="#FFFFFF" stroke-width="0.5" d="M878.053,688.069l1.009-3.93l1.055-1.64l1.747-1.318
		l2.125-0.755l1.041-0.82l0.407-0.648l0.181-0.928l-0.029-1.339l-0.181-1.014l-0.632-1.879l-0.152-1.359l0.092-1.317l0.331-0.777
		l1.372-1.144l0.859-0.258l1.115,0.237l2.395,1.683l0.543,0.215l0.527-0.171l1.492-0.972l1.521-1.685l1.311-0.993l0.589-0.82
		l1.039-2.914l0.393-2.439l0.873-2.719l0.785-1.923l0.437-0.495l0.572-0.022l1.236,0.799l1.522,0.539l1.929,1.318l0.889,0.949
		l2.683,3.648l2.094,1.532l0.633,0.26l2.064,0.323l1.749,0.929l0,0l-1.055,2.288l-2.05,2.914l-1.116,1.252l-1.401,0.994
		l-0.889,1.078l-0.542,1.08l-0.136,1.209l0.151,0.84l0.256,0.455l2.773,2.051l0.874,1.122l0.558,1.058l1.928,5.699l0.137,1.684
		v4.814l0.179,0.95l0.513,0.929l1.492,1.207l1.703,1.793l3.813,2.676l1.417,0.302l3.209,0.024l0.708-0.174l0.633-0.41l1.538-1.965
		l0.828-1.555l1.266-3.777l0.708-1.037l1.13-0.453l2.2-0.063l0.859,0.174l0.452,0.581l0.031,0.799l-0.558,1.685l-0.362,3.152
		l-0.633,2.18l-0.362,3.477l-0.889,2.697l-0.828,1.942l-0.392,0.604l-1.371,1.166l-3.829,2.59l-1.145,0.346l-3.195,0.15
		l-2.292,1.124l-1.492,0.086l-1.22-0.218l-9.192-6.41l-1.478-0.215h-4.566l-1.19-0.325l-1.884-1.921l-1.582-1.296l-3.391-4.705
		l-1.16-1.015l-2.985-0.345l-1.551-0.907l-0.905-0.259l-6.962,0.021l-0.875-0.173l-0.466-0.581l-0.046-0.8l1.417-4.943l0.075-0.799
		l-0.136-0.519l-0.408-0.519l-1.19-0.97l-1.597-0.691L878.053,688.069z"/>
</g>
</svg>
