<?xml version="1.0" encoding="utf-8"?>
<!-- Generator: Adobe Illustrator 15.0.0, SVG Export Plug-In . SVG Version: 6.00 Build 0)  -->
<!DOCTYPE svg PUBLIC "-//W3C//DTD SVG 1.1//EN" "http://www.w3.org/Graphics/SVG/1.1/DTD/svg11.dtd">
<svg version="1.1" id="Layer_1" xmlns:amcharts="http://amcharts.com/ammap"
	 xmlns="http://www.w3.org/2000/svg" xmlns:xlink="http://www.w3.org/1999/xlink" x="0px" y="0px" width="1920px" height="1200px"
	 viewBox="0 0 1920 1200" enable-background="new 0 0 1920 1200" xml:space="preserve">
<defs>
		<style  type="text/css">
		g#mapPaths{
							fill: #e8e3c4;
				stroke: #5d5c56;
				opacity: .8;
		}
	</style>
	
		<amcharts:ammap  bottomLatitude="50.750938" rightLongitude="7.227496" topLatitude="53.560406" leftLongitude="3.359403" projection="mercator">
		</amcharts:ammap>
</defs>
<g id="mapPaths">
	<path id="NL-DR" fill="#CCCCCC" stroke="#FFFFFF" stroke-width="0.5" d="M1122.513,282.987l8.515,2.023l3.955-6.69l2.3-0.456
		l0.727-4.262l4.761-8.119l0.53-2.264l1.927-1.227l2.104-2.238l1.219-0.267l1.396-0.935l0.435-2.556l0.529-0.67l3.047-0.835
		l4.309-1.859l0.334-0.404l2.203-0.368l2.751-1.694l0.176-1.177l5.274-0.657l5.249-1.101l2.791,0.025l2.616-0.429l8.436,2.365
		l2.183,0.076l2.086,2.592l-0.12,0.67l1.183,0.025l4.6,5.173l2.242,4.021l3.953-1.1l0.748,0.076l1.355,1.492v1.266l0.963,2.428
		h2.597l4.012,2.264l1.553,1.328l1.397,0.34l2.084,3.694l1.377,0.694l0.709,1.568l1.336,0.431l0.079,2.289l12.841-3.756l5.349-0.936
		l12.917,0.442l2.459,1.063l1.555,1.429l13.392,8.84l6.155,4.553l4.917,2.96l17.735,13.014l14.809,9.586l8.87,7.866l16.123,15.669
		l0.375-0.064l2.634,1.745l6.568,1.126l-8.83,13.797l7.396,0.506l0.964,2.34l1.16-0.064l4.602,4.338l0.806,0.19l1.219,1.125
		l0.847,0.164l1.258-0.456l0.354,0.127l-0.786,1.556l-0.275,1.885l6.252-0.203l0,0l-6.508,9.485l0.039,3.73l-5.506,50.524
		l0.255,0.759l-4.326,3.288l-1.906-0.759l-2.301,0.063l-5.035-0.785l-1.573-0.695l-0.826-0.784l-3.776,0.164l-2.89-1.251
		l-2.418-0.494l-2.144,1.455l-2.459-0.165l-2.064,1.341l-2.36-0.19l-2.891,0.519l-2.438-0.683l-0.611-0.468l-2.751,0.038
		l-0.887-2.011l-3.362-0.62l-0.826,0.089l-1.572-0.746l-4.917,0.329l-2.222-1.188l-3.324,1.315l-2.496-0.064l-1.042,0.292
		l-4.623-1.113l-1.257,0.189l-3.205,1.253l-4.68-0.493l-0.984-0.721l-3.204,0.228l-1.045-0.594l-1.672-0.063l-2.338,0.303
		l-1.771,0.62l-1.021,1.049l-2.831-0.657l-1.712,0.822l-0.649-0.595l-2.751,0.758l-4.229,2.896l-1.24,1.213l-2.929,0.924
		l-1.18,1.353l0,0l-3.58-0.14l1.121-2.036l-0.629-0.683l2.006-1.417l-0.453-0.657l-0.648-0.139l1.593-2.327l-10.619-2.377
		l-18.938-5.792l-19.859,2.871l-2.558,0.923l-9.301,4.933l-0.217,0.62l0.688,3.819l0.962,1.847l0.866,5.514l-0.451,0.569h-0.729
		l-0.156-0.695l-0.709-0.039l-0.529-0.822l-1.396-0.063l-0.848-1.012h-1.967l-1.866-0.531l-1.988-0.063l-0.648,0.354l-2.36-0.165
		l-0.353-0.518l-1.298-0.329l0.06-0.822l-1.377-0.468l-1.199,2.44l-1.004,0.683l-3.421,0.658l-1.83-0.189l-1.867-0.759l-1.042-0.859
		l0.1-1.278l-0.846-0.531l-0.335-0.746l-0.867,1.012l-1.867,0.886l-0.215,0.759l-0.904,0.467l-2.814-0.923l-0.982,1.151
		l-2.969-0.063l-0.767,0.847l-2.814,0.961l-0.432-0.076l-0.274-0.91h-0.786l-1.143-0.987l-0.156-1.062l-0.924-1.013l0.297-1.353
		l-1.34-1.213l-0.51-1.607l-1.967-1.581l0.314-0.43l-1.377-0.658l-0.965,0.063l-0.627-0.43l-0.18-0.683l-2.83-1.087l-0.788-0.658
		l-2.416-0.556l-2.301-1.329l-0.099-1.48l0.845-0.657l-1.062-1.176l-1.869,0.063l-3.854,1.176l-2.379,0.102l-1.122,1.063
		l-1.04,0.088l-0.907-0.328l-1.907-1.67l-1.141-0.102l-1.377,1.113l-0.846,0.101l-1.572-0.657l-1.061-0.924l-2.223-0.101
		l-1.829-0.885l-1.652-1.783l0,0l-1.71,0.101l0,0l-2.36-0.759l-0.334-0.455l-0.885,0.203l-2.792-1.024l-0.334-0.86l-2.479,0.594
		l-1.672,0.038l-1.672,1.48l-3.991-0.304l-0.747-0.557l-2.399,0.633l-1.494-1.986l-1.022-0.619l-0.394,0.164l-1.063-0.43
		l-1.927-1.644l-1.593-3.554l-3.521-4.944l-6.293-10.421l1.418-1.581l0.668-0.303l7.157-1.113l6.037-1.947l0.372-1.593l10.146-7.221
		l-2.025-1.316l-5.899-5.223l-2.222-0.796l-11.03-8.258l-1.554-1.315l-0.688-1.29l-2.38-1.985l0,0l13.116-6.514l13.06-5.399
		l8.278-7.411l3.951-2.011l1.438-1.796l2.26-0.923l1.966-0.101l12.782,0.796l9.775,6.451l18.424-8.474l10.855-13.216l-20.353-20.336
		l1.357-11.293l-18.565-4.515L1122.513,282.987z"/>
	<path id="NL-FL" fill="#CCCCCC" stroke="#FFFFFF" stroke-width="0.5" d="M845.712,469.78l-1.238-0.291l-0.098-0.657l0.628-0.431
		l0.787-2.63l4.051-6.21l2.418-1.542l5.133-1.606l0.648-0.759l-0.059-0.658l-3.58-7.096l-17.266-17.881l0,0l0.708-0.329l0,0
		l17.404,17.882l3.677,7.651l-0.786,1.606l-5.861,1.771l-1.829,1.315l-4.13,6.462L845.712,469.78z M934.282,367.96l3.107,0.392
		l2.458,1.556l2.124-0.556l-1.927-3.731l6.234,1.226l11.269,7.335l1.927,4.793l1.16-0.429l0,0l2.772,3.174l4.209,2.378l0.058,0.633
		h5.703l0.649,0.29l3.678,0.431l2.733,0.86l6.096,2.707l1.828,1.644l3.167,1.745l1.867,0.759l1.121,0.038l5.999,3.668l1.119,1.125
		l2.203,3.654l3.146,6.994l2.183,0.721l1.062,1.189v1.151l0.63-0.039l1.022,0.531l1.337,1.91l0.059,1.151l-0.806,0.859l-1.003,0.101
		l-1.771,1.353l-2.891,1.29l-3.52,2.567l0.117,1.125l0.749,0.557l1.336,0.101l0.04-0.456l4.148,1.05l2.144,0.102l3.009,0.657
		l4.956,2.795l5.073,0.885l3.696,2.365l0.787,0.823l0.06,0.492l-1.613,1.214l-7,2.997l-10.305,1.442l-0.473,0.721l-7.157,2.593
		l-4.601,0.367l-1.554-1.088l-2.498-0.619l-18.328,2.592l-1.611,0.429l-0.847,0.886l-18.444-0.038l-0.12,8.676l7.336-0.063
		l2.87,0.329l13.255,9.093l0.963,1.872l2.458,9.03l0,0l-2.144,6.134l-1.927,1.808l-0.807,3.149l-1.967,3.478l0.039,0.62
		l-0.588,0.392l-2.185-0.455l-0.865,0.265l-4.346,5.337l-0.098,0.367l1.77,1.669l-3.421,3.212l-0.649,1.277l-6.057,3.832
		l-2.458,0.949l-6.627,3.934l-1.121,0.202l-0.373,0.455l-4.859,2.517l-0.806-0.037l-1.179-0.685l-0.649,0.102l-0.177,0.455
		l0.53,0.621l-1.591,0.821l-0.749,0.822l-2.241,1.05l-3.422,0.885l-2.615,1.632l-2.93,0.555l-2.891-0.037l-8.495,4.678l-1.495-1.012
		l-1.121-0.227l-7.709,2.352l-2.123,1.114l-1.436-1.138l-1.063-0.102l-4.502,0.62l-0.788,0.493l-3.638,3.629L881.66,548.57
		l-2.083,3.654l-1.142,1.05l-34.57,6.362l-4.601,1.137l0,0l-6.038-3.326l-15.81-10.054l0,0l-7.494-4.768l-9.143-3.883l-19.134-3.099
		l-21.632,2.378l-2.123-0.783l-2.281-1.834l0,0l0.433-0.266l-0.531-0.62l2.124-1.24l-2.772-1.695l-0.806-0.037l-0.334,0.266
		l-0.256-0.292l0.963-0.683l0.335-0.886l-0.531-6.335l-3.205-3.92l0.059-1.936l10.639-4.123l1.593-2.353l14.119-5.362l3.677-0.063
		l1.435-0.493l0.964-0.43l1.907-2.163l6.293-2.492l40.194-18.211l3.146-0.291l1.927-0.721l12.036-6.956l0.589-1.253l-1.003-1.112
		l-0.177-1.544l-0.805,0.292l-1.122-0.038l0.275-1.746l1.18-0.203l0.276,0.494l0.373-0.531l1.436-0.266l1.455-0.848l2.773-4.135
		l2.025-1.707l9.459-0.367l1.318-0.367l10.54-6.475l0.334-0.329l-1.278-0.885l1.081-0.696l1.122,0.658l-0.473,0.228l0.374,0.202
		l8.809-5.817l20.825-3.882l2.93-1.683h0.905l3.088-1.973l-9.833-10.193l-5.565-2.63l-0.118-0.291l1.139-0.265l-1.455-1.214
		l-1.965,0.228l0.531-33.779l20.786-21.753l1.926-0.759l12.291-0.986l0.904-0.101L934.282,367.96z"/>
	<path id="NL-FR" fill="#CCCCCC" stroke="#FFFFFF" stroke-width="0.5" d="M889.899,370.174l0.198,0.431l-0.649,0.038l-2.773-0.695
		l0.433-0.304h1.809L889.899,370.174z M877.177,368.694l-1.376-0.392l0.333-0.165l1.023,0.228v0.328H877.177z M839.342,329.451
		l-0.434-0.329l0.315-0.657l0.531,0.392L839.342,329.451z M836.627,316.185l-0.589-1.099l0.255-0.228l0.591,1.125L836.627,316.185z
		 M827.798,288.729l0.807,0.961l1.16,0.303l1.396-0.227l1.653,1.1l0.688,1.96l2.026,2.53l-5.999-0.266l-0.648-1.202l-2.045-1.896
		l-0.689-2.959l0.177-0.266L827.798,288.729z M816.865,288.931l0.412,0.961l-0.273,0.43l-1.083-0.228l-1.277,0.494l-0.865-0.165
		l-8.063,1.492l-25.545,14.481l-0.156,0.86l-1.456,0.758l-0.708-0.328l-1.081,0.568l1.436,0.367l1.12-0.569l0.216,0.165
		l-1.181,0.632l-1.927-0.367l-11.051,6.171l0,0l-1.279-1.1l0,0l10.835-6.108l-0.176-0.733l1.436-0.493l-1.161,0.632l0.197,0.43
		l29.084-16.503l1.317-0.469l7.905-1.391l0.197-0.228l1.002,0.392l1.18-0.202l0.276-0.304L816.865,288.931z M735.276,211.154
		l8.239,0.999l0.432,0.165l0.375,1.504l-1.437,0.57l-0.963,0.872l-1.396-0.404l0.59,0.695l-1.297-0.329l-2.458-0.063l-4.641,0.834
		l-2.399,1.568l-3.835,1.708l-5.171,1.53l-11.484,2.605l-5.564,1.771l-0.551,0.796l2.026,3.136l-0.59,0.469l-1.769,0.202
		l-0.532,0.43l-0.157,1.771l0.845,0.228l-0.59,1.24l-7.591,1.998l-4.228,2.934l-1.907,0.595l-4.208-0.228l-2.635,0.304l-5.703,1.999
		l-1.554,0.063l-1.023-0.531l-1.533-1.872l0.04-0.962l17.619-7.17l2.674-1.53l6.589-4.97l4.739-2.466l18.288-8.018l4.228-0.771
		l6.194-1.669H735.276L735.276,211.154z M757.163,216.972l-1.003,0.936l-1.297,0.138l-1.653,1.367l-0.708,0.164l-1.396-0.43
		l-1.75,0.202l0.04-0.67l1.121-0.063l0.647-0.505l-0.805-0.937l-1.337-0.265l2.949-1.872l0.315-0.506l2.872-1.34l1.809-1.506
		l1.062-0.43l1.869-0.063l0.924,1.202l-0.216,0.999l-1.711,2.174L757.163,216.972z M772.088,182.534l-0.197-0.266l0.709-0.531
		L772.088,182.534z M1083.695,176.843l-7.257,6.804l0.256,4.25l1.594,3.009l1.063,1.075l2.24,1.202l10.265,1.808l1.338,0.469
		l1.16,1.138l0.864,2.113l1.377,1.075l2.185-0.164l3.636-1.644l5.172,0.797l5.703,1.606l-1.651,9.257l0.117,0.304l2.932,0.43
		l0.806,0.796l-1.829,1.366l-2.713,0.633l-0.965,0.998l-0.156,1.164l-0.926,0.696l-0.371,1.404l-0.474,0.24l-2.418-0.468
		l-2.302,0.873l-0.55,3.845l1.063,1.973l-0.158,1.163h-0.865l-0.747,0.506l-0.807-0.671l-0.591,0.039l-0.806,1.062l-1.337,0.772
		l0.158,0.936l-0.532,0.695l-1.887,0.468l0.903,0.834l-0.195,0.506l-1.396,0.733l0.432,0.936l-0.117,1.632l-5.388,0.568l0.866,2.1
		l2.556,1.303l0.491,1.606l1.337,1.163l-0.492,1.493l-1.002,0.733l-0.473,1.24l-1.454,1.568l-2.027,1.062l-1.119,1.138l-1.868,0.139
		l-0.924,0.405l-0.434,1.77l-2.047,1.265l-0.491,1.063l-3.99,4.729l-0.866,3.503l-0.491,8.423l5.565,4.463l3.912,2.227l10.247,0.999
		l8.592-0.228l4.544,1.567l2.279,1.43l1.829,1.858l7.475,1.923l0,0l-2.519,4.452l18.543,4.515l-1.336,11.294l20.353,20.335
		l-10.854,13.216l-18.426,8.474l-9.773-6.451l-12.782-0.796l-1.967,0.101l-2.28,0.923l-1.437,1.784l-3.951,2.022l-8.279,7.412
		l-13.078,5.387l-13.098,6.512l0,0l-3.833,2.087l-3.775,1.556l-1.672,0.101l-1.555,0.557l-1.179,0.797l-1.396,0.164l-4.053-0.303
		l-3.52,0.922l1.023,3.301l-0.63,0.721l-4.699,1.847l-2.635,0.696l-1.396-1.822l-3.54,0.304l-2.576,0.556l-0.964,0.531l-1.021,0.039
		l-1.338-0.165l-1.593-0.922l-1.18-0.165l-1.455-2.542l-1.809-1.72l-0.965-2.542l-4.208,0.595l-1.376,0.594l-0.374,0.494
		l0.335,1.252l-2.892-0.758l-1.493,0.391l-3.246,0.266l-0.117,0.696l-1.278,0.392l0.472,0.556l-0.373,0.367l-0.06,1.657
		l-2.792,1.189l-1.594,1.556l-2.713,1.087l-1.181,1.189l-6.509,1.986l-1.494-0.101l-2.871-0.987l-1.456,0.038l-1.12-0.429
		l-2.93,0.063l-1.672-0.556l-1.22,0.721h-0.746l-0.688-1.353l-3.796-1.391l-0.472-0.494l-7.434,3.339l0,0l-1.16,0.429l-1.927-4.793
		l-11.268-7.335l-6.234-1.226l1.927,3.731l-2.125,0.556l-2.458-1.556l-3.106-0.392l0,0l0.216-1.417l-0.787,0.557h-0.59l-0.531-0.43
		l-0.964,0.595l-0.747-0.493l0.118-0.987l-0.747-0.392l-4.071-0.392l-3.775,0.126l0.629-1.151l-0.413-0.101l-0.687,1.328
		l-1.062,0.126l-0.06,0.695l-1.002-0.531l-2.301,0.165l-0.177-0.43l-1.239-0.632l0.746-0.392l-0.156-2.251l-3.482-1.656
		l-2.025,0.329l-6.292,2.782l-4.347-0.392l-5.565,0.822l-0.748,0.897l-0.648,2.15l-0.688,0.468l-3.698,1.392l-4.443,0.594
		l-1.534-0.126l-6.902-1.72l-12.88-3.833l-7.905-1.517l-2.045-0.101l-0.964,0.303l-0.216,0.759l-2.988,0.164l-4.445,0.962
		l-2.771-0.632l-5.782-2.15l-4.758-3.301l-4.012-1.885l-1.592-1.189l0.492-0.632l-0.216-0.329l-1.456-0.165l-2.143-2.276
		l1.455-0.822l0.924-1.189l3.088-2.289l4.424-1.29l1.277-0.822l3.206-0.569l1.71-1.556l0.316-3.376l-0.629-0.695l-1.022-4.541
		l-1.711-1.328l1.651-0.923l1.062,0.202l0.807-0.367l-0.157-0.304l-1.141,0.063l0.118-0.303l1.219-0.064l0.472,0.393l0.433-0.304
		l-0.04-2.314l0.276-0.227l0.628,0.43l-0.04-0.367l-0.963-0.923l-0.117-0.822l-1.004,0.228l-0.492-0.203l2.3-0.366l0.315-1.53
		l-1.672-4.009l-0.648-0.467l-0.59-1.43l0.157-0.695l-0.628-0.229l-0.434-1.757l0.119-3.25l-0.808-0.594l2.714-2.946l-0.648-0.658
		l0.747-2.757l-0.787,0.165l-1.967-0.659l0.375-1.492l-0.866-0.329l0.315-0.367h1.121l0.216-1.392l0.413,0.468l0.434-0.063
		l-0.965-1.822l0.552-3.149l-0.925,2.226l-0.158,2.593l-1.179,0.531l-0.807-0.569l-0.118-1.125l-1.18-1.593l-0.865-0.899
		l-2.182-1.264l-0.492-1.96l0.431-0.266h1.967l0.373,0.861l1.24,0.038v-0.86l1.318-0.063l0.963,0.999l1.436-0.126l-1.456-2.226
		l-1.12-0.834l-0.905-1.291l-0.59-1.493l0.434-1.125l-0.434-1.329l-2.831-3.958l-0.531-0.164l-1.159,0.164l-7.808,4.717l-2.183,0.67
		l-0.531,0.633l-0.924-0.063l-0.865-1.859l0.413-0.304l0.649,0.266l1.809-0.367l1.219-0.531l8.692-5.413l0.59-0.531l0.866-2.694
		l-0.649-0.734l0.177-0.404l5.034-1.96l2.655-2.226l1.77-4.097l0.865-7.463l0.964-2.794l-0.099-1.404l-1.672-0.594l-0.413-0.733
		l1.122-0.733l0.373-0.696l2.242-0.797l0.374-0.834l-0.473-0.203l2.498-4.895l1.456-1.732l1.238-2.403l3.166-3.263l4.661-2.668
		l6.136-4.465l2.556-0.67l3.677-1.834l3.736-1.365l0.708-0.569l3.363-1.202l3.048-2.403l5.624-3.339l1.888-3.402l8.652-5.615
		l8.771-2.908l3.854-0.531l11.7-2.846l2.891-0.367l2.793-0.898l2.084-0.063l3.362-1.568l19.447-7.322l7.198-1.809l2.931-1.101
		l1.316-0.164l0.846-0.569l4.542-0.771l3.58-1.606l6.725-2.403l4.738-0.999l1.771-1.24l3.323-0.606l1.396-0.569l-3.363-3.111
		l0.216-0.303l0.866,0.772l0.688-0.469l0.59,0.835l-0.433,0.429l1.771,1.606l2.517,0.267l1.928-0.709l4.504,0.405l8.966-1.708
		l3.698-1.074l3.794-0.329l0.473-0.632l0.846,0.57l4.641-0.532l8.278-1.708l8.378-0.43l8.063-0.936l5.014,0.873l0.551-0.873
		l0.631,0.873l1.316-1.303l0.628,0.607l2.872,0.063l10.168,1.176l12.348-3.756l2.086-0.101L1083.695,176.843z M876.705,164.905
		l-3.619,0.202l-0.334,0.404l0.531,0.405l8.299-0.734l1.239,0.101l0.708,0.911l-0.924,2.314l-4.798,1.771l-1.455,0.266l-2.183,0.303
		l-0.591-0.164l0.276-0.266l-0.334-0.165l-0.531,0.266l-0.708-0.14l-3.638,1.81l-5.447,1.808l-2.892-0.265l-1.652-0.974
		l-0.215,0.834l0.806,0.911l-0.039,1.1l-3.028-0.468l-2.498-1.176l-1.711-0.202l-0.216,0.43l0.373,0.266l3.835,1.745l4.817,1.176
		l-0.589,0.468l-0.925-0.431l-0.845,0.165l-0.688,0.506l0.589,0.329l-0.865,0.367l-2.93,0.43l-12.861-0.266l-4.111,0.165
		l-4.856,0.81l-2.558,0.734l-5.859,3.844l-3.638,1.568l-2.123,0.531l-1.554,0.063l-2.792,1.302l-3.677-0.873l-0.747,0.937
		l-1.987,0.632h-1.553l-0.905,0.81l-0.276,0.796l-2.792-0.202l-2.891-0.709l-3.105,0.709l-2.715-0.531l-4.857,2.745l-0.216-0.329
		l-1.239-0.367l-5.132,0.404l-1.299,1.138l0.158,1.606l-0.433,0.24l0.472,0.569l-1.081,0.102l-1.18-0.607h-1.278l-0.491,0.505
		l-1.534,0.532l-1.77,1.543l-1.613,0.505l-1.376,1.101l-3.677-0.569l-4.798-1.973l-0.433-0.467l-0.865-2.783v-1.365l1.75-1.404
		l4.956-2.808l3.088-2.947l1.218-1.972h0.375l-0.334,0.998l0.531-0.037l0.333-1.277l1.338-0.999l-0.158-0.241l-1.199,0.089
		l0.905-0.406l33.114-3.983l5.979-0.936l0.846,0.467l1.611-0.139l30.285-6.335l1.455-0.937l6.076-1.101l18.8-4.855l6.135-0.733
		l3.265,0.038l1.534,0.202l0.531,0.43l-0.06,0.733l-0.589,0.468L876.705,164.905z M1043.283,160.655l0.532,2.681l-0.787-0.873
		l-0.925,0.771l-2.338,0.733l-1.005,0.835l-1.711-0.531l-0.649-1.873l1.809-1.706l2.421,0.138l2.419-0.366L1043.283,160.655z
		 M937.979,160.579l16.657-0.43l21.002-1.543l4.444,0.506l22.103-0.734l11.544,0.303l2.123,0.241l1.318,0.834l-0.63,0.809
		l-1.16,0.405l-3.146,0.43l-7.315-0.165l-2.713,0.266l-6.589-0.367l-4.364,1.303l-1.456,0.771l-4.955,0.81l-0.964-0.063
		l-2.576,0.809l-8.613,1.202l-0.491,0.341l-8.612,1.542l-5.762-0.202l-3.049,0.341l-0.313-0.164l-0.178,1.176l-0.628,0.429
		l-0.688-0.24l0.551-0.266l0.098-1.643l-6.155-0.241l-5.781-0.936l-3.146,0.139l-1.142,0.506l-1.002,1.543l-4.346,2.15l-4.7,0.91
		l-2.616,0.911l-3.914,0.139l-0.06,1.1l-0.903,0.468l-1.81-0.341l-4.504-1.948l-4.384-1.304l-2.302-1.681l-2.792-2.884l-0.098-2.01
		l1.337-4.225l1.337-1.441l1.495-0.771l1.867-0.43l2.99-0.037l6.627,1.707l10.914,1.645L937.979,160.579z M1070.972,144.076
		l2.792,0.341l3.05,1.847l4.228,0.468l4.641,0.139l22.771-2.01l12.663-0.772l11.367-0.303l0.57,0.569l-0.492,0.834l-4.953,1.644
		l-2.951,0.809l-3.265,0.366l-7.039,2.176l-3.796,0.443l-2.086,1.682l-7.787,2.353l-2.044,0.303l-6.155,0.101l-7.157,1.037
		l1.592,1.24l-0.117,0.341l-1.533-0.606l-0.691-0.809h-8.315l0.038,1.302l-0.648,0.038l-0.313-1.277l-2.124,0.266l-0.592,0.873
		l-0.805,0.239l0.805,0.708l-2.653-0.24l-0.846,0.43l0.846,0.772l-0.59,0.303l-0.118,0.569l1.003,0.91l-1.868,0.24l-2.793-0.67
		l-1.65,0.101l-2.203,1.91l-1.023,0.101l-1.238-0.341l-0.099-0.266l0.788-1.441l0.529-2.783l1.023-2.276l2.241-2.821l2.792-2.618
		l6.076-3.49l1.553-0.405l-0.471-0.467l-11.7-1.746l-2.3,3.756l-1.377,0.063l-0.649-0.265l0.216-1.214l2.145-3.187h3.833
		L1070.972,144.076z"/>
	<path id="NL-GE" fill="#CCCCCC" stroke="#FFFFFF" stroke-width="0.5" d="M981.695,472.335l4.227-1.012l4.839,2.757l4.129,3.313
		l2.183,2.39l3.244,4.427l0.983,2.036l2.36-0.696l1.22,0.721l3.952-1.897l1.828-0.291l2.694,2.491l13.549-9.017l3.363-0.759
		l1.317-0.684l0.865-0.986l1.928,0.683l1.219,0.102l5.979,3.022l1.985,3.11l1.593,1.544l2.479,1.302l4.698,1.354l2.654,2.062
		l0.847,1.606l0.373,3.566l-0.314,3.086l1.199,1.011l2.459,1.176l4.62,4.389l1.771,3.275l0.177,1.214l-1.73,4.313l-1.377,1.769
		l-0.098,3.073l-0.668,0.912l-0.826,0.594l-5.685,1.404l-6.174,0.758l-1.239,1.101l-0.06,1.176l0.571,0.759l0.708,0.392l2.478,0.354
		l0.983,0.532l0.431,0.683l-1.71,0.91l-3.146,0.62l-0.787,0.86l0.412,3.301l-0.432,3.2l-0.511,2.315l-1.238,0.985l-0.04,0.645
		l3.088,0.267l1.062,1.504l0.177,3.555l2.085,0.429l3.243,0.025l0.648,0.759l0.887,1.821l1.613,1.467l0.255,3.162l2.97,2.353
		l0.885,2.479l1.73,0.985l-1.79,1.658v1.277l3.539,0.519l1.751,0.809l3.855-0.227l0.154,0.656l-0.529,1.14l-2.184,0.91l-0.647,1.076
		l0.845,2.086l2.104,0.987l2.654,0.417l0.826,0.948l-0.078,1.038l0.668,0.392l0.57-0.392l0.06-0.582l-1.121-0.849l-0.59-1.075
		l1.219,0.329l0.236-0.303l-0.648-0.316l0.727-0.849l1.416,0.975l0.296-1.923l0.433-1.137l0.431-0.14l1.397,0.102l1.278-0.354
		l2.025,0.393l3.421-0.102l4.543,2.187l4.799,0.418l2.142,0.519l2.146-0.024l0.845,0.417l4.11-0.229l3.01,0.558l0.156-0.948
		l2.045,0.456l0.727-0.646l3.599-0.618l0.257,0.517l0.944,0.127l0.216,0.555l0.965,0.558l6.429,0.038l2.496-0.455l2.734-0.076
		l0.179-2.77l2.063-0.873l1.238-0.139l0.629-0.874l5.882-0.227l3.459-0.949l1.772,0.556l4.009-0.164l5.073,0.392l-0.098,1.632
		l2.184,1.984l1.278,2.353l6.273,4.224l2.557,3.326l1.847,0.456l2.046,0.063l0.63,0.393l0.136,1.795l1.713,2.479l1.043,0.872
		l3.006,0.949l1.023,0.645l1.063,0.228l5.938-1.366l12.368,1.303l11.19-1.468l0.216-0.329l0.945,0.367l0.098,0.517l1.928,0.519
		l0.608,0.784l1.377,0.621l-1.002,1.327l0.214,0.532l2.616,1.556l2.616-1.265l1.316-0.291l0.532-1.05l0.747-0.392l1.652,0.328
		l1.516,1.367l1.531-1.721l1.299,0.064l6.409,2.174l0.866,0.519l0.571,1.075l-0.061,0.784l-1.002,0.948l0.866,0.291l-0.06,1.783
		l0.413,0.912l-0.413,2.086l-3.305,3.415l4.582,1.366l6.784,0.809l5.33,1.594l14.02-0.063l0,0l-1.335,6.729l-1.082,1.101
		l-0.277-0.456l-0.785-0.188l-1.81,1.1l0.275,0.848l1.475,0.91l0.06,0.91l-3.854,3.087l-13.235,1.429l0.69,0.847l-0.18,0.974
		l-1.966,2.631l-1.061,0.291l-0.118,1.266l0.471,0.354l-0.04,3.795h8.497l12.094,3.729l3.028,1.721l1.021,1.34l2.125,0.544
		l10.579,5.578l0.02,1.2l0.57,0.418l5.625,0.557l1.002,2.073l-0.315,2.264l1.024,2.593l-0.59,1.404l-0.904,1.023l-4.13,0.102
		l-1.536,0.937l-3.262,0.745l-0.867,4.148l0.061,2.757l-3.265,2.139l0.708,0.518l-4.938,3.882l-5.7,1.519l-0.06,1.139l-0.631,0.417
		l-4.601,1.036l-1.495,1.771l-2.93,0.911l-5.152-2.617l-1.002-0.709l-0.217-1.265l-0.768,0.253l-0.629-0.164l-1.102-1.745
		l-1.554-0.026l-1.494-0.581l-1.516,0.291l-12.388,3.78l-1.984,1.329l-1.104,0.063l-1.552-0.354l-14.395,3.099l-3.737,1.656
		l-2.301,1.416l-0.904,0.039l-1.377-1.203l-2.357,0.621l-2.303,1.581l-3.086,1.289l-3.542,0.948l-2.928,1.315l-0.904,0.558
		l-0.061,0.936l-1.317,1.202l-6.312,1.086l-2.676,1.013l-1.671-0.392l-3.146-2.721l-1.376-0.745l-1.673,0.886l-3.834,1.226
		l-0.984-0.519l-0.567-1.809l-3.365-0.721l-0.805-0.771l-5.134-0.291l-1.593-0.937l-0.688,0.19l0.255,0.847l-1.22,2.201l0.218,0.441
		l4.777,2.467l2.301,0.379l0.158,0.52l-2.38,2.137l-0.02,1.228l1.396,1.872l-0.157,0.228l-1.178-0.203l1.021,2.238l-0.275,0.519
		l-1.003,0.215l-5.23-2.226l-4.837-0.089l-1.966-0.582l0.43-0.872l-1.178-1.909l-2.244-1.29l-9.28-0.784l-5.742,0.354l-1.593-4.616
		l-0.805-0.328l0.372-0.961l-3.344-1.037l-1.554-0.127l-1.082-0.683l-2.359-0.228l-1.375,0.354l-1.357,1.163l-2.497,0.495
		l-5.055-0.063l-1.356-0.292l-5.702,0.442l-1.496-0.227l-3.853-1.455l-4.347-2.87l-0.216-1.289l2.38-0.292l-0.768-0.582l0.099-0.683
		l-6.667-3.264l-0.413,0.607l-3.697-1.492l-7.1,0.784l-2.103,1.037l-2.3-1.163l-1.122,1.417l-1.003-0.381l-0.63,0.381l0.138,0.846
		l-1.553,0.811l4.818,0.062l3.303,1.519l2.162,0.645l1.711,3.074l0.198,1.781l6.058,3.138l-0.119,1.935l0.689,4.452l-6.669-1.543
		l-4.66-0.645l-5.348,0.126l-4.012-0.582l-2.557-0.809l-4.896-2.809l-3.54-1.429l-1.711,2.036l-2.026,0.556l0.729,1.063
		l-0.294,0.708l-3.696,1.328l-2.616,1.556l-1.023-0.683l-3.677,0.872l-1.593,2.036l-3.658,1.189l-4.522,0.329l-2.91-0.709
		l-2.379-0.126l-2.577-1.038l-5.034,4.008l4.13,2.063l-1.004,0.834l-0.451-0.228l-0.433,0.292l-0.728-0.354l-0.374,0.202
		l-0.491-0.292l-0.57,0.419l0.196,0.645l5.29,1.833l1.141,1.303l3.205,1.605l0.138,0.457l-1.121,0.455l0.708,0.48l-1.18,1.479
		l1.003,1.327l1.946-0.038l1.416,0.62l0.924-0.202l0.336,0.328l-2.045,1.328l-0.336,1.708l2.145,1.581l-0.158,0.935l-9.498,4.541
		l-1.063,0.202l-0.647,0.544l-0.021,1.606l0,0h-1.18l-0.315,0.619l-0.688,0.229l-3.579,0.152l-1.277-0.861l-0.06-0.581l-1.317-0.746
		l-2.202-0.708h-1.338l-1.022-3.617l-5.879-4.832l-1.968-0.227l-6.45,0.543l-0.118,0.746l1.692,3.971l-1.75,1.189l0,0l-4.661-0.544
		l-14.041,0.999l-7.532,1.253l-4.542-0.026l-2.144-0.29l-2.556-0.811l-1.829-0.999l-1.633-1.681l0.354-0.19l-0.846-0.937
		l-2.359-1.543l-1.396-0.518l-5.978-0.645l-1.495-0.937l-2.222-2.454l-2.36-1.453l-5.821-0.645l-3.323-1.354l-2.144-2.038
		l-1.848-3.515l-2.045-1.455l-1.593-0.29l-3.894,0.064l-1.77-0.457l-5.211-2.188l-3.952-0.619l-3.777,0.492l-5.505,0.254
		l-1.397,0.771l-2.301,2.453l-2.004,0.393l-6.47-1.037l-4.779-3.061l-1.927-0.645h-1.16l-3.028,0.833l-1.122,1.392l-0.452,1.834
		l-1.338,1.227l-1.71,0.784l-3.894,0.606l-2.026,0.19l-4.325-0.252l-3.107-0.836l-2.871-2.617l-0.983-0.417l-2.557,0.024
		l-0.963,0.519l-1.553,1.808l-3.678,3.036l-5.408,5.906l-1.927,4.123l-0.294,4.237l-1.2,1.352l-1.574,0.733l-9.833,2.908
		l-6.253,2.771l-1.455,0.063l-4.169-0.961l-3.46-0.201l-2.203,0.492l-2.399,1.29l-1.986,0.417l-2.281-0.557l-3.224-1.859
		l-2.242-0.62l-1.77-0.125l-7.316,1.023l-6.175-0.96l-4.03,0.101l-10.992,1.796l-0.118-2.354l3.599-1.934l1.375-1.316l-1.455-0.809
		l-0.57-0.834l0.138-1.29l0.925-1.708l-0.217-0.937l-7.099-2.226l-3.146-2.099l-1.554-0.519l-1.887-0.19l-1.81,0.507l-3.028,2.073
		l-2.202,0.189l-1.121-0.291l-2.733-1.934l-1.377-1.873l-1.554-0.683l0.04-0.898l-0.728-0.479l-8.337-2.455l-2.399-1.351
		l-1.672-2.619l-1.828-0.848l0,0l4.661,0.063l2.024-6.298l-6.686-0.581l-1.869-1.998l0.668-1.784l-1.141-2.353l0.807-0.543
		l3.54,1.997l7.886-0.127l3.008,0.772l1.023-0.746l3.521-0.897l1.16-0.709l-2.143-0.848l-0.788-1.1l0.492-1.1l2.557-0.811
		l3.776-0.024l2.163-0.784l2.064-1.974l0.334-1.581l0.886-0.454l1.848,0.366l2.025-0.328l3.343,0.518l0.708-0.872l0.57-2.757
		l4.307-5.135l1.475,0.441l-0.195-2.035l3.992-3.719l-0.256-0.809l0.905-0.126l8.987-11.017l0,0l4.267,1.783l3.992,0.558l1.67-0.267
		l2.224-1.264l2.733-3.402l1.336-1.063l2.36-0.392l2.458,0.935l3.637,2.43l3.461,1.2l3.954,0.684l5.034,0.417l4.818,2.075l2.655,0.1
		l3.795-1.239l3.088-2.555l2.458-1.099l2.634-0.267l4.524,0.619l2.969-0.126l9.773-2.403l4.09-2.226l2.045-0.721l8.497,1.075
		l5.486-0.393l1.79,0.291l4.247,1.656l2.046,1.202l10.048,2.39l2.242,2.302l2.242,1.14l2.417,0.669l8.063,1.329l5.27,2.275
		l3.127-1.783l1.789,0.645l-0.137-1.655l1.849-0.292l0.019-1.934l-1.357-2.112l-0.058-0.873l0.806-0.809l0.335-1.366l-3.146-2.392
		l-0.688-2.655l-1.338-1.341l-1.946-0.252l-2.497-1.493l-1.278-0.872l-0.276-2.075l-0.531-0.556l-0.964-0.683l-0.748,0.519
		l-3.047-2.138l1.711-0.025l0.413-5.678l-5.92-1.43l0.414-2.238l-2.38-0.657l1.102-1.91l0.768-4.78l-0.336-0.442l0.906-2.403
		l-0.512-2.542l-0.865-0.025l-1.022-0.784l-0.255-2.34l-1.18-0.518l0.59-0.91l-0.532-1.859l-2.104,0.201l0.158,0.62l-0.668,0.089
		l-0.807-0.607l-2.773,0.456l0.216,0.834l0.944,0.203l0.019,0.454l0.787,0.418l-0.866,1.303l1.672,0.29l-0.158,0.848l-0.216,0.646
		l-2.518-0.48l-1.003,1.138l2.064,0.544l-2.989,2.048l-2.595-0.353l-2.753,0.126l-0.807,1.757l-3.657,0.026l-2.635,0.594
		l-5.35-2.049l-0.196-0.618l-1.239-0.19l-0.59-0.43l3.362-2.758l4.484-1.821l-0.414-3.376l2.714-1.694l0.158-0.62l-2.183-0.91
		l6.431,0.43v-0.456l-1.297-0.454l0.058-1.114l-1.513-0.316l-1.437-1.138l0.709,0.088l0.432-1.82l3.402-0.316l1.514-1.884
		l-4.188-1.34l-0.216-0.48l0.591-1.897l-3.206-0.063l-2.517-0.708l0.433-2.188l-0.886-0.189l0.196-0.683l-2.024-0.557l-0.158-0.493
		l-11.877-1.038l-4.956-1.137l0.255-1.177l-0.51-1.948l-1.023-0.656l1.336-0.684l2.34,0.456l1.279-0.683l0.805-2.505l-0.098-1.921
		l-12.723-6.678l3.578-9.903l0,0l4.602-1.138l34.571-6.361l1.161-1.05l2.083-3.655l10.305-20.475l3.638-3.629l0.766-0.48
		l4.523-0.632l1.062,0.102l1.416,1.15l2.125-1.114l7.708-2.352l1.122,0.228l1.495,1.012l8.495-4.679l2.89,0.037l2.931-0.556
		l2.615-1.645l3.422-0.873l2.242-1.05l0.747-0.823l1.593-0.809l-0.531-0.632l0.176-0.456l0.668-0.1l1.18,0.695l0.807,0.024
		l4.857-2.517l0.373-0.455l1.122-0.202l6.627-3.92l2.458-0.948l6.057-3.832l0.648-1.277l3.44-3.212l-1.788-1.669l0.098-0.367
		l4.366-5.336l0.865-0.267l2.183,0.469l0.59-0.393l-0.039-0.632l1.965-3.465l0.807-3.149l1.928-1.809L981.695,472.335z"/>
	<path id="NL-GR" fill="#CCCCCC" stroke="#FFFFFF" stroke-width="0.5" d="M1270.059,161.351l1.278,0.532l1.456-0.102l3.99-2.377
		l1.023-0.24l5.408,1.403l0.648,1.177l-0.118,0.936l-0.649,0.708l-5.407-0.708l-0.217,0.632l4.856,0.771l-0.334,0.911l-2.518-0.304
		l-0.314,0.531l4.111,0.633l2.125-0.165l2.338,0.404l0.218-0.67l-2.519-0.303l-0.492-0.367l1.318-3.212l6.096,1.24l6.883,4.224
		l-0.159,1.581l-2.457,4.453l-0.333,4.691l1.749,1.138l2.774,3.049l-0.846,0.872l1.12,0.304l0.413,0.607l-0.413,3.515l1.769,3.415
		l-0.098,1.606l1.751,4.983l0.648,0.708h1.968l5.662,3.237l1.318,1.1l1.554,0.139v0.569l-1.162,0.164l-0.688,1.607l3.245,0.67
		l0.845,0.771l1.063-0.102l3.795,0.898l1.023,0.506l1.711-0.038l1.651,0.33l4.956,1.542l1.651,0.24l2.144,1.265l2.202,0.835
		l5.094,1.265l4.069-0.101l1.988,0.43l0.746,0.532l9.203-0.14l1.298-1.201l3.539-0.43l1.162-0.834h0.846l0.057,0.873l-0.845,0.164
		l-1.888,1.631l-1.828,0.898l-0.648,2.972l0.551,2.365l-2.5,4.439l0.158,1.264l1.121,0.368l0.158,0.935l0.905,0.671l2.241,0.696
		l0.785,0.594l1.24,0.102l0.569,0.695l4.014,0.102l1.454-0.329l0.04,0.531l0.371,0.063l4.877,0.14l3.168,1.504l3.677,0.633
		l2.144-0.532l2.889,1.404l3.68,0.43l0.843,0.468l5.626,0.898l0.492,0.303l0.59-0.329l-0.432-0.771l0.923-1.467l1.062,4.704
		l-0.118,1.506l1.298,2.529l0.413,5.969l-0.47,0.999l-1.967,1.466l-0.492,0.836l5.722,2.693l0.099,0.771l-4.858,1.403l-2.575,0.063
		l-3.324,4.06l-0.098,0.834l-0.808,1.037l-0.117,3.199l-1.967,2.328l-1.081,0.467l1.24,5.552l5.603,2.656l-0.648,11.065
		l4.052,21.955l1.592,2.619l-2.518,2.023l-7.708,17.339l-0.471,1.96l-23.874,25.458l-5.171,4.262l-0.688,0.961l1.553,3.731l0,0
		l-6.254,0.202l0.275-1.884l0.787-1.555l-0.336-0.127l-1.275,0.468l-0.848-0.165l-1.221-1.125l-0.804-0.203l-4.604-4.325
		l-1.159,0.063l-0.965-2.352l-7.411-0.494l8.828-13.797l-6.566-1.125l-2.635-1.759l-0.376,0.064l-16.126-15.669l-8.867-7.854
		l-14.808-9.586l-17.739-13.014l-4.915-2.959l-6.153-4.553l-13.374-8.84l-1.554-1.43l-2.457-1.063l-12.919-0.43l-5.351,0.936
		l-12.858,3.756l-0.061-2.289l-1.338-0.43l-0.705-1.569l-1.377-0.694l-2.085-3.694l-1.398-0.329l-1.552-1.328l-4.013-2.264h-2.576
		l-0.964-2.428v-1.265l-1.376-1.493l-0.745-0.063l-3.954,1.1l-2.241-4.034l-4.602-5.16l-1.181-0.038l0.118-0.67l-2.084-2.605
		l-2.183-0.063l-8.437-2.365l-2.615,0.43l-2.793-0.039l-5.249,1.101l-5.251,0.67l-0.178,1.164l-2.733,1.694l-2.202,0.368
		l-0.335,0.404l-4.285,1.872l-3.049,0.835l-0.531,0.67l-0.433,2.567l-1.396,0.936l-1.219,0.266l-2.124,2.226l-1.928,1.227
		l-0.53,2.264l-4.76,8.119l-0.709,4.262l-2.299,0.468l-3.953,6.677l-8.534-2.023l0,0l-7.473-1.922l-1.829-1.859l-2.282-1.428
		l-4.541-1.569l-8.595,0.228l-10.244-0.999l-3.913-2.225l-5.566-4.465l0.491-8.422l0.867-3.503l3.991-4.73l0.493-1.062l2.045-1.265
		l0.431-1.771l0.925-0.404l1.867-0.139l1.122-1.138l2.024-1.062l1.456-1.569l0.472-1.239l1.003-0.733l0.432-1.505l-1.337-1.163
		l-0.489-1.606l-2.557-1.303l-0.867-2.099l5.389-0.569l0.118-1.631l-0.433-0.936l1.396-0.733l0.198-0.506l-0.905-0.835l1.89-0.468
		l0.529-0.695l-0.158-0.936l1.34-0.771l0.803-1.062l0.592-0.039l0.806,0.67l0.749-0.505h0.863l0.158-1.164l-1.063-1.973l0.552-3.845
		l2.3-0.872l2.417,0.468l0.473-0.24l0.375-1.404l0.923-0.695l0.159-1.164l0.962-1l2.716-0.632l1.828-1.366l-0.807-0.796l-2.932-0.43
		l-0.117-0.304l1.652-9.258l-5.702-1.606l-5.173-0.796l-3.638,1.644l-2.182,0.164l-1.377-1.074l-0.865-2.112l-1.161-1.139
		l-1.335-0.468l-10.269-1.808l-2.24-1.203l-1.062-1.074l-1.593-3.011l-0.257-4.25l7.257-6.803l0,0l1.121-0.405l1.612-0.102
		l0.532,0.329l-0.59,0.43l0.156,0.505l1.238,0.038l11.819-2.238l3.028-0.139l2.615,0.505l10.205,3.68l1.554,0.67l2.615,2.517h0.473
		l4.503-1.809l3.54-2.049l9.46-2.782l8.809-2.175l13.078-1.404l38.68-2.845l9.341-1.745l5.506-1.404l4.739-1.682l8.771-2.251
		l14.707-3.085l14.002-1.114h3.382l7.866,1.644L1270.059,161.351z M1150.752,140.154l1.456,0.165l-0.158,0.835l-4.228-0.367
		l-3.322,0.139l-0.435-0.531l0.551-0.568l1.75-0.102L1150.752,140.154z M1206.305,138.207h1.828l0.334,0.24l-0.157,0.367
		l-1.061,0.303l0.256,0.67l-0.334,0.24l-4.287-1.012l-0.707-0.708l0.273-0.531l2.084-0.165L1206.305,138.207z M1215.549,132.491
		l0.155,0.405l-0.374,0.267l-2.83-0.607l-1.554,0.24l-0.179,0.708l1.83,1.011l-0.098,0.734l-6.372-1.947l-1.279-0.165l-3.756,0.469
		l-0.747-0.633l0.119-0.532l1.828-1.416l1.985-0.367l6.725,0.468L1215.549,132.491z M1177.239,131.681l2.833,0.14l2.202,0.607
		l5.328,2.857l-0.059,0.468l-1.063,0.102l-4.011-0.835l-1.238,0.139l-1.613-1.277l-0.372,0.039l-0.649,0.568l0.589,1.341
		l-0.589,0.708l-3.107,0.037l-1.555-0.392l-1.669,0.734l1.18,0.873l-0.219,0.734l-1.532,0.671l-2.734-0.507l-1.396-0.734
		l-0.688-2.655l-3.678-1.682l-1.279-1.24l-0.195-2.453l1.711-3.187l1.18,0.101l1.338,2.922L1177.239,131.681z"/>
	<path id="NL-LI" fill="#CCCCCC" stroke="#FFFFFF" stroke-width="0.5" d="M982.324,720.236l1.75-1.189l-1.692-3.971l0.118-0.746
		l6.45-0.543l1.968,0.227l5.879,4.832l1.022,3.617h1.338l2.202,0.708l1.317,0.746l0.06,0.581l1.277,0.861l3.579-0.152l0.688-0.229
		l0.315-0.619h1.18l0,0l0.55,1.808l11.859,0.19l3.48,1.645l6.666,1.846l1.81,1.189l0.983,1.517l0.628,0.292l0.689-0.393l1.494,0.746
		l0.157,0.506l-0.57,0.936l-2.458-0.189l-0.707,0.189l-1.556,0.62l-0.372,0.924l0.551,2.137l1.22,0.923l0.215,0.999l0.098,1.125
		l-1.493,1.163l0.746,1.962l-0.215,1.327l0.748,1.188l2.477,1.025l4.267,0.771l7.315,1.871l0.434,0.582l1.867-0.418l0.708,0.355
		v0.543h2.714l6.41,1.024l-0.058,1.972l-0.964,1.001l-0.688,0.214l-1.809,4.667l-0.553,0.063l-1.809,3.567l-1.182-0.354l0.021,2.351
		l-0.864,2.732l4.818,2.188l4.522,2.503l1.947,2.404l3.362,2.376l5.053,2.859l1.928,1.518l2.95,4.742l2.458,3.123l3.146,1.342
		l3.52,2.023l4.445,5.008l-0.06,6.689l1.554,2.253l1.613,4.008l-1.456,6.791l0.098,1.239l-1.257,0.077l-0.375,0.379l-0.117,5.792
		l-2.342,8.803l6.175-0.19l-0.039,0.568l-3.638,3.846l3.677,8.156l-11.051,6.551l-0.118,0.444l0.886,1.441l-7.532,1.049
		l-0.079,1.113l-1.711,1.252l-1.002,1.378l-0.119,1.468l-1.435,1.467l-0.158,1.215l-3.422,3.351l-4.326,3.542l-1.75,2.643
		l-0.217,1.063l-11.818,8.385l-4.128,1.631l4.402,6.046l-0.391,0.48l-3.502-0.127l-1.612,0.506l-0.098,0.455l0.885,3.465
		l1.082,8.195l2.772,3.466l1.985,0.418l3.303,0.088l0.906-0.57l1.18-0.126l2.046-0.858l2.968-2.012l13.314-4.136l1.985,0.733
		l3.187,1.847l-12.804,3.819l-0.372,0.38l10.718,4.299l0.236,0.506l-3.816,1.695l-0.157,1.327l-1.22-0.024l-0.845,0.316
		l-2.537-0.164l-5.055,1.214l-0.982-0.315l-1.416,0.504l-0.904,0.86l-4.346,1.43l-4.739,0.544l-1.198,2.162l-0.728,0.254
		l0.195,0.985l-0.728,0.088l-0.886-0.695l-0.353,1.214l-1.063,0.278l-0.983,0.798l-3.579,0.734l-1.276,0.567l-0.414,1.619
		l-3.854,2.872l-3.598,1.769l-3.464,0.672l-1.374-0.544l-0.473,0.771l-1.396,0.128l-1.239,1.199l-3.678,1.822l-1.868,2.403
		l-2.891,0.669l0.512,1.025l-1.652,1.682l-1.711,0.95l0.157,0.82l-0.729,0.861l0.435,0.695l-0.552,0.645l0.059,2.124l-1.986,0.822
		l-1.494,0.216l0.59,1.782l-1.18,0.254l-0.885-0.569l-2.518-0.038l-2.358,0.543l-0.492-1.682l-3.028-2.731l-2.026-4.249l-1.651-1.24
		l-6.922,4.124l-8.22,0.733l0.551,1.972l3.717,2.922l-0.512,1.581l-1.062,0.063l-0.177,0.57l1.985,3.236l1.849,1.492l3.284,0.986
		l-0.078,1.873l2.891,0.82l-0.748,2.226l0.315,2.277l-3.206,2.289l1.455,1.834l2.242,0.087l5.015-1.289l4.031-2.062l6.135-0.886
		l0.473,0.063l0.59,0.848l2.36,1.049l0.747,0.861l1.907-0.292l0.708-0.479l1.908-0.469l13.488-0.29l0.413,0.606l-3.52,5.867
		l-0.689,0.723l-2.397,1.239l3.579,1.43l-0.118,1.415l1.022,4.413l7.04,1.29l1.18,0.606l1.672-0.379l1.356,0.824l-0.354,1.554
		l4.052,0.278l1.396-0.631l0.904,0.062l2.732,0.569l1.691,1.201l0.807-0.974l1.021-0.315l-0.432,1.265l-1.906,0.822l-0.395,0.974
		l-1.278,0.796l-2.124,5.188l0.531,1.77l2.301,2.123l1.494,2.34l-0.806,0.734l-0.493,1.581l-0.807,0.253l-0.293,0.594l-1.337,0.987
		l-0.926,4.261l-1.474-0.126l-3.6-1.518l-0.628-1.328l-8.672,2.821l-2.086,0.467l-0.688-0.088l-0.216,4.388l1.061,1.038l0.866,0.254
		l-0.04,0.605l1.279,1.896l-1.082,0.596l-0.57-0.026l0.53,0.974l-2.891,1.811l-1.672,1.731l-0.727,0.278l-1.495,0.254l-1.18-0.697
		l-2.104-0.633l-1.278-0.91l-1.259-0.125l-1.495,0.733l-1.572,1.567l-0.256,1.896l3.991,0.76l2.419,1.176l1.279,1.822l8.651,3.413
		l0.06,0.506l-2.084,2.619l-1.062,0.569l1.336,2.047l-1.455-0.037l-4.66,0.695l-6.233-0.126l-1.121-0.278l-0.257-1.202l-1.297-0.949
		l-3.324-0.505l-9.006,1.859l-2.537,1.392l-2.32,0.48l-0.176-1.266l-0.688-0.126l-2.674,0.189l-1.377,1.074l-3.796-1.769
		l0.039-1.797l-1.18-2.112l-7.414,2.453l-3.264,2.176l-0.552-0.089l-1.336-3.06l-4.11,1.706h-3.048l-2.006,0.685l-2.163,0.289
		l-5.073-4.603l-2.281,0.822l-0.434-0.101l-2.634-4.478l-3.127,0.341l-6.353,4.706l-1.67,1.985h-3.54l-2.616-1.164l-1.651,1.327
		l-3.462,0.38l-1.77,1.063l-2.044-0.215l-1.062-0.569l-1.534-0.025l0.255-1.2l3.953-3.479l1.495-2.996l-0.137-0.822l-2.695-3.567
		l0.06-0.657l2.045-1.872l-0.061-0.593l-1.769-1.798l-4.169-0.227l-0.492-1.265h-1.77l-0.786-0.531l-1.77,0.126l-2.518-0.758
		l-0.413-0.418l0.413-0.442l-0.256-0.596l-1.239-0.921l-0.748,0.188l0.59-1.669l-2.183-1.771l0.532-0.506l-1.003-0.315l-0.059-1.012
		l-0.708-0.658l0.275-1.012l0.551-0.379l-0.551-1.139l0.748-0.821l-0.314-1.493l0.274-0.341l-0.59-0.544l2.241-1.226l-1.179-0.95
		l0.807-0.695l1.533-0.166l5.506-2.236h2.615l1.121-2.126l2.793-1.617l1.022-0.975l0.687-3.644l0.965-0.922l2.36-0.316l3.245,1.201
		l1.611-0.531l0.964-1.176v-2.338l0.905-1.748l3.736-3.034l1.75-3.54l3.382-1.089l-0.079-1.328l-0.845-1.138l-1.022-0.606
		l-2.184-0.254l-2.497,1.405l-2.359,0.379l-2.124-0.733l-0.275-1.619l4.109-3.137l1.083-1.771l3.361-1.213l2.99-3.225l1.829-1.049
		l0.727-0.86l0.315-0.784l-0.294-3.049l2.871-3.428l0.197-0.796l-1.259-1.392l-4.011-1.075l-0.374-0.924l2.085-2.188l2.084-3.237
		l0.256-3.124l0.472-0.506h1.73l3.736,1.278l1.868-0.253l0.787-0.646l0.078-0.848l-1.121-2.73l0.747-0.836l1.633-0.822l0.217-0.567
		l-0.787-1.216l-1.985-1.581l-0.118-0.96l1.769-1.114l2.419-0.404l4.582,1.178l2.085-1.178l0.373-0.543l0.434-1.809l-1.279-1.214
		l-1.239-0.342l-3.401-0.038l-1.514-0.568l-0.433-1.24l0.492-1.15l4.424-3.49l1.12-0.355l4.071-0.316l1.437-2.895l3.047-1.366
		l-5.802-2.896l0.414-1.113l-1.317-0.707l-0.178-1.012l-1.436-0.696l-1.12-1.15l-2.537,1.53l-0.609,1.238h-0.748l-1.67-1.049
		l-0.592-0.037l-1.218,1.123l-1.455,0.532l-1.396,0.063l-2.655,1.442l-1.672,0.277l-0.746-1.176l0.314-0.695l0.924-0.646v-0.948
		l-0.924-0.126l-0.099-0.733l-1.435,0.19l-0.334-0.949l0.021-0.545l2.024-0.379l0.255-0.328l-1.533-0.215l0.787-1.721l-2.891-1.909
		l-3.895-0.481l-2.714-1.049l-1.238,0.632l-0.276,0.48l-1.16-0.379l-1.298,0.505l-1.318-0.315l-0.434,0.379l-2.613,0.038
		l-2.419,1.202l-2.458-0.57l-0.512-0.378l-1.181-0.102l-0.273,0.38l-0.789-0.026l-1.042-0.694l-3.834,0.721l-0.491-0.596
		l-1.122-0.354l-2.458-0.126l-1.71,0.278l-1.967-2.037l-0.098-0.531l0.747-0.353l-0.708-1.114l-3.638-1.213l-23.696-6.21l0,0
		l9.086-1.783l-0.06,0.695l7.905-2.554l1.436-5.476l0.472-7.818l13.844-12.672l63.201-12.685l18.27-10.066l-18.858-20.677
		l-3.659-13.368l-2.379-3.908l-4.582-20.311l16.519,2.087l5.232,2.669l10.245-0.683l9.556-1.986l10.914-2.883l3.796,1.947
		l3.854,3.086l1.809-1.127l0.589-0.062l0.905,0.479l0.904-0.542l0.807-0.064l0.119-0.354l-1.437-1.063l-0.924-1.34l-0.04-5.401
		l-3.263-3.085l-0.926-1.48l-0.433-2.175l0.177-2.998l-0.982-2.186l-7.827-4.922l-6.843-2.693l-0.905-0.645l-0.491-1.604l2.36-3.062
		l0.058-1.479l-1.986-0.583h-3.382l-1.12-0.733l-0.139-1.099l2.459-2.442l-2.164-5.539l-0.668-3.896l-1.199-0.707l-4.483-1.228
		l-8.613-0.746l-1.867-0.29l-3.344-1.063l-2.163-1.771l-0.67-3.353l-1.434-3.807L982.324,720.236z"/>
	<path id="NL-NB" fill="#CCCCCC" stroke="#FFFFFF" stroke-width="0.5" d="M713.606,699.773l1.828,0.835l1.672,2.618l2.399,1.354
		l8.337,2.453l0.708,0.48l-0.039,0.897l1.554,0.684l1.376,1.871l2.733,1.936l1.121,0.292l2.202-0.19l3.028-2.062l1.81-0.519
		l1.907,0.189l1.554,0.519l3.146,2.099l7.099,2.228l0.217,0.935l-0.925,1.708l-0.117,1.289l0.569,0.835l1.456,0.811l-1.377,1.315
		l-3.618,1.934l0.118,2.353l10.992-1.809l4.051-0.102l6.155,0.962l7.316-1.038l1.77,0.127l2.242,0.606l3.245,1.873l2.281,0.544
		l1.985-0.418l2.399-1.289l2.203-0.482l3.46,0.19l4.169,0.962l1.456-0.063l6.253-2.771l9.833-2.895l1.554-0.747l1.219-1.354
		l0.275-4.224l1.927-4.124l5.408-5.905l3.678-3.034l1.553-1.81l0.963-0.519l2.557-0.037l1.002,0.417l2.873,2.618l3.105,0.833
		l4.327,0.254l2.025-0.19l3.894-0.618l1.711-0.771l1.337-1.227l0.472-1.847l1.121-1.392l3.028-0.834h1.161l1.927,0.645l4.798,3.073
		l6.469,1.037l1.987-0.393l2.3-2.453l1.396-0.771l5.505-0.253l3.776-0.481l3.953,0.607l5.23,2.2l1.771,0.455l3.894-0.062
		l1.592,0.289l2.045,1.455l1.829,3.516l2.144,2.037l3.324,1.354l5.821,0.645l2.359,1.454l2.203,2.452l1.495,0.937l5.978,0.645
		l1.396,0.519l2.359,1.544l0.846,0.936l-0.334,0.19l1.612,1.682l1.829,0.999l2.556,0.81l2.143,0.291l4.543,0.037l7.532-1.265
		l14.041-0.999l4.66,0.545l0,0l3.991,2.415l1.436,3.807l0.649,3.352l2.184,1.771l3.322,1.062l1.868,0.292l8.614,0.746l4.483,1.226
		l1.219,0.71l0.648,3.895l2.183,5.54l-2.458,2.438l0.118,1.102l1.12,0.733h3.384l1.986,0.582l-0.06,1.479l-2.361,3.062l0.493,1.605
		l0.904,0.646l6.844,2.706l7.807,4.919l1.002,2.188l-0.176,2.985l0.432,2.188l0.944,1.479l3.265,3.087l0.038,5.398l0.927,1.354
		l1.434,1.063l-0.117,0.354l-0.807,0.063l-0.904,0.544l-0.904-0.48l-0.589,0.063l-1.812,1.127l-3.854-3.088l-3.796-1.96
		l-10.913,2.897l-9.558,1.985l-10.244,0.67l-5.231-2.669l-16.519-2.087l4.583,20.313l2.398,3.907l3.638,13.366l18.858,20.678
		l-18.269,10.068l-63.202,12.685L907.5,875.134l-0.472,7.816l-1.435,5.489l-7.906,2.554l0.06-0.695l-9.085,1.782l0,0l-1.179-0.67
		l-1.396-6.222l0.432-2.491l-0.413-1.214l0.432-0.354l-0.157-0.859l0.433-0.835l-0.472-1.569l-3.637-1.655l-5.449-3.794
		l-2.301-2.037l-1.141-1.847l-7.963-1.441l-1.868-0.101l-0.156,0.417l-1.396,0.833l-0.846,1.633l-3.244,1.91l-7.571,0.922
		l-0.964,1.886l-1.75,0.126l-5.113,4.375l-10.757-1.655l-11.484-2.163l-0.433,0.254l0.059,0.922l-1.121,1.846l-1.593,0.859
		l-6.903-0.063l-6.313,0.507l-9.399-1.53l-7.433,1.632l-1.239-0.355l-2.832-1.757l4.641-11.231l-0.433-0.797l-12.172-5.07
		l-8.122,1.72l-3.48,1.757l-8.771-1.72l-0.807-10.445l-2.28-1.253l-1.337-1.149l-1.024-1.821l-1.238-1.113l-12.861-9.244
		l6.588-8.575l3.54-3.869l-8.161-12.433l-8.75-0.164l-1.535-0.253l-2.203-2.441l0.158-2.111l-1.396-0.38l-0.904,0.165l-3.521,1.858
		l-1.494,1.759l-1.928,1.086l-1.12,1.986l0.806,3.681l-1.652,1.568l0.196,1.479l-12.23,6.665l-1.927,1.252l-8.988,7.587
		l-0.117-1.087l-0.925,0.038l-0.216,0.671l0.805,0.581l-1.985,0.581l-2.243-0.417l3.147-0.543l-0.708-0.581l-1.181,0.227
		l-0.373-0.607l-1.928-0.898l-0.472-1.378l-1.986-1.214l-0.63-0.986l-1.002-0.037l-0.846,0.731l-0.688-0.858l-1.829-0.228
		l0.375-0.772l-0.965,0.164l-0.216,0.443l-2.713-0.443l-0.216,0.443l-2.243,1.214v0.771l-0.315,0.039l-2.182-0.48l0.04-0.898
		l-1.868-0.102l-0.944-0.417l-1.593,0.86l-2.3-0.67l-14.689,1.884l-3.265-0.898l-2.182-1.023l-0.847-1.379l0.059-1.377l-0.55-1.48
		l0.807-0.986l1.022-0.189l3.382-0.19l0.807,1.024l1.593,0.417l3.166,0.228l3.736,0.897l1.672,0.734l2.203,0.29l2.399,0.797
		l0.039,0.606l2.518-0.037l-0.06-0.38l-0.924-0.316l1.967-1.087l-0.276-0.163l-2.084,0.543l-2.713-0.127l-0.256-0.253l-1.377-3.719
		l0.157-1.378l-0.807-2.466l0.04-0.481l1.377-0.67l1.612-1.567l0.276-0.962l0.55,0.607l1.082,0.228l1.71-0.999l-3.088-1.505
		l1.18-2.782l0.493-2.922l-1.161-0.417l-5.034-0.544l-0.569-0.836l-0.335-2.086l-0.787-0.707l-5.624-1.481l-2.398,0.165l-1.81-0.251
		l-1.179-1.152l-2.577-0.19l-3.756,0.545l-0.748,0.798l-1.711,0.164l-1.159,0.999l0.04,0.833l-1.083,1.38l-5.014,1.694l-2.458,3.174
		l-1.711,0.772l-0.119,0.921l-3.794,0.583l-1.338,2.656l-1.867,2.213l-2.715,0.379l-5.348,1.985l0.747,5.604l-3.206,0.671
		l-2.301-0.546l-3.736,1.253l-3.421-1.126l-16.558-1.985l-12.408,2.973l-1.672-8.322l5.349-7.523l-3.303-3.113l-15.556,1.569
		l-2.556-0.253l-1.751,0.19l-3.106,2.087l-6.726,0.77l-17.108,6.084l-1.122,0.127l-1.435,1.15l1.671,0.38l2.773-0.039l1.375,1.404
		l-0.334,1.441l0.924,0.545l-0.551,0.707H524l0.688,1.53h-1.122l-0.373,0.734l-1.966,1.403l2.655,4.186l12.192,10.333l-1.711,1.315
		l1.612,2.175l-2.832-0.353l-8.593,2.779l-3.58,0.419l-1.75-0.102l-5.132-0.834l-5.781-0.126l-1.711-5.313l-0.688-0.708
		l-18.071,0.354l0,0l-1.062-2.01l-1.966-0.166l-1.023-1.441l0.63-0.379l-0.118-1.885l0.806-0.606l-0.098-1.67l-1.493-4.603
		l1.218-1.568l2.517-1.468l-1.535-1.606l-11.798-17.971l-4.07-5.514l-0.059-2.466l2.025-3.908l-0.217-0.315l3.461-5.969l0.373-1.38
		l-0.195-1.832l-0.336-0.861l-2.418-2.668l-10.265-8.095l-1.238-2.023l-0.217-1.251l0.413-2.897l2.243-3.123l3.54-2.251l8.554-2.416
		l3.304-3.984l0,0l8.436,0.646l7.473-1.127l4.267-1.226l6.136-0.836l6.469-1.936l2.733-1.023l2.733-1.833l2.124-2.252l0.747-2.086
		l3.895-2.479l0.904-1.29l1.75-0.037l0.866-1.455l2.045-0.835l4.267-2.579l23.362,5.021l6.843,0.454l23.343-4.122l4.915-2.542
		l19.605-3.604l9.419-4.287l6.883-3.934l3.953-2.808l1.396-1.416l3.008-5.844l4.818-3.681l4.66-1.618l4.327-0.896l4.208-0.165
		l7.944,0.771l3.421-0.481l1.829-0.48l4.818-2.226l5.625-3.743l7.334-2.353l3.481-0.519h5.132l9.046,1.291L713.606,699.773z
		 M690.342,818.743l0.04,0.605l1.553-0.063l-0.551,0.252l0.314,0.355l1.181-0.064l-1.299,1.279l-0.864,0.163l0.176,0.859
		l-0.648,0.191l-0.532-1.127l0.413-0.354l-0.156-0.606l-1.004,0.544l-0.274-0.354l0.492-0.354l-0.218-0.481l-1.71,0.672l1.161,0.898
		l-0.688,0.706l0.373,0.315l-0.215,0.925l-0.63-0.064l-1.16,0.646l3.618,0.48l0.807,1.215l1.829-0.292l0.806,0.581l1.082-0.985
		v-0.834l-0.747,0.023l0.688-0.67l0.57,0.189l0.688-0.378l-0.649-0.127l0.275-0.442l-1.238-0.165l0.04,0.417l-0.59,0.063
		l-0.256-0.441l-0.373,0.226l-0.375-1.022l1.908,0.126l-0.119-0.86l-0.549-0.19l-0.65,0.227l0.119-0.58l0.551-0.228l0.53,0.292
		l1.18-0.898l0.688-0.127l0.434,0.67l0.255-0.441l1.337-0.254l-0.177-0.479l0.531-0.292l-0.688-0.733l-0.335,0.582l-1.121,0.353
		l-3.952,0.317L690.342,818.743z M695.573,820.664l0.118,0.354l2.085-0.163l-1.396-0.733l-0.157,0.379L695.573,820.664z
		 M679.998,827.506l0.276-0.253l-0.334-0.29l-0.787,0.67L679.998,827.506z M671.778,830.77l0.04-0.38l-0.59,0.063l0.059,0.355
		L671.778,830.77z M693.469,833.272l-0.315-1.63l-1.494,0.48l-1.651,0.101l1.16,0.734l-1.298,0.707L693.469,833.272z"/>
	<path id="NL-NH" fill="#CCCCCC" stroke="#FFFFFF" stroke-width="0.5" d="M746.465,529.801l-1.908-0.884l-0.255-0.431l1.986,0.659
		l0.492,0.456L746.465,529.801z M722.219,527.804l-0.334-0.166l0.432-0.454l1.122,0.037L722.219,527.804z M734.509,523.062
		l-0.433-0.064l-0.04-0.392l0.551,0.038L734.509,523.062z M717.4,520.747l-0.471,0.063l-0.04-0.393l0.845-0.164L717.4,520.747z
		 M732.523,434.496l-0.335-0.063l0.198-0.658L732.523,434.496z M806.953,415.374l16.951,4.844l13.942,9.484l0,0l-0.708,0.329l0,0
		l-13.785-9.384l-16.184-4.541l-4.071,0.266l-1.396-0.266l0.531-0.455L806.953,415.374z M621.339,323.545l-1.18,0.393l-5.507-0.304
		l-2.95,0.165l-6.568,1.023l-3.323,1.164l0.04,0.468l1.554,0.569l-1.083,0.696l-2.733-0.126l-1.396-0.695l-0.314-1l0.334-1.163
		l1.436-0.961l3.087-1.1l2.891-1.658l2.144-0.328h2.242l4.386,0.594l6.725,1.556L621.339,323.545z M730.301,334.321l-0.315,0.695
		l-0.806-0.101l-3.088,1.593l-0.57,0.823l-0.177,2.314l2.891-0.329l8.022,9.827l0.787,0.266l1.161,2.377l10.402,13.127
		l-2.989,23.119l2.399,0.101l1.318,1.48l1.71,4.59l4.601,2.707l1.063,1.05l3.047,1.947l2.301,0.494l3.479,0.038l2.773-1.189
		l1.121-0.632l3.834-4.059l4.051-0.063l4.739,0.392l1.337,0.493l1.966,0.229l1.082,0.821l2.261,0.695l1.751,0.039l0.786-0.431
		l0.708,0.228l3.736-0.72l0.846,0.632l-2.949,0.43l-0.1,0.266l4.229-0.164l2.085,1.15l1.553,0.392l1.219,2.808l-0.905,0.758
		l0.688,0.924l-0.649,0.885l0.433,1.948l0.786,0.329l-0.217,1.378l4.011,1.973l1.889,0.102l0.196,0.328l-0.373,0.329l-1.986-0.456
		l-0.688,0.431l0.255,1.315l-1.593,0.594l-0.708,0.721l-2.203,0.063l-0.275,0.203l0.59,0.328l-1.592,0.203l-0.099,0.329l1.554,0.822
		l-0.472,0.494l-0.492-0.292l-0.865,0.038l-2.3,1.291l-4.13,0.431l-0.57,0.29l-0.845-0.202l-2.184,0.329l-0.786,1.378l-0.216,2.631
		l-2.242,5.235l-1.554,1.48l-7.256,2.605l-1.986,1.251l-0.964,1.48l-2.616,0.038l-2.871,0.43l-2.243,0.822l-4.58,3.124l-4.583,0.291
		l-5.349,0.822l-1.022-1.024l0.589-1.378l-1.867-1.809l-4.228,0.202l-3.52-2.036l-1.651-1.48l-4.326,0.822l-2.301,1.519l-0.807-0.43
		l0.413-0.43l-0.904,0.367l-1.77-0.102l-0.257,0.784l0.473,0.431l-0.964-0.203l0.276-1.151l-1.436-1.113l-1.829,0.039l-2.28,1.58
		l-2.203,0.228l-1.121,0.695l-2.085,0.658l-0.864,1.277l-0.158,2.036l1.121,4.047l-0.255,0.948l0.59,0.531l-0.275,0.695l0.571,0.86
		l-0.847,1.277l0.865,1.607l1.495,1.605l-0.157,0.657l1.593,2.922l-0.492,2.1l3.756,2.264l0.334,1.442l3.421,3.945l-0.216,1.935
		l1.436,0.986l1.867,2.555l0.276,1.479l1.337,1.505l1.377,0.039l-0.335,1.277l2.125,1.113l1.297,2.782l-3.106,3.44l-0.963,0.367
		l-0.531,0.657l-1.062,0.202l-1.121-0.292l-0.924,0.785l-0.216,1.809l0.373,1.644l2.281,1.708l0.217,0.494l-0.413,0.923
		l-3.206,0.227l-2.144-0.392l-3.756,1.214l-1.375-0.518l1.082,1.669l1.159,0.291l-0.157,0.43l0.492,0.227l1.553-1.34l1.299-0.038
		l0.807,0.367l-1.593,2.1l-0.177,1.997l0.747,1.315l-0.532,1.341l0.532,0.43h1.887l1.337,0.392l2.025-0.266l3.618,0.595l2.733-0.101
		l0.492-0.43l0.59-4.123l0.689-1.05l1.219-0.847l0.708-0.101l0.255-0.431l-0.472-1.707l0.472-0.721l-2.871-7.02l0.374-0.329
		l0.59,0.039l2.99,6.627l2.418,1.441l0.255,0.658l3.677,0.063l2.124-0.265l1.337,0.164l0.256,0.392l-3.107,0.759l-1.612,1.05
		l-2.655,0.227l-2.144,1.442h-2.301l-0.924,4.06l-2.124,2.1l-0.491,0.43h-0.866l-0.177-0.43l0.432-0.556l-0.413-0.165l-0.904,0.847
		l-1.377,0.455l-0.786,1.316l-0.414,1.896l-1.121,0.911l-0.649,1.378l-3.027-0.392l-1.063,0.266l-0.708,0.291l-1.671,1.96
		l-2.676,0.684l-1.651,1.175l-2.399,4.313l-1.435,0.329l-0.807,0.784h-1.593l-0.374,0.329l0.845,0.848l-0.53,0.886l0.156,0.518
		l-0.865,0.949l-0.707,0.165l-1.868-0.747l-1.003-1.012l-2.202,0.266l-3.363,1.239l-2.733-1.961l-0.688,0.102l-1.77-1.139
		l-1.396,1.05l0.925,1.568l2.241,0.203l2.772,1.467l-0.334,0.328l-1.298,0.102l0.275,0.657l-1.023,0.683l-0.039-1.125l-0.905-0.227
		h-0.925l-0.747,0.91l1.377,0.886l2.084,0.392l1.16,1.076l1.868,0.328l0.531,0.949l1.67,0.683l0.925,1.05l1.612,1.011l1.75,0.456
		l2.872,0.126l1.75-1.112l2.556-0.203l2.203,1.378l-0.276,1.176l-1.651,0.557v0.658l0.865,0.556l1.455-0.101l-0.57-0.746
		l0.256-0.126l2.792,0.684l4.701-0.621l3.205,0.355l2.518-1.177l4.483,0.43l3.146,1.278l2.733,1.568l3.324,0.329l2.341,0.746
		l1.493-0.265l1.004,0.518l0,0l2.281,1.833l2.124,0.785l21.631-2.377l19.134,3.099l9.144,3.883l7.492,4.767l0,0l-9.302,4.274
		l-9.084-1.05l-2.95,1.732l-1.828-0.519l-4.977,6.589l-6.823,3.909l-0.197,7.436l-0.786,2.604l-2.458,3.719l-6.136,7.323h-5.487
		l-15.811-0.746l-0.55-1.431l3.52-1.175l2.242-1.303l1.652-1.884l-3.914-5.021l-3.735-1.34l-0.965,1.202l-13.352,0.228l-3.992-0.722
		l-6.312-1.984l0.04-1.86l-1.278-0.91l6.509-1.885l-4.287-2.707l0.099-1.138l-1.22-2.479l-1.651,0.949l-1.023-0.227l-0.491-0.684
		l0.099-1.403l-1.082-0.72l-0.039-1.202l-1.436-1.923h2.202l1.003-0.884l2.359-0.62l2.4-0.038l0.334-1.441l2.516-0.848l0.905-0.127
		l0.433,0.266v0.721l1.023,0.329l-0.414-1.53l-1.081-0.973l-1.122-0.063l-1.494,0.683L728.728,548l-2.419,1.859l-2.95-1.594
		l-1.396,0.266l-0.865,1.505l-1.003-0.557l-0.786,1.404l-1.16,0.189l-0.413,0.847h-1.377l-2.674-4.047l-1.927-0.517l-3.245-0.064
		l-1.593,0.292l-2.498,1.138l-1.751,1.859l-0.924,0.329l-5.073-0.519l-1.18,0.229l-2.498-0.886l-2.361,0.657l0.413,2.833
		l-1.554,0.354l-1.022,0.582l-0.375,0.948l-1.611,0.266l-1.003,1.175l0.038,0.948l-1.336,0.722l-8.318-0.266l-1.061,0.291
		l-3.954,0.127l-1.278,0.329l-2.398,1.276l-0.786,0.494l-1.495,2.023l-4.956,2.542l-5.86,1.732l-1.553-0.189l-3.304,0.189l0,0
		l-3.245-0.456l-3.047,0.847l-1.81,1.695l-2.714,1.367l-2.871,0.416l-3.794,1.569l-2.419,1.96l-1.811-0.885l0.375-0.582
		l-0.157-1.177l-1.122-1.593l0.433-3.719l-6.076-0.619l-2.95,0.784l-2.281,1.53l-0.412-0.19l-0.787,0.329l-5.919,0.229l-10.088,3.78
		l-6.371,0.292l-4.425-0.354l-4.642-1.175l-3.303,0.721l-4.582-0.684l-2.125-1.114l-0.315-1.656l0.177-0.62l2.557-2.049l2.459-8.283
		l-0.57-2.58l6.154-4.009l2.892-4.047l0.04-0.821l2.045-3.465l2.517-2.353l-7.629-2.086l-0.846,0.038l-4.209,0.747l-1.966,2.352
		l-21.119-6.133l0,0l17.266-28.152l3.52-6.577l1.239-3.44l0.433-4.198l1.593-1.404l-1.18-2.162l2.458-3.402l3.58-6.425l3.795-11.938
		l4.169-16.617l1.966-12.583l2.419-10.269l0.118-2.366l1.711-7.436l2.93-16.77l2.792-8.473l1.809-3.036l2.675-3.338l5.25-11.458
		l7.218-18.54l1.613-4.793l1.375-17.882l1.062-2.884l2.243-2.782l1.712-1.353l1.08-0.304l4.503-0.531l1.75,0.329l2.419-0.759
		l5.034,0.165l-0.255,0.734l1.121-0.393l0.846,0.329l-0.216,0.366l-0.708-0.265l-0.63,0.734l0.334,0.923l0.788,0.569l0.647,0.039
		l0.218,0.796h0.334l2.28-0.392l-0.255-0.96l1.337-0.658l-0.413-0.569l-0.945,0.431l-0.55-0.962l3.028-0.393l0.904,1.329
		l-0.117,1.264l-3.028,4.173l-0.867,2.745l0.492,0.304l0.118,0.759h0.807l0.216,0.961l3.461,4.996l0.865,0.759l20.353,7.512
		l10.106-1.72l3.521-1.492l6.254-1.683l-0.315-0.594l1.121-0.063l3.953-3.212l0.845-1.189l0.492-1.758l2.949-1.695l3.992-0.632
		l2.045,0.038l4.641-1.391l3.618,0.658l2.617-0.329l2.241-0.696l0.806,0.494l0.55-0.127l1.241,0.822l3.519-1.695l-0.413-0.393
		l0.472-0.392l35.573-19.817l0,0l1.278,1.101l0,0L730.301,334.321z M676.006,261.994l1.436-0.304l1.082,0.633l2.399,2.125
		l3.579,4.464l-0.276,1.163l-0.864,0.063l-0.434,0.897l-0.628-1.101l-0.807,10.383l0.628,3.061l-0.058,2.327l-1.219,2.391
		l-1.377,0.329l-3.737,2.023l-0.413,1.125l-2.045,0.797l-0.276,3.428l-2.458,2.163l-0.866,1.694l-1.081,0.658l-0.471-0.493
		l-1.751,0.923l0.198,0.594l-1.377,1.29l-1.337,0.493l-2.419,0.632l-4.385,0.126l-0.806,0.43l-8.377,7.006l0.039,0.595l1.376,0.531
		l-0.904,0.835h-2.498l-1.023-0.76l-0.845,0.392l-2.084-0.834h-1.652l-4.601-1.391l-0.806,0.431l0.845,0.265l0.335,0.999
		l3.619,0.923l0.471,0.695l2.045,0.835l0.315,0.429l-0.904,0.038l-2.085-0.632l0.275,0.266l-3.638,0.999l0.04,0.368l0.904,0.1
		l-0.098,0.267l-3.108,0.656l-2.576-0.265l-1.907,0.696l0.747,0.165l-0.865,0.632l-1.161-0.102l-2.556-1.53l-2.733-3.554
		l-1.082-3.617l0.492-6.172l1.986-6.539l1.593-3.452l2.949-4.654l5.939-7.183l9.203-9.472l3.324-2.859l10.107-10.623l4.229-3.326
		l3.754-2.138l2.872-0.696h0.786l1.181,0.531l1.966,2.163l1.338,0.569l1.592,2.226l-0.157,1.859l0.334,1.202L676.006,261.994z"/>
	<path id="NL-OV" fill="#CCCCCC" stroke="#FFFFFF" stroke-width="0.5" d="M1061.631,362.182l2.38,1.985l0.688,1.29l1.554,1.315
		l11.03,8.258l2.222,0.796l5.899,5.223l2.025,1.316l-10.146,7.221l-0.372,1.593l-6.037,1.947l-7.157,1.113l-0.668,0.303
		l-1.418,1.581l6.293,10.421l3.521,4.944l1.593,3.554l1.927,1.644l1.063,0.43l0.394-0.164l1.022,0.619l1.494,1.986l2.399-0.633
		l0.747,0.557l3.991,0.304l1.672-1.48l1.672-0.038l2.479-0.594l0.334,0.86l2.792,1.024l0.885-0.203l0.334,0.455l2.36,0.759l0,0
		l1.71-0.101l0,0l1.652,1.783l1.829,0.885l2.223,0.101l1.061,0.924l1.572,0.657l0.846-0.101l1.377-1.113l1.141,0.102l1.907,1.67
		l0.907,0.328l1.04-0.088l1.122-1.063l2.379-0.102l3.854-1.176l1.869-0.063l1.062,1.176l-0.845,0.657l0.099,1.48l2.301,1.329
		l2.416,0.556l0.788,0.658l2.83,1.087l0.18,0.683l0.627,0.43l0.965-0.063l1.377,0.658l-0.314,0.43l1.967,1.581l0.51,1.607
		l1.34,1.213l-0.297,1.353l0.924,1.013l0.156,1.062l1.143,0.987h0.786l0.274,0.91l0.432,0.076l2.814-0.961l0.767-0.847l2.969,0.063
		l0.982-1.151l2.814,0.923l0.904-0.467l0.215-0.759l1.867-0.886l0.867-1.012l0.335,0.746l0.846,0.531l-0.1,1.278l1.042,0.859
		l1.867,0.759l1.83,0.189l3.421-0.658l1.004-0.683l1.199-2.44l1.377,0.468l-0.06,0.822l1.298,0.329l0.353,0.518l2.36,0.165
		l0.648-0.354l1.988,0.063l1.866,0.531h1.967l0.848,1.012l1.396,0.063l0.529,0.822l0.709,0.039l0.156,0.695h0.729l0.451-0.569
		l-0.866-5.514l-0.962-1.847l-0.688-3.819l0.217-0.62l9.301-4.933l2.558-0.923l19.859-2.871l18.938,5.792l10.619,2.377l-1.593,2.327
		l0.648,0.139l0.453,0.657l-2.006,1.417l0.629,0.683l-1.121,2.036l3.58,0.14l0,0l0.569,0.063l1.298,1.354l0.846,0.291l1.613,2.011
		l-0.848,3.845l-1.081,2.365l-0.196,2.593l14.749,8.372l-4.248,1.024l-1.79,0.064l-2.103-0.557l-1.712,0.063l-3.027-0.493
		l-1.575,3.39l-1.591,0.822l-0.118,0.493l-10.836-1.417l7.748,10.408l-2.203,11.306l4.995,2.467l1.907,0.72l1.87,0.228l8.218,4.06
		l2.577,0.683l5.132,0.986l18.369-0.43l3.538,0.531l1.889-0.126l-0.021,3.074l3.205-0.431l13.746,2.555l10.559,2.529l2.105-0.492
		l4.386-2.758l1.16-1.138l3.421-5.084l3.462-1.569l1.554,1.278l0.177,0.847l2.556,3.934l2.556,6.841l3.481,2.037l4.482,6.538
		l-0.098,0.595l1.771-0.063l3.186,0.811l1.277-0.481l0.904,0.252l0.021,1.013l1.593,1.581l3.047,5.943l-0.215,6.97l-5.23,4.704
		l-0.552,2.226l-2.222,2.112l0.218,1.606l-0.749,1.593l-2.261,2.909l-1.002,0.595l-2.499,3.592l-0.214,0.973l0.097,1.467
		l0.688,1.403l-0.06,0.822l-0.414,0.19l0.158,1.467l1.77,1.214l3.206,4.716l6.233,4.477l-1.376,2.049l-6.745,2.807l-5.191,0.229
		l-0.944,0.481l-0.807-0.519l-3.894-0.683l-2.734,0.392l-0.786-0.203l-2.143,0.696l-0.236,0.708l-1.495,0.822l0.217,2.112
		l-1.435,2.416l-1.69,1.429l-2.755,3.807l-3.186,3.136l-0.61,0.292l-5.366,0.683l-7.531,0.708l-0.61,0.62l-0.276,1.53l-6.979,4.173
		l-2.951,8.486l-5.229,3.25l-11.171,0.746h-18.368l0,0l-14.02,0.063l-5.33-1.594l-6.784-0.809l-4.582-1.366l3.305-3.415l0.413-2.086
		l-0.413-0.912l0.06-1.783l-0.866-0.291l1.002-0.948l0.061-0.784l-0.571-1.075l-0.866-0.519l-6.409-2.174l-1.299-0.064l-1.531,1.721
		l-1.516-1.367l-1.652-0.328l-0.747,0.392l-0.532,1.05l-1.316,0.291l-2.616,1.265l-2.616-1.556l-0.214-0.532l1.002-1.327
		l-1.377-0.621l-0.608-0.784l-1.928-0.519l-0.098-0.517l-0.945-0.367l-0.216,0.329l-11.19,1.468l-12.368-1.303l-5.938,1.366
		l-1.063-0.228l-1.023-0.645l-3.006-0.949l-1.043-0.872l-1.713-2.479l-0.136-1.795l-0.63-0.393l-2.046-0.063l-1.847-0.456
		l-2.557-3.326l-6.273-4.224l-1.278-2.353l-2.184-1.984l0.098-1.632l-5.073-0.392l-4.009,0.164l-1.772-0.556l-3.459,0.949
		l-5.882,0.227l-0.629,0.874l-1.238,0.139l-2.063,0.873l-0.179,2.77l-2.734,0.076l-2.496,0.455l-6.429-0.038l-0.965-0.558
		l-0.216-0.555l-0.944-0.127l-0.257-0.517l-3.599,0.618l-0.727,0.646l-2.045-0.456l-0.156,0.948l-3.01-0.558l-4.11,0.229
		l-0.845-0.417l-2.146,0.024l-2.142-0.519l-4.799-0.418l-4.543-2.187l-3.421,0.102l-2.025-0.393l-1.278,0.354l-1.397-0.102
		l-0.431,0.14l-0.433,1.137l-0.296,1.923l-1.416-0.975l-0.727,0.849l0.648,0.316l-0.236,0.303l-1.219-0.329l0.59,1.075l1.121,0.849
		l-0.06,0.582l-0.57,0.392l-0.668-0.392l0.078-1.038l-0.826-0.948l-2.654-0.417l-2.104-0.987l-0.845-2.086l0.647-1.076l2.184-0.91
		l0.529-1.14l-0.154-0.656l-3.855,0.227l-1.751-0.809l-3.539-0.519v-1.277l1.79-1.658l-1.73-0.985l-0.885-2.479l-2.97-2.353
		l-0.255-3.162l-1.613-1.467l-0.887-1.821l-0.648-0.759l-3.243-0.025l-2.085-0.429l-0.177-3.555l-1.062-1.504l-3.088-0.267
		l0.04-0.645l1.238-0.985l0.511-2.315l0.432-3.2l-0.412-3.301l0.787-0.86l3.146-0.62l1.71-0.91l-0.431-0.683l-0.983-0.532
		l-2.478-0.354l-0.708-0.392l-0.571-0.759l0.06-1.176l1.239-1.101l6.174-0.758l5.685-1.404l0.826-0.594l0.668-0.912l0.098-3.073
		l1.377-1.769l1.73-4.313l-0.177-1.214l-1.771-3.275l-4.62-4.389l-2.459-1.176l-1.199-1.011l0.314-3.086l-0.373-3.566l-0.847-1.606
		l-2.654-2.062l-4.698-1.354l-2.479-1.302l-1.593-1.544l-1.985-3.11l-5.979-3.022l-1.219-0.102l-1.928-0.683l-0.865,0.986
		l-1.317,0.684l-3.363,0.759l-13.549,9.017l-2.694-2.491l-1.828,0.291l-3.952,1.897l-1.22-0.721l-2.36,0.696l-0.983-2.036
		l-3.244-4.427l-2.183-2.39l-4.129-3.313l-4.839-2.757l-4.227,1.012l0,0l-2.458-9.017l-0.964-1.873l-13.255-9.105l-2.851-0.329
		l-7.355,0.076l0.118-8.675l18.466,0.025l0.845-0.886l1.613-0.43l18.327-2.592l2.478,0.619l1.573,1.088l4.602-0.367l7.158-2.594
		l0.451-0.721l10.306-1.455l7-2.984l1.632-1.214l-0.077-0.505l-0.769-0.822l-3.717-2.365l-5.053-0.885l-4.956-2.795l-3.028-0.658
		l-2.143-0.102l-4.13-1.049l-0.039,0.455l-1.338-0.101l-0.747-0.556l-0.118-1.126l3.521-2.567l2.89-1.278l1.771-1.353l1.002-0.102
		l0.808-0.86l-0.06-1.15l-1.337-1.91l-1.043-0.518l-0.608,0.025v-1.151l-1.063-1.189l-2.184-0.72l-3.146-6.994l-2.203-3.656
		l-1.121-1.125l-5.997-3.654l-1.12-0.039l-1.869-0.758l-3.187-1.745l-1.828-1.657l-6.096-2.706l-2.733-0.848l-3.677-0.43
		l-0.649-0.303h-5.703l-0.059-0.62l-4.208-2.377l-2.773-3.174l0,0l7.453-3.338l0.453,0.505l3.795,1.378l0.688,1.354h0.746
		l1.22-0.721l1.672,0.557l2.93-0.063l1.12,0.43l1.456-0.038l2.871,0.999l1.494,0.088l6.51-1.973l1.18-1.189l2.693-1.087l1.593-1.556
		l2.813-1.189l0.06-1.657l0.373-0.367l-0.472-0.556l1.278-0.392l0.117-0.696l3.246-0.266l1.493-0.391l2.892,0.758l-0.354-1.265
		l0.394-0.493l1.356-0.594l4.209-0.595l0.963,2.542l1.811,1.72l1.454,2.542l1.181,0.165l1.592,0.936l1.337,0.165l1.023-0.038
		l0.964-0.532l2.576-0.556l3.559-0.303l1.396,1.821l2.635-0.696l4.699-1.847l0.63-0.733l-1.023-3.301l3.521-0.923l4.031,0.291
		l1.415-0.164l1.179-0.785l1.555-0.569l1.672-0.101l3.775-1.543L1061.631,362.182z"/>
	<path id="NL-UT" fill="#CCCCCC" stroke="#FFFFFF" stroke-width="0.5" d="M649.282,566.742l3.303-0.201l1.554,0.201l5.84-1.731
		l4.957-2.543l1.494-2.023l0.768-0.493l2.399-1.264l1.278-0.33l3.952-0.126l1.062-0.291l8.299,0.253l1.336-0.72l-0.019-0.936
		l0.983-1.176l1.632-0.266l0.374-0.948l1.023-0.582l1.554-0.353l-0.414-2.846l2.379-0.646l2.478,0.873l1.18-0.228l5.074,0.519
		l0.944-0.316l1.73-1.86l2.498-1.151l1.593-0.29l3.225,0.063l1.928,0.531l2.674,4.034h1.376l0.413-0.847l1.14-0.19l0.788-1.404
		l0.983,0.557l0.884-1.505l1.396-0.252l2.95,1.593l2.439-1.859l0.668,0.455l1.495-0.683l1.121,0.063l1.101,0.974l0.394,1.543
		l-1.023-0.329v-0.721l-0.432-0.266l-0.905,0.14l-2.518,0.847l-0.354,1.43l-2.379,0.038l-2.379,0.62l-0.983,0.884h-2.223
		l1.435,1.923l0.04,1.202l1.082,0.72l-0.099,1.403l0.512,0.684l1.023,0.227l1.651-0.949l1.199,2.479l-0.079,1.138l4.288,2.707
		l-6.509,1.897l1.279,0.911l-0.02,1.859l6.312,1.985l3.973,0.721l13.353-0.227l0.963-1.215l3.737,1.34l3.933,5.021l-1.652,1.884
		l-2.242,1.303l-3.52,1.175l0.55,1.43l15.811,0.747h5.487l6.136-7.323l2.458-3.719l0.767-2.604l0.196-7.436l6.803-3.909l4.976-6.589
		l1.848,0.519l2.95-1.719l9.085,1.037l9.302-4.274l0,0l15.81,10.054l6.037,3.326l0,0l-3.578,9.903l12.723,6.678l0.098,1.921
		l-0.805,2.505l-1.279,0.683l-2.34-0.456l-1.336,0.684l1.023,0.656l0.51,1.948l-0.255,1.177l4.956,1.137l11.877,1.038l0.158,0.493
		l2.024,0.557l-0.196,0.683l0.886,0.189l-0.433,2.188l2.517,0.708l3.206,0.063l-0.591,1.897l0.216,0.48l4.188,1.34l-1.514,1.884
		l-3.402,0.316l-0.432,1.82l-0.709-0.088l1.437,1.138l1.513,0.316l-0.058,1.114l1.297,0.454v0.456l-6.431-0.43l2.183,0.91
		l-0.158,0.62l-2.714,1.694l0.414,3.376l-4.484,1.821l-3.362,2.758l0.59,0.43l1.239,0.19l0.196,0.618l5.35,2.049l2.635-0.594
		l3.657-0.026l0.807-1.757l2.753-0.126l2.595,0.353l2.989-2.048l-2.064-0.544l1.003-1.138l2.518,0.48l0.216-0.646l0.158-0.848
		l-1.672-0.29l0.866-1.303l-0.787-0.418l-0.019-0.454l-0.944-0.203l-0.216-0.834l2.773-0.456l0.807,0.607l0.668-0.089l-0.158-0.62
		l2.104-0.201l0.532,1.859l-0.59,0.91l1.18,0.518l0.255,2.34l1.022,0.784l0.865,0.025l0.512,2.542l-0.906,2.403l0.336,0.442
		l-0.768,4.78l-1.102,1.91l2.38,0.657l-0.414,2.238l5.92,1.43l-0.413,5.678l-1.711,0.025l3.047,2.138l0.748-0.519l0.964,0.683
		l0.531,0.556l0.276,2.075l1.278,0.872l2.497,1.493l1.946,0.252l1.338,1.341l0.688,2.655l3.146,2.392l-0.335,1.366l-0.806,0.809
		l0.058,0.873l1.357,2.112l-0.019,1.934l-1.849,0.292l0.137,1.655l-1.789-0.645l-3.127,1.783l-5.27-2.275l-8.063-1.329l-2.417-0.669
		l-2.242-1.14l-2.242-2.302l-10.048-2.39l-2.046-1.202l-4.247-1.656l-1.79-0.291l-5.486,0.393l-8.497-1.075l-2.045,0.721
		l-4.09,2.226l-9.773,2.403l-2.969,0.126l-4.524-0.619l-2.634,0.267l-2.458,1.099l-3.088,2.555l-3.795,1.239l-2.655-0.1
		l-4.818-2.075l-5.034-0.417l-3.954-0.684l-3.461-1.2l-3.637-2.43l-2.458-0.935l-2.36,0.392l-1.336,1.063l-2.733,3.402l-2.224,1.264
		l-1.67,0.267l-3.992-0.558l-4.267-1.783l0,0l-2.006-0.847l-5.545-0.607l-2.242-0.847l-1.554-2.1l-0.688-3.338l-0.806-0.976
		l-4.05-1.529l-3.108-0.746l-2.36-0.48l-3.559-0.128l-3.284,0.608l-5.958,1.885l-1.081,1.036l-5.506,2.782l-2.025,1.429
		l-0.807,1.557l-1.613,1.429l-3.146,0.228l-4.798-2.428l-2.36-0.291l-1.238,0.152l-2.832,1.075l-4.051,3.692l-1.769,0.784
		l-2.38-0.102l-4.7-1.202h-1.731l-2.123,1.429l-2.084,3.2l-2.36,1.909l-6.076,1.012l-2.891,0.166l-3.224,0.707l-2.538-6.386
		l-2.163-1.127l-0.786-1.757l-2.34-0.937l-3.658-2.693l-3.244-2.947l1.219-0.353l-1.987-1.747l-2.379-0.518l-2.753-2.364
		l12.468-1.986l0.274-0.417l-2.537-3.15l-2.005,0.684l-5.152-0.126l-1.908,0.872l-3.48,0.229l-0.865-1.821v-1.164l2.734-1.265
		l-0.531-2.44l2.24-1.062l4.012-4.022l5.132-2.504l6.51-1.53l1.573-2.075l-9.675,0.064l-3.068,0.493l0.118-1.732l-1.75-1.354
		l-0.55-1.594l-0.531-4.945l0.178-2.946l-10.639-4.919l0.512-1.328l3.814-1.101l0.629-2.604l1.769-1.658l2.498-0.683l2.91-0.367
		l1.811-0.606l0.727,1.909l1.732,0.886l6.076,0.519l2.241-0.229l0.158-0.353l1.396-0.432l-1.16-5.109l6.391-1.593l0.078-0.455
		l-10.421-4.654l-4.7-1.075l-8.889-6.311l-0.629-1.011l-2.104,0.063l-0.511-1.72l0.059-3.198l-2.202-2.341L649.282,566.742z"/>
	<path id="NL-ZE" fill="#CCCCCC" stroke="#FFFFFF" stroke-width="0.5" d="M444.1,846.957l0.846,0.037l0.059-0.479l0.315,0.126
		l1.436,1.985l-0.551,0.254l-3.048,0.188l-3.834-1.087l-0.964-0.708l2.34-0.985l2.792,0.251L444.1,846.957z M260.786,834.36
		l5.782,1.189l-0.413,0.771l0.373,0.165l0.788-0.228l0.314,0.253l1.808,0.038l3.088,2.34l1.869,0.417l3.245,0.063l1.77,0.315
		l0.491,0.608l1.869,0.315l0.413,0.606l7.748,1.442l14.1,1.441l1.534,1.151l0.216,0.582l0.708,0.188l0.217,0.583l5.014,2.112
		l2.399,2.175l2.99,0.188l2.418-0.503l7.63,0.985l0.314,0.633l-1.238,0.645l-0.177,1.175l3.265,1.114l1.179,0.038l0.119-0.355
		l-0.59-3.451l0.255-0.444l5.997,0.103l1.122,0.898l2.281,0.798l2.988,0.289l-0.905,0.633l-0.058,0.581l2.281,2.847l0.648-0.228
		l-0.866-1.822l1.062-0.291l-0.747-1.567l0.923,0.063l-0.274,0.441l0.531,1.049l0.924-0.315l0.688-1.175l0.688,0.038l-0.471,0.441
		l0.59,0.442l2.399,0.229l2.399,0.96l7.944-0.125l2.085-1.696l0.687-1.214l4.642-0.897l1.337-1.112l5.565-2.467l3.363-0.922
		l5.113-0.71l0.177-0.291l2.34-0.479l1.022,0.1l0.649-0.378l1.534,0.771l0.413-1.316l-0.334-0.504l1.062-1.342l0.216-1.947
		l1.711-1.188l-0.728-1.089l-0.315-2.819l3.245-2.947l5.073,0.291l0.748,0.67l7.748,0.772l-0.63,0.669l0.748,0.48l0.806-0.228
		l1.22,1.316l1.081,0.252l1.278,2.947l-0.53,0.228l0.374,0.797h1.277l2.36,3.262l1.829,1.442l8.83,0.354l4.07,0.443l7.276,4.084
		l5.448,4.161l3.205,1.176l-3.422-2.87l-1.652-2.327l3.363-0.834l1.966-0.063l0.964,0.441l0.964,1.277h1.77l1.376,0.632l1.672,1.53
		l-0.158,0.607l0.589,0.063l0.807-0.797l-1.376-0.771l-0.648-0.961l4.876,0.164l-0.748-0.506l-4.287-0.506l-0.747-0.48l7.04-0.228
		l2.399,0.354l-1.298-0.834l-5.998-0.026l-2.713-0.543l-2.577-2.846l0.157-1.467l2.045-0.417l1.279,0.29l1.927-1.05l1.16-0.164
		l0.847,3.896l4.482,1.693l2.203,0.253l-3.541-1.187l-1.907-1.089l-0.589-0.897l0.059-1.631l0.59-0.355l0.846,0.418l0.334,1.341
		l0.333-2.744l1.239-0.898h2.616l2.123,0.582l0.905-0.038l2.203,1.089l1.278,2.717l1.908,2.05l3.323,2.364l-4.445,4.351
		l-15.908,13.216l-21.119,10.27l-5.723,2.39l-1.238,0.799l-4.012,1.34l-1.062,1.214l-5.723,0.859l-0.865-0.252l-1.002-1.088
		l-1.279,0.671l-2.339,0.605l-1.122-1.213l-2.045,0.037l-3.913,1.404l-1.455,1.05l-1.496,0.38l-1.533,0.922l-0.589-0.48
		l-2.774,2.959l-4.445,0.507l-0.117,0.923l-1.279,1.53l-3.401,0.164l-1.554,0.317l-0.04,0.416l-2.083,0.418l-0.924-1.403
		l-1.495-1.089l-0.943,1.025l-1.811,0.063l-0.963,1.049l0.413,1.403l-0.925,0.102l-1.159,1.024l-3.383,0.987l-1.75-0.417
		l-0.63,0.505l-1.652,0.543l-0.628-0.985l-1.811-1.341l3.619-1.784l0.904-1.149l-1.829-1.973l-2.713,0.896l-6.313,2.896
		l-2.182-0.858l-0.787,0.378l-0.688-0.19l-1.456,0.507l-1.809-0.48l-2.183,1.089l-2.124,0.315l-3.993-1.15l-1.592-0.165
		l-0.335,0.254l0.434,1.048l-0.276,0.166l-1.554-0.836l-0.629-0.86l-1.769-0.29l-0.473-0.608l-0.334-3.604l0.314-5.387l1.907-3.377
		l-0.432-0.443l-2.34-0.379l-2.871-1.655l-1.396-0.38l-0.531,0.732l-1.337,0.443l-1.554-0.671l-1.71-2.137l-1.22-0.482l-1.218,0.418
		l-7.709-1.175l-1.986,0.506l-6.883-1.278l-0.746-0.29l-1.083-1.366l-3.303-0.038l-0.807-0.86l-5.762-2.174h-3.953l-1.436,0.631
		l-4.445-1.693l-1.435,0.1l-0.905-0.985l-8.613-2.935l-3.087,2.365l1.494,1.719l-1.181,0.546l0.531,0.859l-0.55,0.607l-0.964-0.607
		l-1.022,0.165l-1.396-0.771l-0.098-0.443l-2.674-0.859l-1.023,0.253l-0.413,0.834l-0.963,0.442l-3.52-0.292l-1.593,2.177
		l-1.71,0.164l-2.34-1.504l-3.048,0.378l3.775,13.115l-14.118,1.088l-9.342,0.417l-1.868-0.128l-4.444-1.086l-1.239,0.063
		l-0.865-2.959l-0.531-0.442l-2.243-1.365l-2.24,0.923l-1.279-1.694l-3.303-1.343l-1.809-2.3l-2.734-0.442l-1.121-0.898l1.868-0.986
		l-0.059-1.821l-0.551-0.568l-2.732-1.215l-1.219-1.986l2.792-0.961l-5.251-3.996l-0.079-0.57l7.847-5.716l-0.571-2.871
		l-2.675-2.237l-0.255-0.987l0.433-2.365l-2.576-3.198l1.553-1.443l2.674-1.214l0.04,0.507l0.55-0.038l0.178-0.646l5.624-1.314
		l7.217-2.34l2.575-0.252l0.375,0.985l1.396,0.291l0.275-0.645l3.854-0.772l1.494-0.771l4.582-0.417l4.543-0.962l1.809-0.543
		l0.256-0.543l1.711-0.064l3.106-1.757l3.48-0.228l1.396,0.379l5.192,0.315l1.965,0.442L260.786,834.36z M310.125,798.444
		l0.334,0.252l-1.159-0.188l-0.591-0.456h0.905L310.125,798.444z M306.467,795.309l-0.59-0.128l0.688-0.126L306.467,795.309z
		 M305.799,793.929l-0.256,0.188l-0.256-0.315l0.334-0.606L305.799,793.929z M314.432,793.892l-0.158,0.291l-0.334-0.127
		l-0.255-0.481l1.002-1.213L314.432,793.892z M315.67,792.449v0.455l-0.432-0.999l0.708-0.518l0.315,0.353L315.67,792.449z
		 M305.622,791.589h-0.433l0.807-0.316l0.688-0.961l0.275,0.835L305.622,791.589z M327.96,788.313l1.495,0.102l0.55-0.254
		l1.535,0.671l-2.399,0.354l-5.014-0.063l0.039-0.797l0.492-0.417l1.082-0.064L327.96,788.313z M363.022,787.543l-0.707-0.038
		v-0.229l0.963-0.646l0.491,0.455L363.022,787.543z M332.563,787.567l-1.986-0.708l0.157-0.164l0.846-0.127l1.436,0.379
		L332.563,787.567z M329.869,786.671l0.334,1.062l-3.402-0.228l-0.846-0.544l2.831-0.544h0.807L329.869,786.671z M303.576,786.38
		l1.337,0.379l1.22,0.771l0.629,0.896l0.118,1.215l-0.865-0.164l-0.806,1.607l-0.59-0.291l-0.57-1.797l-1.298-1.859l0.059-0.96
		L303.576,786.38z M300.587,785.417l-0.255,0.189l-0.748-1.149l1.082,0.101L300.587,785.417z M298.994,783.242l0.63,0.063
		l0.197,0.608l-0.806-0.317l-1.161,0.101l0.118-0.379L298.994,783.242z M453.52,768.585l-1.081-0.19l0.689-0.164L453.52,768.585z
		 M351.105,720.071l2.577,1.62l8.909,1.808l3.166-0.392l6.312-5.16l4.799-1.834l5.978-0.999l5.762,0.519l4.425,2.581l11.878,1.706
		l0.864,0.835l1.239,3.452l5.131,4.68l0.473,6.247l1.002,2.542l2.734,3.086l2.242,0.583l13.687,0.706l5.879,1.354l5.86-0.1
		l4.582,0.315l14.257,6.955l10.147,4.503l5.82,1.228l0,0l-3.304,3.983l-8.554,2.414l-3.54,2.252l-2.242,3.123l-0.413,2.896
		l0.217,1.252l1.239,2.023l10.265,8.095l2.42,2.669l0.333,0.86l0.196,1.833l-0.374,1.379l-3.46,5.969l0.216,0.315l-2.024,3.908
		l0.059,2.467l4.071,5.515l11.799,17.971l1.533,1.604l-2.516,1.468l-1.22,1.568l1.494,4.604l0.098,1.669l-0.807,0.607l0.119,1.884
		l-0.629,0.38l1.022,1.442l1.967,0.164l1.062,2.01l0,0l-11.208,0.317l0.628-0.708l0.158-1.733l-3.835-4.098l-5.664-1.67
		l-2.045,0.254l-0.688-1.251l-1.336-0.798l-2.792,0.19l-2.518,1.049l-1.75,0.418h-1.436l-4.798,1.885h-2.045l-3.539-0.443
		l-2.517-0.961l-7.492-0.86l-7.473-1.796l-0.786-0.126l-0.413,0.228l-1.868-1.378l-3.402-0.646l-3.245-2.111l0.058-0.48
		l-1.592-1.441l1.081-1.087l-5.014-1l-0.314-1.378l-0.492-0.128l-0.569,0.569l-4.582-1.404l-1.534-1.087l-1.711-0.037l-0.532-0.608
		l-1.12-0.354l-0.473-0.708l-3.264-1.441l-1.771-1.923l-1.77-0.708l-4.051,1.821l-3.618,0.189l-5.113,2.276l-2.458-0.772
		l-0.433,0.165l0.335,1.633l-1.397,0.188l1.298,1.985l0.06,1.126l-1.77,2.113l-0.747,2.11l-0.748,0.557l-0.118,0.924l-0.806,0.518
		l-3.54,6.399l-2.182,0.671l-6.942-1.341l-2.654,0.896l-1.554,1.051l-2.341-0.102l-1.494,0.835l-2.518,0.228l-1.533,0.52
		l-5.29,0.228l-0.255,0.379l-1.337-0.291l-3.304-2.593l-3.088-1.378l-0.373-0.507l-4.503-1.883l0.531-1.38l-3.834-0.164
		l-3.364-1.402l-2.93,1.049h-3.008l-0.924-0.292l-1.81-0.96l-1.652-3.719l-1.553,0.102l-1.436-1.985l-3.265-2.087l-4.76-2.467
		l-2.201-0.771l-9.557-0.252l-1.751,1.063l-0.157,0.961l-1.869,0.709l-0.844,0.227l-1.987-0.19l-1.436,0.354l-1.594-0.252
		l-2.358,0.378l-2.302-1.188l-0.157-2.467l-1.082,0.102l-0.196,2.655l-1.553-0.29v-1.05l-0.65,0.859l-0.373-0.102l0.177-0.922
		l-0.472-0.103l-0.414,0.797l-0.098,0.254l3.304,1.024v0.252l-2.734-0.418l-1.829,0.254l-0.098,0.543l-0.688-0.29l-1.495,0.519
		l-1.613-0.519l-0.787-1.188l-2.733-1.695l-1.828,0.102l-0.531-0.581l-4.444-1.987l-2.891-1.757l-1.456-1.214l-4.444-5.451
		l-2.989-2.757l-3.167-1.96l-1.927-0.315l-8.376-3.946l-3.265-2.822l-1.534-0.543l-0.551-1.023l-1.218-0.456l0.432-2.592
		l1.396-2.466l6.686-2.505l6.688-3.439l4.974-2.062l7.689-2.959l2.498-0.543l4.108-2.024l8.456-2.796l2.892-0.353l3.677,0.543
		l2.772-0.127l3.383,0.456l3.539,1.543l1.338-0.037l9.577-2.341l4.229-0.606l1.454-0.582l1.18-3.921l0.178-2.416l0.531-0.188
		l-0.314-0.733l-0.748-0.103l-0.63-0.48l2.243-0.253l1.18-1.189l6.253-4.146l-0.472-0.607l1.534-0.254l1.888-2.667l-1.003-0.811
		l0.314-0.253l1.219-0.037l0.06-3.644l-4.601-0.935l-3.581-1.896l-3.362-3.353l-1.002-1.96l-0.472-1.961l0.118-2.188l2.4-3.604
		l2.575-2.96l1.771-1.252l1.829-0.519l6.214-1.315l3.362-0.127l9.774-2.579l8.022-0.038l8.22,1.063l1.338-3.996l1.336-1.228
		L351.105,720.071z M340.231,740.762l1.063,0.165v0.315l-1.594-0.291l-0.334-0.961l-1.435,0.164l-1.397,0.646l-1.121,1.669
		l0.473,0.544l-9.204,4.021l-1.83,0.707l-8.986,2.023l-0.098,3.567l1.554,0.127l-0.591,1.354l-1.71,0.036l-2.576,4.023l0.629,0.1
		l1.023-0.771l0.117,0.454l-2.832,1.998l2.872,0.964l-0.434,0.188l-2.674-0.771l-1.002,0.583l0.491,1.377l-0.709,0.835l-0.274-0.315
		l0.334-0.647l-1.81-0.96l-2.87,1.607l-0.06,0.251l0.531,0.166l-0.708,0.252l-0.217,0.936l-0.491,0.165l0.059,0.455l-0.648,0.672
		l-0.847,4.754l0.649-0.127l-0.197,0.733l1.652-0.771l0.059,0.645l3.088-0.417l3.521,1.543h0.923l0.748,0.872l3.619,0.038
		l2.871-1.15l2.241,0.228l1.377-0.772l3.696-0.063l0.847-0.67l3.736,0.518l1.986-1.214l5.821-0.354l1.239-0.733l2.458-0.039
		l3.303,0.734l3.619-0.771h1.455l1.22,0.999l5.998,0.707l3.324,2.278l5.131,5.754l1.023-0.583l0.177,0.608l-1.16,0.29l0.216,0.456
		h0.59l0.432,1.149l1.278,1.506l0.708,0.126l-0.373,0.999l-2.045,0.836l-5.33,0.959l-3.481,3.024l-2.497,0.519l-1.161-0.315
		l-2.28-1.544l-0.472-0.898l-2.931-1.277l-5.408,0.796l-3.677,1.924l-5.132-0.771l-0.275,0.19l-4.169-1.569l-3.166-0.253
		l-0.492,0.316l-0.433-0.228l-8.318,3.111l-1.907,1.479l-4.543,1.986l-2.124,2.338l-0.964,0.38l-1.554-2.252l0.865-1.921
		l0.906,0.289l1.061,2.113l0.315-0.063l-0.216-0.796l-0.747-0.671l-0.059-0.733l-0.904-0.416l-1.121-2.467l-2.989-2.693l3.735-3.149
		l-0.314-0.128l-0.747,0.582l-2.398,2.251l-1.279,0.19l-2.241-0.897l-2.085-1.542l-3.048-0.964l-0.433-0.645l-1.061,0.292
		l-1.377-0.545l-2.458-4.009l-0.216-0.936l0.531-0.164l0.256-0.583l-2.399,0.38l-3.579,1.215l0.55,2.984l0.629,0.733l2.714,1.67
		l-0.157,0.645l1.769,1.125l0.217,0.582l2.655,0.734l3.579,1.859l1.122,0.188l2.772,3.72l1.868,3.566l4.168,3.945l1.22,0.669v0.734
		l0.491-0.582l1.062,1.252l-0.688-1.15l1.004,0.38l-0.217-0.355l4.208-0.543l-0.904-0.253l-2.772,0.19l-0.905-0.772l2.891-0.797
		l1.711-1.15l2.418-0.316l0.158-0.228l-1.003-0.48l-0.216-0.607l1.985-2.378l0.374-1.479l3.482-1.441l1.494,0.063l-0.846,1.291
		l0.963-0.039l0.375-0.898l7.472-0.101l6.352,0.544l2.518-0.544l0.708-0.771l0.807-0.228l2.93-0.291l0.492-0.418l3.735-0.102
		l1.653,0.19l2.28,0.835l0.649,0.645l-0.097,0.48l1.081,0.607l3.698,0.481l0.962-0.292l-0.275-0.897l1.161-0.455l0.589,0.037
		l0.57,1.025l4.917-0.874l2.772,0.608l0.708-0.455l0.865,0.378l0.492-0.771l1.71-0.038l1.554-0.645l1.907,0.543l2.518-0.063
		l0.904,0.797l0.334,1.606l0.688,0.937l2.734,2.528l4.817-1.353l3.619,0.417l6.941,1.606l3.087,0.999l0.63-0.126l-0.197,1.441
		l0.492,1.15h0.963l-0.335-2.567l2.242,0.898l1.613,0.125l1.297,1.697l1.023,0.101l0.217,0.38l3.795,1.693l1.711,1.15l2.301-0.454
		l1.062,1.062l-0.629,1.342l0.708,1.479l0.648,0.252l0.748,0.961v0.519l-0.925,1.024l0.276,0.19l-0.531,0.417l0.688,0.442
		l0.648,1.342l0.806,0.251l2.184,2.024l0.472-0.101l0.374,0.379l-0.374,0.164l2.556,2.567l1.613,0.038l2.792,3.908l2.95,0.442
		l7.316,2.973l0.156-0.229l0.65,0.101l1.161,1.151l1.769,0.164l4.759-0.519l1.592-0.96l5.035-1.695l1.494-0.063l0.688-0.582
		l5.997,0.67l0.925,0.316l0.589,0.607l1.534,0.29l3.421-0.164l-0.944-6.185l0.708-1.542l-1.81-8.751l-13.371-3.885l-1.122-1.213
		l-0.118-0.772l1.75-2.314l-2.399-1.277l-0.59-0.935l-3.578-0.165l-1.121-0.354l-0.865,0.707l-1.436,0.229l-0.492-0.039
		l-1.926-1.378l-2.616,0.645l-7.532-0.189l-0.334-0.292l-2.734,0.103l-0.255-0.581l-5.349-0.254l-0.905-0.669l0.552-0.545
		l-0.866-0.164l0.217-0.254l-0.472-0.315l-1.18,0.063l-1.593-2.731l0.473-0.519l-1.967-1.126l-0.747,0.189l-0.53-0.379l-0.178-1.506
		l-5.19-0.605l-2.045-0.734l0.845-1.505l-1.985-1.898l-3.305-0.896l-1.238-1.024l-1.928-0.709l-4.267-0.416l-1.711-1.481
		l0.118-1.668l1.987-1.96l3.755-0.252l-0.04-0.254l2.084-0.52l1.003,0.292l1.986-0.835l1.298,0.316l4.856-2.314l2.418-0.102
		l2.242-1.543l1.711-0.292l0.786,0.19l0.315-0.455l4.051-0.808l2.458,0.517l1.651-0.164l3.854,0.519l0.964,0.67l0.963,1.708
		l0.807-0.253l0.628,0.189l1.966,1.29l-0.413-0.897l3.363,0.037l5.408-0.708l1.063,0.543l2.576-0.125l0.373,0.227l0.531-0.937
		l3.619-0.353l0.157-0.709h-1.435l-0.04-0.254l2.045-0.731l-0.118-1.165l-1.455-0.063l-1.455,0.607l-0.964-0.354l-1.592,0.671
		l-9.204-0.165l-3.008-3.895l-2.616-1.354l-1.082-0.039l-1.179-0.606l-0.257-3.339l0.434-0.48l1.377,0.354v-1.023l4.66-2.646
		l3.167,0.064l5.663,1.063l2.203,0.708l1.592,0.897l4.346,1.227l5.329,2.086l-0.217-1.669l-1.336-1.517l-3.323-1.252l-0.257,0.391
		l-0.924,0.165l-4.975-1.997l-0.433-0.417l0.924-1.127l-0.177-0.228l-0.688-0.038l-1.436,1.291l-4.169-0.937l0.275-0.393
		l-0.629-0.315l0.119-0.229l0.845,0.355l5.625-0.254l0.118-0.645l-1.062-0.102l0.058-0.315l-0.648-0.253l-3.323,0.227l-1.612,0.608
		l-0.197-0.19l1.435-0.544l3.048-0.19l0.374-0.517h0.412l0.06,0.391l0.924,0.063l0.217-0.519l0.707-0.291l-1.396-2.376l-0.924-0.456
		l-0.648-0.81l-1.908,0.771l-10.914,1.063l-4.267,1.896l0.373,0.646l2.989,1.96l-0.531,0.962h-1.456l-0.708,0.998l0.845,0.253
		l-0.039,0.38l-0.491,0.392l-0.649-0.038l-0.118,0.937l-4.268,1.707l-0.649,1.062l-3.028,2.062l-3.696,1.164l-2.931-0.834
		l-3.147,1.063l-0.55,0.606l-4.208,0.998l-4.503,1.581l-5.113,0.063l-1.75,0.961l-5.23,0.216l-2.301-0.809l-3.913-2.631h-0.865
		l-1.927-2.544l-0.747-0.454l-0.491,0.038l-1.594,1.606l-1.908,0.391l0.04-0.391l-1.652-0.102l-1.12,0.292l-5.978-1.19l-0.374-0.455
		l7.059-4.021l2.301-0.581l-2.576,0.417l-7.001,4.047l-1.592,0.316l0.156-3.061l-1.533-1.795l0.334-0.456l-0.807-1.998l-1.179-0.48
		l-1.554-1.67l0.158-1.418l-5.448-3.312l-0.845-0.253l-2.518,0.52l-7.688-2.545l0.413-0.871l-0.177-1.063l-1.613-1.544l-1.396-0.479
		l-1.966-0.189l-1.986,0.164L340.231,740.762z"/>
	<path id="NL-ZH" fill="#CCCCCC" stroke="#FFFFFF" stroke-width="0.5" d="M508.875,731.618l2.085,1.163l0.59-0.188l0.905,0.165
		l0.334,0.605l2.183,0.748l0.099,0.479l-5.704,0.163l-2.124-0.354l-2.144-1.518l3.009-1.227L508.875,731.618z M485.593,721.564
		l2.497,0.037l7.945,1.265l10.324,2.998l4.956,1.038l1.711,0.58l0.157,1.038l-7.198,1.809l-5.113-0.128l-3.796-0.605l-4.876-1.835
		l-9.792-4.325l-0.688-0.543l0.274-0.937l1.279-0.48L485.593,721.564z M555.462,534.733l21.12,6.134l1.966-2.352l4.208-0.747
		l0.845-0.038l7.631,2.087l-2.518,2.352l-2.045,3.466l-0.039,0.822l-2.89,4.046l-6.155,4.009l0.57,2.58l-2.458,8.285l-2.557,2.048
		l-0.177,0.62l0.314,1.658l2.124,1.113l4.582,0.683l3.304-0.721l4.641,1.175l4.424,0.354l6.371-0.291l10.089-3.78l5.917-0.228
		l0.788-0.329l0.413,0.19l2.281-1.53l2.95-0.785l6.077,0.62l-0.433,3.718l1.121,1.593l0.157,1.177l-0.373,0.582l1.81,0.885
		l2.418-1.96l3.796-1.568l2.87-0.417l2.713-1.366l1.81-1.694l3.049-0.848l3.245,0.455l0,0l0.118,2.15l2.202,2.34l-0.059,3.187
		l0.492,1.733l2.124-0.063l0.629,1.011l8.909,6.312l4.7,1.074l10.421,4.653l-0.098,0.456l-6.372,1.594l1.161,5.109l-1.396,0.417
		l-0.157,0.355l-2.242,0.227l-6.076-0.519l-1.75-0.872l-0.709-1.923l-1.809,0.62l-2.93,0.355l-2.498,0.682l-1.77,1.657l-0.63,2.606
		l-3.835,1.099l-0.491,1.329l10.639,4.907l-0.177,2.959l0.531,4.932l0.55,1.595l1.75,1.365l-0.118,1.719l3.088-0.479l9.674-0.063
		l-1.593,2.074l-6.509,1.529l-5.132,2.505l-4.012,4.021l-2.242,1.075l0.531,2.428l-2.734,1.266v1.163l0.865,1.82l3.481-0.227
		l1.908-0.873l5.171,0.127l1.986-0.684l2.556,3.149l-0.275,0.418l-12.487,1.972l2.772,2.365l2.36,0.519l1.986,1.745L660.707,646
		l3.246,2.946l3.677,2.694l2.34,0.936l0.786,1.745l2.183,1.139l2.517,6.374l3.246-0.708l2.89-0.166l6.077-0.999l2.36-1.909
		l2.084-3.212l2.124-1.429h1.75l4.699,1.201l2.36,0.102l1.769-0.784l4.051-3.693l2.832-1.075l1.238-0.164l2.36,0.291l4.797,2.428
		l3.147-0.227l1.612-1.43l0.807-1.556l2.026-1.429l5.505-2.783l1.081-1.037l5.938-1.883l3.304-0.621l3.54,0.127l2.36,0.479
		l3.107,0.748l4.051,1.516l0.807,0.975l0.688,3.339l1.554,2.112l2.241,0.847l5.545,0.62l2.025,0.847l0,0l-8.987,11.016l-0.905,0.127
		l0.256,0.81l-3.991,3.719l0.196,2.035l-1.456-0.455l-4.326,5.146l-0.551,2.744l-0.708,0.874l-3.323-0.519l-2.026,0.328
		l-1.868-0.354l-0.865,0.454l-0.335,1.581l-2.046,1.974l-2.182,0.771l-3.756,0.039l-2.556,0.809l-0.492,1.1l0.788,1.102l2.144,0.848
		l-1.161,0.709l-3.52,0.909l-1.022,0.746l-3.009-0.771l-7.866,0.126l-3.54-1.998l-0.806,0.544l1.16,2.364l-0.688,1.784l1.868,1.998
		l6.686,0.581l-2.025,6.299l-4.661-0.064l0,0l-10.521-0.999l-9.046-1.289h-5.132l-3.481,0.519l-7.335,2.353l-5.623,3.742
		l-4.819,2.227l-1.828,0.48l-3.422,0.48l-7.944-0.771l-4.208,0.164l-4.326,0.897l-4.662,1.619l-4.818,3.681l-3.007,5.843
		l-1.396,1.417l-3.954,2.807l-6.883,3.935l-9.418,4.287l-19.606,3.604l-4.916,2.542l-23.343,4.124l-6.843-0.457l-23.362-5.021
		l-4.267,2.58l-2.045,0.835l-0.864,1.454l-1.751,0.038l-0.904,1.29l-3.894,2.479l-0.748,2.086l-2.124,2.252l-2.734,1.833
		l-2.733,1.023l-6.469,1.936l-6.135,0.835l-4.267,1.227l-7.474,1.126l-8.436-0.646l0,0l-5.821-1.227l-10.147-4.502l-14.257-6.956
		l-4.581-0.317l-5.86,0.103l-5.88-1.353l-13.687-0.71l-2.242-0.58l-2.732-3.087l-1.004-2.542l-0.471-6.246l-5.133-4.681
		l-1.239-3.452l-0.865-0.834l-11.878-1.708l-4.424-2.58l-5.762-0.519l-5.978,0.998l-4.799,1.835l-6.312,5.16l-3.167,0.393
		l-8.907-1.81l-2.577-1.618l0,0l4.07-1.354l1.612-0.999l2.832-4.742l0.846-1.581l-0.216-0.772l-3.166-4.97l-0.099-1.997l2.399-2.391
		l2.773-1.392l2.93-0.392l4.444-1.101l3.579-0.063l2.674-0.455l9.085-2.744l9.34-2.289l3.521-0.581l6.41,0.063l3.107,0.934
		l1.338,0.811l-2.792-0.354l-0.434,1.416l4.052,1.58l1.985,1.52l1.535,0.417l0.432-0.292l-1.063-0.81l0.04-0.581l1.377,0.228
		l1.003-0.481l0.549,0.266l3.107-2.325l-0.491-0.355l0.313-0.354l2.4-1.227l2.36-0.683l0.157-1.125l-1.396-2.138l-9.241-8.827
		l-0.787-1.201l0.492-2.454l1.495-1.391l3.579-4.92l1.021-0.481l-0.216-0.999L416,667.119l-1.75-0.479l-1.161,1.226l0.06,1.392
		l-0.807-0.519h-0.334l-0.118,0.582l-0.413-0.101l-0.787-0.873l-2.025-0.417l-1.376,0.708l-0.629-0.164l-1.652,0.645l-2.085,0.127
		l-1.081-0.33l-0.589-0.683l0.333-1.745l4.444-10.104l0.099-2.657l-0.433-0.227l-1.121,0.354v-1.746l1.907-2.846l1.338-0.645
		l2.203,0.228l2.201-2.112l0.846-0.189l2.892,0.848l0.55-0.266l2.301-0.038l2.123,0.874l3.894,0.999l1.869,0.999l6.567-3.731
		l4.483-1.947l2.636-1.455l1.435-1.265l1.927-0.872l3.461-3.757l3.953-3.503l23.99-17.882l6.726-5.527l0.059-0.493l0.747-0.126
		l1.337,0.721l1.455-1.392l-0.413-0.164l-1.218,0.974l-0.649-0.354l-0.1-0.582l6.412-4.224l2.144-1.013l5.073-3.542l13.844-11.419
		l9.341-8.828l12.016-13.456l8.711-10.434L555.462,534.733z M419.048,694.93L416,697.32l0.53,0.329l-0.589,1.126l0.198,0.683
		l-1.023-0.126l0.334,0.543l-0.492,0.355l0.433,0.252l-0.195,0.316l0.492,0.101l1.454-0.974l2.183,0.746l2.93,1.708l11.327,3.262
		l3.854,1.846l9.086,2.911l5.919,2.554l8.613,1.833l-0.216,0.254l0.531,0.252l0.787-0.126l6.785,4.768l4.168,2.327l3.677,1.605
		l0.748,1.037l5.35,4.251l1.493,0.871l6.843,2.771l2.931,0.392l5.073,2.313l5.447,1.354l4.11,0.481l11.385,0.393l2.183-0.165
		l0.925-0.544l0.649-0.708l0.039-1.126l0.866-0.038l1.967-4.224l-2.4-0.872l-0.098-0.417l-0.649,0.227l-12.232-4.603l-10.835-3.227
		v-0.289l-0.807-0.127l-0.039,0.29l-12.998-2.517l-7.493-1.809l-2.301-1.125l-3.422-3.099l-0.373-0.607l0.472-0.316l0.039-2.034
		l-4.74-3.392l-4.444-1.581l-2.792-0.126l-1.554,0.418l-1.179-0.329l-6.312-4.944l-1.24-0.417l-0.845-0.709l-2.497,0.228
		l-1.927-0.228l-0.649,0.127l-0.473,0.582l-0.787,0.063l-3.106-0.126l-1.337-0.646l0.215-1.063l-1.022-0.164l-0.629,1.328
		l-1.18-0.974l-7.414-1.682l-2.34-1.418l-2.34-2.364l-4.444,1.354l-0.963,0.81L419.048,694.93z"/>
</g>
</svg>
