<svg xmlns="http://www.w3.org/2000/svg" viewBox="0 0 486.104 486.104"><path class="svg_icon" data-scale="scale(0.15)" data-offset-x="9" data-offset-y="1.3" d="M414.954 203.056a5.001 5.001 0 0 0-3.686-3.032c-.554-.107-54.224-10.818-91.619-45.956l87.023-98.832a5 5 0 0 0-5.985-7.778c-.333.166-33.817 16.551-83.102 16.551-26.849 0-54.095-8.297-63.267-11.37V30.596c0-.84-.183-8.428-6.492-15.999C239.754 4.911 225.901 0 206.653 0c-49.893 0-89.637 16.33-104.204 23.23a4.983 4.983 0 0 0-3.525-1.456H75.785a5 5 0 0 0-5 5v454.33a5 5 0 0 0 5 5h23.138a5 5 0 0 0 5-5V213.051c11.875-5.113 58.429-23.852 102.729-23.852 1.219 0 2.392.025 3.534.067v54.672c0 .267.029.53.07.79.009.054.016.108.027.161.053.272.128.538.224.796l.056.14c.107.261.231.514.38.754.017.028.037.053.055.081.155.239.328.466.523.677.011.012.02.025.032.037.129.136.265.266.41.388.052.044.111.074.164.115a5.16 5.16 0 0 0 1.158.672c.184.076.373.135.564.189.079.022.15.059.231.077 1.655.375 32.395 7.208 69.818 7.207 11.055 0 22.695-.596 34.338-2.131 69.649-9.182 95.128-44.589 96.178-46.092a4.998 4.998 0 0 0 .54-4.743zM80.785 476.104v-261.31h13.138v261.31H80.785zm163.534-266.257c.002.186.038.362.06.543.017.144.019.292.048.432.038.184.107.354.164.53l-.021.007s-.036-.081-.07-.243c.015.071 1.346 7.206-12.094 18.681-4.342 3.708-8.813 6.002-12.22 7.374v-46.879c23.324 4.138 24.11 18.735 24.133 19.555zm72.613 34.129c-32.253 4.253-65.216.875-84.264-1.994a53.484 53.484 0 0 0 6.231-4.579c16.367-13.975 16.056-24.745 15.42-28.152V107.392a5 5 0 1 0-10 0v82.821c-8.326-7.309-20.961-11.014-37.667-11.014-42.703 0-86.019 16.047-102.729 22.975V71.62a5 5 0 0 0-10 0v133.175H80.785V31.775h13.138v9.826a5 5 0 0 0 10 0v-7.952C114.358 28.487 155.319 10 206.653 10c36.718 0 37.645 19.813 37.667 20.596v42.673a5 5 0 1 0 10 0v-10.09c11.812 3.777 37.345 10.831 63.267 10.831 29.202 0 52.86-5.37 68.198-10.183L309 151.03a5 5 0 0 0 .204 6.826c31.185 31.424 73.854 45.301 91.776 50.011-10.163 9.945-35.874 29.758-84.048 36.109z"/></svg>