<svg xmlns="http://www.w3.org/2000/svg" viewBox="0 0 512 512"><path class="svg_icon" data-scale="scale(0.15)" data-offset-x="3" data-offset-y="1.3" d="M488.939 482.26l-54.875-128a21.31 21.31 0 0 0-19.604-12.927h-58.591c36.915-50.365 70.798-112.298 70.798-170.667C426.667 76.563 350.104 0 256 0S85.333 76.563 85.333 170.667c0 58.368 33.883 120.302 70.798 170.667h-58.59a21.308 21.308 0 0 0-19.604 12.927l-54.875 128a21.33 21.33 0 0 0 1.792 20.146 21.354 21.354 0 0 0 17.813 9.594h426.669a21.355 21.355 0 0 0 17.813-9.594 21.34 21.34 0 0 0 1.79-20.147zM256 85.333c47.063 0 85.333 38.281 85.333 85.333 0 47.053-38.27 85.334-85.333 85.334s-85.333-38.281-85.333-85.333S208.937 85.333 256 85.333zm-180.98 384L111.603 384h78.458c30.34 35.241 56.176 58.885 58.793 61.25A10.65 10.65 0 0 0 256 448a10.65 10.65 0 0 0 7.146-2.75c2.617-2.365 28.453-26.009 58.793-61.25h78.458l36.583 85.333H75.02z"/></svg>