<svg xmlns="http://www.w3.org/2000/svg" viewBox="0 0 512 512"><path class="svg_icon" data-scale="scale(0.15)" data-offset-x="3" data-offset-y="1.3" d="M399.292 267.208c-15.747-29.813-40.315-55.432-69.275-73.206l-8.746-67.596c25.003-19.539 41.396-49.624 41.396-83.74C362.667 13.354 307.375 0 256 0S149.333 13.354 149.333 42.667c0 34.118 16.395 64.204 41.401 83.743l-8.772 67.612c-28.947 17.758-53.506 43.361-69.254 73.186-6.729 12.719-7.896 28.198-3.229 42.448 4.271 13.031 13.146 23.604 24.323 29.021 33.534 16.259 71.794 21.91 102.813 23.444L245.354 502c.354 5.625 5.01 10 10.646 10a10.663 10.663 0 0 0 10.646-10l8.74-139.879c31.018-1.534 69.277-7.184 102.802-23.434 11.188-5.427 20.063-16 24.333-29.031 4.667-14.25 3.5-29.729-3.229-42.448zM170.667 42.667c0-5.479 29.344-21.333 85.333-21.333s85.333 15.854 85.333 21.333C341.333 48.146 311.99 64 256 64s-85.333-15.854-85.333-21.333zm5.595 29.579c20.835 8.876 50.9 13.087 79.738 13.087s58.904-4.211 79.738-13.087C323.651 104.701 292.613 128 256 128s-67.651-23.299-79.738-55.754zM308.729 195.75c-6.854 5.792-24.302 17.583-52.729 17.583-28.49 0-45.948-11.969-52.729-17.76l7.357-56.751c13.82 6.553 29.089 10.512 45.372 10.512 16.279 0 31.543-3.956 45.359-10.505l7.37 56.921zm73.521 107.26c-2.479 7.563-7.354 13.563-13.365 16.479-29.063 14.083-69.156 21.844-112.885 21.844s-83.823-7.76-112.896-21.854c-6-2.906-10.875-8.906-13.354-16.469-2.875-8.781-2.219-18.208 1.813-25.844 13.475-25.509 35.15-48.23 59.872-63.871 10.413 8.332 31.776 21.371 64.565 21.371 32.918 0 54.329-13.04 64.684-21.293 24.673 15.652 46.299 38.344 59.754 63.793 4.031 7.636 4.687 17.063 1.812 25.844z"/></svg>