<svg xmlns="http://www.w3.org/2000/svg" viewBox="0 0 512 512"><path class="svg_icon" data-scale="scale(0.15)" data-offset-x="3" data-offset-y="1.3" d="M332.568 386.736l58.641-58.444C427.833 291.938 448 243.542 448 192 448 86.135 361.875 0 256 0S64 86.135 64 192c0 51.542 20.167 99.938 56.792 136.271l58.651 58.465c-71.401 5.199-158.11 19.993-158.11 61.264 0 59.385 179.625 64 234.667 64s234.667-4.615 234.667-64c0-41.268-86.701-56.064-158.099-61.264zM170.667 192c0-47.052 38.271-85.333 85.333-85.333s85.333 38.281 85.333 85.333-38.271 85.333-85.333 85.333-85.333-38.281-85.333-85.333zM256 469.333c-93 0-155.229-11.76-181.292-21.333 22.544-8.281 72.262-18.167 145.436-20.693l28.335 28.245a10.584 10.584 0 0 0 7.521 3.115c2.729 0 5.458-1.042 7.521-3.115l28.34-28.245c73.173 2.526 122.887 12.413 145.431 20.693C411.229 457.573 349 469.333 256 469.333z"/></svg>