<svg xmlns="http://www.w3.org/2000/svg" width="512" height="512" viewBox="0 0 98.54 98.54"><path d="M19.717 62.794c0 .359-.029.71-.074 1.059-.521 4.149-4.056 7.361-8.347 7.361-4.407 0-8.019-3.389-8.384-7.7a8.59 8.59 0 0 1-.037-.72 8.422 8.422 0 0 1 16.842 0zM6.07 62.08h2.42a2.91 2.91 0 0 1 .306-.741l-1.718-1.718A5.237 5.237 0 0 0 6.07 62.08zm1.008 3.915l1.729-1.728a2.814 2.814 0 0 1-.313-.73h-2.42a5.267 5.267 0 0 0 1.004 2.458zm3.488-.399a2.812 2.812 0 0 1-.729-.299l-1.712 1.714c.701.528 1.53.886 2.442 1.013l-.001-2.428zm0-8.025a5.222 5.222 0 0 0-2.459 1.019l1.716 1.716a2.86 2.86 0 0 1 .744-.312l-.001-2.423zm4.949 2.05l-1.719 1.718c.135.229.238.478.306.741h2.42a5.266 5.266 0 0 0-1.007-2.459zm-3.49.373c.265.069.513.174.744.312l1.716-1.717a5.256 5.256 0 0 0-2.459-1.018l-.001 2.423zm2.444 7.018L12.758 65.3a2.861 2.861 0 0 1-.731.296v2.429a5.25 5.25 0 0 0 2.442-1.013zm2.061-3.475h-2.438c-.069.26-.172.505-.306.731l1.722 1.721a5.256 5.256 0 0 0 1.022-2.452zM89.342 62.794c0 .359-.03.71-.074 1.059-.521 4.149-4.056 7.361-8.347 7.361-4.408 0-8.02-3.389-8.385-7.7a8.185 8.185 0 0 1-.037-.72 8.421 8.421 0 0 1 16.843 0zm-13.648-.714h2.421c.067-.264.171-.511.305-.741l-1.718-1.718a5.257 5.257 0 0 0-1.008 2.459zm1.009 3.915l1.728-1.728a2.848 2.848 0 0 1-.313-.73h-2.42a5.268 5.268 0 0 0 1.005 2.458zm3.489-.399a2.818 2.818 0 0 1-.73-.299l-1.712 1.714a5.25 5.25 0 0 0 2.443 1.013l-.001-2.428zm0-8.025a5.218 5.218 0 0 0-2.459 1.019l1.715 1.716c.23-.138.479-.242.745-.312l-.001-2.423zm4.948 2.05l-1.72 1.718c.135.229.238.478.306.741h2.421a5.266 5.266 0 0 0-1.007-2.459zm-3.49.373c.265.069.514.174.744.312l1.716-1.717a5.26 5.26 0 0 0-2.46-1.018v2.423zm2.443 7.018L82.382 65.3a2.847 2.847 0 0 1-.731.296v2.429a5.245 5.245 0 0 0 2.442-1.013zm2.063-3.475h-2.438c-.069.26-.172.505-.305.731l1.722 1.721a5.286 5.286 0 0 0 1.021-2.452z" data-original="#000000" class="active-path" data-old_color="rgb(0, 0, 0)"/><path d="M97.932 64.732l-6.75-.105c.029-.172.066-.342.089-.517.061-.477.09-.905.09-1.314 0-5.757-4.683-10.439-10.439-10.439-5.758 0-10.441 4.684-10.441 10.439 0 .3.019.594.043.891.018.209.053.413.083.619l-48.903-.768c.021-.256.033-.504.033-.741 0-5.757-4.683-10.439-10.44-10.439-5.244 0-9.587 3.891-10.319 8.936-.583-1.279-1.146-3.031-.927-4.744.418-3.258 3.258-6.421 3.425-8.012s-.534-2.897-.116-5.152c.418-2.255 4.334-9.698 8.301-12.224 2.882-1.835 4.958-3.084 13.711-3.586 12.331-.707 20.794.099 28.225 2.358 4.418 1.344 19.541 9.212 24.126 11.751 5.428 3.006 7.621 3.471 11.371 4.829 4.333 1.569 7.086 5.012 8.172 7.614s1.877 5.843.666 10.604zm-69.365-23.11l1.296-10.998c-7.179.126-14.629.691-15.283 3.207-.388 1.491 1.575 5.05 3.926 6.097 1.816.809 4.633 1.115 10.061 1.694zm35.035-1.625l-.82-2.399c-9.711-5.215-14.664-7.011-26.704-7.011h-1.702l1.383 11.728c12.625 1.121 27.527 2.039 27.527 2.039-1.199-2.463.316-4.357.316-4.357z" data-original="#000000" class="active-path" data-old_color="rgb(0, 0, 0)"/></svg>