<svg xmlns="http://www.w3.org/2000/svg" width="512" height="512" viewBox="0 0 99.325 99.325"><path d="M.024 60.244a.811.811 0 0 1 .719-.792l1.326-.15.026-1.353-.641-.59a1.686 1.686 0 0 1-.541-1.269l.08-4.219a1.68 1.68 0 0 1 1.382-1.621s.739-16.364 4.154-19.386c3.75-3.321 66.754-3.699 80.39-.823a5.412 5.412 0 0 1 2.898 1.662c2.844 3.14 5.724 9.506 5.724 9.506s1.717.477 2.402 2.924c.245.877.274 3.102.206 5.693l.088.002a1.11 1.11 0 0 1 1.088 1.129l-.047 2.45a1.105 1.105 0 0 1-1.129 1.087l-.196-.003a279.067 279.067 0 0 1-.229 3.732 4.114 4.114 0 0 1-4.108 3.834l-6.867-.004-2.56-5.704a3 3 0 0 0-2.682-1.771l-5.967-.114a3.003 3.003 0 0 0-2.673 1.53l-3.406 6.05-38.994-.022-3.116-5.946a3.068 3.068 0 0 0-2.722-1.645l-5.688.007a3.067 3.067 0 0 0-2.695 1.608l-4.834 8.938-5.937-.074a2.638 2.638 0 0 1-2.4-1.669l-2.547-.94a.808.808 0 0 1-.529-.774l.025-1.283zm89.34-18.871a1.6 1.6 0 0 0 1.495-2.24l-2.46-5.607a1.438 1.438 0 0 0-1.292-.862l-.895-.017-.083 8.664 3.235.062zm-18.131-1.624a1.42 1.42 0 0 0 1.389 1.306l12.784.243.082-8.666-13.284-.253a1.424 1.424 0 0 0-1.062.446 1.424 1.424 0 0 0-.381 1.089l.472 5.835zm-29.194.886c.269.271.636.424 1.019.422l21.862-.116a1.42 1.42 0 0 0 1.412-1.393l.111-5.818a1.42 1.42 0 0 0-1.431-1.447l-21.863.174a1.42 1.42 0 0 0-1.409 1.394l-.109 5.761c-.009.38.139.75.408 1.023zm-29.526-.129c.271.33.677.521 1.104.521l23.166-.089a1.422 1.422 0 0 0 1.414-1.394l.109-5.816a1.424 1.424 0 0 0-1.43-1.447l-20.539.164a3.345 3.345 0 0 0-3.251 2.673l-.865 4.202c-.086.418.021.853.292 1.186z" data-original="#000000" class="active-path" data-old_color="rgb(0, 0, 0)"/><path d="M78.394 56.037a7.592 7.592 0 0 1 7.519 7.662 7.485 7.485 0 0 1-.076.954c-.505 3.737-3.718 6.603-7.586 6.564a7.587 7.587 0 0 1-7.494-7.014 7.788 7.788 0 0 1-.027-.649 7.59 7.59 0 0 1 7.664-7.517zm.629 2.889l-.021 2.184c.239.063.461.16.668.286l1.562-1.53a4.697 4.697 0 0 0-2.209-.94zm3.128 1.878l-1.564 1.533c.12.21.211.433.27.671l2.182.021a4.718 4.718 0 0 0-.888-2.225zm.883 3.538l-2.198-.021a2.553 2.553 0 0 1-.281.656l1.537 1.565a4.745 4.745 0 0 0 .942-2.2zm-1.889 3.116l-1.529-1.559a2.677 2.677 0 0 1-.661.26l-.021 2.188a4.709 4.709 0 0 0 2.211-.889zm-7.53-4.52l2.183.021c.063-.237.159-.458.281-.665l-1.534-1.563a4.727 4.727 0 0 0-.93 2.207zm4.094-4.025c-.83.106-1.587.42-2.226.896l1.531 1.562c.209-.122.434-.215.674-.275l.021-2.183zm-.089 9.423l.021-2.188a2.508 2.508 0 0 1-.657-.274l-1.558 1.532a4.695 4.695 0 0 0 2.194.93zm-3.128-1.861l1.571-1.541a2.646 2.646 0 0 1-.276-.661l-2.181-.021c.108.825.411 1.589.886 2.223zM21.811 56.037a7.593 7.593 0 0 1 7.519 7.662 7.485 7.485 0 0 1-.076.954c-.505 3.737-3.718 6.603-7.586 6.564a7.587 7.587 0 0 1-7.494-7.014 7.788 7.788 0 0 1-.026-.649 7.588 7.588 0 0 1 7.663-7.517zm.629 2.889l-.021 2.184c.239.063.461.16.668.286l1.562-1.53a4.701 4.701 0 0 0-2.209-.94zm3.128 1.878l-1.564 1.533c.12.21.211.433.271.671l2.182.021a4.74 4.74 0 0 0-.889-2.225zm.883 3.538l-2.198-.021a2.518 2.518 0 0 1-.281.656l1.537 1.565a4.745 4.745 0 0 0 .942-2.2zm-1.889 3.116l-1.529-1.559a2.677 2.677 0 0 1-.661.26l-.021 2.188a4.709 4.709 0 0 0 2.211-.889zm-7.53-4.52l2.183.022c.063-.237.159-.458.281-.665l-1.534-1.563a4.698 4.698 0 0 0-.93 2.206zm4.094-4.025c-.83.106-1.587.42-2.226.896l1.53 1.562c.209-.122.435-.215.675-.275l.021-2.183zm-.089 9.423l.021-2.188a2.515 2.515 0 0 1-.656-.274l-1.559 1.532a4.695 4.695 0 0 0 2.194.93zm-3.128-1.861l1.571-1.541a2.61 2.61 0 0 1-.276-.661l-2.181-.021c.108.825.41 1.589.886 2.223z" data-original="#000000" class="active-path" data-old_color="rgb(0, 0, 0)"/></svg>