<svg xmlns="http://www.w3.org/2000/svg" width="486.293" height="486.292" viewBox="0 0 486.293 486.292"><path d="M80.128 219.934C35.874 219.934 0 255.809 0 300.063s35.875 80.129 80.128 80.129c44.255 0 80.13-35.875 80.13-80.129s-35.875-80.129-80.13-80.129zm0 124.646c-24.546 0-44.516-19.97-44.516-44.517s19.97-44.517 44.516-44.517c24.547 0 44.517 19.97 44.517 44.517s-19.97 44.517-44.517 44.517zM406.162 219.934a79.986 79.986 0 0 0-25.834 4.281l-22.039-34.332c4.744-3.493 9.6-6.639 14.439-9.18v-39.416l-35.395 15.954-32.83-51.138-64.153-.002-11.788 9.813 53.814 17.525 24.184 37.672-63.847 29.902-62.425-41.176-100.16-15.952v25.598l73.591 56.386 45.561 94.606h88.359l22.822-82.911s9.184-11.88 22.484-25.354l18.709 29.142c-15.754 14.631-25.621 35.514-25.621 58.711 0 44.254 35.875 80.129 80.129 80.129 44.256 0 80.131-35.875 80.131-80.129s-35.875-80.129-80.131-80.129zm0 124.646c-24.545 0-44.516-19.97-44.516-44.517 0-10.533 3.684-20.217 9.822-27.847l23.666 36.863 28.096-18.035-22.562-35.147a44.498 44.498 0 0 1 5.494-.351c24.547 0 44.518 19.97 44.518 44.517s-19.971 44.517-44.518 44.517z"/></svg>