<?xml version="1.0" encoding="utf-8"?>
<!-- Generator: Adobe Illustrator 15.0.0, SVG Export Plug-In . SVG Version: 6.00 Build 0)  -->
<!DOCTYPE svg PUBLIC "-//W3C//DTD SVG 1.1//EN" "http://www.w3.org/Graphics/SVG/1.1/DTD/svg11.dtd">
<svg version="1.1" id="Layer_1" xmlns="http://www.w3.org/2000/svg" xmlns:xlink="http://www.w3.org/1999/xlink" x="0px" y="0px"
	 width="1920px" height="1200px" viewBox="0 0 1920 1200" style="enable-background:new 0 0 1920 1200;" xml:space="preserve">
<style type="text/css">
<![CDATA[
	.st0{fill:transparent;stroke:#000;stroke-width:2;}
	.st1{fill:transparent;stroke:#000;stroke-width:2;}
	.st2{fill:transparent;stroke:#CCCCCC;stroke-width:2;}
	.st3{fill:transparent;stroke:#000;stroke-width:0.5;}
]]>
</style>
<g id="map">
	
	<path id="UA-18" style = "stroke-dashoffset: 1000px; stroke-dasharray: 20px;" class="st3" d="M 9, 34 C 23, 13, -19, 15, 49, 9 T 49, 9 C 117, 3, 163, 3, 220, 3 T 220, 3 C 277, 3, 273, 15, 343, 11 T 343, 11 C 413, 7, 480, 6, 517, 6 T 517, 6 C 554, 6, 565, 10, 618, 6 T 618, 6 C 671, 2, 810, 0, 836, 2 T 836, 2 C 862, 4, 888, -104, 892, 8 T 892, 8 C 896, 120, 897, 114, 896, 120 T 896, 120 C 895, 126, 887, 168, 894, 202 T 894, 202 C 901, 236, 905, 260, 901, 291 T 901, 291 C 897, 322, 890, 322, 890, 354 T 890, 354 C 890, 386, 895, 373, 889, 414 T 889, 414 C 883, 455, 911, 467, 880, 475 T 880, 475 C 849, 483, 832, 495, 786, 494 T 786, 494 C 740, 493, 736, 496, 671, 493 T 671, 493 C 606, 490, 550, 488, 522, 487 T 522, 487 C 494, 486, 405, 485, 396, 485 T 396, 485 C 387, 485, 156, 493, 89, 491 T 89, 491 C 22, 489, 12, 494, 12, 477 T 12, 477 C 12, 460, 8, 404, 12, 387 T 12, 387 C 16, 370, 22, 333, 22, 317 T 22, 317 C 22, 301, 22, 284, 13, 237 T 13, 237 C 4, 190, 5, 207, 5, 167 T 5, 167 C 5, 127, 5, 108, 5, 93 T 5, 93 C 5, 78, 9, 56, 9, 56 T 9, 56 C 9, 56, -52, 294, 112, 256 T 112, 256 C 276, 218, 177, 357, 405, 264 T 405, 264 C 633, 171, 567, 118, 677, 137 T 677, 137 C 787, 156, 941, 259, 808, 310 T"/>
</g>
<g id="g1">

</g>
<circle class="st2" cx="487.588" cy="412.15" r="9.167"/>
<circle class="st2" cx="734.28" cy="490.077" r="9.167"/>
<circle class="st2" cx="919.995" cy="312.601" r="9.167"/>
<circle class="st2" cx="1344.002" cy="419.466" r="9.167"/>
<circle class="st2" cx="1467.084" cy="753.27" r="9.167"/>
<circle class="st2" cx="1124.858" cy="833.028" r="9.167"/>
<circle class="st2" cx="852.659" cy="833.028" r="9.167"/>
</svg>
