<svg version="1.1" id="Layer_1" xmlns:amcharts="http://amcharts.com/ammap"
	 xmlns="http://www.w3.org/2000/svg" xmlns:xlink="http://www.w3.org/1999/xlink" x="0px" y="0px" width="1920px" height="1200px"
	 viewBox="0 0 1920 1200" enable-background="new 0 0 1920 1200" xml:space="preserve">
<defs>
		<style  type="text/css">
		g#mapPaths{
							fill: #e8e3c4;
				stroke: #5d5c56;
				opacity: .8;
		}
		g#mapPaths path{
		fill: rgba(255, 204, 128, 1);
		}

		
	</style>
	<linearGradient spreadMethod="pad" id="gradient" x1="100%" y1="0%" x2="0%" y2="0%">
<stop offset="0" style="stop-color:rgb(71, 219, 180);stop-opacity:1;" />
	<stop offset="45%" style="stop-color:rgba(71, 219, 180, 0.85);stop-opacity:0.85;" />
	<stop offset="100%" style="stop-color:rgba(255, 255, 255, 0.68);stop-opacity:0.68;" />
</linearGradient>
<linearGradient spreadMethod="pad" id="gradient_reverse" x1="0%" y1="0%" x2="100%" y2="0%">
<stop offset="0%" style="stop-color:rgb(71, 219, 180);stop-opacity:1;" />
	<stop offset="36" style="stop-color:rgba(192, 243, 229, 0.71);stop-opacity:0.71;" />
	<stop offset="40" style="stop-color:rgba(206, 245, 235, 0.86);stop-opacity:0.86;" />
	<stop offset="54%" style="stop-color:rgba(255, 255, 255, 0.75);stop-opacity:0.75;" />
	<stop offset="100%" style="stop-color:rgba(71, 219, 180, 0.42);stop-opacity:0.42;" />
</linearGradient>	
		<amcharts:ammap  projection="mercator" leftLongitude="23.179154" bottomLatitude="51.262469" rightLongitude="32.779653" topLatitude="56.172064">
		</amcharts:ammap>
</defs>
<g id="mapPaths">
	<path id="BY-BR" fill="#CCCCCC" stroke="#FFFFFF" stroke-width="0.5" d="M97.203,646.011l9.977,0.015l0.399-1.786l9.891,0.404
		l0.19-2.146l3.956-1.112l5.119,2.388l-0.417,4.536l1.892,1.381l2.707-0.541l2.411,1.218l0.208-1.397l1.458,3.664l1.215-0.722
		v-2.927l3.123-1.772l1.614,0.765l-1.111,2.659l2.134-2.087l6.681,3.063l6.958-3.499l1.96,0.42l-0.035,3.619l15.512-0.285
		l5.431-2.584l1.371,1.413l0.121-3.92l-1.839-3.319l2.689-6.11l1.076-0.046l1.042-4.175l-3.002,0.585l1.613-1.23l-2.533-2.267
		l4.546-6.158l5.101-1.396l-2.916-1.473l0.452-1.17l-2.516-0.647l0.538-2.252l7.114-4.25l0.329-2.041l3.957-0.826l0.746-2.117
		l2.637,0.255l-0.85,6.486l4.007,1.502l4.338-1.666l2.326,2.178l3.54-3.396l1.023,0.406l-0.711,1.967l1.839,0.57l1.18-1.155
		l6.264,0.57l2.637-2.643l2.013-0.031l1.111,1.232l1.145-0.602l3.679,5.857l-2.1,2.163l5.154,4.864l1.63-0.585l3.02-6.668
		l2.169,0.646l0.26,3.032l-1.527,3.499l1.232,1.247l-1.717,2.777l1.648,1.638l-1.562,2.027l1.232,1.877l1.77-0.315l1.336-3.153
		l3.314,1.981l-0.278-1.351l3.869-1.473l-0.295-1.08l2.724,0.074l1.041,3.109l1.579-0.587l2.55,1.578l1.389-1.187l-0.902-0.736
		l1.891-3.634l6.871-2.523l1.666,7.072l4.79,1.578l3.8-4.101l-0.868-1.982l-4.39,0.392l-0.885-3.889l4.286-3.305l-2.603-2.208
		l-1.423-3.979l6.975,0.089l0.243,0.962l7.617-1.366l-0.416-5.992l1.856-0.72l1.423-3.619l9.057-3.771l2.932-3.979l6.42-1.217
		l-1.023-0.84l0.485-1.547l2.62-2.688l-3.938-3.184l-0.208-1.861l2.793-0.63l1.995-5.061h-1.631l0.642-5.421l-3.47-1.771
		l-1.475-2.327l2.933-2.252l0.278-3.845l2.412-0.015l-2.273-3.964l1.545-5.393l1.335-0.436l-1.752-3.047l2.742,0.766l2.55-1.516
		l-1.075-0.917l0.919-3.379l2.222-0.405l-0.556-3.335l1.215-1.321l-0.902-5.075l1.856,0.315l0.937-3.003l1.821,0.406l0.885-2.674
		l3.783-0.346l2.863,0.721l0.989,1.742l4.667,0.646l3.557-2.072l4.685,1.411l2.013-2.987l4.875-0.406l-0.572,2.103l2.429-0.736
		l2.95,1.352l3.574-0.031l0.017,1.937h4.841l1.44,0.751l-0.763,1.277l2.897,0.93l2.412-0.345l2.967-3.484l0.086,2.808l1.041,0.602
		l4.32-2.329l3.384,1.533l17.646,0.06l2.238,3.574l1.701-1.711l2.846-0.917l1.007,1.232l0.555-0.856l0,0l2.742,8.019l2.447,0.346
		l-1.892,10.902l-5.345,0.166l-0.208,3.422l-3.296,0.691l-1.614,1.817l0.798,2.192l-4.876,1.097l1.388,4.175l4.928,1.577
		l1.701,2.057l0.035,2.402l2.846-0.465l2.29,1.697l0.243,3.273l3.852,2.268l7.964-0.121l1.51,5.797l3.609,0.21l2.083,6.473
		l-0.851,0.75l-6.298-1.682l-2.064,2.643l1.093,0.616l-1.093,0.946l0.694,5.663l-4.962-0.45l-1.215,1.846l-2.533,0.421l-0.659,1.967
		l2.846,6.367l3.192,2.973l1.128,2.929l2.099,1.126l-9.404,8.155l-0.624,2.402l1.076,3.123l7.044,3.514l0.191,2.027l8.381-10.526
		l1.613,5.195l3.939-1.786l3.922-9.205l5.621,4.715l-0.659,0.51l4.025,0.586l0.902-0.93l3.02,4.099l3.522,0.811l-0.712-1.711
		l3.28,0.12l0.208-1.066l1.821,0.6l1.424,9.746l4.702,5.302l4.702,0.419l4.078-1.471l2.429,3.109l1.475-0.181l7.86,4.204
		l6.871-8.169l2.916,6.593l-1.146,4.79l3.436,1.381l1.458,5.407l-5.275,1.41l-0.798,2.568l1.804,0.587l0.382,7.027l-3.609,0.045
		l0.173,3.663l1.51,1.833l2.343-0.136l0.468,5.061l2.083,0.166l0.121,7.042l-1.301,0.091l1.51,1.126l-0.017,4.355l8.449,0.315
		l1.285,6.667l3.522-0.301l0.573,6.187l8.051-0.12l0.208,3.604l5.934,1.411l0,0l-2.1,6.098l0.85,6.577l13.743-0.12l0.156,2.974
		l4.459,3.183l7.635,0.301l3.036,3.649l2.742-0.18l2.533,1.516l0.104,2.508l1.336,0.33l0.573,2.344l-0.503,2.356l1.649,1.353
		l-4.199,4.459l2.724,3.514l-1.232,0.751l-2.776,8.65l1.232,2.058l-0.642,6.621l3.158,1.263l3.158-0.466l-0.555,1.607l1.7,3.438
		h4.406l0.139,4.52l-0.676,1.877l-8.918,5.091l-2.95,3.813l2.829,4.717l0.156,4.414l-1.822,4.28l-2.967,3.107l3.643,4.731
		l4.147,3.123l-3.245,6.772l2.187,1.982l0.156,1.847l-3.505,3.845l-2.932-0.436l-1.649,1.906l-0.625,3.56l1.336,2.628l-1.475,3.304
		l4.407,4.671l-0.555,1.17l0,0l-1.093,1.232l0.451,3.964l1.909-0.09l-2.95,3.589l-3.244-1.605l1.284-2.524l-0.764-1.021
		l-2.394,1.427l-1.475-2.267l-3.193,1.441l-0.156,1.441l-4.39-0.452l-3.938-1.801l-2.568,2.102l-12.441,0.467l0.105-3.396
		l3.696-5.721l-3.071-2.283l-5.258,0.496l-0.902-19.491l-26.703,0.886l-5.866,5.978l-4.095-2.224l-4.737-0.209l-4.078-3.064
		l-6.836,1.606l-0.78-1.712l-4.46-1.877l0.712-3.229l-1.093-1.457l-5.31-1.682l-2.326-2.207l-9.75,0.255l-2.846-0.977l-0.451,1.532
		l-4.338,1.276l-1.597,2.794l-9.092-0.301l-0.417-2.463l-3.262-0.721l-2.724-3.604l-3.141,0.375l-0.382-7.238l-3.575,2.178
		l-7.739,0.45l-2.013-1.487l-8.588-0.585l-4.113,1.771l-1.562-0.991l-2.603,0.467l-0.295-2.404l-2.048,0.315l-5.952-6.021
		l-5.552-0.825l-0.607-1.847l-4.65-1.263l-11.14,3.199l-12.198-1.771l-0.347-3.334l-5.726-1.277l-1.475,0.421l1.683,4.61
		l-2.655-0.449l-6.542,1.441l-13.204-1.052l-9.699-3.049l-2.117,3.154l-3.331-1.487l-1.389,1.907h-8.259l-1.093-1.351l-8.45-1.487
		l-9.769-5.767l-4.112,1.411l-4.563-1.622l-7.044,3.14l-5.588,0.029l-9.699,5.872l-2.88,0.345l-4.199,3.529l-4.269,0.015
		l-1.649-2.553l-9.577,2.523l-0.885-2.508l-1.578-0.36l-8.573,5.285h-1.943l-3.348-2.327l-5.709,0.676l-5.465-1.771l-7.565,2.162
		l-12.025,1.532l-11.539-0.105l-6.247,4.009l0.59,1.998l-6.073,8.318l2.897,9.386l-6.038,5.781l-19.052,9.07l-5.882,8.095
		l-6.871,3.468l-3.209,3.635l-9.491-3.153l-5.292,1.29l-0.347-3.003l4.268-4.233l-10.861-2.554l-4.495,1.201l-0.139-3.619
		l-1.318-1.307l-9.179,3.034l-4.025-0.676l-1.77,2.207l-7.218,3.034l3.159,5.571l4.007,1.98l-0.485,2.524l-2.933,2.822l5.083,8.199
		l-1.371,1.172l-5.587-0.901l-1.7-4.311l-5.778-1.246l-0.26-1.937l1.822-1.982l-1.666-2.283l0.434-1.651l-1.666-0.63l-1.822-3.47
		l0.798-3.183l-0.972-2.449l1.041-1.021l-1.197-0.705l0.572-2.779l1.579-0.87l-1.042-3.59l1.614-2.492l-1.51-0.871l0.937-0.675
		l-1.267-3.184l-1.214,0.495l-0.937-1.217l0.347-2.207l3.679-3.514l1.596,0.9l1.874-0.465l1.371-2.373l4.216-1.337l-0.278-2.057
		l1.076-0.03l0.468-1.622l-2.29-4.955l-2.377-0.376l-0.243-1.877l1.596-2.809l-1.006-3.588l3.141,0.705l-1.127-2.282l2.047-1.306
		l-2.638-1.938l-0.676-2.418l0.694-1.037l1.684,0.451l0.19-1.848l1.666-0.48l-0.66-2.823l-1.769-0.029l3.383-2.719l2.238,0.165
		l-0.607-2.478l2.916-2.628l-3.609-4.685l0.313-3.905l-1.128-2.822l-1.474-0.557l1.596-0.314l-1.44-0.976l1.111-2.733l-4.512-2.163
		l-0.781-1.651l1.25-0.9l-2.828-1.938l-5.17-0.256l-1.215,1.518l-1.006-3.078l-3.366-1.818l-0.243-1.877l-3.192-0.855l0.677-3.905
		l1.735,0.24l-0.66-1.155l-2.012-0.421l-2.412,1.307l-1.215-1.892l-4.164,2.236l-1.127-1.757l-1.995,0.856l-0.729-4.159l-2.533,0.93
		l-1.232-2.207l-6.906-0.24l-1.284-0.511l0.122-1.816l-4.703,1.277l-7.651-2.074l-1.354-2.447l1.128-6.426L0,736.426l8.051-13.454
		l8.328-9.581l1.128-3.664l13.535-16.308l7.027-6.127l13.621-6.909l7.027-2.401l9.422-1.441l2.915,1.396l18.427-13.154l1.753-0.089
		l5.881-6.023L97.203,646.011z"/>
	<path id="BY-HO" fill="#CCCCCC" stroke="#FFFFFF" stroke-width="0.5" d="M677.693,664.392l1.77,1.08l3.644-3.048l1.163,1.638
		l3.366-1.052l5.275,1.096l1.389-1.605l2.619,0.329l3.401-1.771l6.056,1.981l3.227-2.102l4.563,2.027l4.043-3.92l-0.052-1.502
		l6.732-0.029l-0.173-3.093l-2.429,0.57l-0.434-1.923l-1.701-0.06l1.111-4.896l6.038,1.697l2.812-2.958l2.862,0.436l10.186-12.314
		l-0.712-4.536l16.433-1.906l0.573,0.812l2.967-1.338l-1.684-6.502l7.566-10.376l2.603-1.246l3.279,1.726l4.841,0.241l2.03,2.688
		l9.44,0.826l3.175,1.006l0.156,1.217l1.093-2.237l2.274,0.255l-0.227,2.373l2.274-0.015l1.405,1.622l6.108-2.388l5.534-5.227
		l1.301,0.856l4.599-0.347l0.901,0.917l4.251-1.126l3.748,0.404l2.725,2.058l0.278-1.081l1.058,0.525l1.059,1.728l7.113-1.968
		l-1.146-2.116l2.622-2.554l-6.977-2.628l-1.683-1.201l-0.954-3.363l-1.718-0.812l5.327-5.812l-1.493-2.823l-3.818,1.156
		l-2.845-4.984l3.314-1.938l-1.735-3.665l0.434-1.367l1.822,0.315l0.053-1.622l1.232-0.089l1.474,2.914l3.626-0.827l1.857,1.217
		l7.08-3.184l-2.169-0.406l-0.451-2.012l2.671-2.252l-1.44,0.286l-0.451-1.802l1.84-1.216l-3.626-1.562l6.176-1.922l-3.662-8.545
		l1.284-0.315l-0.467-2.012l-2.482-2.583l-0.121-7.643l6.315-5.511l5.951-2.539l1.407,5.887l3.696-1.351l-1.146-1.337l1.666-0.736
		l2.482,1.593l0.52,1.562l-1.805,0.78l-0.678,2.238l6.056,0.782l1.996-3.003l-0.208-1.997l15.998,3.258l1.666,1.771l-0.278,1.501
		l3.245,1.771l3.696,10.362l1.893,1.381l3.226-1.501l0.973,0.856l2.481-1.277l2.567,0.63l3.557-3.993l0.139,1.892l6.161-1.126
		l2.236-1.952l5.883,0.794l0.364-3.018l3.921-2.688l5.934,1.593l1.84-2.014l-0.347-1.531l3.123,0.465l1.615-3.875l4.632,0.406
		l2.81-3.74l0.539-3.167l2.133,1.021l-2.517,4.024l2.377,1.111l-1.093,2.132l12.129,2.043l-1.821,3.244l3.314,2.763l5.309-0.542
		l-0.087-2.643l4.391-0.346l1.162-1.351l8.901,1.096l2.308-1.757l-0.556-2.072l2.655-0.78l5.223-0.902l0.745,1.367l11.801-0.84
		l0.641,1.05l-1.561,2.943l-3.609,2.974l2.013,2.734l2.48-1.533l1.892,1.728l1.544-0.796l1.059,1.172l-1.109,3.468l3.348,1.817
		l0.191,4.355l4.285-0.736l1.06,3.033l2.358,0.572l0.261,2.987l-2.794,2.328l1.892,3.005l11.191-0.871l2.188,5.24l0.954-1.081
		l1.908,0.842l0.712-0.902l0.033,1.307l9.874,0.18l1.769,3.394h2.604l0,0l-3.487,0.902l-0.659,9.1l-3.001,0.9l-5.327-1.05
		l-2.725,2.462l8.553,4.82l1.597,2.026l4.287,1.307l1.076,3.92l1.787,1.727l-0.469,4.972l14.036,12.223l7.011,0.346l0.122,3.259
		l-2.36,1.817l1.492,2.313l3.852,2.103l0.364,1.832l2.864,0.72l0.295,6.023l1.404,3.063l-3.314,2.702l-1.665,3.783l-8.312,2.554
		l7.999,8.394l1.129,2.373l-0.556,6.893l1.996,0.481l6.713,5.585l5.258,0.511l-4.719,3.665l-1.563-2.147l-1.457,0.511l-0.173,2.207
		l-2.013,0.96l-0.173,3.109l-4.513-0.465l1.943,3.874l3.696-1.486l2.672,2.537l-2.395,4.564l-3.105,1.232l3.366,0.871l0.226,2.026
		l-1.579,0.751l0.815,2.538l-1.249,1.382l3.522-0.27l1.232,3.573l-0.678,12.298l-5.379,0.406v1.021l5.414,5.887l0.643-1.187
		l2.828,3.379l4.146,0.211l3.384,2.118l-1.821,1.681l1.579,3.438l-0.069,3.845l-2.708,3.77l2.482,1.456l3.263-0.961l6.192,0.991
		l0.504,9.415l1.735,2.418l-9.803,4.46l-1.007-2.058l-5.361-1.381l-8.572,0.074l-10.983-2.058l-4.858,1.563l-2.463-0.735
		l-1.232-3.499l-6.281-0.165l-3.453,1.562l1.023,2.132l-7.825,2.869l-1.544,3.289l0.901,0.99l-2.845,5.166l-5.483,1.847
		l-3.573-1.531l-1.857-1.982l0.173-1.802l-6.732-1.366l-2.342-4.069l-5.675,2.161l-4.043-0.089l-10.202,2.327l-3.21-0.991
		l0.122-1.367l-1.596,0.255l0.226,2.628l-2.413,0.301l1.893,4.145l-1.268-0.09l-0.729-1.831l-1.093,0.419l1.925,2.449l-2.012,0.976
		l1.544,1.292l-1.596-0.195l0.92,1.726l-2.065,0.347l0.851,1.141l-0.868,1.246l2.222,0.736l0.051,1.803l-1.978,0.436l-1.891-2.238
		l-1.198,1.563l2.222,1.621l-3.159,0.615l0.504,2.553l-2.152,0.481l-1.179-0.871l-3.09,1.742l-0.051,1.275l1.908,0.061l-1.198,1.277
		l-2.706-1.473l-1.665,1.261l1.908,4.911l-2.759,4.039l-7.113-0.646l-1.146,3.334l-4.043,2.988l-1.424,5.466l-5.586,2.132
		l2.272,5.121l-2.133,2.028l0.417,1.502l-3.211-0.061l-2.325,1.247l0.434,1.32l3.142-0.767l0.971,0.856l-2.62,4.311l-0.608,3.903
		l-7.669,1.412l1.596,5.03l-0.763,2.839l-2.638-0.255l-2.603-2.178l-1.683,1.066l2.325,2.267l-3.054,3.259l-0.329,2.028l3.435,0.795
		l-0.192,1.2l2.881,1.668l-1.215,1.021l-3.487-0.751l-1.285,1.338l2.395,2.327l3.314,0.84l-3.192,1.367l-0.053,1.502l2.377,3.859
		l2.915-1.728l1.493,0.781l-1.7,6.397l1.839,1.516l0.903,4.385l4.077,2.014l-0.156,1.142l-5.119,1.65l0.59,3.935l1.109,1.037
		l3.089-0.707l0.174,1.894l4.407,6.186l-2.221,3.545l1.735,3.828l-3.487,1.262l-3.801,3.229l2.377,1.186l-1.146,1.216l2.569-0.825
		l-1.91,4.115l-1.891-0.09L943.29,919l-4.372-3.318l-6.976,1.275l1.25-5.812l-7.566-0.479l-9.96-8.86l3.904-3.093l-2.047-7.404
		l1.335-0.72l-2.186-0.436L911,883.621l-5.5-3.935l-5.675-1.667l-3.696-3.004l-1.474,3.98l-4.494-3.229l-0.851,0.361l0.868,2.582
		l-1.076,0.511l-13.152-2.913l-0.608,2.583l-2.67,1.471l-1.754-0.496l-1.388,2.344l-4.875-3.289l-4.129,0.931l-1.493,1.247
		l0.851,0.991l-1.58,4.686l-4.546-2.072l-3.487,1.29l-1.39-1.757l-1.457,0.406l-0.017,2.748l-6.195-2.822l-2.255-5.557l2.36-0.902
		l-0.226-3.693l-0.937-2.612l-2.672,0.029l-0.903,1.487l-4.597,1.831l-0.417,1.442l-1.648-0.481l-1.838,1.157l-1.268-0.991
		l-1.405,2.028l-1.771,0.314l-0.086,2.913l-3.106,2.163l-5.569-3.109l-2.845,5.901l0.347,4.115l-2.36,4.43l-11.539-2.373
		l-3.679,1.637l-3.66,3.545l-4.026,0.811l0.208-4.43l-2.567-9.131l-4.634-1.292v-2.372l-2.672-3.694l1.666-6.007l-0.918-6.531
		l-5.361-1.127l-0.712-4.265l-3.731-2.643l0.903-1.893l-2.621-0.976l1.632-3.409l-1.249-1.052l-7.497,0.301l-10.08,11.158
		l-3.818,2.568l-3.002,0.224l-0.901-2.988l-7.688,0.211l-6.958,4.325l-3.782,0.661l-7.947,12.974l1.891,2.178l0.694,4.024
		l-1.023,0.375l-0.434,4.024l-2.273,2.072l-1.978-3.604l0.035-5.437l-4.546,4.205l-2.359-0.871l-5.24-18.757l1.493-1.336
		l-2.447,0.841l-0.417-0.78l3.505-1.456l-13.048-0.315l-0.017-1.817l-3.921-0.451l-0.955-1.382l-6.091-0.419l-9.907,7.478
		l-5.014,2.103l-1.128-6.188l-7.999-8.726l-3.192,0.392l1.301-9.761l-1.25-1.111l-10.896,6.396l-0.521,3.89l-1.978,2.899
		l-3.297,0.465l-3.037,4.625l-2.273,0.856l-2.169-0.766l-4.112,2.371l-12.406,1.367l4.529-6.457l-2.55,0.105l-1.597,2.373
		l-2.759,0.6l0.174-4.864l-1.44-2.178l-7.131-2.433l-3.505,1.516l-1.11,1.021l2.429,1.563l-1.648,6.398l2.863,5.225l-1.875,1.336
		l-4.442,0.572l-5.622,10.211l-2.36-0.526l-9.474-6.968l1.649-0.615l0.313-3.483l5.222-4.355l1.163-4.279l-0.694-2.719l-3.991-0.12
		l-1.405-1.291l-4.477-0.735l-3.158,1.937l-9.092-5.556l-1.613,2.447l-2.637-2.418l0,0l0.572-1.171l-4.407-4.671l1.475-3.304
		l-1.336-2.643l0.607-3.559l1.649-1.907l2.932,0.45l3.505-3.859l-0.139-1.847l-2.187-1.982l3.245-6.772l-4.146-3.108l-3.644-4.746
		l2.967-3.093l1.839-4.28l-0.174-4.414l-2.811-4.716l2.95-3.829l8.919-5.076l0.676-1.892l-0.139-4.505h-4.407l-1.7-3.438
		l0.572-1.622l-3.158,0.465l-3.159-1.262l0.643-6.622l-1.232-2.057l2.776-8.65l1.232-0.751l-2.707-3.514l4.199-4.459l-1.647-1.353
		l0.52-2.342l-0.573-2.344l-1.336-0.33l-0.104-2.508l-2.516-1.516l-2.759,0.18l-3.02-3.649l-7.634-0.3l-4.477-3.184l-0.156-2.974
		l-13.725,0.135l-0.85-6.592l2.1-6.081l0,0l0.052-1.083l3.765-1.605l1.492-2.388l5.605-3.979l1.163-1.906l-3.21-6.863l2.793-0.286
		l0.053-1.471l1.353-0.075l2.654-5.722l7.965,1.366l0.434-1.696l7.114,0.975l2.62-0.9l0.348-2.178l3.296,2.688l3.158-2.853
		l0.695,1.576l2.255-0.977l-0.174,2.748l2.533,0.092l-2.151,8.378l3.453,0.091l10.064,5.391l0.659,3.453l10.324-0.9l11.677,2.763
		l3.609-1.831h3.557l0.138-4.955l2.95-1.473l-1.492-6.938l3.158-1.487l16.467-1.847l1.544,6.713l8.017-1.307l0.763,3.393
		l18.167-2.508l11.677-10.06l0.191-18.682L677.693,664.392z M1070.842,701.979l-0.313-1.923l4.632,0.195l1.354,1.066l-0.901,2.718
		l-1.527-2.223L1070.842,701.979z"/>
	<path id="BY-HR" fill="#CCCCCC" stroke="#FFFFFF" stroke-width="0.5" d="M387.595,230.106l2.985,0.496l2.412,1.847l2.272,5.016
		l-0.606,1.922l3.209,1.637l0,0l-0.451,1.426l10.949,8.725l-2.222,1.187l-0.086,3.153l-1.874,1.321l1.7,5.571l-0.833,1.802
		l2.481-1.336l2.064,0.766l2.239-1.472l4.268-0.436l2.672,2.042l7.426,10.783l5.744,2.072l0.851,2.988l-1.562,5.391l3.47,5.662
		l0.746,4.685l2.273,1.111l0.884,1.952l2.377-1.908l2.29,0.436l0.625,1.247l4.754-1.006l-1.821,2.793l0.121,6.367l4.251,1.412
		l-0.538,1.922l-4.078-0.075l0.122,6.217l-6.368-2.252l1.822,1.771l-1.371,1.337l-0.156,2.673l2.082,0.781l-0.71,2.057l2.272-0.3
		l-0.399,3.739l1.7,1.893l-2.758,5.316l0.694,1.006l-2.204,0.916l3.331,1.622l-6.176,6.938l-4.511-0.166l-1.666,3.379l-2.031,0.136
		l0.868,3.439l-2.03-0.016l-4.667,9.281l0.486,3.529l-2.863,0.375l-1.337,1.381l-1.544-0.856l-0.659,1.427l-1.874,0.12l-2.36,4.925
		l-1.145-0.195l-2.846,4.009l0.729,1.742l-2.447,0.346l0.677,1.096l-2.81,3.124l-2.603-0.706l-2.187,1.036l-5.257-2.268
		l-1.336,0.932l-0.486-2.043l-2.62-2.042l-2.256,1.787l-2.221-1.501l-5.969,4.775l-4.65,2.163l-2.048,2.868l-3.886,0.225
		l-1.839-1.547l0.712-1.907l-1.146-0.51l-1.422,1.231l-0.642,3.529l-4.72,5.436l0.677,2.072l10.966,5.271l0.781-1.907l-3.487-2.748
		l1.77-1.457l2.342,0.811l3.106-1.757l2.568,0.045L380.62,394l-2.446,1.021l-0.764,5.016l2.135,1.861l-1.006,1.036l1.995,3.409
		l-0.573,2.628l2.585,2.463l0.452,2.958l4.338,1.397l4.581-2.868l1.301,0.496l2.775-2.357l6.507-1.622l0.955,8.83l-2.759,6.442
		l5.744-1.141l6.003-4.145l4.841,9.686l-3.713,4.1l-3.522,1.126l-3.002-0.45l3.401,5.345l-7.201,2.223l-3.886,3.528l-1.788-1.907
		l-1.666,2.193l-4.806,0.285l3.332,6.697l-3.766,0.406l1.128,2.313l-1.371,0.405l2.135,1.833l2.533-1.337l2.117,2.192l-2.62,1.877
		l2.255,2.883l-1.631,1.412l5.76,8.455l0.434,2.567l7.618,1.907l-1.388,5.181l3.175-0.015l2.256,1.742l-0.226,2.238l5.275,4.009
		l1.439,4.219l4.928,3.86l-0.867,0.915l7.704,3.29l-0.174,5.046l-6.038,3.918l2.238,1.487l1.093-2.027l1.336-0.016l0.868,2.208
		l1.892-0.496l0.502,12.733l3.054,6.187l-7.253,1.247l-1.249,1.472l-6.889-0.781l-4.338,2.146l-1.492-1.05l-3.488,3.603l-2.308-0.57
		l-1.371,0.962l0,0l-0.555,0.855l-1.006-1.216l-2.845,0.915l-1.7,1.728l-2.238-3.574l-17.646-0.06l-3.384-1.532l-4.321,2.343
		l-1.041-0.616l-0.069-2.794l-2.967,3.484l-2.412,0.33l-2.898-0.931l0.764-1.276l-1.44-0.736h-4.841l-0.017-1.952l-3.575,0.031
		l-2.95-1.352l-2.429,0.736l0.573-2.117l-4.876,0.404l-2.013,2.989l-4.667-1.411l-3.557,2.072l-4.667-0.647l-0.989-1.742
		l-2.863-0.72l-3.783,0.345l-0.884,2.673l-1.822-0.405l-0.937,3.003l-1.857-0.315l0.902,5.075l-1.197,1.321l0.538,3.333
		l-2.222,0.406l-0.919,3.394l1.076,0.9l-2.551,1.518l-2.742-0.767l1.753,3.048l-1.336,0.421l-1.545,5.406l2.273,3.949l-2.429,0.016
		l-0.26,3.844l-2.932,2.252l1.474,2.327l3.47,1.773l-0.641,5.42h1.631l-1.978,5.075l-2.793,0.631l0.19,1.862l3.939,3.184
		l-2.621,2.688l-0.502,1.547l1.042,0.84l-6.42,1.217l-2.95,3.979l-9.04,3.77l-1.422,3.619l-1.856,0.722l0.416,6.006l-7.618,1.351
		l-0.225-0.96l-6.976-0.09l1.423,3.979l2.603,2.207l-4.285,3.305l0.884,3.889l4.391-0.39l0.867,1.982l-3.8,4.099l-4.789-1.576
		l-1.666-7.073l-6.871,2.522l-1.891,3.636l0.902,0.734l-1.389,1.187l-2.55-1.576l-1.579,0.586l-1.042-3.108l-2.707-0.075
		l0.295,1.081l-3.869,1.471l0.278,1.353l-3.314-1.983l-1.336,3.154l-1.787,0.315l-1.232-1.862l1.562-2.026l-1.631-1.639l1.701-2.777
		l-1.232-1.246l1.544-3.499l-0.26-3.033l-2.169-0.646l-3.02,6.653l-1.631,0.585l-5.154-4.85l2.1-2.163l-3.679-5.856l-1.145,0.601
		l-1.093-1.231l-2.013,0.017l-2.638,2.643l-6.281-0.571l-1.163,1.156l-1.839-0.57l0.712-1.967l-1.042-0.406l-3.54,3.394
		l-2.325-2.177l-4.338,1.666l-3.991-1.502l0.85-6.486l-2.638-0.256l-0.763,2.117l-3.939,0.827l-0.33,2.041l-7.114,4.265
		l-0.538,2.253l2.517,0.646l-0.452,1.17l2.915,1.473l-5.101,1.396l-4.546,6.157l2.534,2.268l-1.614,1.231l3.002-0.586l-1.041,4.175
		l-1.059,0.029l-2.706,6.112l1.838,3.333l-0.121,3.905l-1.371-1.412l-5.431,2.582l-15.512,0.286l0.035-3.619l-1.943-0.421
		l-6.958,3.484l-6.68-3.049l-2.134,2.089l1.11-2.659l-1.613-0.766l-3.106,1.771l-0.018,2.929l-1.214,0.722l-1.44-3.65l-0.208,1.397
		l-2.429-1.202l-2.707,0.526l-1.875-1.367l0.417-4.534l-5.119-2.403l-3.956,1.111l-0.191,2.147l-9.89-0.405l-0.399,1.786
		l-9.977-0.015l0,0v-5.631l-1.822-3.184l-1.075-19.687l3.817-3.845l-1.96-3.198l-0.729-8.86l-3.505-4.535l0.381-1.742l-2.012-0.525
		l-1.666-3.514l5.812-14.057l-1.873-3.304l-4.911-3.604l-1.111-6.772l-4.79-2.402l-20.249-51.237l-9.525-34.103l-0.451-7.343
		l-4.269-4.94l0.434-15.243l-3.626-2.178l-1.596-9.19l0.468-8.439h1.648l1.007,2.208l5.743,0.195l3.679,3.124l4.945-1.637
		l7.131,0.136l0.972-0.977l7.235,2.974l1.96,2.342l-0.868,2.013l1.927,0.225l3.539-2.027l-2.429-3.363l0.295-1.397l5.761-3.74
		l4.442,2.463l2.012-0.42l2.481-4.581l6.16,3.124l0.833,4.551l2.534,0.27l14.124-2.403l1.7-3.363l3.609,0.586l1.822-1.712
		l5.813-1.292l1.631,2.283l-0.451,1.516l2.758,0.946l2.603-1.486l0.868,2.192l6.958,6.682l2.169,0.496l1.995-2.042l1.371,2.103
		l8.05-1.066l-0.434,0.886l1.232,0.602l-0.226-1.638l1.111,0.045l0.069,1.171l2.828-1.217l2.326-3.949l5.812-5.631l6.524-4.895
		l3.939-1.247l2.637-3.349l3.522,0.795l3.662-2.552l3.019,0.675l-1.58,9.957l6.282-0.646l-0.347-1.441l4.407-3.574l3.193-0.991
		l2.672,0.675l1.422-0.751l0.121-1.862l1.77,0.3l-0.52-3.889l3.921,0.075l0.625-1.382l-1.006-0.721l-2.759,0.871l-2.62-2.147
		l-0.295-4.88l-6.143-7.718l0.33-1.036l2.429,0.495l4.789-3.229l-1.596-2.643l6.714-0.21l11.331-4.7l2.724,1.321l-0.503,1.111
		l2.326,3.048l2.915,1.292l4.303-0.645l3.054,0.93l5.586-6.532l10.949-9.686l-0.173-3.184l2.551-4.19l1.475-0.781l2.359,2.163
		l2.118-4.04l4.494,2.192l0.607-1.141l1.787,1.141l1.735-1.006l2.291,0.556l1.232-1.502l5.934-1.967l1.701-2.988l4.147,0.135
		l-0.278,1.292l1.909,0.015l1.873-0.917l-0.208-1.247l2.03-0.059l0.399-1.638l2.1,0.781l0.33,4.34l5.674,1.952l-0.867,1.352
		l2.083,2.012l-0.417,1.667l2.621,3.694l-5.899-0.45l0.225,1.907l2.151,1.096l-0.052,3.258l-6.003,2.163l-0.556,1.967l3.071,3.604
		l2.465,1.592l1.648-0.721l4.72,1.923l3.07-0.466l-0.398,0.976l2.203,1.892l2.916-2.222h2.672l0.19-3.094l2.238-0.015l0.226-2.192
		l4.374,2.433l1.995-0.947l0.086-2.042l1.301,1.817l3.558,0.826l0.762-1.006l-2.671-0.932l-0.955-2.928l1.163-1.893l-0.798-1.801
		l-2.672-3.289l-0.937,0.209l6.195-3.723l-1.18,0.72l-2.516-1.411l-1.961-5.391l-3.678-1.006l-1.198,0.766l-1.302-1.171l0.972-3.74
		l-2.915-4.174l-3.089-0.301l-2.568,2.013l-1.683-1.172l-1.336,1.381l-3.644-1.021l-0.26-1.307l-4.65,1.487l-0.33-3.244
		l-1.909-0.286l0.208-1.727l2.447-0.24l1.006-4.07l3.557-2.103l-0.763-3.183l0.902-1.877l1.666,0.976l3.175-4.73l-1.336-4.971
		l1.058-1.547l-2.863-0.525l4.217-2.013l5.622-12.434l8.901-5.481l1.301-2.417l-0.954-8.2l-1.856-2.538l0.746-1.382l-1.631-7.838
		l1.162-0.706l-0.747-3.334l1.702-8.904l-1.702-10.167l2.031-4.25l3.174-0.391l0.764-6.036l2.689-1.186l1.614-3.034l4.685-3.575
		l0.851-5.871l2.429-0.121l1.076-1.367l2.55,0.887l2.915-0.947l2.239-2.252l4.598-1.832l2.013,1.817l8.38,1.276l-1.197-1.232
		l3.454-1.066l-0.364-2.793l3.938-0.436l1.458-3.154l2.1,0.661l2.967-1.652l3.002,0.586L387.595,230.106z M295.477,367.795
		l-1.821-0.39l1.11-1.397l2.516-0.09L295.477,367.795z"/>
	<path id="BY-MA" fill="#CCCCCC" stroke="#FFFFFF" stroke-width="0.5" d="M796.551,373.847l3.626-0.766l2.116,1.667l1.683-2.327
		l1.527,0.466l0.453-1.727l1.943,0.856l2.689-3.529l-0.364-2.598l2.517-0.556l0.729-3.468l5.586,0.39l-1.474-4.16l1.578-2.583
		l6.281-2.042l-0.051,2.192l5.465,1.757l3.609,3.348l2.689-1.396l7.357,0.721l5.708-1.202l3.297-2.613l3.713,2.148l2.272-2.718
		l-0.571-0.901l1.561-0.63l1.44,1.021l-2.186,2.673l3.435,3.034l-1.421,1.681l5.776,2.508l0.296-1.096l2.689,0.225l2.88-2.102
		l-2.013,5.451l4.702-0.015l1.544-0.707l-3.001-4.234l0.242-2.268l5.9,1.622l-0.019-1.742l3.367-0.976l-3.643-1.472l-1.596-2.718
		l4.216,0.225l2.447,2.884l3.209-4.625l-3.209-3.019l0.918-2.478l4.999-0.811l0.329,1.291l-1.58,1.532l-1.613-0.045l0.189,1.441
		l5.224-1.546l3.209,3.859l-0.173,3.214l2.88-0.166l1.838-3.574l-1.371-1.697l1.493-0.961l4.216,2.823l1.18-0.916l2.188,1.952
		l1.63-0.676l1.735-7.763l3.401,1.546l-1.995,3.784l0.971,2.553l-4.911,3.708l-2.291,6.097l9.37,2.118l4.009-5.542l5.465,0.42
		l-0.798-2.823l1.198-2.012l1.196,1.651l1.648,0.015l0.99,5.496l2.447,1.728l0.988,4.054l3.401-2.147l0.625,3.423l2.411-0.12
		l-1.146,1.352l3.332,0.66l-1.666-1.892l0.226-2.178l4.843-0.06l-4.704-1.426l5.623-3.935l-2.152-0.946l2.568-4.91l1.752-1.006
		l1.215,0.585l1.146-2.057l-1.857-2.463l-2.533-0.195l-1.006-1.337l2.464-1.351l2.708,0.36l4.477-2.418l1.249,0.736l4.875-1.487
		l-1.874-4.354l1.042-1.622l3.487-0.976l3.87,1.277l0.537,1.141l4.58-0.03l0.816,3.424l4.875-1.307l5.414,1.532l3.297-1.427
		l-0.296-3.258l1.909-0.811l-0.174-2.583l3.175-2.178l2.5,4.34l3.278-0.406l1.354,1.546l3.367-0.496l2.238,4.911l4.476-4.145
		l0.886-2.433l3.974-0.556l0.919-1.516l4.91-1.922l-2.013-3.304l3.142-0.421l1.891,1.742l4.285-1.036l0,0l3.784,0.811l0.503,5.781
		l1.457,0.675l0.537,3.319l2.291,2.403l-2.255,4.354l6.193,2.358l2.725,5.166l-4.58,3.739l4.407,1.322l-1.337,5.991l0.712,6.607
		l2.619-0.36l3.142,1.802l2.272-2.207l0.938,4.835l3.383-0.36l-0.416,1.787l-2.533-0.63l-1.007,1.682l7.079,0.615l5.275,5.211
		l2.464-0.271l0.745,1.126l-1.318,2.733l4.6,1.802l3.191-0.03l1.249,2.718l8.086,0.721l3.575-1.652l-0.399,1.292l3.054,3.048
		l0.104,2.793l6.212-1.877l1.163,1.893l1.665-1.337l3.66-0.45l-0.954,4.895l-1.683,1.742l4.285,0.241l4.563-3.229l1.979,2.192
		l2.151-1.352l1.283,1.877l1.665-1.336l2.413,0.75l-1.962,2.539l1.668,3.078l-0.608,3.154l-4.372,5.661l1.388,2.132l2.863,0.721
		l0.19,4.716l-4.736,2.837l0.364,3.379l-1.181,0.361l-2.256,5.886l0.295,3.003l-4.06,1.291l1.562,1.187l0.885-0.51l0.104,1.381
		l-1.127,1.606l-2.533,0.255l-1.181,2.358l1.648,0.556l-0.417,1.081l-4.216,0.375l1.927,2.103l-1.301,4.91l1.023,0.646l0.971-2.418
		l1.25,0.871l0.434-1.172l1.753-0.12l0.589,1.247l1.544-0.315l9.735,5l0.953-2.026l2.742-0.616l2.967,1.021l4.841-3.694l7.461,1.006
		l-0.484-1.351l5.014,0.51l2.013-2.072l3.574-0.782l2.777,3.244l3.105,0.27l0.571,1.307l1.129-1.155h2.914l2.378,5.946l3.661,0.241
		l0.798-1.337l2.984-0.6l0.4,1.126l-1.961,1.846l6.454-0.226l2.775,2.344l1.251,5.03l1.717,0.917l3.366-2.342l4.096,0.225
		l4.181-1.803l0.347,3.109l3.646,1.352l0.971,1.545l0.277,3.771l-5.881,3.362l-3.367-0.419l-1.839,1.17l-0.088,1.908l0.625,3.453
		l1.544,0.736l-0.086-3.725l2.43,2.599l-2.689,5.872l4.111,5.795l2.69,1.321l-0.851,3.35l4.824,0.72l5.152,3.244l-1.37,2.028
		l7.911,0.854l0.295,6.442l2.897,0.526l2.447-5.421l0.937,1.771l4.269,2.148l-3.4,0.795l-0.451,1.862l10.358,1.771l1.457-1.156
		l2.552,0.375l-2.552,3.138l1.874,4.431l-2.845,0.286l-0.104,2.236l1.283,1.848l2.151-0.361l1.076,2.086l-2.152-1.186l-2.48,0.315
		l0.434,1.742l-2.308,2.178l3.367,7.028l-6.265,1.007l-2.203-1.818l-2.552,1.458l-1.857,3.379l-4.475-4.731l0.346,4.536
		l-2.551,0.104l-1.924,4.31l-4.93-2.026l-2.533,1.562l-0.329-2.539l-4.615,0.722l0.242,1.081l3.211,0.886l-0.175,1.652
		l-8.362,13.875l-1.979,0.51l-2.62,3.575l-3.418-0.63l-3.575,0.915l-2.377,2.252l0.521,2.464l-1.459,2.612l-3.799,3.094l-7.565,0.12
		l-1.405,2.417l0.59,2.868l-6.507-1.591l-1.805,3.619l-9.821,2.116l-9.785-2.448l-0.226-1.682l-2.897,1.277l-0.539,1.427
		l-7.201,0.359l-2.603-0.946l0.938-3.093l-1.476-0.751l-3.245-1.141l-1.943,1.396l-4.875-0.662l-4.183-5.511l-1.179-6.637
		l-2.291-0.676l-3.209-3.184l-1.892,0.796l-13.084-6.577l-6.229,6.697l-4.736,0.421l-0.833-1.547l-3.487-0.075l-0.868-0.96
		l-12.771-1.412l1.753,6.652l-2.516,1.187l-0.226,2.763l-4.112,2.553l0.242,2.659l1.632,0.044l2.586,2.989l-1.129,2.343
		l-3.557,0.299l0,0h-2.603l-1.771-3.394l-9.855-0.18l-0.034-1.321l-0.729,0.917l-1.908-0.856l-0.954,1.081l-2.205-5.225
		l-11.173,0.871l-1.891-3.018l2.792-2.313l-0.259-3.003l-2.36-0.572l-1.06-3.018l-4.285,0.736l-0.191-4.355l-3.349-1.817
		l1.111-3.468l-1.042-1.172l-1.543,0.796l-1.892-1.711l-2.482,1.531l-2.013-2.748l3.592-2.973l1.563-2.943l-0.625-1.052
		l-11.815,0.826l-0.73-1.367l-5.223,0.917l-2.653,0.766l0.554,2.072l-2.308,1.757l-8.901-1.081l-1.145,1.352l-4.408,0.345
		l0.089,2.643l-5.294,0.541l-3.331-2.763l1.821-3.229l-12.127-2.042l1.109-2.134l-2.394-1.11l2.516-4.01l-2.135-1.022l-0.537,3.169
		l-2.828,3.74l-4.633-0.406l-1.615,3.86l-3.123-0.45l0.348,1.531l-1.857,2.012l-5.917-1.591l-3.921,2.688l-0.364,3.018l-5.882-0.796
		l-2.238,1.954l-6.159,1.126l-0.158-1.877l-3.538,3.993l-2.569-0.63l-2.464,1.277l-0.973-0.856l-3.226,1.501l-1.91-1.396
		l-3.679-10.348l-3.243-1.771l0.278-1.501l-1.667-1.788l-15.998-3.259l0.208,2.014l-1.996,2.987l-6.038-0.766l0.676-2.252
		l1.805-0.766l-0.52-1.562l-2.481-1.593l-1.666,0.736l1.162,1.337l-3.714,1.351l-1.405-5.887l-5.951,2.539l-6.317,5.511l0.105,7.643
		l2.498,2.597l0.451,2.014l-1.283,0.315l3.66,8.544l-6.159,1.922l3.626,1.577l-1.855,1.217l0.451,1.801l1.44-0.27l-2.689,2.252
		l0.451,2.012l2.169,0.39l-7.063,3.2l-1.875-1.217l-3.609,0.826l-1.474-2.912l-1.232,0.089l-0.053,1.622l-1.821-0.3l-0.434,1.352
		l1.718,3.663l-3.297,1.938l2.845,5l3.817-1.17l1.493,2.823l-5.327,5.812l1.718,0.812l0.954,3.362l1.683,1.202l6.993,2.628
		l-2.62,2.552l1.146,2.104l-7.096,1.966l-1.076-1.726l-1.042-0.526l-0.276,1.082l-2.725-2.058l-3.748-0.406l-4.251,1.126
		l-0.885-0.931l-4.599,0.36l-1.301-0.871l-5.534,5.241l-6.108,2.373l-1.405-1.607l-2.255,0.015l0.208-2.371l-2.273-0.257
		l-1.093,2.253l-0.156-1.216l-3.176-1.006l-9.439-0.826l-2.03-2.688l-4.841-0.241l-3.279-1.728l-2.603,1.247l-7.565,10.377
		l1.666,6.502l-2.949,1.336l-0.572-0.795l-16.415,1.906l0.711,4.536l-10.185,12.313l-2.847-0.436l-2.811,2.96l-6.038-1.697
		l-1.111,4.896l1.717,0.06l0.434,1.923l2.43-0.572l0.173,3.08l-6.749,0.044l0.052,1.502l-4.025,3.92l-4.563-2.027l-3.228,2.102
		l-6.055-1.997l-3.419,1.772l-2.62-0.331l-1.371,1.607l-5.275-1.097l-3.366,1.067l-1.146-1.653l-3.644,3.049l-1.77-1.065l0,0
		l0.677-0.496l-2.742-3.138l-4.771-2.869l-6.298-1.501l0.139-3.139l0.589-2.794l6.524-3.844l3.366-7.028l-2.742-5.285l-1.544-0.541
		l0.208-2.118l6.021-1.381l-0.486-1.351l2.342-2.613l-1.51-4.611l-1.145-0.255l-3.506-6.487l1.788-3.844l1.18-0.886l1.788,1.096
		l3.02-2.928l3.712,2.327l2.985,0.225l2.62-4.459l-3.869-3.844l-0.243-4.731l-1.301-1.096l1.822-3.26l-2.03-5.766l2.03-1.892
		l-1.944-0.811l-1.492-3.468l-1.996,0.826l2.186-3.154l-2.55-3.078l-10.341,2.448l-2.273-0.405l-0.104-1.201l1.562-0.195
		l-3.783-1.532l0.798,2.733l-4.251,1.141l-0.851-2.147l0.851-1.247l-4.511,1.081l3.001-1.531l1.631-3.891l-0.503-1.441l-4.546-1.531
		l-3.227,4.52l-2.55-2.913l-2.395,0.209l-0.606,2.147l-1.649-0.27l-0.851-2.087l-4.476,1.651l-0.833-3.649l-2.221,0.45l-6.802-3.453
		l0.712-2.809l-2.933-1.757l-1.232-5.015l3.731,1.126l3.852-2.148l1.023,1.487l6.091,1.832l12.441,0.962l4.303-0.226l-0.017-2.898
		l11.087-0.301l2.343-0.977l-0.121-7.552l-4.008-4.146l-5.726-1.937l-0.434-2.056l1.232-4.25l2.585,0.436l0.122-1.547l2.81-1.381
		l0.053-9.775l-4.13-3.29l-4.702-1.307l1.822,0.015l0.677-1.877l2.238-0.39l3.886,1.997l1.649-2.688l2.116,0.33l4.806-5.331
		l1.007,1.292l1.544-1.052v-2.868l1.353,0.466l1.979,3.814l1.336-1.968l5.327-0.39l0.243-2.028l-2.204,0.496l-1.475-1.877
		l0.989,2.705l-7.305-1.607l4.736-3.785l7.045,0.301l0.469-4.129l4.494,0.166l-1.301-1.788l1.232-4.64l11.521,6.142l8.589,0.301
		l-0.503-3.244l5.275-1.637l2.064,4.459l5.136,0.452l4.582,5.225l0.19,2.793l6.108,0.886l0.086,1.517l1.249,0.33l-2.116-8.424
		l2.653-0.526l-2.879-0.9l-0.158-1.412l6.092-2.537l0.711,1.531l9.456,0.827l1.545-2.389l-2.222-1.591l0.331-3.845l-1.493-1.006
		l1.023-2.101l2.898,1.261l1.51-2.012l-0.954-4.31l0.781-3.708l3.087,0.27l0.244,2.448l3.106-0.992l3.106,4.536l2.584-0.556
		l1.285-2.313l4.946-0.946l1.249-2.568l5.812-1.458l1.788-2.583l-0.33-4.205l1.181-2.673l2.672-0.015l3.262,4.325l3.106-0.72
		l-0.52-5.333l1.716,0.271l2.5-1.682l-5.188-1.441l1.093-3.198l10.758,0.705l2.047-1.006l0.522-2.883l-3.731-0.63l-1.023-1.817
		l-3.991,0.674l-1.215-3.769l-6.143,1.412l-1.579-0.962l3.662-1.365l4.667-5.167l-4.494,2.267l-2.395-1.517l0.104-1.021l2.899-0.331
		l1.213-1.682l-3.521-1.247l3.349-6.051l-3.209-1.682l0.312-5.15l-3.384-2.373l2.411-2.403l-0.711-2.824l-4.199-3.588l1.753-2.598
		l6.715-3.184l4.563,0.06l-1.493-1.862l2.897-21.699l-1.821-1.667l3.123-2.342l0.694-2.688l-1.215-0.496l1.908-0.991l-2.255-0.63
		l0.451-1.261l-1.613,0.165l-0.122-1.907h-4.129L796.551,373.847z"/>
	<path id="BY-VI" fill="#CCCCCC" stroke="#FFFFFF" stroke-width="0.5" d="M636.362,0.14l0.954,0.076l0.434,5.48l5.153,1.051
		l5.883,4.986l0.086,5.195l2.689,0.541l1.822-1.592l1.128,3.605l3.418,2.657l3.626-0.811l4.563,0.676l1.215-4.084l-1.822-3.169
		l0.417-2.177l1.267-0.405l4.858,2.417l-0.521,1.907l5.917-3.529l7.86,0.105l0.313-1.201L688,11.237l8.711,3.154l2.932-1.156
		l4.963,0.541l0.086,1.606l-2.238,2.388l-2.116-0.556l-0.955,2.268l2.586,3.032l0.139,2.509l5.292,3.889l0.591,5.631l4.302,5.872
		l0.764-0.796l2.221,0.796l5.465-0.871l5.24,3.454l1.77-6.397l7.063-1.126l1.474-1.186l2.394,1.096l-0.017-3.334l7.86-0.315
		l1.093-2.763l9.388-1.532l3.157,3.574l2.864-2.373l2.933,0.315l7.875,7.659l4.894-1.712l3.782,1.412l2.447-0.601l6.576,4.084
		l4.217-0.616l4.216,1.156l3.679,2.568l-2.967,1.247l-0.451,1.592l4.372,1.066l2.55,3.484l-3.974,1.908l-2.325-0.091l-0.259,1.217
		l-4.218,0.495l3.957,5.527l-2.638,0.015l-1.873,2.943l0.312,6.773l-3.557,4.22l0.851,4.445l-1.632,2.718l0.625,1.712l4.806,0.751
		l6.698,4.159l0.815,2.659l3.14,2.162l4.321,0.646l7.877-6.097l1.076-4.85l4.165-4.009l2.064,0.766l5.033-3.109l4.805,0.15
		l4.702-2.283l2.118,2.448l-0.261,1.772l1.752,0.735l3.089-0.705l4.945-4.76l-0.19-2.553l1.318,0.51l3.487-4.955l-1.266-1.922
		l3.504-2.328l6.818,2.043l3.106-1.157l0.036-2.312l3.14-0.196l6.559,2.433l2.291,2.733l1.51-0.646l3.626,3.108l3.47-0.06
		l1.318-3.588l3.176-0.076l0.156-3.108l-1.163-1.577l0.868-0.916l1.7,3.258l3.506-0.946l2.567,0.616l1.874-1.232l4.338,1.457
		l0.417-1.082l1.179,7.299l6.507-0.676l3.628,4.686l4.216-1.096l1.423,1.622l9.646-0.992l0.59,1.877l3.419,2.118l-2.847,2.192
		l4.304,6.231l6.819,0.195l6.178,4.295l2.637,5.481l-1.474,2.432l0.346,2.583l3.834,0.285l-1.873,2.793l2.203,0.136l-0.381,4.114
		l2.011,0.18l1.284-4.16l4.338-0.63l3.559,10.797l-0.747,1.201l1.701,1.697l5.656-0.03l-0.069-1.877l2.464-0.196l0.729-2.943
		l2.342-0.826l-1.804-1.877l3.609-0.36l5.707,3.604l2.5-1.967l0.469,7.013l2.584,8.739l-5.1,1.923l-0.313,1.321l2.257,1.276
		l-0.228,1.442l2.083-0.15l1.891,2.853l-5.101,3.814l-2.983,0.391l1.855,3.273l-0.938,3.289l3.939,8.71l-1.734,4.324l-2.812,0.526
		l-3.695,4.82l-3.471,1.592l-2.204,2.703l-1.023,1.833l0.347,7.343l8,1.742l0.034,2.643l2.897,1.051l2.082,9.446l4.806,1.817
		l1.39,4.28l2.081,0.33l-1.613,4.596l3.054,0.525l-1.058,4.145l1.023,1.757l-1.805,4.039l1.925,4.535l0.122,7.268l-1.371,1.007
		l-0.849-1.142l-5.64-1.307l-3.748,3.378l4.667,3.334l2.586,4.37l-3.505,0.946l0.243,3.168l-4.478,0.075l0.018,2.208l-6.09-0.375
		l-4.58,1.967l-0.089,2.613l1.042,0.195l0.868,3.379l-2.639,2.989l1.06,2.178l-3.159,0.661l-6.003,13.455l11.573,4.054l5.431,5.121
		l3.437,0.616l5.447,3.634l2.95,4.52l2.639-1.802l0.067,5.151l-1.438,1.862l0.676,2.853l4.391-0.525l8.467,2.552l2.984-2.208
		l2.152,1.501l6.454-0.525l2.169,2.973l1.023,4.851l-4.789,7.073l-3.626,2.223l-1.457,2.778l0.295,3.709l-4.946,2.192l0.608,2.613
		l-1.735,1.967l2.411,2.838l3.731,0.465l3.557,2.929l2.013,0.436l2.968-1.201l0.328,1.862l0,0l-4.285,1.036l-1.891-1.742
		l-3.142,0.421l2.013,3.304l-4.91,1.922l-0.919,1.516l-3.974,0.556l-0.886,2.433l-4.476,4.145l-2.238-4.911l-3.367,0.496
		l-1.354-1.546l-3.278,0.406l-2.5-4.34l-3.175,2.178l0.174,2.583l-1.909,0.811l0.296,3.258l-3.297,1.427l-5.414-1.532l-4.875,1.307
		l-0.816-3.424l-4.58,0.03l-0.537-1.141l-3.87-1.277l-3.487,0.976l-1.042,1.622l1.874,4.354l-4.875,1.487l-1.249-0.736l-4.477,2.418
		l-2.708-0.36l-2.464,1.351l1.006,1.337l2.533,0.195l1.857,2.463l-1.146,2.057l-1.215-0.585l-1.752,1.006l-2.568,4.91l2.152,0.946
		l-5.623,3.935l4.704,1.426l-4.843,0.06l-0.226,2.178l1.666,1.892l-3.332-0.66l1.146-1.352l-2.411,0.12l-0.625-3.423l-3.401,2.147
		l-0.988-4.054l-2.447-1.728l-0.99-5.496l-1.648-0.015l-1.196-1.651l-1.198,2.012l0.798,2.823l-5.465-0.42l-4.009,5.542l-9.37-2.118
		l2.291-6.097l4.911-3.708l-0.971-2.553l1.995-3.784l-3.401-1.546l-1.735,7.763l-1.63,0.676l-2.188-1.952l-1.18,0.916l-4.216-2.823
		l-1.493,0.961l1.371,1.697l-1.838,3.574l-2.88,0.166l0.173-3.214l-3.209-3.859l-5.224,1.546l-0.189-1.441l1.613,0.045l1.58-1.532
		l-0.329-1.291l-4.999,0.811l-0.918,2.478l3.209,3.019l-3.209,4.625l-2.447-2.884l-4.216-0.225l1.596,2.718l3.643,1.472
		l-3.367,0.976l0.019,1.742l-5.9-1.622l-0.242,2.268l3.001,4.234l-1.544,0.707l-4.702,0.015l2.013-5.451l-2.88,2.102l-2.689-0.225
		l-0.296,1.096l-5.776-2.508l1.421-1.681l-3.435-3.034l2.186-2.673l-1.44-1.021l-1.561,0.63l0.571,0.901l-2.272,2.718l-3.713-2.148
		l-3.297,2.613l-5.708,1.202l-7.357-0.721l-2.689,1.396l-3.609-3.348l-5.465-1.757l0.051-2.192l-6.281,2.042l-1.578,2.583
		l1.474,4.16l-5.586-0.39l-0.729,3.468l-2.517,0.556l0.364,2.598l-2.689,3.529l-1.943-0.856l-0.453,1.727l-1.527-0.466l-1.683,2.327
		l-2.116-1.667l-3.626,0.766l0,0l-3.991,1.802l-3.853-2.087l2.708-3.244l-1.023-1.487l0.641-1.576l1.476,2.162l2.15-2.237
		l0.053-5.061l2.048-2.027l2.169-0.315l-4.616-1.066l-2.569-3.979l1.163-2.373l-2.742-0.406l-0.415-2.553l7.078,0.121l1.32-0.406
		l1.215-2.732l2.758,0.661l0.624-0.796l-3.14-3.588l0.312-4.235l1.96-0.436l-2.637-3.468l0.364-1.758l-1.268,0.391l-1.144-1.247
		l6.28-7.073l0.174-2.043l-1.493-1.576l2.95-5.602l-0.451-4.55l4.024-2.854l-3.435-5.991l-4.911,1.036l0.295,2.358l-1.927,0.525
		l-1.074,3.259l-4.582-0.84l2.118-2.749l-4.668,4.911l-1.042-1.922l-2.098-0.255l-3.558,3.168l-3.609-0.781l-1.838,0.946
		l-0.712-1.367l-3.07-0.15l-0.573-5.376l-1.423-1.066l2.5-2.132l-2.95-1.247l1.11-1.982l-5.275,0.51l-1.561,1.517l-4.999-0.556
		l-2.428-1.637l-8.918,4.4l-0.886,1.262l0.695,3.439l-2.013,1.832l-2.116-0.616l-0.383-1.591l-1.352,0.375l-4.234-2.343l-4.841-0.18
		l-1.423-1.682l-4.632,1.517l1.995,2.072l0.07,2.207l-0.521,1.501l-2.603,0.961l-6.247,0.601l-1.839-0.51l-0.086-1.622l-4.963-1.051
		l0.764,0.931l-6.368,1.411l-4.408-0.93l0.348-1.472l-1.77-1.817l1.666-1.651l-0.017-2.808l-6.056-9.025l-3.106,0.525l-1.042-1.922
		l-1.909-0.241l-1.197,2.132l-15.147-0.135l-1.336,10.031l-2.064,5.827l-3.088,4.64l-2.603,0.03l-6.073-7.569l-3.193-1.006
		l-1.006-3.814l-2.551,1.217l-1.093-3.364l-1.023,0.706l1.197,1.472l-0.556,1.967l-1.735-2.357l0.417-3.875l-5.049-2.928
		l-1.648-2.297l-2.465-0.496l-7.53,3.124l0.399-1.382l-1.683,2.087l1.371,2.764l-4.009,1.006l-1.613,2.283l-0.902-1.637
		l-1.944-0.075l-6.871,3.318l-0.798,4.625l-3.591,1.216l-3.488-5.135l-5.57,0.63l-4.32-2.178l1.404-2.943l-2.619-1.757l-4.668,4.535
		l-1.267,0.18l-0.434-1.216l-4.616,2.463l-2.533-0.09l-1.006-3.469l-2.915-1.682l1.232-3.784l-5.31-4.069l-0.087-12.869
		l-5.673-2.283l-2.759-2.373l-2.29,0.901l-10.359-0.451l2.517-7.958l-3.54-1.187l-3.991,1.622l-0.694-6.097l-3.956-1.636
		l-0.781-1.908l-2.585,0.241l-0.902-1.261l-2.637,1.532l-6.576-3.499l-2.898-5.136l-3.453-0.826l1.458-6.802l-3.818-1.231
		l-0.26-2.313l-0.955-0.465l-0.798,0.99l-1.267-1.636l0.521-2.778l1.249-0.676l-1.909-3.049l-6.489,1.111l-1.146-2.583l-2.377,1.667
		l-1.543-1.833l-2.655,3.334l-1.336-3.049l-5.066,1.547l-2.846-1.021l-2.828,1.126l0.92,1.217l2.395-0.331l-0.607,2.163
		l-7.583,0.045l-1.787,1.787l-4.338,0.825l-0.885-4.144l-4.997-3.198l-2.759-3.484l-2.064,1.232l-1.44-0.602l-3.384,4.266
		l-1.596-1.547l0.174-1.832l-2.672-0.225l-1.979,1.215l-0.416,2.163l1.752,2.342l1.822,0.045l0.19,2.643l-1.197,0.901l-2.152-1.712
		l-1.752,1.833l-3.175-1.321l-2.533,0.781l-0.035,2.267l-2.863,0.181l-1.909-0.616l-1.544-3.303l-1.96,0.646l-3.696-2.763
		l-2.256,2.058l-4.581-0.781l-0.59,0.781l2.916,2.508l-5.76,4.686l-7.67-4.266l-2.515,2.027l-4.529-2.883l-2.585,0.886l-1.076-2.237
		l-2.949-1.501l-7.288-1.682l-1.701,2.417l1.371,0.931l1.145-0.586l-0.243,2.118l-1.891,1.006l-2.569-1.742l-3.852,5.722l0,0
		l-3.192-1.637l0.606-1.922l-2.272-5.016l-2.412-1.847l-2.985-0.511l0,0l0.763-3.258l3.558-5.181l0.625-5.09l2.654-0.406
		l-0.33-1.066l1.163-0.436l-5.032-6.126l4.286-2.478l4.858-0.751l1.232-0.856l-1.197-0.871l3.262-0.39l-0.346-1.802l4.164-0.946
		l4.528,1.441l0.816,1.757l1.96-1.412l6.125,2.178l2.03-1.487l0.26-2.132l4.598-2.297l3.349,3.199l5.431-1.983l4.79,1.247
		l4.129-2.703l2.724,0.736l0.538-2.223l2.048,0.676l1.145-1.367l-2.082-0.976l-1.406-4.054l2.255-1.352l1.336,0.991l3.21-2.973
		l0.174-5.556l1.805-1.832l4.164-1.082l2.689-2.718l4.338-1.322l-0.399-5.135l-5.032-2.749l-9.04-0.21l-6.958-3.363l-0.695,1.877
		l-1.787-0.946l-1.718,2.508l-0.502-2.523l-1.857,0.586l0.486,1.126l-1.423,1.321l-2.689-0.135l-0.261-1.231l-2.671,1.336
		l-2.377-2.027l-11.677-2.343l-1.302-1.246l3.487-1.517l0.695-2.643l3.332-0.061l3.73-3.574l2.933-0.06l-0.712-3.574l1.354-0.991
		l-2.256-5.737l2.117,0.226l-1.821-2.252l2.984-3.785l-1.353-2.072l-1.7-0.3l-2.013-4.806l2.186-3.634l4.91-1.967l3.818-5.436
		l1.197,0.436l2.932-2.102l-0.121-5.616l-1.146-1.501l2.238-3.274l-0.868-5.286l-1.804-0.225l-0.035-4.82l2.742-3.77l-0.607-0.901
		l9.093,0.66l3.401,3.74l5.032,0.901l2.204-3.89l9.092-3.289l0.711-4.1l2.916-3.124l3.071-7.628l3.071,0.285l3.314-4.88l5.223-3.169
		l2.342,1.066l1.908-1.275l6.299,0.63l1.093-3.394l2.585-1.157l2.238,0.601l1.389-1.096l2.307,2.988l4.182,1.006l5.102,5.195
		l0.59,2.027l4.199,1.817l8.484-2.733l2.274-2.943l8.467,3.964l14.749,1.923l8.867-0.631l3.071-11.863l-1.961-8.68l3.679-4.145
		v-3.079l10.775-8.575l4.302-0.36l3.575-1.622l1.908-3.423l-1.717-1.877l1.439-0.105l2.568-2.748l-2.88-2.552l5.778-1.322
		l2.359-2.027l3.696,1.306l4.043-5.3l2.134-6.232l2.221-1.036l0.937-2.103l2.55-1.111l6.003,1.592l0.348-1.817l3.053-2.283
		l2.985,0.646l0.434-2.748l5.102-4.791L636.362,0.14z"/>
	<path id="BY-HM" fill="#CCCCCC" stroke="#FFFFFF" stroke-width="0.5" d="M566.349,459.743l-1.284-0.301l-1.822-3.679l0,0
		l1.215-1.531l1.336,0.375l0,0L566.349,459.743z M605.911,446.002l-1.25-0.105l-0.086-2.628l2.186,1.111L605.911,446.002z
		 M623.766,441.663l2.793,3.003l-2.395,1.562l0,0l-4.407-4.49L623.766,441.663z M565.377,426.991l4.268,2.013l2.707-1.052
		l-0.607,1.952l2.447,1.321l2.932-0.48l1.926-1.741l4.026,0.555l0.919-1.261l1.649,0.391l-1.319,5.481l-7.166,3.138l2.377,6.998
		l-1.735,4.04l5.622,3.559l0.832-5.061l7.67,0.315l2.55,2.373l-3.834,2.537l-0.174,2.539l-3.47,0.631l-4.649-2.854l-1.735,2.058
		l0.555,2.298l-4.199,1.742l-0.919-0.871l1.093-1.576l-2.1-1.261l2.1-1.263l-1.093-1.981l-2.741,1.742l-3.662,0.39l-17.628-1.501
		l-1.544,0.946l-0.815-1.577l-3.835-1.111l-1.457-3.875l-3.019,0.946l0.086,1.112l-3.384-1.817l3.297-2.688h1.735v-7.434
		l2.463-4.354l3.748-3.243l4.112-1.262l0,0L565.377,426.991z"/>
	<path id="BY-MI" fill="#CCCCCC" stroke="#FFFFFF" stroke-width="0.5" d="M397.85,241.039l3.852-5.722l2.569,1.742l1.891-1.006
		l0.243-2.118l-1.145,0.602l-1.371-0.947l1.717-2.403l7.271,1.682l2.967,1.501l1.076,2.238l2.567-0.886l4.529,2.898l2.515-2.027
		l7.67,4.265l5.777-4.686l-2.914-2.507l0.589-0.796l4.581,0.796l2.238-2.058l3.696,2.763l1.96-0.63l1.544,3.289l1.909,0.616
		l2.863-0.165l0.035-2.268l2.533-0.766l3.158,1.306l1.753-1.832l2.151,1.712l1.197-0.901l-0.19-2.643l-1.822-0.03l-1.735-2.357
		l0.416-2.162l1.979-1.217l2.672,0.225l-0.174,1.833l1.596,1.546l3.384-4.265l1.44,0.601l2.064-1.231l2.776,3.499l4.997,3.198
		l0.885,4.145l4.338-0.826l1.788-1.787l7.583-0.045l0.607-2.162l-2.376,0.331l-0.92-1.216l2.829-1.142l2.828,1.021l5.066-1.547
		l1.336,3.049l2.672-3.333l1.544,1.832l2.376-1.652l1.163,2.583l6.489-1.111l1.891,3.049l-1.249,0.675l-0.521,2.778l1.268,1.636
		l0.815-0.976l0.954,0.465l0.261,2.313l3.817,1.231l-1.458,6.803l3.453,0.825l2.898,5.136l6.575,3.499l2.655-1.516l0.902,1.246
		l2.585-0.225l0.781,1.907l3.957,1.637l0.676,6.111l3.991-1.636l3.557,1.186l-2.516,7.959l10.359,0.436l2.29-0.901l2.76,2.373
		l5.691,2.282l0.069,12.869l5.31,4.069l-1.215,3.785l2.915,1.682l1.007,3.454l2.533,0.09l4.633-2.462l0.434,1.217l1.25-0.196
		l4.667-4.535l2.62,1.757l-1.405,2.944l4.337,2.177l5.57-0.631l3.47,5.136l3.609-1.216l0.798-4.625l6.871-3.319l1.943,0.076
		l0.902,1.652l1.614-2.298l3.991-0.991l-1.371-2.778l1.701-2.088l-0.416,1.381l7.53-3.124l2.48,0.496l1.649,2.298l5.066,2.928
		l-0.416,3.875l1.735,2.357l0.555-1.967l-1.197-1.472l1.023-0.706l1.094,3.363l2.568-1.201l1.005,3.799l3.193,1.007l6.09,7.583
		l2.586-0.03l3.088-4.64l2.083-5.827l1.336-10.031l15.165,0.135l1.198-2.117l1.908,0.225l1.041,1.937l3.106-0.541l6.055,9.025
		l0.018,2.809l-1.649,1.667l1.77,1.817l-0.347,1.472l4.408,0.931l6.368-1.412l-0.763-0.931l4.962,1.051l0.086,1.622l1.839,0.51
		l6.247-0.615l2.602-0.961l0.522-1.502l-0.069-2.192l-1.979-2.087l4.632-1.502l1.44,1.682l4.824,0.181l4.234,2.342l1.352-0.375
		l0.364,1.606l2.135,0.616l2.013-1.832l-0.712-3.439l0.901-1.261l8.92-4.4l2.428,1.622l4.997,0.556l1.563-1.501l5.275-0.51
		l-1.11,1.982l2.948,1.246l-2.498,2.147l1.44,1.066l0.573,5.361l3.07,0.15l0.712,1.381l1.84-0.946l3.607,0.781l3.559-3.169
		l2.081,0.255l1.059,1.922l4.668-4.911l-2.135,2.748l4.581,0.841l1.076-3.259l1.927-0.511l-0.278-2.373l4.911-1.036l3.436,5.992
		l-4.026,2.838l0.451,4.565l-2.95,5.586l1.493,1.577l-0.173,2.043l-6.3,7.087l1.163,1.232l1.25-0.375l-0.364,1.757l2.637,3.469
		l-1.961,0.436l-0.312,4.234l3.14,3.589l-0.606,0.795l-2.759-0.661l-1.198,2.733l-1.318,0.406l-7.08-0.121l0.417,2.539l2.742,0.42
		l-1.164,2.373l2.569,3.965l4.599,1.081l-2.169,0.301l-2.049,2.026l-0.051,5.061l-2.152,2.238l-1.476-2.163l-0.642,1.577
		l1.025,1.501l-2.708,3.244l3.852,2.087l3.992-1.802l0,0l0.763,2.613h4.129l0.122,1.906l1.613-0.165l-0.451,1.262l2.255,0.63
		l-1.891,1.006l1.198,0.496l-0.695,2.688l-3.123,2.342l1.822,1.667l-2.897,21.699l1.493,1.862l-4.565-0.06l-6.713,3.183
		l-1.771,2.599l4.199,3.574l0.711,2.823l-2.428,2.402l3.401,2.373l-0.313,5.15l3.211,1.697l-3.35,6.051l3.522,1.261l-1.232,1.667
		l-2.897,0.345l-0.105,1.006l2.396,1.516l4.494-2.267l-4.668,5.181l-3.66,1.367l1.578,0.96l6.143-1.412l1.215,3.771l3.99-0.676
		l1.025,1.817l3.729,0.616l-0.503,2.883l-2.064,1.006l-10.741-0.705l-1.093,3.198l5.188,1.441l-2.5,1.682l-1.7-0.255l0.521,5.331
		l-3.106,0.705l-3.262-4.324l-2.655,0.015l-1.18,2.673l0.329,4.204l-1.786,2.583l-5.797,1.458l-1.249,2.551l-4.945,0.962
		l-1.284,2.313l-2.569,0.556l-3.106-4.536l-3.106,0.991l-0.226-2.448l-3.087-0.286l-0.798,3.725l0.954,4.31l-1.51,2.012
		l-2.898-1.261l-1.023,2.102l1.491,1.006l-0.329,3.845l2.22,1.591l-1.543,2.389l-9.474-0.827l-0.711-1.531l-6.09,2.537l0.156,1.412
		l2.864,0.9l-2.639,0.527l2.117,8.439l-1.249-0.332l-0.069-1.501l-6.107-0.9l-0.191-2.794l-4.58-5.225l-5.136-0.45l-2.065-4.461
		l-5.257,1.637l0.503,3.244l-8.589-0.299l-11.538-6.158l-1.232,4.64l1.301,1.788l-4.477-0.166l-0.468,4.129l-7.045-0.3l-4.719,3.785
		l7.305,1.606l-0.99-2.703l1.475,1.877l2.187-0.496l-0.243,2.028l-5.31,0.39l-1.336,1.968l-1.979-3.814l-1.353-0.466l0.018,2.869
		l-1.544,1.066l-1.007-1.307l-4.789,5.347l-2.134-0.331l-1.631,2.703l-3.886-2.012l-2.222,0.392l-0.694,1.877l-1.805-0.016
		l4.702,1.321l4.129,3.29l-0.051,9.761l-2.812,1.396l-0.121,1.533l-2.586-0.421l-1.231,4.25l0.434,2.057l5.708,1.923l4.008,4.144
		l0.121,7.552l-2.342,0.977l-11.087,0.3l0.018,2.898l-4.304,0.226l-12.441-0.96l-6.09-1.833l-1.023-1.471l-3.853,2.147l-3.73-1.126
		l1.232,5.015l2.932,1.757l-0.711,2.809l6.801,3.454l2.222-0.436l0.833,3.634l4.477-1.637l0.868,2.088l1.648,0.27l0.607-2.163
		l2.394-0.21l2.551,2.914l3.21-4.521l4.546,1.532l0.52,1.441l-1.631,3.889l-3.001,1.531l4.511-1.081l-0.85,1.261l0.85,2.148
		l4.251-1.142l-0.798-2.732l3.8,1.531l-1.562,0.211l0.104,1.201l2.273,0.405l10.358-2.448l2.551,3.079l-2.187,3.154l1.996-0.827
		l1.492,3.47l1.942,0.811l-2.03,1.892l2.03,5.766l-1.821,3.259l1.301,1.111l0.225,4.73l3.87,3.844l-2.62,4.46l-2.985-0.225
		l-3.712-2.327l-3.02,2.912l-1.787-1.08l-1.18,0.886l-1.787,3.845l3.505,6.501l1.162,0.257l1.492,4.594l-2.325,2.628l0.468,1.336
		l-6.003,1.398l-0.208,2.101l1.545,0.557l2.758,5.286l-3.366,7.027l-6.542,3.844l-0.59,2.794l-0.121,3.138l6.299,1.502l4.771,2.868
		l2.741,3.139l-0.677,0.495l0,0l-3.974,6.322l-0.191,18.682l-11.677,10.076l-18.167,2.508l-0.764-3.396l-7.999,1.307l-1.545-6.697
		l-16.466,1.848l-3.158,1.487l1.492,6.937l-2.95,1.473l-0.138,4.955h-3.54l-3.609,1.832l-11.677-2.764l-10.325,0.902l-0.659-3.454
		l-10.064-5.392l-3.453-0.09l2.151-8.379l-2.515-0.09l0.174-2.748l-2.256,0.975l-0.694-1.576l-3.158,2.854l-3.296-2.688
		l-0.348,2.178l-2.621,0.915l-7.114-0.976l-0.434,1.697l-7.946-1.367l-2.655,5.721l-1.353,0.076l-0.052,1.471l-2.793,0.286
		l3.21,6.862l-1.162,1.907l-5.604,3.979l-1.492,2.39l-3.766,1.605l-0.051,1.097l0,0l-5.934-1.412l-0.208-3.604l-8.051,0.136
		l-0.573-6.188l-3.522,0.284l-1.301-6.666l-8.45-0.315l0.018-4.355l-1.51-1.126l1.301-0.09l-0.121-7.044l-2.083-0.164l-0.468-5.061
		l-2.325,0.12l-1.51-1.833l-0.173-3.663l3.609-0.031l-0.382-7.027l-1.787-0.585l0.798-2.567l5.275-1.412l-1.475-5.406l-3.418-1.381
		l1.146-4.791l-2.915-6.592l-6.871,8.168l-7.861-4.204l-1.492,0.181l-2.429-3.109l-4.078,1.456l-4.686-0.419l-4.702-5.302
		l-1.422-9.731l-1.839-0.6l-0.208,1.066l-3.28-0.106l0.712,1.713l-3.522-0.811l-3.02-4.101l-0.902,0.932l-4.043-0.585l0.66-0.512
		l-5.623-4.715l-3.921,9.205l-3.939,1.802l-1.596-5.195l-8.381,10.526l-0.191-2.026l-7.062-3.514l-1.058-3.109l0.624-2.402
		l9.388-8.155l-2.1-1.141l-1.111-2.914l-3.21-2.973l-2.846-6.367l0.66-1.967l2.533-0.421l1.214-1.848l4.963,0.436l-0.677-5.66
		l1.093-0.931l-1.093-0.631l2.082-2.628l6.299,1.682l0.868-0.751l-2.083-6.457l-3.609-0.226l-1.509-5.781l-7.947,0.104l-3.853-2.267
		l-0.243-3.259l-2.272-1.697l-2.846,0.465l-0.035-2.402l-1.7-2.072l-4.928-1.562l-1.388-4.175l4.876-1.111l-0.798-2.176l1.614-1.833
		l3.296-0.676l0.226-3.423l5.344-0.166l1.891-10.902l-2.447-0.346l-2.724-8.019l0,0l1.371-0.96l2.308,0.57l3.487-3.604l1.493,1.051
		l4.338-2.147l6.888,0.78l1.25-1.471l7.252-1.247l-3.053-6.187l-0.503-12.735l-1.874,0.496l-0.868-2.207l-1.336,0.015l-1.093,2.028
		l-2.759-1.728l5.952-3.995l0.174-5.044l-7.705-3.29l0.868-0.915l-4.911-3.86l-1.439-4.219l-5.258-4.011l0.227-2.236l-2.256-1.742
		l-3.175,0.015l1.389-5.165l-7.618-1.908l-0.434-2.553l-5.744-8.454l1.631-1.396l-2.255-2.883l2.62-1.877l-2.116-2.192l-2.516,1.336
		l-2.134-1.832l1.371-0.406l-1.127-2.296l3.765-0.406l-3.332-6.697l4.807-0.286l1.666-2.192l1.787,1.907l3.904-3.529l7.201-2.208
		l-3.401-5.345l3.02,0.45l3.522-1.126l3.713-4.1l-4.841-9.686l-6.004,4.145l-5.743,1.141l2.759-6.442l-0.955-8.83l-6.507,1.622
		l-2.776,2.357l-1.301-0.495l-4.581,2.868l-4.338-1.396l-0.451-2.958l-2.585-2.463l0.572-2.612l-1.995-3.409l1.006-1.036
		l-2.134-1.862l0.764-5.016l2.447-1.021l-0.035-1.817l-2.568-0.03l-3.106,1.757l-2.342-0.811l-1.77,1.457l3.487,2.764l-0.78,1.906
		l-10.966-5.271l-0.677-2.072l4.72-5.436l0.641-3.529l1.423-1.231l1.146,0.51l-0.712,1.907l1.84,1.546l3.886-0.225l2.048-2.868
		l4.649-2.163l5.969-4.775l2.238,1.501l2.256-1.772l2.62,2.042l0.486,2.043l1.335-0.931l5.258,2.267l2.186-1.036l2.603,0.706
		l2.829-3.124l-0.677-1.096l2.447-0.345l-0.729-1.742l2.845-4.01l1.162,0.195l2.36-4.925l1.891-0.12l0.659-1.426l1.544,0.855
		l1.353-1.381l2.864-0.375l-0.486-3.529l4.686-9.281l2.03,0.016l-0.851-3.439l2.03-0.135l1.667-3.379l4.511,0.165l6.177-6.938
		l-3.332-1.622l2.204-0.916l-0.694-1.006l2.759-5.316l-1.7-1.892l0.399-3.74l-2.273,0.301l0.712-2.058l-2.082-0.781l0.156-2.673
		l1.371-1.336l-1.823-1.772l6.369,2.252l-0.122-6.217l4.095,0.075l0.538-1.922l-4.251-1.412l-0.121-6.367l1.822-2.793l-4.754,1.021
		l-0.625-1.247l-2.291-0.436l-2.376,1.907l-0.885-1.952l-2.273-1.111l-0.746-4.686l-3.471-5.661l1.562-5.376l-0.851-2.989
		l-5.743-2.072l-7.426-10.782l-2.672-2.027l-4.269,0.436l-2.221,1.487l-2.065-0.766l-2.464,1.352l0.833-1.802l-1.683-5.571
		l1.874-1.321l0.086-3.153l2.221-1.187l-10.948-8.725L397.85,241.039z M565.377,426.991l4.268,2.013l2.707-1.052l-0.607,1.952
		l2.447,1.321l2.932-0.48l1.926-1.741l4.026,0.555l0.919-1.261l1.649,0.391l-1.319,5.481l-7.166,3.138l2.377,6.998l-1.735,4.04
		l5.622,3.559l0.832-5.061l7.67,0.315l2.55,2.373l-3.834,2.537l-0.174,2.539l-3.47,0.631l-4.649-2.854l-1.735,2.058l0.555,2.298
		l-4.199,1.742l-0.919-0.871l1.093-1.576l-2.1-1.261l2.1-1.263l-1.093-1.981l-2.741,1.742l-3.662,0.39l-17.628-1.501l-1.544,0.946
		l-0.815-1.577l-3.835-1.111l-1.457-3.875l-3.019,0.946l0.086,1.112l-3.384-1.817l3.297-2.688h1.735v-7.434l2.463-4.354l3.748-3.243
		l4.112-1.262l0,0L565.377,426.991z M623.766,441.663l2.793,3.003l-2.395,1.562l0,0l-4.199-4.985L623.766,441.663z M605.911,446.002
		l-1.25-0.105l-0.086-2.628l2.186,1.111L605.911,446.002z M565.708,460.089l-2.464-4.326l0,0l1.215-1.531l1.336,0.375l0,0
		l0.919,4.219L565.708,460.089z"/>
</g>
</svg>
