<svg version="1.1" id="Layer_1" xmlns:amcharts="http://amcharts.com/ammap"
	 xmlns="http://www.w3.org/2000/svg" xmlns:xlink="http://www.w3.org/1999/xlink" x="0px" y="0px" width="1920px" height="1200px"
	 viewBox="0 0 1920 1200" enable-background="new 0 0 1920 1200" xml:space="preserve">
<defs>
		<style  type="text/css">
		g#mapPaths{
							fill: #e8e3c4;
				stroke: #5d5c56;
				opacity: .8;
		}
				#mapPaths path{
		fill: #ffcc80;
		stroke: #000;
		}
	</style>
	
		<amcharts:ammap  projection="mercator" leftLongitude="-4.796120" bottomLatitude="41.363289" rightLongitude="9.560553" topLatitude="51.089515">
		</amcharts:ammap>
</defs>
<g id="mapPaths">
	<path id="FR-A" fill="#CCCCCC" stroke="#FFFFFF" stroke-width="0.5" d="M1039.39,329.359l7.333-2.705l-2.035-4.004l2.884-1.851
		l-1.528-0.933l2.819-7.864l4.979-2.136l6.741-8.639l-1.525-3.512l12.292-16.234l-1.695-2.896l-5.553,0.633l-3.604-1.882l2.84-2.485
		l-2.056-2.041l2.84-7.516l-2.415-2.879l3.899,0.569l-6.063-2.627l8.817-0.316l4.684-2.453l7.587-10.664l-3.434-0.237l-2.034-2.943
		l6.357-7.468l-5.786-4.035l0.954-1.424l-9.389-2.294l-2.373,4.303l-4.239,1.741l0.954-2.674l-3.264-0.443l-0.085-2.801l3.879-1.835
		l-3.923,0.348l-0.169-1.551l-8.265-1.882l-0.954-3.971l3.053,0.016l1.037-2.801l3.688,0.507l3.094-10.902l2.713-1.203l2.48,7.136
		l14.794,3.196l-0.299,1.819l3.095,1.219l11.105-2.5l7.461,3.592l3.666-2.452l5.129-9.636l0,0l8.393-0.301l0.254,1.298l5.173-2.231
		l6.357,3.228l5.934-2.437l14.008,6.788l12.271,2.389l-7.333,6.14l-5.234,10.158l-10.342,4.494l-0.7,3.497l-10.978,8.022
		l-3.434,5.648l0.53,6.867l-3.308,2.421l-3.156,9.461l1.08,6.629l-4.534,2.5l-2.354,7.879l-7.883,9.936l-0.638,8.48l4.643,6.092
		l-5.787,9.083l-2.374,9.746l1.612,4.431l-3.202,3.544l7.017,9.035l-0.721,2.785l-7.417,3.513l2.775,1.124l-2.904,0.711l1.188,2.168
		l-1.993,1.519l-5.023-1.25l-0.932,1.44l3.051,0.901l-6.08,3.766l-5.088-0.885l-7.502,1.93l-0.976-1.741l-5.468-0.442l2.798-4.858
		l-6.105-0.87l0,0l0.934-2.104l-5.022-6.613l-7.1-0.902l3.56-6.756l-0.825-4.968l-8.5-4.684l-6.505-1.123L1039.39,329.359z"/>
	<path id="FR-B" fill="#CCCCCC" stroke="#FFFFFF" stroke-width="0.5" d="M493.381,531.286l2.055,2.041l5.956-0.682l4.747,2.644
		l-2.055,4.651l5.319,4.003l5.002-4.478l2.5,2.026l10.639-0.902l5.913,7.452l2.692-1.566l4.451,2.056l-4.006,4.668l15.196,3.956
		l-3.264,2.896l5.978,2.167l-5.214,5.206l-2.501,0.094l-0.827,4.604l4.451,1.693l-4.408,4.635l5.383,1.456l-2.542,2.089l0,0
		l-0.445,0.031l0,0l4.662,3.038l9.114,0.76l-2.989,1.836l6.167,7.927l0,0l-3.328,1.424l0,0l0.36,1.091l0,0l2.479,7.104l-2.542,0.554
		l2.458,2.943l-6.888,3.291l0.36,3.007l-5.955,1.393l1.547,5.142l-8.075,5.189l-6.633,1.267l0.53,2.848l-5.193,4.177l0.848,1.851
		l-7.82,3.34l-2.967-0.649l3.116,3.418l0.042,5.616l3.328,1.646l0.508,5.585l-9.643,0.363l-0.933,1.504l-1.844-3.561l-2.12,0.27
		l-2.374,6.487l7.165,3.259l-3.879,7.627l-4.684,0.602l2.818,0.822l0.764,3.387l-2.819,1.027l-6.422-1.55l0.785,2.959l-3.645,0.332
		l-1.547,4.161l-6.719,3.401l-6.23-5.095l-3.263,2.295l-8.351-0.079l-1.653,2.483l-11.254,1.789l-1.25,1.707l-6.125-2.848
		l-3.455,0.634l-3.094,3.844l-2.607-2.626l-6.273,3.671l1.801,4.067l-1.504,1.866l-7.036-2.99l2.437-2.264l-3.793-2.752
		l-5.234,5.079l-7.354-0.981l-5.277,3.781l4.684,2.658l-1.95,0.965l1.335,4.336l-2.903,0.158l2.797,6.425l-4.854,2.721l0.679,4.747
		l-3.497,1.06l0.19,2.231l2.84,0.236l0.764,2.991l5.404-1.234l7.1,1.298l0.253,3.481l2.396-0.429l4.217,6.852l-4.175,0.807
		l-0.127,4.7l5.849-3.101l-0.253,6.58l2.924,2.343l-6.675,4.034l2.542,2.785l-2.819,4.668l-2.098-0.381l0.465,4.131l-4.366-0.27
		l-2.522,4.59l-4.132,1.312l1.145,5.586l-7.1,1.313l-2.395,2.848l0.593,6.377l-4.069,1.487l1.25,6.059l0,0l-7.164,4.511
		l-4.238,0.316l-5.596-2.85l-4.026,4.415l-11.126-9.557l-4.726-1.061l-1.95-6.392l-16.658,1.313l-15.047-6.329l-2.459,1.439
		l-1.886-2.437l-5.722-1.788l-2.967,1.045l-4.091-2.231l3.37-4.478l-6.443,2.137l-0.847,5.917l-7.566-1.583l-2.904-3.766
		l5.171-3.527l2.861-5.522l-0.572-6.171l-12.886-3.228l-2.437,0.507l-1.187,3.465l-2.819-0.207l-1.398-4.952l-9.241,0.95
		l-0.72-3.069l-4.344-1.836l-0.149-2.104l10.661-1.345l5.912-4.034l13.522-19.367l13.161-51.139l3.519-30.44l5.552-10.554
		l16.68,2.103l-1.208-3.938l-4.536-1.599l3.137-0.031l-11.741-7.311l-5.743,7.612l-1.25,7.198l-1.336-1.646l9.199-78.148
		l5.489-7.546l2.946-1.613l1.865,3.495l-3.391,0.443l2.226,0.111l-1.187,1.74l23.08,15.443l10.045,25.189l8.372,6.091l-6.465-11.187
		l-4.111-18.369l0,0l10.534,0.665l0.72-2.406l1.971,4.668l12.314,1.678l2.034,8.561l0,0l0.105,0.411l0,0l1.569,3.56l1.801-2.452
		l2.226,0.315l2.098,2.644l2.988-0.443l1.887,2.579l5.976,1.899l4.154,0.442l4.896-2.975l3.857,2.137l0.636-3.846l3.603-1.187
		l-2.035-1.106l2.395-3.514l4.197-2.277l6.951,1.945l3.561-5.095l7.99-3.385l-1.654-6.742l2.522-5.396l3.604-0.901l-1.292-2.104
		l2.479,1.613l4.408-4.081l4.492-0.017l1.526-3.527l4.874-2.596l0.572-7.595l4.791-0.048L493.381,531.286z M431.305,751.882
		L431.305,751.882l-0.509-5.649l0,0l-0.827-0.3l0,0l0.339,3.4l-2.564,0.776l2.12,1.519L431.305,751.882z M427.935,751.676
		L427.935,751.676l-0.615,0.348l0,0l-1.717,3.054l1.654,2.769l3.667-1.961l-2.183-3.988l0,0l-0.509-0.253L427.935,751.676z"/>
	<path id="FR-C" fill="#CCCCCC" stroke="#FFFFFF" stroke-width="0.5" d="M638.577,464.293l1.569-4.794l2.183-0.016l3.306-4.383
		l11.105-1.519l4.366,1.282l6.867-3.26l-0.954-3.924l-3.285-1.36l2.585-2.911l-2.268-1.883l3.073-1.187l2.014,1.218l-0.318-3.021
		l6.803-2.706l1.25-2.548l3.985,2.706l3.305-1.709l4.197,0.871l6.548-6.424l9.728-0.19l0,0l2.353,4.177l12.462,7.136l6.104-3.877
		l6.845,3.149l2.84-2.738l3.646-0.126l3.179,5.966l9.155-3.577l-1.165-3.228l4.344-0.142l-0.72-3.577l3.199,0.665l1.188,4.573
		l8.647,10.016l0.487,6.044l5.595,1.899l2.945-1.202l2.649,4.113l7.122-0.459l4.366,2.959l-2.077,6.012l0.763,6.615l1.737,0.126
		l-5.108,0.553l-4.174,4.336l0,0l-0.572,0.109l0,0l-0.763,0.081l0,0l-10.216,3.29l3.583,7.216l-1.378,4.826l2.501,2.199l-1.42,3.324
		l2.268,5.11l-3.814,2.437l-7.587,0.35l-0.7,3.717l5.426,4.146l-3.434,1.486l0.615,5.317l-2.946,2.104l8.075,6.202l-0.317,3.149
		l4.111,5.602l9.685,5l4.493,7.688l-1.885,5.586l-6.528,3.813l1.335,5.68l3.836-3.908l3.307,0.38l2.86,4.098l0.212-1.995l4.451,1.25
		l0.89-2.087l6.38-0.618l-0.785-1.772l2.967-0.822l4.791,0.332l3.433,2.896l5.49-0.949l2.882,2.975l-3.158,1.724l3.456,1.519
		l-1.907,2.5l3.2,1.725l4.408-1.725l4.811,4.826l-3.794,5.791l0.87,3.877l-1.907,0.837l-1.124-2.452l-4.324-0.695l2.205,2.769l0,0
		v0.837l0,0l-2.417-0.126l-2.162,2.769l2.904,3.704l-7.333,1.598l1.525,4.288l-7.819,0.918l-6.02,8.338l-10.724,0.063l-0.551,3.575
		l-2.479,1.267l-1.548-1.203l0.509,1.978l-3.434-1.423l-2.268,5.379l-5.468,2.246l0,0l-2.267-0.332l0.635-2.247l-2.945,0.697
		l-4.261-3.339l-1.568-3.449l-6.762,0.87l0.594-2.579l-3.815-2.279l-3.2,0.507l-0.445,4.59l-9.729,1.534l-5.383-8.213l-0.148-4.018
		l-3.879-3.085l-7.523,4.461l-3.856-0.807l-0.509,4.43l-3.878,2.327l-5.319-3.798l-1.95,3.496l0,0h-0.509l0,0l-0.403,2.959
		l-2.332-0.364l-2.31,3.466l-0.615,7.784l-5.044,6.567l0,0l-3.963-3.276l-2.204-7.5l2.247-1.171l-1.462-1.804l-2.839,0.396
		l-2.523-7.848l-7.629,1.709l0.126-5.19l-3.285-2.705l-11.636,8.829l-0.381,4.969l-4.451,3.561l0.912,3.068l-5.341,2.865
		l-1.377,3.527l-11.572,0.933l-2.268-2.753l-2.777,0.19l-6.888,1.678l-1.102,2.975l-2.967-1.915l-1.038-5.253l-2.564-0.095
		l3.688-8.466l-7.079-7.831l1.038-4.336l-3.645-5.111l0,0l3.497-0.68l0,0l0.742,0.143l0,0l2.925-1.82l-3.899-5.427l6.548-2.057
		l0.572-5.094l4.642-2.642l-2.777-1.473l-0.593-3.75l14.581-10.727l-0.975-7.01l11.614,3.909l4.196-2.058l-3.582-2.531l2.67-12.625
		l-4.959-3.909l2.183-4.192l3.137-0.127l0.17-6.377l-11.91-10.807l5.997-3.844l0,0l0.382-0.063l0,0l2.797,0.285l5.638-4.684
		l0.678-4.05l4.154-1.44l-0.868-5.933l-4.536-4.826l1.377-6.536l-7.354-11.803l-4.473-1.519l-0.89,1.235l-2.967-4.588l-2.014,2.009
		l-5.509-3.117l2.775-2.753l-4.09-0.87L638.577,464.293z"/>
	<path id="FR-D" fill="#CCCCCC" stroke="#FFFFFF" stroke-width="0.5" d="M872.66,324.96L872.66,324.96l-3.286-5.332l-2.967,0.332
		l-0.785,2.089l-2.543-1.218l2.968-3.085l-1.738-1.978l-5.362-0.174l2.162-2.563l-1.42-1.692l-8.182-1.756l-10.682-0.507
		l-3.75,2.216l1.631,3.766l-21.129,0.665l-1.907,3.56l-4.239-0.507l-1.611-4.098l-2.775,0.459l0.656,2.532l-3.094-1.772l0,0
		l-1.102,0.443l0,0l-3.921,2.848l-4.407-1.931l-1.357,2.01l-3.539-1.693l-9.644,1.298l1.632-4.937l-1.653-2.136l-1.271,2.23
		l-2.5-0.411l-1.103-2.042l2.883-1.091l-4.366-2.848l-2.734-7.231l-4.536-1.439l0.764-3.276l-2.989-0.823l0.742,1.772l-4.896,1.582
		l-3.243-4.905l-4.535,0.522l3.729-4.034l-1.822-0.681l1.61-3.56l-3.667-1.503l0.869-1.63l-7.354-6.503l-3.285-0.965l-3.37,1.74
		l-1.229-3.117l0,0l-3.391-0.965l-0.975,2.722l-2.544,0.253l-17.166-0.285l-3.264,2.342l-4.938-1.028l-2.819,5.348l2.819,5.443
		l-3.773,4.209l-5.892,2.31l-0.021,1.994l0,0l8.139,2.926l-1.187,1.693l1.738-0.095l1.229,4.288l6.591,4.256l-2.225,1.013
		l2.522,4.572l-2.924,2.548l0,0l-0.53,0.332l0,0l-6.995,3.639l-1.186,3.797l3.242,1.708l-0.636,6.139l-15.281,2.88l-0.338,3.939
		l2.692-0.332l4.196,3.75l2.395,3.576l-1.483,4.494l3.517,2.864l-10.194,2.167l0,0v-0.348l0,0l-1.102,1.219l7.27,9.683l-5.553,9.636
		l10.024,7.405l4.303,13.543l-1.124,5.474l5.278,3.892l0.148,6.536l-2.649,4.62l1.738,5.348l-3.328,5.443l0,0l2.353,4.177
		l12.462,7.136l6.104-3.877l6.845,3.149l2.84-2.738l3.646-0.126l3.179,5.966l9.155-3.577l-1.165-3.228l4.344-0.142l-0.72-3.577
		l3.199,0.665l1.188,4.573l8.647,10.016l0.487,6.044l5.595,1.899l2.945-1.202l2.649,4.113l7.122-0.459l4.366,2.959l-2.077,6.012
		l0.763,6.615l1.737,0.126l-5.108,0.553l-4.174,4.336l0,0l-0.763,5.822l7.248,1.108l1.462,3.164l9.982-2.801l6.633,2.358
		l2.586-1.945l1.589,1.583l2.522-0.935l-0.402,2.753l2.247,0.206l8.562-2.8l2.904-10.396l4.662-0.126l3.984,2.801l5.681-2.5
		l4.386,2.69l1.674-3.354l3.751-0.491l2.692,2.611l-2.734,1.867l4.981,2.421l-1.462,3.654l3.412,2.12l1.907-0.378l14.178-32.469
		l0.849,1.694l2.945-1.329l6.402,2.911l9.663-1.883l0.105-1.44l3.349,1.282l2.607,4.525l6.909,1.108l0,0l0.826-1.599l8.202-1.313
		l0.34-2.42l-5.425-1.646l-0.108-4.05l4.048-1.852l-0.741-2.737l4.005-2.595l-4.069-4.509l-0.234-4.146l-2.816-0.127l2.69-3.877
		l-5.615-4.303l12.187-2.405l-5.553-2.674l-0.298-2.295l-6.145,0.475l-3.094-5l-2.629,1.044l-0.849-4.747l5.617-3.338l-3.773-1.329
		l0.741-2.151l8.901-3.181l4.769-5.997l0,0l-0.042-0.491l0,0l4.324-13.369l2.755-1.409l-4.09-1.282l0,0h-0.298l0,0l2.312-2.373
		l-1.018-5.047l0,0l-0.339-0.158l0,0l-3.645,0.19l0,0h-0.55l0,0l0.571-5.601l-6.315-1.361l3.624-1.234l-1.802-0.379l1.018-1.725
		l4.344,0.126l4.28-5.601l-4.916-7.247l-4.092,3.434l-1.97-1.013l0,0l-1.505,1.361l-4.259-1.788l-4.833,3.181l0.679-4.414
		l-7.546-2.912l0.445-2.737l-5.36,3.291l-5.617-2.12l0.635-2.627l-2.796,0.285l-0.064-1.772l-5.298,2.373l-0.849-7.405l-3.814-0.506
		l6.739-3.987l-3.39-5.728H872.66z"/>
	<path id="FR-E" fill="#CCCCCC" stroke="#FFFFFF" stroke-width="0.5" d="M152.186,371.558l2.628,2.357l5.34-0.095l1.548,3.371
		l6.866,1.456l-1.187,2.689l-14.369-1.582l-2.184-4.778L152.186,371.558z M154.221,226.276l0.445,3.529l11.805-3.576v4.81
		l6.484-0.301l0.679,2.326l-3.476,1.946l10.109,2.437l-1.462,3.45l11.274,7.151l-0.424,5.301l9.517,3.908l-2.352,3.086l2.479-0.776
		l3.412,4.431l-0.763-4.431l4.854,1.044l6.4-7.706l7.121-2.262l-1.314-2.231l4.515-0.76l1.525,2.326l8.922-5.886l3.073,2.01
		l-4.706,4.793l2.035,0.998l6.21-3.402l2.882,5.681l-1.208,3.655l2.479-6.013l1.484,3.434l2.522-4.145l2.289,1.724l-2.416-3.243
		l9.197-0.538l0.933,3.876l3.519,1.709l-1.59,1.076l3.709,2.753l-1.102,4.81l1.802-3.039l2.31,0.585l-4.239-6.313l3.455,1.376
		l-1.187-2.104l-4.557-0.712l1.336-1.677l-3.138-1.915l3.667-4.842l13.034-2.864l0.678,3.26l-2.882,4.098l7.947,3.37l18.1-3.006l0,0
		l7.333,14.382l5.913,2.784l5.934-0.791l8.817-7.421l16.17,3.529l0,0l-0.975,9.256l3.157,8.465l-4.917,6.17l1.972,6.187l0,0
		l0.36,0.253l0,0l5.108,19.398l-12.186,3.75l-8.054,18.386l-10.257-2.199l-2.183-2.833l-7.969-0.696l0.508,3.148l-13.118,3.845
		l-3.328,5.253l-17.612,0.095l-8.35,3.624l-1.61-2.184l-9.559,4.272l-1.441,11.361l-5.213,1.091l-0.551,3.086l-1.886-2.215
		l-5.277,1.756l-4.726-2.104l-1.654,5.348l-7.417,0.459l-1.907-2.009l-3.031,2.8l0,0l-3.306-0.19l-0.55-4.082l5.341-0.602
		l-6.041-2.515l-26.915,3.687l-8.435-6.487l-4.558-0.016l-2.331-2.548l-1.336,1.282l-1.78-2.5l0.424,2.421l-9.092-0.207
		l-0.402,5.412l4.239,4.367l-4.536-0.427l-2.756-5.443l2.417-1.503l-1.272-4.936l-12.017-8.734l-6.548-0.063l-0.467-2.421
		l-7.714,1.457l-6.485-6.614l-13.353-1.203l-4.281-2.816l-11.189,1.392l-4.154-4.271l1.802-2.358l-2.544,0.839l-3.137-5.112
		l-3.772,1.868l1.271,2.816l-5.871,1.14l-5.659-2.785l-3.582,1.439l-3.941,5.886l-15.493,0.016l0.827-8.939l-5.532-7.294
		l-7.883-4.193l-5.129,0.522l-5.575-2.817l-9.197-1.013l2.649-0.442l-0.678-2.057l26.216-4.162l9.813,1.741l3.327-3.987
		l-4.259-7.278l-13.013-3.449l-3.094,0.664l-5.278,6.076l-1.165-6.313l2.542-1.44l-6.888-0.522l-0.593-2.484l5.15-0.253
		l-0.149-4.778l3.456-1.013l-2.056,3.735l1.801,1.835l3.158-2.69l-0.275,3.006l4.472-1.55l4.705,2.152l8.011-2.278l4.091,1.74
		l3.434-3.307l-2.289,1.424l-7.884-1.55l3.031-1.535l-2.543-0.902l1.187-2.231l-4.832,3.56l-3.836,0.158l1.737-1.741l-5.361,1.551
		l5.107-5.585l-2.076-1.235l-16.171,5.665l-6.485-1.678l-2.331,2.358l-5.744,0.205l-1.548-3.149l2.523-2.072l-2.946-3.054
		l3.009-5.316l-1.399-4.763l4.133-4.019l10.512-2.009l0.402-2.737l3.709,0.617l1.887-3.86l3.793,1.566l8.605-1.598l-3.116-1.709
		l7.969-2.247l4.409,1.25l0.021,3.069l8.859-1.804l-2.396-0.68l3.179-2.801l7.609-0.839l3.582,1.899l0.53-2.942l4.005-2.136
		l0.552,1.566l2.712-1.551l-0.148,5.286l3.539,1.123l0.53-3.576l0.169,2.453l6.803,1.344l-0.785-2.879l2.077-2.484l0.954,1.36
		l-0.255-1.835l12.631,3.291l3.159-0.965l-1.294,3.687l3.116-2.722l3.624,1.582l-0.148-5.395l3.073-2.058l-3.158-1.202l1.547-3.782
		l-1.759-1.092l2.841,1.439l4.429-4.747l1.145,1.883l0.953-1.709l1.866,2.184l2.733-0.522l-1.123,2.263l3.751-0.207l6.866-3.797
		l5.002,0.396L154.221,226.276z"/>
	<path id="FR-F" fill="#CCCCCC" stroke="#FFFFFF" stroke-width="0.5" d="M570.059,219.077l5.447,4.984l-1.526,2.009l4.621,3.07
		l-1.484,7.8l3.984,1.424l-4.387,4.368l3.094,1.392l-0.89,2.358l5.616,5.046l4.302-0.031l-0.53,3.702l6.867,2.326l-0.997,3.988
		l2.269,4.604l5.998,2.595l5.319-1.646l-0.212,5.031l4.366,0.443l0.933,3.75l-2.67,5.221l1.292,2.152l16.807-1.029l-1.039-1.725
		l2.606,0.459l1.907-3.228l3.751,1.202l-0.042,3.292l4.706-1.361l0,0l0.465-0.649l0,0l2.099-1.392l2.755,2.484l3.985-0.775
		l1.717,5.506l8.223,3.323l0.042,5.759l-3.031,0.237l-3.476,4.003l10.173-1.677l12.864,1.725l4.281-2.152l-1.569-2.104l2.332,1.313
		l3.179-1.503l1.802,3.813l4.111-2.579l6.231-0.68l0,0l8.139,2.926l-1.187,1.693l1.738-0.095l1.229,4.288l6.591,4.256l-2.225,1.013
		l2.522,4.572l-2.924,2.548l0,0l-0.53,0.332l0,0l-6.995,3.639l-1.186,3.797l3.242,1.708l-0.636,6.139l-15.281,2.88l-0.338,3.939
		l2.692-0.332l4.196,3.75l2.395,3.576l-1.483,4.494l3.517,2.864l-10.194,2.167l0,0v-0.348l0,0l-1.102,1.219l7.27,9.683l-5.553,9.636
		l10.024,7.405l4.303,13.543l-1.124,5.474l5.278,3.892l0.148,6.536l-2.649,4.62l1.738,5.348l-3.328,5.443l0,0l-9.728,0.19
		l-6.548,6.424l-4.197-0.871l-3.305,1.709l-3.985-2.706l-1.25,2.548l-6.803,2.706l0.318,3.021l-2.014-1.218l-3.073,1.187
		l2.268,1.883l-2.585,2.911l3.285,1.36l0.954,3.924l-6.867,3.26l-4.366-1.282l-11.105,1.519l-3.306,4.383l-2.183,0.016l-1.569,4.794
		l0,0l-7.375-0.823l-9.517,1.757l-9.643-3.149l-12.293,1.646l-4.937-2.928l-3.116,0.602l1.102,2.357l-2.734,3.338l-3.814-2.674
		l-5.023,2.879l-1.674-3.165l-5.68,2.737l-1.674-3.243l-9.728,7.659l-5.404-5.095l-3.582,0.459l-0.847,2.23l-7.482,0.539
		l-0.827-2.311l-2.733,0.491l0,0l0,0l0,0l1.61-1.598l0,0l1.356-3.038l-5.383-1.408l-0.572-5.569l-4.514-2.801l-6.443,0.048
		l-0.467-2.927l-9.135-3.26l-1.589-2.69l3.094-6.17l-1.292-3.133l-8.584-5.949l-1.653-5.791l-8.075-5.127l-1.123-6.771l-6.506-3.244
		l-4.388,0.143l2.691,4.699l-8.16-0.158l-5.891,2.816l-6.443-1.914l-3.667,1.804l-2.84-5.759l1.886-0.76l-0.848-5.079l-3.052,0.823
		L459.577,402l-5.871,1.203l1.907-3.133l-1.61-2.278l-1.739,1.361l-2.395-0.602l0.466-1.708l-5.277,0.569l-2.31-4.32l0,0
		l2.013-11.328l9.241-9.668l-2.586-1.709l6.041-9.762l0.403-2.627l-2.819-1.154l3.497-5.57l0,0l-0.105-0.822l0,0l13.331,3.385
		l1.695-0.807l-3.39-3.987l1.652-2.326l5.807,2.374l1.293-2.5l11.614-2.626l2.013-2.058l-2.035,0.459l-0.89-2.864l3.604-3.307
		l6.591-1.472l-0.805-1.582l6.697-4.762l-0.72-6.677l2.564-1.092l1.887,2.294l0.36-4.272l2.946-0.775l-2.671-4.494l2.077-4.272
		l-3.964-0.728l-0.317-3.276l4.345-0.237l0.19-2.168l-2.797-0.459l2.437-0.427l0.87-2.896l5.701-0.539l-10.384-5.443l0,0l2.86-1.898
		l-3.708-4.652l1.589-2.769l-4.472-1.045l1.292-2.247l12.674-4.968l5.447-6.678l-3.519-3.575l2.692-4.652l-12.971-8.75l-0.296-5.744
		l0,0l4.239-1.756l1.123-2.753l9.897-0.981l0,0h1.822l0,0l4.727-3.275l4.577,1.171l0.552-4.256l8.88,3.117l9.664-0.317l3.518-1.978
		l-0.911-5.3l8.646-3.735l-1.08-5.142L570.059,219.077z"/>
	<path id="FR-G" fill="#CCCCCC" stroke="#FFFFFF" stroke-width="0.5" d="M863.376,96.501l5.341,1.788l-2.522,1.74l0.382,3.244
		l-1.844-1.392l-2.734,3.734l1.865,2.753l-4.535,7.057l8.689,6.028l-3.624,4.351l2.438,4.779l-2.035,2.706l12.652-0.712l8.711,3.782
		l6.335,7.041l9.177-0.253l5.383,4.241l-1.546,4.319l2.988-1.993l4.216,1.456l0,0l-11.741,7.547l-2.416-2.785l-6.273,0.649
		l-1.78-2.801l-2.713-0.158l-1.97,5.032l0,0l-0.149,0.601l0,0l-2.585,3.608l4.578,4.303l0.36,3.877l-3.369,1.693l2.119,2.452
		l-4.154,1.092l-2.543,5.775l2.754,1.614l-0.509,1.978l-8.752,3.718l3.604,2.816l-4.642,2.421l5.722,11.629l-3.434,4.715
		l3.814-1.408l2.438,1.202l-0.19,3.038l-3.498,0.934l3.963,0.997l-2.034,3.449l-6.866,2.121l0,0l-0.382,0.285l0,0l-1.887,4.667
		l2.204,2.563l-4.111,4.366l10.512,5.633l-0.954,12.547l5.129-1.677l1.229,3.607l4.218,0.048l8.161,6.645l10.214,1.851l12.356,8.529
		l-6.654,3.149l4.259,1.17l-1.335,4.731l4.62-2.452l3.984,0.822l5.659,7.278l1.993-1.756l3.709,2.358l-1.081,2.579l4.046,0.76
		l3.731,3.56l-4.324,1.835l-0.869,6.978l-3.75,2.247l6.039,0.854l2.246,3.212l4.812,1.012l0.954,7.911l5.234-2.262l3.328,4.857l0,0
		l-0.043,2.516l-2.966-0.617l-2.523,3.449l0.53,1.836l-5.913-0.712l-1.674,3.845l-4.45-0.079l-1.314,4.066l2.881,3.148l-1.589,6.045
		l-8.264,1.218l-2.585-3.434l-3.688,3.354l-10.131-0.142l-3.349,6.788l0,0l-1.505,1.361l-4.259-1.788l-4.833,3.181l0.679-4.414
		l-7.546-2.912l0.445-2.737l-5.36,3.291l-5.617-2.12l0.635-2.627l-2.796,0.285l-0.064-1.772l-5.298,2.373l-0.849-7.405l-3.814-0.506
		l6.739-3.987l-3.39-5.728l0,0h-1.165l0,0l-3.286-5.332l-2.967,0.332l-0.785,2.089l-2.543-1.218l2.968-3.085l-1.738-1.978
		l-5.362-0.174l2.162-2.563l-1.42-1.692l-8.182-1.756l-10.682-0.507l-3.75,2.216l1.631,3.766l-21.129,0.665l-1.907,3.56
		l-4.239-0.507l-1.611-4.098l-2.775,0.459l0.656,2.532l-3.094-1.772l0,0l-1.102,0.443l0,0l-3.921,2.848l-4.407-1.931l-1.357,2.01
		l-3.539-1.693l-9.644,1.298l1.632-4.937l-1.653-2.136l-1.271,2.23l-2.5-0.411l-1.103-2.042l2.883-1.091l-4.366-2.848l-2.734-7.231
		l-4.536-1.439l0.764-3.276l-2.989-0.823l0.742,1.772l-4.896,1.582l-3.243-4.905l-4.535,0.522l3.729-4.034l-1.822-0.681l1.61-3.56
		l-3.667-1.503l0.869-1.63l-7.354-6.503l-3.285-0.965l-3.37,1.74l-1.229-3.117l0,0l-2.776-8.877l4.79-1.06l-2.755-3.703l6.548-1.36
		l-1.42-2.849l4.324-1.914l-1.081-1.471l5.107-1.171l-3.454-1.614l1.229-1.329l-7.313,1.107l1.505-10.189l-6.485-2.01l4.303-3.165
		l-3.519-1.819l7.375-0.522l-0.168-3.797l0,0l3.772-5.965l3.729-0.254l0.297-2.468l2.586-0.348l-1.145-1.724l7.715-5.38
		l-2.374-2.896l-5.765,0.617l0.148-2.326l4.515-1.693l-3.286-4.24l1.887-3.086l7.291,0.823l3.814-1.661l0.064-2.231l-3.009,0.427
		l-1.399-3.006l-1.462,0.981l-2.501-1.582l2.141-2.2l-2.903-7.911l11.678-4.304l6.464,1.155l0.382-3.56l5.997-2.674l3.158,2.959
		l6.782,1.724l0.126-7.863l2.693-0.728l-2.396-6.187l3.349-1.788l-2.607-2.057l2.479-2.658l-4.789-5.142l1.547-1.599l6.506,0.474
		l0.997-4.557l5.171-2.12l5.701-5.886l-3.857-2.326l4.154-8.971l0.211-3.623l-3.349-0.998l1.272-4.588l0,0l6.845-1.06l11.996,3.228
		l13.331-5.016l8.33-0.902l-1.124-7.2l1.95-2.942l10.746-7.484L863.376,96.501z"/>
	<path id="FR-H" fill="#CCCCCC" stroke="#FFFFFF" stroke-width="0.5" d="M1210.039,903.967l2.564-4.241l5.997-0.459l3.794-3.576
		l-9.134-2.325l-2.692,1.266l-0.594-3.623l-5.976,1.724l-0.213-1.55l-4.025-0.111l6.314-3.164l-1.631-2.262l5.255-0.824l1.039-1.834
		l-2.883-1.107l3.307-0.475l-0.869-2.85l2.163-1.106l-4.833-3.339l-2.564,2.216l-9.791,1.25l1.355-3.623l-2.69-2.659l4.915-0.3
		l1.039-3.861l7.673-3.276l-4.175-5.521l-3.583,1.045l-4.153-3.022l-2.755,0.586l0.381-2.074l-2.437,0.522l3.158-1.993l-2.862-0.286
		l1.76-3.021l-3.604-2.817l13.627-2.594l-3.03-3.165l-4.917-0.285l0.933-3.908l-5.468,1.408l-0.72-3.654l5.658-0.997l-0.296-2.643
		l4.364,0.095l-0.594-2.404l2.777-2.357l-2.733-0.854l1.568-3.292l4.726-0.854l-1.229-3.923l1.718-1.346l0.146,2.073l2.438-0.902
		l2.966,1.583l1.167-4.336l5.7-0.522l5.743-3.401l7.292,0.475l3.983-1.787l-0.233-3.134l5.893-3.132l8.541-0.333l6.76,5.222
		l4.049-5.285l-0.212-5.253l-2.903-3.402l2.713-2.911l-1.609-3.054l3.454-2.152l-1.865-6.248l7.311-1.552l3.562,2.231l2.585,16.043
		l-4.133,11.74l7.631,11.298l2.289,31.25l-0.828,8.116l-12.081,13.211l-2.225,26.994l-3.878,1.17l1.103,1.346l-4.092-1.029
		l-2.585,2.817l0.784,1.866l2.691-2.627l4.493,0.935l-2.267,3.085l-6.126,2.5l0.424,5.791l-4.874,1.899l-1.229,2.548l4.959-1.298
		l-0.529,1.28l-3.391,4.131l-3.624,0.205l-2.014-2.452l-5.597-0.159l2.397-3.797l-4.452-0.569l0.827-3.213l-3.518,2.137
		l-3.604-2.911l-1.335,1.408l-5.553-1.329l-3.879-3.07l-2.945,0.57l0.975-2.548l-5.849-0.774l1.503-1.678L1210.039,903.967z"/>
	<path id="FR-I" fill="#CCCCCC" stroke="#FFFFFF" stroke-width="0.5" d="M955.739,319.186l4.259-5.032l2.395,0.902l-2.84,2.943
		l1.906,0.222l4.684-2.01l3.264-4.604l8.393-1.55l0,0l0.213,0.111l0,0l0.976,5.063l4.874,2.864l0,0v0.506l0,0l16.275-2.801
		l4.049,1.851l3.772,5.491l11.001-5.902l3.771,4.114l16.659,8.006l0,0l2.649,3.845l6.505,1.123l8.5,4.684l0.825,4.968l-3.56,6.756
		l7.1,0.902l5.022,6.613l-0.934,2.104l0,0l-13.158,0.87l1.651,3.925l-5.425,2.008l-5.383,7.754l12.08-1.947l2.86,1.029l0.594,2.752
		l-3.983,0.886l-1.209,2.896l-4.704,0.728l1.08,4.304l-10.025,6.835l1.548,0.681l-1.759,1.519l-11.976,6.439l1.442,2.991
		l-8.626,5.57l-10.957,1.788l-5.723,4.43l2.84,3.75l-2.925,7.342l1.886,3.56l-30.072,18.923l4.068,2.991l-7.396,7.848l-0.7,4.43l0,0
		l-17.166,14.352l-12.695,0.363l-1.016-4.587l-5.913-1.409l-0.319-1.945l-9.156,7.214l-5.744,0.396l0.149-4.856l-3.37,0.016
		l-1.124-3.086l-1.8,3.545l-3.73-5.665l1.376-1.139l-6.844-2.927l1.355-3.148l0,0l0.826-1.599l8.202-1.313l0.34-2.42l-5.425-1.646
		l-0.108-4.05l4.048-1.852l-0.741-2.737l4.005-2.595l-4.069-4.509l-0.234-4.146l-2.816-0.127l2.69-3.877l-5.615-4.303l12.187-2.405
		l-5.553-2.674l-0.298-2.295l-6.145,0.475l-3.094-5l-2.629,1.044l-0.849-4.747l5.617-3.338l-3.773-1.329l0.741-2.151l8.901-3.181
		l4.769-5.997l0,0l-0.042-0.491l0,0l4.324-13.369l2.755-1.409l-4.09-1.282l0,0h-0.298l0,0l2.312-2.373l-1.018-5.047l0,0
		l-0.339-0.158l0,0l-3.645,0.19l0,0h-0.55l0,0l0.571-5.601l-6.315-1.361l3.624-1.234l-1.802-0.379l1.018-1.725l4.344,0.126
		l4.28-5.601l-4.916-7.247l-4.092,3.434l-1.97-1.013l0,0l3.349-6.788l10.131,0.142l3.688-3.354l2.585,3.434l8.264-1.218l1.589-6.045
		l-2.881-3.148l1.314-4.066l4.45,0.079l1.674-3.845l5.913,0.712l-0.53-1.836l2.523-3.449l2.966,0.617L955.739,319.186z"/>
	<path id="FR-J" fill="#CCCCCC" stroke="#FFFFFF" stroke-width="0.5" d="M587.84,189.979l3.179,0.759l-1.102,2.944l0,0l0.805-0.017
		l0,0l1.589,1.946l4.303-0.981l7.014,2.263l10.449-1.313l6.951-3.449l7.885,4.684l4.217-1.583l1.272,2.816l4.621-0.854l2.479-2.674
		l3.858,3.845l1.525-1.171l5.723,1.313l-0.509,1.298l2.268-0.744l3.857,2.31l-1.187,1.14l3.688,0.648l1.78-2.468l2.734,4.462
		l4.344-2.864l8.902,4.747l6.528-3.592l3.835,2.642l10.301-2.12l1.653,2.042l1.886-2.042l5.066,0.633l0.296-3.181l6.02,1.093
		l4.577,5.601l-2.055,3.781l7.375,3.972l1.166,3.354l3.539-0.98l2.12,4.051l3.391-2.026l1.356,5.617l5.511,1.156l1.356,2.262
		l2.12-1.456l0,0l0.168,3.797l-7.375,0.522l3.519,1.819l-4.303,3.165l6.485,2.01l-1.505,10.189l7.313-1.107l-1.229,1.329
		l3.454,1.614l-5.107,1.171l1.081,1.471l-4.324,1.914l1.42,2.849l-6.548,1.36l2.755,3.703l-4.79,1.06l2.776,8.877l0,0l-3.391-0.965
		l-0.975,2.722l-2.544,0.253l-17.166-0.285l-3.264,2.342l-4.938-1.028l-2.819,5.348l2.819,5.443l-3.773,4.209l-5.892,2.31
		l-0.021,1.994l0,0l-6.231,0.68l-4.111,2.579l-1.802-3.813l-3.179,1.503l-2.332-1.313l1.569,2.104l-4.281,2.152l-12.864-1.725
		l-10.173,1.677l3.476-4.003l3.031-0.237l-0.042-5.759l-8.223-3.323l-1.717-5.506l-3.985,0.775l-2.755-2.484l-2.099,1.392l0,0
		l-0.465,0.649l0,0l-4.706,1.361l0.042-3.292l-3.751-1.202l-1.907,3.228l-2.606-0.459l1.039,1.725l-16.807,1.029l-1.292-2.152
		l2.67-5.221l-0.933-3.75l-4.366-0.443l0.212-5.031l-5.319,1.646l-5.998-2.595l-2.269-4.604l0.997-3.988l-6.867-2.326l0.53-3.702
		l-4.302,0.031l-5.616-5.046l0.89-2.358l-3.094-1.392l4.387-4.368l-3.984-1.424l1.484-7.8l-4.621-3.07l1.526-2.009l-5.447-4.984l0,0
		l-0.763-2.674l2.332-1.14l-4.281,0.269l0.72-3.813l-2.671-3.94l3.54,0.285l1.865-3.481l0.953,1.614l0,0h0.467l0,0l8.478-1.614
		L587.84,189.979z"/>
	<path id="FR-K" fill="#CCCCCC" stroke="#FFFFFF" stroke-width="0.5" d="M700.293,630.239l5.044-6.552l0.615-7.784l2.31-3.465
		l2.332,0.363l0.403-2.959l0,0h0.509l0,0l1.95-3.497l5.298,3.799l3.899-2.326l0.509-4.414l3.856,0.807l7.503-4.463l3.878,3.086
		l0.148,4.034l5.383,8.197l9.728-1.521l0.424-4.588l3.2-0.507l3.815,2.279l-0.572,2.563l6.761-0.854l1.547,3.449l4.26,3.339
		l2.945-0.697l-0.635,2.247l2.267,0.332l0,0l3.667,13.781l4.365,2.168l3.137,9.05l7.1,6.124l-2.5,1.282l0.678,6.613l7.206-1.615
		l11.211,6.552l6.083-6.709l5.786-0.743l0.318,5.127l3.729,0.664l1.336-5.048l4.577-0.489l12.675,6.691l0,0l2.077,5.033l3.01,0.109
		l1.25,2.452l-0.085,9.652l5.808,1.44l5.107,6.978l-2.691,0.095l0.021,2.279l-15.175,8.764l2.268,1.978l-4.811,10.808l1.335,3.623
		l-7.735-1.961l-4.811,0.9l-5.235,6.631l4.028,1.044l-0.912,2.088l-11.274,4.873l-1.759-1.755l0.868,2.452l-7.206,2.609
		l-0.933,3.561l0,0l-8.393-2.325l-1.399-2.104l1.759-2.042l-2.819-1.882l-11.869,0.665l-21.787,13.102l-7.1,1.534l-12.081,10.441
		l0.424-1.566l-0.572,1.457l-15.153-1.853l0.785,1.899l-14.136,8.575l-8.647,10.429l-3.328,8.18l1.484,4.161l-2.797,19.097
		l1.61,14.557l8.245,2.137l-0.975,2.99l3.878,4.209l-7.778,0.822l-4.006-4.225l-6.485,0.682l-1.759-1.488l-2.585,2.295l-6.888-0.223
		l-5.383,4.162l-3.943-1.076l-5.171,1.724l-2.013,1.631l1.758,4.066l-8.371-1.566l-4.091,2.262l-4.239-0.647l-4.324-4.716
		l-15.492-3.955l-4.874,1.978l-4.048-0.695l-6.168,5.427l-6.061,1.25l-4.662-3.022l-2.586-6.266l-4.705,0.332l-5.086-3.37
		l-8.308-0.712l0.827-5.396l4.239-1.646l0,0l7.269-0.553l2.778-3.116l6.421-0.159l2.14-3.938l14.603-0.175l1.145-1.598l-8.075-6.266
		l-7.1,1.598l-7.989-2.184l1.101-1.566l-5.892-4.257l1.42-2.595l9.792-1.613l-0.551-5.286l-4.047-1.139l2.077-1.962l4.302,0.144
		l-3.264-4.1l1.399-2.198l-3.856-1.613l1.907-1.567l-0.975-3.955l-3.264-1.836l-2.226,1.598l-3.412-3.971l-0.021,1.25l-5.913-0.507
		l-6.655-3.497l1.399-3.037l-3.116-4.367l4.09-3.671l-1.187-2.468l8.032,0.031l-1.06-4.62l4.451-4.509l3.729,4.191l2.035-2.246l0,0
		l0.509,0.032l0,0l5.721,1.06l4.281-2.437l3.094,3.591l8.605-1.866l3.9,2.943l0.593-4.305l3.221-2.547l12.165,3.924l3.116-1.756
		l15.45,0.427l5.319-3.527l0.552-4.146l-5.171-4.574l2.649-8.464l6.548,1.376l3.094,2.77l13.288-3.672l1.42-3.164l5.511-1.725
		l6.676,1.456l0.254-12.863l13.183,1.898l3.157-1.44l-1.229-3.007l2.586-2.878l6.951,0.046l1.271-5.016l7.313-4.509l0.593-2.405
		l-5.235-2.942l-3.284,0.743l-1.907-2.563l-3.137,0.918l-2.776-2.279l5.235-1.375l1.145-4.573l3.327-1.028l-0.89-2.849
		l-13.882,0.935l2.289-3.704l-6.104-1.312l-0.785-2.786l-2.755,1.172l2.925-4.177l-3.052-5.048l2.204-6.867l-6.867-5.918
		l1.674-5.173L700.293,630.239z M609.309,827.67l4.705,0.935l-2.119-3.529L609.309,827.67z"/>
	<path id="FR-L" fill="#CCCCCC" stroke="#FFFFFF" stroke-width="0.5" d="M541.596,467.6l2.733-0.491l0.827,2.311l7.482-0.539
		l0.847-2.23l3.582-0.459l5.404,5.095l9.728-7.659l1.674,3.243l5.68-2.737l1.674,3.165l5.023-2.879l3.814,2.674l2.734-3.338
		l-1.102-2.357l3.116-0.602l4.937,2.928l12.293-1.646l9.643,3.149l9.517-1.757l7.375,0.823l0,0l0.615,3.64l4.09,0.87l-2.775,2.753
		l5.509,3.117l2.014-2.009l2.967,4.588l0.89-1.235l4.473,1.519l7.354,11.803l-1.377,6.536l4.536,4.826l0.868,5.933l-4.154,1.44
		l-0.678,4.05l-5.638,4.684l-2.797-0.285l0,0l-0.382,0.063l0,0l-5.997,3.844l11.91,10.807l-0.17,6.377l-3.137,0.127l-2.183,4.192
		l4.959,3.909l-2.67,12.625l3.582,2.531l-4.196,2.058l-11.614-3.909l0.975,7.01l-14.581,10.727l0.593,3.75l2.777,1.473l-4.642,2.642
		l-0.572,5.094l-6.548,2.057l3.899,5.427l-2.925,1.82l0,0l-0.742-0.143l0,0l-3.497,0.68l0,0l-6.634,0.159l-3.327,2.024l-3.497-2.341
		l-9.325,5.079l-4.536-1.346l-9.155-8.449l-8.859-0.11l-0.678-1.615l-7.927,2.5l0,0l-6.168-7.927l2.989-1.836l-9.113-0.76
		l-4.684-3.021l0,0l0.445-0.048l0,0l2.564-2.089l-5.405-1.456l4.408-4.62l-4.451-1.709l0.827-4.604l2.501-0.094l5.214-5.206
		l-5.978-2.167l3.243-2.896l-15.195-3.956l4.005-4.668l-4.45-2.056l-2.671,1.566l-5.934-7.452l-10.639,0.902l-2.501-2.026
		l-4.98,4.478l-5.341-4.003l2.056-4.652l-4.748-2.643l-5.955,0.682l-2.035-2.041l0,0l7.438-4.889l-0.275-3.94l6.231,1.187
		l3.857-8.576l-1.314-4.589l6.168,0.839l5.723-4.478l-1.95-3.813l-3.561-2.104l-2.289,1.313l-3.857-3.022l1.801-4.319l-2.161-2.548
		l3.264-1.329l-4.748-7.089l5.108-1.771l4.535-5.428l9.071,0.791l3.772-7.816l7.164,1.424l2.416-3.986L541.596,467.6z"/>
	<path id="FR-M" fill="#CCCCCC" stroke="#FFFFFF" stroke-width="0.5" d="M914.708,152.765l3.243,3.339l1.525,7.04l7.374-3.243
		l4.833,2.294l2.713-4.319l9.113,1.139l2.395-2.452l5.638,2.072l2.777,4.431l8.583,0.538l1.355,4.288l5.277,0.348l2.755-1.962
		l2.374,1.361l2.374-3.987l9.833-2.104l11.063,5.443l5.638-1.661l11.255,5.538l-1.483,1.915l5.383,3.687l-2.968,1.867l9.051,6.74
		l-0.805,2.121l2.521,0.917l0.573,3.386l2.479-0.238l-1.06,3.101l2.374,2.31l8.519,1.108l2.332-2.769l-2.098-3.196l8.816-1.013
		l8.369,3.228l1.528,7.69l4.195-4.162l5.087,3.544l7.819-0.95l4.218,1.504l2.84-2.864l3.201,0.032l0.212-2.817l7.014-1.218
		l-0.784,1.899l5.129-0.427l3.011,7.136l9.093,2.421l0.486,1.93l0,0l-5.129,9.636l-3.666,2.452l-7.461-3.592l-11.105,2.5
		l-3.095-1.219l0.299-1.819l-14.794-3.196l-2.48-7.136l-2.713,1.203l-3.094,10.902l-3.688-0.507l-1.037,2.801l-3.053-0.016
		l0.954,3.971l8.265,1.882l0.169,1.551l3.923-0.348l-3.879,1.835l0.085,2.801l3.264,0.443l-0.954,2.674l4.239-1.741l2.373-4.303
		l9.389,2.294l-0.954,1.424l5.786,4.035l-6.357,7.468l2.034,2.943l3.434,0.237l-7.587,10.664l-4.684,2.453l-8.817,0.316l6.063,2.627
		l-3.899-0.569l2.415,2.879l-2.84,7.516l2.056,2.041l-2.84,2.485l3.604,1.882l5.553-0.633l1.695,2.896l-12.292,16.234l1.525,3.512
		l-6.741,8.639l-4.979,2.136l-2.819,7.864l1.528,0.933l-2.884,1.851l2.035,4.004l-7.333,2.705l0,0l-16.659-8.006l-3.771-4.114
		l-11.001,5.902l-3.772-5.491l-4.049-1.851l-16.275,2.801l0,0v-0.506l0,0l-4.874-2.864l-0.976-5.063l0,0l-0.213-0.111l0,0
		l-8.393,1.55l-3.264,4.604l-4.684,2.01l-1.906-0.222l2.84-2.943l-2.395-0.902l-4.259,5.032l0,0l-3.328-4.857l-5.234,2.262
		l-0.954-7.911l-4.812-1.012l-2.246-3.212l-6.039-0.854l3.75-2.247l0.869-6.978l4.324-1.835l-3.731-3.56l-4.046-0.76l1.081-2.579
		l-3.709-2.358l-1.993,1.756l-5.659-7.278l-3.984-0.822l-4.62,2.452l1.335-4.731l-4.259-1.17l6.654-3.149l-12.356-8.529
		l-10.214-1.851l-8.161-6.645l-4.218-0.048l-1.229-3.607l-5.129,1.677l0.954-12.547l-10.512-5.633l4.111-4.366l-2.204-2.563
		l1.887-4.667l0,0l0.382-0.285l0,0l6.866-2.121l2.034-3.449l-3.963-0.997l3.498-0.934l0.19-3.038l-2.438-1.202l-3.814,1.408
		l3.434-4.715l-5.722-11.629l4.642-2.421l-3.604-2.816l8.752-3.718l0.509-1.978l-2.754-1.614l2.543-5.775l4.154-1.092l-2.119-2.452
		l3.369-1.693l-0.36-3.877l-4.578-4.303l2.585-3.608l0,0l0.149-0.601l0,0l1.97-5.032l2.713,0.158l1.78,2.801l6.273-0.649
		l2.416,2.785l11.741-7.547l0,0L914.708,152.765z"/>
	<path id="FR-N" fill="#CCCCCC" stroke="#FFFFFF" stroke-width="0.5" d="M428.211,751.644l0.508,0.253l0,0l2.182,3.988l-3.667,1.961
		l-1.652-2.769l1.717-3.054l0,0l0.615-0.348l0,0L428.211,751.644z M430.796,746.232l0.509,5.649l0,0l-1.463-0.27l0,0l-2.119-1.519
		l2.564-0.775l-0.338-3.402l0,0L430.796,746.232z M565.375,595.587l7.927-2.5l0.678,1.615l8.859,0.11l9.155,8.466l4.536,1.345
		l9.325-5.079l3.497,2.342l3.349-2.025l6.612-0.159l0,0l3.645,5.111l-1.038,4.336l7.079,7.815l-3.688,8.481l2.585,0.079l1.039,5.253
		l2.945,1.915l1.124-2.975l6.888-1.678l2.797-0.19l2.247,2.753l11.571-0.933l1.377-3.513l5.341-2.864l-0.89-3.068l4.451-3.576
		l0.36-4.953l11.657-8.829l3.284,2.707l-0.127,5.188l7.63-1.709l2.522,7.848l2.84-0.411l1.462,1.804l-2.247,1.171l2.225,7.5
		l3.942,3.259l0,0l9.136,7.833l-1.674,5.175l6.866,5.916l-2.205,6.868l3.052,5.047l-2.924,4.178l2.755-1.171l0.784,2.784
		l6.104,1.313l-2.289,3.702l13.882-0.934l0.89,2.848l-3.327,1.029l-1.145,4.572l-5.235,1.377l2.776,2.278l3.137-0.917l1.907,2.563
		l3.286-0.744l5.234,2.943l-0.593,2.404l-7.312,4.511l-1.272,5.016l-6.951-0.049l-2.586,2.881l1.229,3.005l-3.157,1.44
		l-13.183-1.899l-0.255,12.865l-6.676-1.457l-5.51,1.726l-1.42,3.165l-13.289,3.67l-3.094-2.77l-6.549-1.377l-2.649,8.467
		l5.171,4.571l-0.551,4.146l-5.319,3.528l-15.45-0.428l-3.115,1.757l-12.166-3.925l-3.222,2.548l-0.593,4.304l-3.9-2.942
		l-8.604,1.867l-3.094-3.593l-4.28,2.437l-5.723-1.06l0,0l-0.509-0.031l0,0l-2.034,2.247l-3.729-4.194l-4.451,4.511l1.06,4.62
		l-8.032-0.032l1.187,2.469l-4.091,3.67l3.116,4.368l-1.399,3.038l6.655,3.496l5.913,0.506l0.021-1.249l3.412,3.972l2.226-1.599
		l3.264,1.835l0.975,3.955l-1.907,1.567l3.857,1.614l-1.398,2.198l3.263,4.099l-4.302-0.143l-2.077,1.962l4.047,1.14l0.552,5.284
		l-9.792,1.614l-1.42,2.595l5.891,4.257l-1.101,1.565l7.989,2.184l7.1-1.599l8.075,6.266l-1.145,1.598l-14.602,0.175l-2.141,3.94
		l-6.421,0.157l-2.776,3.117l-7.27,0.555l0,0l0.509-1.22l-5.871-0.205l0.868-2.373l-12.016-0.87l-4.281-2.595l-6.209,0.363
		l-0.191,3.323l-3.54,1.013l-7.1-10.348l-11.042-0.761l-5.383,1.709l-7.926-7.104l-8.393,0.158l-2.077-1.709l-3.01,1.471
		l-19.18-6.471l-4.344,1.993l0.975,3.039l-2.225,1.945l1.907,0.68l-2.162,1.82l3.157,2.531l-0.212,3.149l-6.908-1.299l-15.386,1.331
		l-5.49-2.959l-5.786,4.509l-3.052-3.766l-7.333-1.884l-15.683,4.637l-4.811-0.648l-1.039-2.247l-3.836-0.743l-4.217-6.425
		l-2.417,0.981l-11-5.568l0,0l-1.25-6.061l4.069-1.488l-0.594-6.377l2.396-2.848l7.099-1.313l-1.145-5.584l4.133-1.313l2.521-4.589
		l4.366,0.269l-0.466-4.128l2.098,0.378l2.819-4.668l-2.543-2.784l6.676-4.034l-2.924-2.341l0.254-6.582l-5.849,3.101l0.126-4.7
		l4.176-0.807l-4.217-6.852l-2.396,0.429l-0.253-3.481l-7.1-1.298l-5.405,1.234l-0.762-2.99l-2.84-0.237l-0.191-2.231l3.498-1.061
		l-0.679-4.746l4.854-2.722l-2.797-6.424l2.903-0.158l-1.335-4.336l1.95-0.964l-4.684-2.659l5.277-3.781l7.354,0.981l5.235-5.079
		l3.794,2.752l-2.437,2.264l7.036,2.99l1.505-1.867l-1.802-4.066l6.273-3.672l2.606,2.627l3.095-3.844l3.455-0.634l6.124,2.85
		l1.251-1.709l11.254-1.788l1.653-2.484l8.35,0.078l3.264-2.294l6.231,5.096l6.718-3.402l1.547-4.161l3.646-0.332l-0.785-2.959
		l6.422,1.55l2.818-1.027l-0.763-3.388l-2.819-0.821l4.685-0.602l3.877-7.627l-7.163-3.259l2.374-6.488l2.119-0.269l1.843,3.561
		l0.933-1.504l9.643-0.363l-0.509-5.586l-3.327-1.646l-0.042-5.616l-3.115-3.418l2.967,0.649l7.82-3.34l-0.848-1.851l5.192-4.177
		l-0.53-2.848l6.634-1.266l8.096-5.206l-1.547-5.142l5.956-1.394l-0.36-3.006l6.888-3.291l-2.458-2.943l2.543-0.554l-2.479-7.104
		l0,0l-0.361-1.091l0,0L565.375,595.587z"/>
	<path id="FR-O" fill="#CCCCCC" stroke="#FFFFFF" stroke-width="0.5" d="M663.331,3.544l1.124,5.475l5.108,5.744l-3.667,2.879
		l0.826,7.279l3.137,3.86l7.715,0.222l6.273,8.923l4.6,0.158l5.255,3.181l4.048-6.187l17.464-3.939l3.518,6.708l6.104,2.437
		l-1.887,4.51l4.599,13.781l7.439,3.418l6.273-1.583l2.416-2.753l3.878,0.997l-1.61,3.735l9.495-0.902l4.577,4.05l-0.148,8.908
		l4.387,6.614l3.476-4.73l9.029-0.095l4.557,2.579l10.787-3.291l4.556,4.937l3.583,0.76l1.822,4.668l2.607-0.033l-0.424-3.165
		l4.069,1.757l1.124,1.978l-6.188,4.082l0.381,5.094l-2.331,3.022l6.314,0.063l2.649,6.503l-6.167,2.151l-1.611,6.978l0,0
		l-4.917,1.076l-9.389-2.468l0.149-5.174l-8.33,3.544l-1.356-2.88l-13.861-3.291l-4.472,1.629l-0.382,2.453l-4.004,0.459
		l-6.168-3.022l-4.663,3.734l-11.19-1.898l-3.009,2.12l-4.536,0.158l-1.674-1.851l-7.588,2.136l-6.888-4.209l-7.036-0.649
		l-3.815,1.789l-4.472-0.76l-4.959,2.912l-0.552-5.807l-9.728,3.434l2.925-6.883l-4.492-1.487l-1.972-0.11l-0.317,4.683
		l-11.254-3.276l0.169-2.737l-2.225-0.269l-1.696,2.942l-1.632-2.769l-2.946,0.269l-5.489,5.206l-3.751-2.262l1.039-4.494
		l9.41-4.177l-3.836-3.671l-3.963-0.427l-4.196,2.88l-2.31-3.323l-0.467,2.658l-5.023-1.614l-10.617,3.939l-1.759-1.978
		l-3.899,0.918l-0.784-5.269l-11.466-3.655l-1.271-1.187l2.945-2.262l-1.589-0.981l-3.412,2.009l-9.112-5.047l-12.293,3.165
		l-2.055-2.278l0,0l-7.715-4.969l2.839-14.177l4.261,2.579l-5.171-5.775l-1.208-16.187l0.361-1.519l0.805,2.484l1.59-1.629
		l1.737-7.39l-2.861-6.994l7.058-1.55l7.354-6.06l11.084-2.689l-2.586-0.364l22.338-4.304l1.123,1.076l4.663-3.576l-0.975,1.867
		l2.713,1.931l1.462-3.798l0.72,1.218l13.056-3.338l2.437,1.313L661.805,0L663.331,3.544z"/>
	<path id="FR-P" fill="#CCCCCC" stroke="#FFFFFF" stroke-width="0.5" d="M267.796,140.044l4.196,2.104l3.095-1.202l2.415,2.769
		l18.164,3.212l-0.424,2.342l1.102-2.23l10.66-1.124l1.229-2.911l18.312,0.08l3.179,9.035l-2.289-0.602l-1.547,4.209l0.042-1.408
		l-2.268,0.316l-1.018,3.497l12.568,14.177l-3.072,7.311l4.132-2.816l3.434,1.883l3.624-4.621l9.622-0.759l18.481,4.873l31.79,1.599
		l10.108,4.066l3.158-0.838l1.822,2.041l19.477-4.431l11.296-7.689l8.499-2.674l-9.919-0.317l15.345-0.174l0,0l3.582,9.335
		l-2.586,2.421l2.459,1.946l-1.229,1.313l4.684-1.376l1.844,1.17v2.136l-5.553,1.598l6.507,3.782l-0.827,5.665l4.217,1.282
		l-2.86,3.45l1.673,3.084l-4.599,2.263l7.079,3.702l-5.617,10.348l6.083,3.323l8.604,0.442l2.627-1.851l0.785,2.088l2.289-0.585
		l-0.466,2.294l2.31,0.032l-2.374,2.215l12.971,6.456l1.399,2.944l-4.048,3.053l3.667,1.155l0.17,2.563l3.941-0.047l0,0l0.318,5.743
		l12.971,8.75l-2.692,4.652l3.519,3.56l-5.426,6.694l-12.695,4.968l-1.292,2.247l4.472,1.029l-1.589,2.769l3.708,4.652l-2.861,1.898
		l0,0l-5.255,0.586l-7.417-7.437l-1.293,3.022l-9.092-1.551l-4.048-6.043l-0.89,1.139l-7.671-2.294l-0.87-10.159l-7.163-5.538
		l-13.755,2.294l1.102,1.582l-7.545,3.244l-1.166,3.054l-5.193-1.946l-4.407,2.247l0.021-7.563l-8.457-0.569l-2.373-5.301
		l2.479-1.725l-5.447-3.528l-3.687-0.063l0.678,2.769l-2.649,2.863l-4.387-1.487l-2.819,3.782l-3.836-2.547l-9.96,0.095
		l-3.624,3.543l-8.817,2.864l-1.06-4.067l-2.226,1.677l-3.645-0.506l1.483,2.327l-4.069,1.376l-1.653-2.896l-3.073,0.998
		l-2.776-4.351l-5.595,0.269l-4.112-2.041l-4.259,2.769l-5.764-1.867l0,0l-16.171-3.529l-8.816,7.421l-5.935,0.791l-5.913-2.784
		l-7.333-14.382l0,0l5.235,1.424l0.105-1.741l1.802,1.472l5.701-1.994l6.337,1.045l-5.108-2.659l2.225-1.629l-5.383,2.025
		l-10.703-9.113l-0.382-7.437l-3.517-1.329l6.463-9.636l-1.929-0.934l0.445-8.497l4.663,0.602l-4.917-1.772l-1.569,3.797
		l-1.907-3.813l-1.314-17.99l4.111-0.3l-4.132-1.298l-1.082,2.485l-7.078-11.978l-9.029-4.43l-3.369-13.227l-3.497-3.054
		l4.154-3.718l-0.7-6.092l-2.352-2.816l-6.337-1.614L267.796,140.044z"/>
	<path id="FR-Q" fill="#CCCCCC" stroke="#FFFFFF" stroke-width="0.5" d="M559.187,105.71l6.273-0.586l0.318,3.117l22.846,15.554
		l1.951,7.294l4.557,5.332l-3.222-0.094l-5.298,6.945l1.504,1.425l3.984-1.425l-4.769,5.127l2.099,2.12l-1.802,4.13l0,0h-0.382l0,0
		l4.6,4.478l-2.734,3.465l2.416,1.456l1.293-2.247l2.712,0.791l-1.611,3.418l0,0l-0.848,0.412l0,0l-4.259,5.885l2.267,0.174
		l-1.61,1.235l3.475,2.753l0.996,7.5l2.777,1.724l-1.314,2.864l-2.734-2.642l-4.281,0.775l-0.487,3.307l0,0L580.74,204.6
		l-8.478,1.614l0,0l-0.467,0.015l0,0l-0.953-1.614l-1.865,3.498l-3.54-0.285l2.671,3.939l-0.72,3.798l4.28-0.253l-2.353,1.139
		l0.785,2.675l0,0l-4.684,1.661l1.081,5.158l-8.646,3.718l0.911,5.301l-3.519,1.993l-9.663,0.317l-8.902-3.117l-0.53,4.256
		l-4.578-1.171l-4.726,3.275l0,0h-1.822l0,0l-9.897,0.966l-1.124,2.752l-4.238,1.772l0,0l-3.942,0.047l-0.17-2.563l-3.666-1.155
		l4.048-3.054l-1.399-2.942l-12.971-6.456l2.374-2.215l-2.31-0.032l0.465-2.294l-2.288,0.585l-0.784-2.088l-2.628,1.852
		l-8.605-0.444l-6.082-3.323l5.616-10.347l-7.079-3.703l4.599-2.262l-1.674-3.086l2.861-3.45l-4.218-1.281l0.827-5.664l-6.507-3.782
		l5.553-1.598v-2.136l-1.844-1.171l-4.684,1.377l1.229-1.313l-2.458-1.946l2.586-2.42l-3.582-9.336l0,0l0.869-1.788l-2.077,1.203
		l-13.84-3.181l-4.196-4.019l7.608-13.702l-2.564-2.548l2.776,0.95l4.557-5.301l11.423-3.417l21.978-11.139l16.362-1.867
		l16.466-5.206l5.193,1.124l5.744-1.93l0.89,1.803l-0.571-1.993l9.431-3.354L559.187,105.71z"/>
	<path id="FR-R" fill="#CCCCCC" stroke="#FFFFFF" stroke-width="0.5" d="M239.397,406.162l3.476,1.819l-1.25,3.244l6.591,2.483
		l0.636,5.238l-5.149-6.092l-4.685-0.143l-3.412-3.053l-0.593-3.212L239.397,406.162z M343.797,261.956l5.764,1.867l4.26-2.769
		l4.111,2.041l5.595-0.269l2.776,4.351l3.073-0.997l1.653,2.896l4.069-1.377l-1.483-2.326l3.646,0.507l2.225-1.677l1.06,4.066
		l8.817-2.863l3.624-3.545l9.96-0.095l3.836,2.547l2.819-3.781l4.387,1.487l2.649-2.864l-0.678-2.769l3.688,0.063l5.447,3.528
		l-2.479,1.725l2.373,5.301l8.457,0.569l-0.021,7.563l4.408-2.248l5.192,1.947l1.166-3.054l7.545-3.244l-1.102-1.582l13.755-2.294
		l7.164,5.538l0.869,10.158l7.671,2.294l0.891-1.14l4.047,6.045l9.092,1.55l1.293-3.022l7.417,7.437l5.256-0.585l0,0l10.384,5.443
		l-5.701,0.538l-0.848,2.896l-2.458,0.427l2.797,0.459l-0.19,2.183l-4.345,0.237l0.319,3.276l3.941,0.728l-2.077,4.272l2.67,4.494
		l-2.945,0.775l-0.36,4.272l-1.887-2.294l-2.543,1.092l0.699,6.693l-6.697,4.763l0.827,1.582l-6.591,1.471l-3.604,3.308l0.89,2.864
		l2.035-0.459l-1.992,2.057l-11.635,2.61l-1.292,2.5l-5.808-2.374l-1.654,2.326l3.392,3.987l-1.717,0.823l-13.309-3.386l0,0
		l0.105,0.823l0,0l-3.497,5.57l2.819,1.14l-0.403,2.642l-6.04,9.746l2.586,1.725l-9.241,9.667l-2.013,11.329l0,0l-3.137-1.061
		l-2.332,1.44l-2.564,7.088l-4.408-1.36l-3.794,4.478l-4.386-1.551l3.221-3.196l-3.646-0.476l-1.802,1.361l-5.383-1.108
		l-11.507,1.393l-0.975,2.358l-6.485,1.281l1.907-2.705l-3.094-0.19l-5.425,1.867l1.123,3.039l-4.852,3.417l-6.274-0.601
		l-3.877,1.851l-6.401-2.057l-5.723,3.418l-3.836-0.443l2.861,1.203l-1.292,1.55l2.67,0.063l-1.017,1.043l4.556,1.282l-2.035,3.465
		l4.896,4.304l0,0h0.36l0,0l3.498,1.756l0,0h0.614l0,0l2.311,1.123l-1.759,1.219l0,0l0.085,0.396l0,0l-0.212,3.56l5.595,5.269
		l-2.056,1.329l3.751,2.183l-1.907,2.58l3.772,1.393l-1.145,4.398l2.056,4.099l-3.836,1.139l3.455,6.234l-2.882,5.459l1.844,0.601
		l1.292-2.12l5.85,2.753l-9.517,6.471l-4.429-0.807l-2.119,2.214l-9.284-3.354l0,0l-0.381-0.411l0,0l-1.653,2.342l-3.221-0.887
		l-3.943,1.567l-2.606-1.171l2.776-4.604l-10.894,2.01l-1.865,3.085l-3.603,0.063l0,0l-7.545,0.158l-0.361,4.272l-9.643-6.076
		l1.78,4.065l-4.217-4.841l-10.936-0.015l-4.111-5.839l-11.826-1.534l-14.476-7.105l-3.814-11.076l-8.012-8.354l-17.081-11.882
		l-0.869-6.456l3.645-0.237l-0.783-1.629l7.587-5.744l0.423-3.876l4.451-1.915l-10.639-8.275l-12.971-1.725l7.122-3.434
		l-0.445-9.225l-3.54-0.569l-7.714,3.607l-6.697-4.382l-4.938,1.93l-9.96-3.07l3.179-1.772l0.253-2.864l-4.726-3.48l8.859-4.763
		l0.042-2.357l0,0l3.03-2.801l1.908,2.009l7.418-0.458l1.653-5.348l4.726,2.104l5.277-1.756l1.886,2.215l0.551-3.085l5.214-1.092
		l1.441-11.361l9.558-4.272l1.61,2.184l8.351-3.623l17.611-0.095l3.328-5.253l13.119-3.845l-0.508-3.149l7.968,0.696l2.182,2.832
		l10.258,2.2l8.053-18.386l12.187-3.75l-5.108-19.398l0,0l-0.36-0.253l0,0l-1.97-6.187l4.917-6.171l-3.157-8.464L343.797,261.956z"
		/>
	<path id="FR-S" fill="#CCCCCC" stroke="#FFFFFF" stroke-width="0.5" d="M581.143,75.521l1.251,0.744l0,0l2.056,2.278l12.292-3.165
		l9.114,5.047l3.412-2.009l1.589,0.981l-2.946,2.262l1.272,1.187l11.466,3.655l0.785,5.269l3.899-0.918l1.759,1.978l10.617-3.939
		l5.023,1.614l0.466-2.658l2.311,3.323l4.196-2.88l3.963,0.427l3.835,3.671l-9.41,4.177l-1.038,4.494l3.751,2.262l5.489-5.206
		l2.946-0.269l1.632,2.769l1.695-2.942l2.226,0.269l-0.17,2.737l11.253,3.276l0.319-4.683l1.97,0.11l4.493,1.487l-2.924,6.883
		l9.728-3.434l0.552,5.807l4.959-2.912l4.471,0.76l3.815-1.789l7.036,0.649l6.888,4.209l7.587-2.136l1.674,1.851l4.535-0.158
		l3.01-2.12l11.189,1.898l4.663-3.734l6.167,3.022l4.005-0.459l0.382-2.452l4.472-1.63l13.861,3.291l1.356,2.88l8.329-3.544
		l-0.148,5.174l9.389,2.468l4.916-1.076l0,0l7.842,2.088l0,0l-1.272,4.573l3.349,1.013l-0.212,3.623l-4.154,8.971l3.857,2.326
		l-5.701,5.87l-5.193,2.12l-0.975,4.557l-6.528-0.474l-1.546,1.598l4.789,5.142l-2.479,2.659l2.585,2.056l-3.327,1.789l2.395,6.186
		l-2.692,0.728l-0.127,7.864l-6.803-1.724l-3.137-2.943l-5.998,2.674l-0.381,3.56l-6.464-1.155l-11.656,4.304l2.882,7.911
		l-2.119,2.2l2.479,1.582l1.462-0.998l1.42,3.022l3.009-0.427l-0.063,2.231l-3.836,1.661l-7.29-0.807l-1.887,3.085l3.285,4.241
		l-4.514,1.693l-0.148,2.326l5.765-0.617l2.395,2.879l-7.714,5.396l1.145,1.709l-2.586,0.364l-0.296,2.469l-3.73,0.253l-3.751,5.949
		l0,0l-2.119,1.456l-1.377-2.262l-5.511-1.156l-1.355-5.617l-3.413,2.01l-2.119-4.051l-3.539,0.981l-1.166-3.354l-7.397-3.971
		l2.056-3.782l-4.578-5.602l-6.019-1.092l-0.297,3.18l-5.065-0.633l-1.887,2.058l-1.652-2.058l-10.279,2.136l-3.836-2.642
		l-6.549,3.576l-8.88-4.747l-4.344,2.864l-2.734-4.462l-1.781,2.468l-3.687-0.649l1.187-1.139l-3.836-2.311l-2.289,0.744l0.53-1.297
		l-5.723-1.313l-1.525,1.155l-3.858-3.829l-2.479,2.674l-4.62,0.854l-1.272-2.817l-4.218,1.582l-7.883-4.683l-6.952,3.465
		l-10.448,1.298l-6.995-2.247l-4.302,0.98l-1.589-1.946l0,0l-0.806,0.017l0,0l1.103-2.944l-3.179-0.758l0,0l0.486-3.308l4.282-0.775
		l2.734,2.642l1.313-2.864l-2.776-1.725l-0.996-7.5l-3.476-2.753l1.611-1.234l-2.269-0.174l4.261-5.886l0,0l0.848-0.411l0,0
		l1.61-3.418l-2.712-0.791l-1.292,2.247l-2.416-1.456l2.734-3.465l-4.599-4.478l0,0h0.38l0,0l1.802-4.129l-2.099-2.12l4.769-5.126
		l-3.984,1.424l-1.505-1.424l5.298-6.946l3.222,0.095l-4.557-5.333l-1.95-7.294l-22.847-15.554l-0.317-3.117l-6.273,0.585l0,0
		l6.528-4.509l6.21-10.063l4.047-0.997l1.696,3.038l6.273,1.25l2.564-1.392l-13.141-8.797l1.442-8.939L581.143,75.521z"/>
	<path id="FR-T" fill="#CCCCCC" stroke="#FFFFFF" stroke-width="0.5" d="M314.126,499.514l8.096,5.079l6.825,0.964l0.148,5.19
		l4.387,6.504l-3.92,5.665l-3.349-7.643l-10.364-6.867L314.126,499.514z M305.034,479.704l3.221,2.216l-4.111,0.443l1.695,2.389
		l7.757-2.469l-2.332,1.567l1.25,1.171l5.278-0.712l10.067,4.367l-5.086,1.883l-13.416-5.601l-6.315,0.016l-2.48-3.94
		L305.034,479.704z M339.728,474.103l3.602-0.063l1.865-3.085l10.894-2.01l-2.776,4.605l2.606,1.171l3.943-1.567l3.22,0.886
		l1.654-2.341l0,0l0.381,0.411l0,0l9.284,3.354l2.119-2.215l4.429,0.808l9.515-6.472l-5.849-2.752l-1.292,2.12l-1.844-0.601
		l2.882-5.459l-3.455-6.234l3.836-1.14l-2.057-4.098l1.145-4.399l-3.772-1.392l1.907-2.579l-3.751-2.183l2.056-1.329l-5.595-5.269
		l0.212-3.56l0,0l-0.085-0.396l0,0l1.759-1.218l-2.311-1.124l0,0h-0.614l0,0l-3.498-1.757l0,0h-0.36l0,0l-4.896-4.303l2.035-3.465
		l-4.557-1.282l1.018-1.044l-2.67-0.063l1.292-1.551l-2.861-1.202l3.836,0.443l5.723-3.418l6.4,2.058l3.878-1.851l6.273,0.601
		l4.854-3.418l-1.123-3.038l5.426-1.868l3.094,0.19l-1.907,2.706l6.485-1.282l0.975-2.357l11.508-1.393l5.383,1.108l1.801-1.36
		l3.646,0.474l-3.222,3.196l4.387,1.551l3.794-4.478l4.408,1.361l2.564-7.088l2.332-1.44l3.137,1.06l0,0l2.31,4.319l5.278-0.569
		l-0.467,1.709l2.395,0.601l1.739-1.361l1.61,2.278l-1.907,3.133l5.871-1.187l2.035,2.784l3.052-0.823l0.827,5.079l-1.865,0.776
		l2.84,5.743l3.667-1.803l6.443,1.915l5.913-2.817l8.138,0.158l-2.67-4.7l4.387-0.126l6.506,3.244l1.124,6.756l8.075,5.126
		l1.652,5.791l8.583,5.95l1.272,3.132l-3.094,6.171l1.589,2.689l9.135,3.244l0.487,2.927l6.422-0.031l4.535,2.785l0.572,5.569
		l5.383,1.424l-1.356,3.022l0,0l-1.611,1.598l0,0l0,0l0,0l-1.822-0.459l-2.416,3.988l-7.143-1.408l-3.772,7.816l-9.072-0.791
		l-4.534,5.426l-5.108,1.772l4.748,7.089l-3.264,1.329l2.182,2.546l-1.802,4.32l3.858,3.022l2.289-1.313l3.56,2.104l1.929,3.813
		l-5.723,4.478l-6.167-0.854l1.314,4.588l-3.857,8.576l-6.231-1.187l0.255,3.956l-7.439,4.889l0,0l-5.701,7.168l-4.79,0.048
		l-0.572,7.594l-4.875,2.595l-1.525,3.529l-4.494,0.016l-4.408,4.082l-2.479-1.613l1.292,2.104l-3.604,0.901l-2.521,5.396
		l1.653,6.74l-7.99,3.387l-3.561,5.094l-6.951-1.947l-4.196,2.279l-2.396,3.512l2.036,1.108l-3.604,1.187l-0.635,3.844l-3.858-2.135
		l-4.896,2.974l-4.154-0.443l-5.976-1.897l-1.887-2.579l-2.988,0.442l-2.098-2.642l-2.225-0.317l-1.802,2.452l-1.569-3.56l0,0
		l-0.105-0.411l0,0l-2.034-8.56l-12.313-1.677l-1.972-4.667l-0.72,2.405l-10.534-0.666l0,0l-3.497-9.129l-5.68-6.202l-13.224-6.377
		l-4.706-5.822l-16.021-6.93l-2.396,0.38l1.017,1.915l-1.292-1.899l-0.127-8.766l9.113-1.582l-3.984-4.731l5.595-0.538l3.519-4.589
		l-2.226-3.527l1.929-0.396l-0.467-2.801l-3.179-2.247l5.956,0.032l-4.302-8.702l-3.667-1.093l1.25-1.93l-3.963-1.029l2.077-1.818
		l-5.001,1.123l-2.734-1.741l3.284-4.541l7.927-4.572l-2.035-4.019L339.728,474.103z"/>
	<path id="FR-U" fill="#CCCCCC" stroke="#FFFFFF" stroke-width="0.5" d="M877.046,650.712l0.869,0.729l0,0l6.167,2.801l0,0
		l0.064,0.538l0,0l-4.197,1.471l-3.2,6.202l-8.583-1.075l-1.378-4.13l3.201-4.319l0,0l0.763-1.014l0,0l0.679-0.269l0,0l1.462-0.252
		l0,0l2.712-1.63l0,0l0.36,0.695l0,0l0.911,0.08l0,0L877.046,650.712z M907.905,760.204l2.989-3.751l-2.608-2.262l2.438-1.202
		l-5.702-5.95l-7.099,2.943l-15.705,0.348l-7.037-9.034l-4.387-0.617l-2.31,2.452l1.06-2.216l-2.12,0.936l-1.822-3.213l1.462,3.986
		l-4.345-1.724l2.903,2.532l-4.874,1.423l4.048-0.205l-1.421,1.075l3.773,1.805l3.392-2.2l-7.08,4.764l-22.38-2.928l-2.12-1.836
		l2.862-3.733l-5.044-2.705l-26.662-0.729l0,0l0.932-3.56l7.206-2.611l-0.868-2.452l1.759,1.757l11.274-4.873l0.912-2.09
		l-4.028-1.044l5.235-6.629l4.811-0.902l7.735,1.962l-1.335-3.623l4.811-10.807l-2.269-1.978l15.175-8.766l-0.021-2.279l2.69-0.095
		l-5.107-6.978l-5.808-1.44l0.085-9.65l-1.25-2.454l-3.009-0.109l-2.077-5.033l0,0l0.105-5.442l12.144,1.535l2.671,7.848
		l21.194-7.326l4.28,2.754l3.732-2.928l0,0l1.397-0.49l0,0l-1.292,7.595l6.824,1.898l1.716-1.835l4.303,2.216l5.023-0.665
		l2.608,1.281l-0.17,4.114l4.62,0.315l1.716,2.959l7.61-1.218l5.298-5.364l3.326,2.152l-0.741,1.582l4.154,0.38l0.36-1.566
		l-3.475-0.728l3.794-2.247l0.021-6.471h-3.477l-0.932-3.086l-2.523-0.507l1.865-2.5l-7.164,0.301l-2.33-1.883l-2.479,1.203
		l-5.532-3.402l-0.996-4.604l5.087,0.538l1.842-1.629l-2.945-0.966l-0.573-4.716l13.734,2.548l1.271-2.626l3.117-0.206l-5.892-3.813
		l4.473-6.233l-0.425-3.671l7.565,1.171l1.782-2.12l3.54,0.792l3.603-3.403l-2.777-1.471l2.479-4.891l4.917,1.204l6.019-1.298
		l2.564-1.947l-2.714-2.15l5.998-2.848l3.413,1.803l6.823-4.462l9.982,1.14l3.878-2.025l5.659,1.757l0.213-7.817l-3.117-1.344
		l0.108-4.161l-10.515-1.615l3.626-9.684l4.26,1.156l3.454-1.409l2.775,4.921l7.588,1.693l3.138-0.286l-0.551-3.512l2.649-1.519
		l2.755,0.886l3.199-2.23l4.643,1.375l0,0l3.729,8.387l6.229,0.522l0.594,10.077l9.897,5.097l4.112,0.585l2.226-1.678l7.628,3.575
		l-1.99,3.165l6.697,9.747l-10.025,0.555l0.466,5.3l-9.877,8.275l1.993,4.43l6.188,4.62l-4.895,0.759l-0.468,5.411l9.432,7.533
		l1.06,4.05l15.874,3.148l8.074,5.522l5.596-0.491l1.271,2.816l5.913,0.285l0.529-1.661l16.53-1.757l1.613-2.483l4.153,0.19
		l-1.548,3.971l4.238,4.304l-0.805,3.798l-3.753,1.25l-0.931,4.952l-7.503,2.941l-0.764,4.163l-5.381,2.12l3.051,8.195
		l-10.937,5.775l-5.913,0.586l-0.507,3.29l-1.569-2.752l-0.954,1.914l-5.468-0.349l-2.925,3.48l-4.578-0.221l-3.094,5.981
		l2.055,3.147l-2.119,0.918l-2.012-2.627l-5.257,3.228l-1.971-1.438l-4.684,0.807l-2.269,2.531l1.739,1.534l-5.743,6.141
		l-8.967,1.818l-3.878-1.281l-2.521,6.74l-12.463,6.804l10.789,0.507l-2.819,2.135l1.399,3.893l-3.454,1.171l0.442,1.709
		l-2.287,0.854l-5.236-2.801l-5.699,3.435l-9.856,0.584l-1.8,5.206l-7.906-3.117l-7.673,0.555l-3.221,4.446l0.445,3.448l-5.277-0.19
		l3.009-1.375l-0.444-3.134l-9.069,0.095l-1.739-2.483l-6.486,0.333l-0.422-2.011l-3.519,1.995l5.849,3.084l-4.979-0.979
		l-2.798,2.894l-2.734-0.284l-3.115-1.693l1.335-4.161l-3.667-0.079l0.488-2.041l-6.782-0.427l-0.805-3.244l-5.682-0.602
		l-1.566,2.391l-6.019-4.891l-3.222,1.582L907.905,760.204z"/>
	<path id="FR-V" fill="#CCCCCC" stroke="#FFFFFF" stroke-width="0.5" d="M781.019,477.948l-0.763,5.822l7.248,1.108l1.462,3.164
		l9.982-2.784l6.633,2.356l2.586-1.945l1.589,1.582l2.501-0.933l-0.404,2.736l2.247,0.223l8.563-2.801l2.904-10.412l4.663-0.126
		l3.984,2.801l5.659-2.484l4.386,2.69l1.675-3.37l3.751-0.491l2.713,2.611l-2.734,1.867l4.98,2.421l-1.463,3.654l3.434,2.12
		l1.886-0.396l14.178-32.452l0.848,1.677l2.946-1.329l6.379,2.927l9.665-1.899l0.105-1.44l3.37,1.282l2.585,4.525l6.911,1.107l0,0
		l-1.357,3.149l6.846,2.927l-1.399,1.139l3.729,5.666l1.803-3.545l1.122,3.086l3.369-0.017l-0.126,4.858l5.743-0.396l9.156-7.214
		l0.316,1.945l5.913,1.409l1.019,4.588l12.695-0.363l17.187-14.336l0,0l9.262,4.668l-5.954,7.769l1.97,3.228l-12.695,3.259
		l-1.355,1.899l2.649,1.424l-3.264,5.016l8.308-2.216l6.718,1.139l14.687-8.069l1.25-2.928l-4.301,0.443l-1.124-4.937l-2.415-0.792
		l2.819-4.572l23.46-9.208l14.349,0.221l12.143,2.611l-4.344,6.804l8.267,7.056l-5.343,7.247l-0.614,6.25l8.922,1.234l-2.014,7.199
		l5.193-1.535l9.029,10.412l0.572,2.926l-4.197,4.843l-7.331,2.942l-8.161,0.365l-1.165,10.458l9.517,6.932l7.438,1.106
		l-2.015,4.858l2.035,7.753l4.789,0.964l-0.466,2.089l4.452,0.238l1.291,3.401l6.399,2.548l-6.78,7.31l2.182,6.661l-5.741,4.113
		l-6.021-0.776l-4.938,4.701l-4.619,0.126l-0.021,2.942l-3.879,0.887l-7.143-3.007l-12.017,4.605l0,0l-4.643-1.377l-3.199,2.231
		l-2.755-0.887l-2.649,1.519l0.551,3.514l-3.136,0.284l-7.587-1.693l-2.778-4.92l-3.454,1.408l-4.259-1.154l-3.624,9.682
		l10.512,1.615l-0.105,4.161l3.114,1.344l-0.211,7.817l-5.658-1.757l-3.879,2.025l-9.981-1.139l-6.826,4.461l-3.411-1.803
		l-5.998,2.848l2.714,2.152l-2.566,1.945l-6.019,1.298l-4.916-1.202l-2.481,4.889l2.778,1.471l-3.604,3.403l-3.539-0.792l-1.78,2.12
		l-7.567-1.171l0.424,3.671l-4.473,6.235l5.893,3.812l-3.115,0.205l-1.272,2.627l-13.732-2.546l0.571,4.714l2.947,0.966l-1.844,1.63
		l-5.087-0.539l0.998,4.604l5.53,3.402l2.479-1.202l2.333,1.883l7.163-0.301l-1.865,2.501l2.521,0.505l0.934,3.086h3.475
		l-0.021,6.471l-3.794,2.247l3.475,0.728l-0.36,1.566l-4.154-0.38l0.743-1.582l-3.328-2.151l-5.298,5.363l-7.608,1.22l-1.718-2.959
		l-4.62-0.317l0.169-4.114l-2.607-1.281l-5.023,0.665l-4.301-2.215l-1.718,1.834l-6.824-1.897l1.293-7.596l0,0l-1.399,0.491l0,0
		l-3.729,2.927l-4.282-2.754l-21.193,7.327l-2.67-7.848l-12.144-1.535l-0.106,5.443l0,0l-12.674-6.694l-4.577,0.492l-1.336,5.046
		l-3.729-0.664l-0.318-5.127l-5.786,0.745l-6.083,6.707l-11.211-6.55l-7.206,1.614l-0.679-6.614l2.501-1.281l-7.1-6.123l-3.137-9.05
		l-4.366-2.168l-3.666-13.781l0,0l5.468-2.247l2.268-5.38l3.434,1.407l-0.508-1.961l1.547,1.202l2.479-1.266l0.572-3.577
		l10.724-0.078l5.998-8.338l7.82-0.918l-1.526-4.288l7.333-1.598l-2.904-3.702l2.162-2.769l2.417,0.125l0,0v-0.837l0,0l-2.204-2.769
		l4.303,0.695l1.123,2.452l1.907-0.837l-0.869-3.876l3.794-5.776l-4.81-4.841l-4.239,1.725l-3.391-1.725l1.907-2.5l-3.455-1.519
		l3.158-1.725l-2.882-2.975l-5.489,0.949l-3.434-2.896l-4.811-0.332l-2.946,0.807l0.785,1.788l-6.38,0.618l-0.89,2.089l-4.429-1.234
		l-0.212,1.978l-2.882-4.082l-3.306-0.396l-3.814,3.908l-1.336-5.68l6.527-3.798l1.887-5.584l-4.493-7.706l-9.685-5l-4.133-5.586
		l0.318-3.147l-8.074-6.219l2.945-2.104l-0.615-5.315l3.455-1.503l-5.425-4.146l0.678-3.702l7.608-0.348l3.815-2.437l-2.269-5.111
		l1.42-3.322l-2.5-2.201l1.377-4.825l-3.582-7.214l10.215-3.292l0,0l0.763-0.079l0,0L781.019,477.948z M871.388,651.614
		L871.388,651.614l-0.679,0.27l0,0l-0.763,1.012l0,0l-3.2,4.32l1.377,4.13l8.584,1.076l3.2-6.203l4.195-1.472l0,0l-0.062-0.538l0,0
		l-6.168-2.8l0,0l-1.06-0.918l0,0l-0.911-0.079l0,0l-0.362-0.696l0,0l-2.712,1.63L871.388,651.614z"/>
</g>
</svg>
