<?xml version="1.0" encoding="iso-8859-1"?>
<!-- Generator: Adobe Illustrator 19.0.0, SVG Export Plug-In . SVG Version: 6.00 Build 0)  -->
<svg version="1.1" id="Layer_1" xmlns="http://www.w3.org/2000/svg" xmlns:xlink="http://www.w3.org/1999/xlink" x="0px" y="0px"
	 viewBox="0 0 512 512"  style="enable-background:new 0 0 512 512;" xml:space="preserve">
<g>
	<g>
		<path d="M332.568,386.736l58.641-58.444C427.833,291.938,448,243.542,448,192C448,86.135,361.875,0,256,0S64,86.135,64,192
			c0,51.542,20.167,99.938,56.792,136.271l58.651,58.465C108.042,391.935,21.333,406.729,21.333,448c0,59.385,179.625,64,234.667,64
			s234.667-4.615,234.667-64C490.667,406.732,403.966,391.936,332.568,386.736z M170.667,192c0-47.052,38.271-85.333,85.333-85.333
			s85.333,38.281,85.333,85.333S303.062,277.333,256,277.333S170.667,239.052,170.667,192z M256,469.333
			c-93,0-155.229-11.76-181.292-21.333c22.544-8.281,72.262-18.167,145.436-20.693l28.335,28.245
			c2.063,2.073,4.792,3.115,7.521,3.115c2.729,0,5.458-1.042,7.521-3.115l28.34-28.245c73.173,2.526,122.887,12.413,145.431,20.693
			C411.229,457.573,349,469.333,256,469.333z"/>
	</g>
</g>
<g>
</g>
<g>
</g>
<g>
</g>
<g>
</g>
<g>
</g>
<g>
</g>
<g>
</g>
<g>
</g>
<g>
</g>
<g>
</g>
<g>
</g>
<g>
</g>
<g>
</g>
<g>
</g>
<g>
</g>
</svg>
