<?xml version="1.0" encoding="iso-8859-1"?>
<!-- Generator: Adobe Illustrator 19.0.0, SVG Export Plug-In . SVG Version: 6.00 Build 0)  -->
<svg version="1.1" id="Capa_1" xmlns="http://www.w3.org/2000/svg" xmlns:xlink="http://www.w3.org/1999/xlink" x="0px" y="0px"
	 viewBox="0 0 512 512" style="enable-background:new 0 0 512 512;" xml:space="preserve">
<g>
	<g>
		<path d="M399.292,267.208c-15.747-29.813-40.315-55.432-69.275-73.206l-8.746-67.596c25.003-19.539,41.396-49.624,41.396-83.74
			C362.667,13.354,307.375,0,256,0S149.333,13.354,149.333,42.667c0,34.118,16.395,64.204,41.401,83.743l-8.772,67.612
			c-28.947,17.758-53.506,43.361-69.254,73.186c-6.729,12.719-7.896,28.198-3.229,42.448c4.271,13.031,13.146,23.604,24.323,29.021
			c33.534,16.259,71.794,21.91,102.813,23.444L245.354,502c0.354,5.625,5.01,10,10.646,10c5.635,0,10.292-4.375,10.646-10
			l8.74-139.879c31.018-1.534,69.277-7.184,102.802-23.434c11.188-5.427,20.063-16,24.333-29.031
			C407.188,295.406,406.021,279.927,399.292,267.208z M170.667,42.667c0-5.479,29.344-21.333,85.333-21.333
			s85.333,15.854,85.333,21.333C341.333,48.146,311.99,64,256,64S170.667,48.146,170.667,42.667z M176.262,72.246
			c20.835,8.876,50.9,13.087,79.738,13.087s58.904-4.211,79.738-13.087C323.651,104.701,292.613,128,256,128
			S188.349,104.701,176.262,72.246z M308.729,195.75c-6.854,5.792-24.302,17.583-52.729,17.583c-28.49,0-45.948-11.969-52.729-17.76
			l7.357-56.751c13.82,6.553,29.089,10.512,45.372,10.512c16.279,0,31.543-3.956,45.359-10.505L308.729,195.75z M382.25,303.01
			c-2.479,7.563-7.354,13.563-13.365,16.479c-29.063,14.083-69.156,21.844-112.885,21.844s-83.823-7.76-112.896-21.854
			c-6-2.906-10.875-8.906-13.354-16.469c-2.875-8.781-2.219-18.208,1.813-25.844c13.475-25.509,35.15-48.23,59.872-63.871
			c10.413,8.332,31.776,21.371,64.565,21.371c32.918,0,54.329-13.04,64.684-21.293c24.673,15.652,46.299,38.344,59.754,63.793
			C384.469,284.802,385.125,294.229,382.25,303.01z"/>
	</g>
</g>
<g>
</g>
<g>
</g>
<g>
</g>
<g>
</g>
<g>
</g>
<g>
</g>
<g>
</g>
<g>
</g>
<g>
</g>
<g>
</g>
<g>
</g>
<g>
</g>
<g>
</g>
<g>
</g>
<g>
</g>
</svg>
