<?xml version="1.0" encoding="iso-8859-1"?>
<!-- Generator: Adobe Illustrator 19.0.0, SVG Export Plug-In . SVG Version: 6.00 Build 0)  -->
<svg version="1.1" id="Layer_1" xmlns="http://www.w3.org/2000/svg" xmlns:xlink="http://www.w3.org/1999/xlink" x="0px" y="0px"
	 viewBox="0 0 512 512" style="enable-background:new 0 0 512 512;" xml:space="preserve">
<g>
	<g>
		<path d="M488.939,482.26l-54.875-128c-3.354-7.844-11.063-12.927-19.604-12.927h-58.591
			c36.915-50.365,70.798-112.298,70.798-170.667C426.667,76.563,350.104,0,256,0S85.333,76.563,85.333,170.667
			c0,58.368,33.883,120.302,70.798,170.667H97.541c-8.542,0-16.25,5.083-19.604,12.927l-54.875,128
			c-2.833,6.594-2.146,14.167,1.792,20.146c3.958,5.99,10.646,9.594,17.813,9.594h426.669c7.167,0,13.854-3.604,17.813-9.594
			C491.084,496.427,491.772,488.854,488.939,482.26z M256,85.333c47.063,0,85.333,38.281,85.333,85.333
			C341.333,217.719,303.063,256,256,256s-85.333-38.281-85.333-85.333C170.667,123.615,208.937,85.333,256,85.333z M75.02,469.333
			L111.603,384h78.458c30.34,35.241,56.176,58.885,58.793,61.25c2.042,1.833,4.583,2.75,7.146,2.75c2.563,0,5.104-0.917,7.146-2.75
			c2.617-2.365,28.453-26.009,58.793-61.25h78.458l36.583,85.333H75.02z"/>
	</g>
</g>
<g>
</g>
<g>
</g>
<g>
</g>
<g>
</g>
<g>
</g>
<g>
</g>
<g>
</g>
<g>
</g>
<g>
</g>
<g>
</g>
<g>
</g>
<g>
</g>
<g>
</g>
<g>
</g>
<g>
</g>
</svg>
